<svg xmlns="http://www.w3.org/2000/svg" viewBox="0 0 715.77 984.77"><defs><style>.cls-1{fill:#edbb98;}.cls-2{fill:#dba37d;}.cls-3{fill:#ad7957;}.cls-4{fill:#e09b6c;}.cls-5{fill:#845f4d;}.cls-6{fill:#f8f8f8;}.cls-7{fill:#dda38c;}.cls-8{fill:#f9fffc;}.cls-9{fill:#e5917f;}.cls-10{fill:#efc6ab;}.cls-11{fill:#eda38e;}.cls-12{fill:#968141;}.cls-13{fill:#ffe08c;}.cls-14{fill:#fff;}.cls-15{fill:#efd084;}</style></defs><title>cecilia</title><g id="Capa_2" data-name="Capa 2"><g id="Illustration"><g id="Body_04"><path id="Neck" class="cls-1" d="M344.21,984.77c60.42,0,111.3-142.69,126.62-193.41H420.36v-70.8H268.06v70.8H217.59C232.91,842.08,283.79,984.77,344.21,984.77Z"/></g><path id="Neck-2" data-name="Neck" class="cls-1" d="M246.6,685.77v87.62l18.51,83.19c26.84,8.2,131.9,8.2,158.74,0l18.51-83.19V685.77Z"/><g id="ears"><path class="cls-2" d="M143.52,453.4l-.28-108.27a5.13,5.13,0,0,0-4.3-5l-27.41-4.46a5,5,0,0,1-1.25-.38c-54.5-24.19-33.44,28-25.7,68C95,457,105.47,482.45,117.21,487.55a4.86,4.86,0,0,0,3.52.07l19.84-6.79a5.13,5.13,0,0,0,3.45-5.09C143.7,468.36,143.52,460.91,143.52,453.4Z"/><path class="cls-3" d="M139.16,377.62h-16.4c-9.34,0-17,13.86-17,30.8h0c0,16.93,7.64,30.79,17,30.79h16.4Z"/></g><g id="Face_01"><g id="ears-2" data-name="ears"><path class="cls-2" d="M540.58,448.73l.29-113.28,32.34-5.3c55.26-25,34.08,27.71,26.31,68.16-10.93,56.9-22,82.25-34.5,85.42l-25.12-8.66Q540.56,462,540.58,448.73Z"/><path class="cls-3" d="M539.83,371.28h16.41c9.34,0,17,13.94,17,31h0c0,17-7.63,31-17,31H539.83Z"/></g><path id="Face" class="cls-1" d="M382.9,23.58,290.13,25.9C196.32,51.11,118.25,101,118.25,222.57L150.68,602.2c9.25,31.43,72.5,61.92,106.67,104L255.7,835.41,442.36,741.5l-20.94-42.31c47.84-41.42,93.36-82.46,108.06-105l31.25-373.32C560.73,99.26,487.13,54.82,382.9,23.58Z"/><path id="Shadow" class="cls-4" d="M346.14,733.28c-48.66.87-65.5-18.5-99.36-38.9v38.9c16.38,9.09,71.81,39.12,101.13,39.12,28.91,0,60.09-25.23,94.45-45.73V680.93C403.84,715.61,375,732.77,346.14,733.28Z"/><path id="nose" class="cls-2" d="M337.54,513.62c-16.28-1.15-24.21-5.88-29.46-9.56a1,1,0,0,0-1.44.34c-.24.47-.19,1.07,1,1.57,1.35.59,23.38,22.89,33,22.92,9.42,0,20.68-12.78,27-19.64,2.88-3.14.67-5.53-1.66-2.86C362.07,510.89,343.32,514,337.54,513.62Z"/><g id="Brows"><path class="cls-2" d="M225.78,279.07c4.12.06,50.18,5.86,50.11,9.36s.62,9.94-3.44,9.94c0,0-2.63,4.59-2.68,4.59-16.23-.23-41.92-12.13-53.64-10.26-2.23.35-17.06.71-22.94,3.21-1.07.45-1.54,0-12.58,6.07-2.73,0,1.31,2.22,0,0-1.84-3.14,9.45-12.22,13.1-13.88"/></g></g><g id="Mouth"><path class="cls-5" d="M340.78,573c-28.4,4-42.93-.93-60.8-5.26,4.85,35,35.15,57.68,59.4,54.83,35.26-4.14,55.95-18.34,58.89-53.59C381.37,570.91,376.15,568,340.78,573Z"/><path class="cls-6" d="M391.05,569.08c1.29-2.45-8-3.29-8-3.29-15,7.61-21.23,1.37-44.77,1.32s-27.6,5.56-42.56-2.13c0,0,2.53,5.72-12,.58-2.16-.77,25.26,18.52,54.57,18.59C369.05,584.22,390,571.12,391.05,569.08Z"/></g><g id="Eye_R"><path class="cls-7" d="M266.32,367.8a40.7,40.7,0,0,1-40.7,40.7c-22.47,0-44-33.47-40.7-40.7,9.24-20.49,18.23-40.7,40.7-40.7A40.7,40.7,0,0,1,266.32,367.8Z"/><path class="cls-8" d="M262.87,376.2c0,19-18.38,27.07-37.41,27.07s-36.77-8-36.77-27.07,17.91-33.63,36.93-33.63S262.87,357.17,262.87,376.2Z"/></g><g id="Eye_R-2" data-name="Eye_R"><path class="cls-7" d="M489.52,368.79c5.72,10.68-18.22,40.7-40.7,40.7a40.7,40.7,0,1,1,0-81.4C471.3,328.09,478.9,349,489.52,368.79Z"/><path class="cls-8" d="M485.2,378.74c0,19-18.09,24.53-37.12,24.53s-39.43-5.5-39.43-24.53,19.64-34.66,38.67-34.66S485.2,359.72,485.2,378.74Z"/></g><path id="nose-2" data-name="nose" class="cls-9" d="M341,597.73c-17.93-.54-25.91-1.5-40.32-6.16-5.19-1.67-16-9.1-15.84-4.14.33,13.83,26,37.1,50.51,37.22,40.61.2,42.6-11.26,51.88-22.95,2.06-2.6,8.37-13.23,4.06-9C397.32,586.74,359.83,598.31,341,597.73Z"/><path id="nose-3" data-name="nose" class="cls-9" d="M340.93,560.62c-7.95-.55-11.68-9.37-20.45-6.07-17.79,6.7-33.05,10.52-39.55,11.63-7.55,1.29,24.92,10.51,51.22,10.5,26.7,0,68.82-5.88,67-7.36-5.24-4.17-7.2-3.27-32.35-14.92C353.53,548.27,349.86,561.23,340.93,560.62Z"/><path class="cls-10" d="M342.36,707.31l.33-15.89H314.57c-24.06,3-25.28,24.78-13.57,29.63,8.44,3.51,17.23,7.39,39.82,6.55"/><path class="cls-2" d="M377.9,670.85c-27.25,14.63-40.95,15-73.26,0"/><path class="cls-2" d="M356.79,545.18a8.21,8.21,0,0,0-2.06.7c-10.4,7.15-16.8,8.11-30.19-.7"/><path class="cls-2" d="M285.21,512.66c-11,21.74-94.27,76.37-12,3.86,3.77-3.32,16.35-30.85,15.39-21.08"/><path class="cls-10" d="M287.6,459.07c21.44-59.22,8.66-20.19-53.34-2.89l-52.09-5.63-21.42-47.42c-.42-.65.76-4.24,0-4.43-9.6-2.39-12.72,52.51-9.62,66.69l11.33,29.69c14.37,16.1,1.6,12,19,27.35l17.37,3.43,24.5,3C262,518.73,272.67,500.3,287.6,459.07Z"/><path class="cls-11" d="M258,440.35c.9-13.16-17.24-19.85-38.72-20.13v0H196.8c-9.6,0-17.46,9.07-17.46,20.15h0c0,11.09,7.86,20.15,17.46,20.15h22.44C240.72,460.2,257,455.14,258,440.35Z"/><path class="cls-12" d="M463.2,374.22a10.24,10.24,0,0,1-3.41-19.34,23.29,23.29,0,1,0,10.42,19.41c0-.6,0-1.19-.09-1.77A10.27,10.27,0,0,1,463.2,374.22Z"/><path class="cls-12" d="M241.71,374a10.24,10.24,0,0,1-3.41-19.34A23.29,23.29,0,1,0,248.72,374c0-.6,0-1.18-.09-1.77A10.27,10.27,0,0,1,241.71,374Z"/><path class="cls-13" d="M136.31,434c4.59-118.1-1.63-259,65.84-311.66,31.69-24.75,93.74-37.11,116.09-34.25.18,0,17.37,0,17.56,0,154.58,11.35,182.6,6.5,194.67,333.28,0,0,.73,27.32-7,136.19-6.92,2-7.24,30.47-8.27,33.71a5.72,5.72,0,0,1-.24.57c-3.35,6.44-2.64,3-6.39,15.66,1.15.62-1.7,14.45-1.37,16.21C510.05,639,510,654.27,509,669.52q.49,5.61,1,11.24a5.76,5.76,0,0,1,.83,3.14v6.78c2.07,26.56,2.73,53.45-4.72,78.67a5.38,5.38,0,0,1-2.19,3.07c-6.76,18.11,20.79-3.21-2,9.62-3.81,2.15,4,10.16-4.63,6.62-32.84-13.49,78.27,24.61,82.84-77.57a4.12,4.12,0,0,1,7.84-1.64c7.92,17,15,50.73-17.52,96.35l1.33-1.08c33.75-27.56,49.72-57.48,60.86-98.06,5.7-20.77-15.84-47.1-14.28-63.67.29-3.1.29-3.1,38.62-4.26-4.79-9.88-10.79-22.71-10.17-36.53,3.7-82.67-45.53-198.64-50.47-340C582.64,173.32,525.65,36,338.54,24.67c-163.23-9.92-278,151.65-290,233.43C49.46,365.73,39.63,478,34.94,528.89,32.63,554,19,578,11.36,596.43q.86,12,2.05,23.92a4.19,4.19,0,0,0,1-2.14l.15-.76a4.13,4.13,0,0,1,8.19.71c2.1,100.72,42.32,152.22,66.46,174.16,3.45,3.14,8.56-1,6.38-5.14-19-36.21-12.79-63.16-6-77.73,1.84-3.93,5.65-2.12,7.85,1.64,31.8,54.3,20.76,38.56,53.54,57.1,0,0,14.07,19.18,13.52,15.59-4.39-28.32-18.49-73.5-17.29-102.18a5.63,5.63,0,0,1,1.11-3.23c.23-43.17,8.39-82,.07-125.29-.16-.85-3-7.8-2.7-8.62"/><path class="cls-13" d="M673.6,649.88l.54,3.68c.06.41,0,.81.09,1.21A9.79,9.79,0,0,0,673.6,649.88Z"/><path class="cls-13" d="M668.56,638.73a98.23,98.23,0,0,1,5,11.15c-.35-2.39-.69-4.78-1.05-7.18A4.5,4.5,0,0,0,668.56,638.73Z"/><path class="cls-5" d="M627.36,346.75c-31.75-232-131.24-285.56-203.88-309.58-25.56-8.45-57.65-13.1-85.54-12.39l6.5-.11S339,18.43,339,18.43h-.11l-14.33,5.15c-27.89-.72-14.26-4.88-61.67,10.56C195.7,56,82.35,114.71,50.6,346.75,33,475.25,18.27,618.85,69.29,681.15c0,0-36.92-64.21-19.75-212.08C90.94,112.61,228,33.83,339,33.65c111,.18,253.57,53.23,279.74,434.1,10.21,148.52-10,213.4-10,213.4C659.7,618.85,645,475.25,627.36,346.75Z"/><path class="cls-5" d="M587.52,347.14C560.15,145.32,472,92.66,409.44,71.77a207.33,207.33,0,0,0-70.36-10.18h0a.33.33,0,0,1-.1,0,.33.33,0,0,1-.1,0h0a207.31,207.31,0,0,0-70.35,10.18C205.92,92.66,117.81,145.32,90.44,347.14,75.28,458.91,62.58,583.81,106.55,638c0,0-15.31-35.37-15.61-164.84C90.17,142.23,188.69,63.78,339,74.82c177.49,13,226.22,47.8,248.78,379.07C596.55,583.07,571.41,638,571.41,638,615.39,583.81,602.68,458.91,587.52,347.14Z"/><path class="cls-13" d="M80,671.41C68.33,647.83,56.54,624,49.79,598.48c-7-26.46-5.22-53-5.72-80.06-.52-28-5-55.63-.45-83.55,4.2-25.71,11.89-50.76,12.94-76.93.58-14.32-.26-28.66.34-43a205.67,205.67,0,0,1,6-39.7c6-25,12.69-50.72,22.67-74.48,19.12-45.56,59.11-77.9,97.71-106.75,44.94-33.6,100.35-63,158.23-50.87,7.48,1.57,10.67-9.91,3.17-11.48-52.87-11-105.13,9.46-148.53,38.63a615.93,615.93,0,0,0-60.64,47c-18.48,16.12-35.84,34-48.73,55-14.31,23.32-21.73,49.91-29,76-3.73,13.36-7.43,26.76-9.84,40.44a233.52,233.52,0,0,0-3.13,41.84c.06,14.2.43,28.41-1.36,42.53-1.72,13.6-5,27-7.79,40.37-2.8,13.25-5.27,26.63-6,40.17-.75,14.41.49,28.82,1.47,43.19,2.19,31.93-1.63,64.44,5.08,95.95,6.35,29.84,20.09,57.49,33.56,84.63,3.41,6.87,13.68.84,10.28-6Z"/><path class="cls-13" d="M388.4,74.69c-58-23-129.58-18.13-179.56,21.12C186.34,113.49,168.93,136.89,154,161A722.41,722.41,0,0,0,109.61,244C94.7,277,83.4,311.45,79.72,347.62L91.41,346c-7-48.45,6.82-97.27,29.42-139.89a388.55,388.55,0,0,1,41.19-62c15-18.52,31.78-36.08,52.25-48.56C238.7,80.71,267,74.27,294.94,69.8c7.54-1.21,4.34-12.69-3.17-11.48-26.15,4.19-52.35,10.22-75.93,22.7-22.65,12-41.53,30-57.9,49.46-32.56,38.79-59.81,84-72.71,133.27a215.36,215.36,0,0,0-5.3,85.45c1,7.14,11.07,4.53,11.69-1.58,6.18-60.68,35.2-117,65.57-168.87,13.81-23.59,29.23-46.61,49.35-65.33C228.15,93.3,254.65,81,283.61,75.68c34.06-6.25,69.51-2.25,101.63,10.49,7.12,2.83,10.21-8.68,3.16-11.48Z"/><path class="cls-13" d="M362.92,60.7c62.44-8.6,119.11,37.57,158,81.08,21.42,24,38.86,51.24,47.59,82.39,9.23,33,10.22,67.58,12.27,101.56q3.76,62.11,7.51,124.24c.38,6.25,10.62,8.6,11.69,1.58a423.77,423.77,0,0,0-45.48-265l-8.14,8.15c23.91,18,34.78,47.94,43,75.55,10.11,33.76,16.7,68.52,21.3,103.44s7.34,70.15,10,105.31c1.37,18.35,2.88,36.72,3,55.13s-1.85,36.91-4.49,55.25c-5.93,41-12.25,82-18.39,123l11.7,1.58c-4-69.35-.51-138.81,4.69-208l-11.69,1.58A222.28,222.28,0,0,1,610,558.78c-.18,6.59,10.37,8.27,11.69,1.59,14.07-71.2-3.73-142.52-17.38-212.28-4-20.46-7.68-41-10.12-61.69L582.46,288a853.08,853.08,0,0,1,16.08,101.39c.75,7.76,10.92,7.54,11.91,0a234.61,234.61,0,0,0-1.06-67c-1-6.55-12.56-5.08-11.69,1.59a542.55,542.55,0,0,1,4.42,83.54l11.7-1.58a95.38,95.38,0,0,0-25.92-39,6,6,0,0,0-10.16,4.21,622.79,622.79,0,0,0,3.12,79.4c.79,7.57,11.32,7.74,11.91,0l1.61-21.07-11.09,3a78.87,78.87,0,0,1,14.4,37.08c.82,7.45,11.76,7.85,11.91,0a61.56,61.56,0,0,0-9.79-34.6c-3.71-5.74-12.28-2-10.88,4.59,10.52,49.88,21,100.38,17.47,151.64h11.91l2-66.94c.19-6.47-7.82-7.32-11.09-3A17.92,17.92,0,0,0,606.41,537c2,7.39,13.5,4.25,11.48-3.16-.74-2.73-.08-4.46,1.57-6.64l-11.09-3-2,66.94c-.22,7.72,11.39,7.58,11.91,0,3.54-52.26-7.18-103.95-17.9-154.81L589.53,441a50.09,50.09,0,0,1,8.16,28.59H609.6a90.79,90.79,0,0,0-16-43.09c-3.46-4.88-10.63-3.06-11.1,3l-1.61,21.07h11.91a624.64,624.64,0,0,1-3.13-79.4l-10.16,4.21a82.83,82.83,0,0,1,22.85,33.76c2.22,6.18,11.53,5.39,11.7-1.58A542.55,542.55,0,0,0,609.61,324l-11.7,1.58a224.09,224.09,0,0,1,.63,63.82h11.91a878.85,878.85,0,0,0-16.51-104.55c-1.41-6.43-12.48-5.16-11.69,1.58,8.32,70.56,31,139.33,32.72,210.68a276,276,0,0,1-4.79,60.12l11.69,1.58a235.76,235.76,0,0,0-5-54.49c-1.44-6.93-11.22-4.76-11.69,1.58-5.2,69.19-8.72,138.65-4.7,208,.36,6.27,10.64,8.6,11.69,1.59q8.47-56.62,16.95-113.25c2.79-18.65,5.54-37.37,6.18-56.25.65-19.16-.64-38.31-2.06-57.41-5.35-72.2-10.6-145.26-30.57-215.19-9.45-33.08-21.88-67.57-50.37-89-5.09-3.82-10.71,3.36-8.15,8.14A414,414,0,0,1,593,390a404.92,404.92,0,0,1-4.55,58.41l11.7,1.59q-3.49-57.69-7-115.37c-2.17-35.84-2.93-72.45-11.62-107.47-8.15-32.79-25-61.73-46.71-87.38-21-24.82-45.59-47.59-73.21-64.9C431.11,55.69,396,44.23,359.75,49.22c-7.55,1-4.34,12.51,3.17,11.48Z"/><path class="cls-13" d="M124.44,619.44c-13.36-19.25-19.36-42.12-22.16-65.14-3.15-25.87-3.65-52.18-3.46-78.21.41-55.2,6-110.24,13.89-164.82,4.42-30.55,9.52-61,14.81-91.4,1.31-7.49-10.16-10.71-11.48-3.16C106.38,272.2,97.35,327.86,91.94,384c-5.27,54.67-7.85,110.61-2.12,165.37,2.79,26.73,8.78,53.71,24.34,76.13,4.34,6.26,14.66.31,10.28-6Z"/><path class="cls-13" d="M75.28,337.79a626.1,626.1,0,0,1-10,73c-1.47,7.49,10,10.69,11.49,3.17a656.27,656.27,0,0,0,10.38-76.22c.58-7.64-11.33-7.61-11.91,0Z"/><path class="cls-13" d="M335.93,42c9.2,1.15,18.46,2.09,27.63,3.52,7.16,1.11,14.25,2.77,18.9,8.76s13.06-2.43,8.42-8.42c-5.48-7-14.17-10.11-22.69-11.59-10.66-1.84-21.52-2.83-32.26-4.18-7.58-1-7.51,11,0,11.91Z"/><path class="cls-13" d="M293.85,84.07c23.7-3.66,50.6-14.77,74.2-5.48,7.13,2.81,10.23-8.7,3.17-11.48C345.47,57,316.51,68.6,290.69,72.59c-7.55,1.16-4.34,12.64,3.16,11.48Z"/><path class="cls-13" d="M398.67,65.62c6.78,1,11.64,6.36,11.29,13.32-.38,7.66,11.52,7.64,11.91,0,.59-11.71-8.32-23.09-20-24.81-3.17-.46-6.39.79-7.32,4.16-.77,2.8,1,6.86,4.16,7.33Z"/><path class="cls-13" d="M378.5,88.84a91.62,91.62,0,0,1,48.89,8.7c6.85,3.35,12.9-6.91,6-10.28a103.28,103.28,0,0,0-54.9-10.33c-7.57.7-7.64,12.61,0,11.91Z"/><path class="cls-13" d="M363.3,39.74C411.2,50.61,457.6,71.35,495,103.6a230.09,230.09,0,0,1,47.39,55.88c14.15,23.63,23.87,49.5,31.18,76,8.15,29.5,13.39,59.7,18.53,89.84,1.28,7.54,12.76,4.35,11.48-3.16-9.4-55.12-19.32-111.7-46.64-161.25-24.88-45.1-64.44-80.2-110-103.61a341.19,341.19,0,0,0-80.47-29C359,26.56,355.82,38,363.3,39.74Z"/><path class="cls-13" d="M77.36,366.28a357.65,357.65,0,0,0,4.58-47.44H70c1.13,17.09-2.24,33.71-6.23,50.25-4,16.74-8,33.38-10.28,50.47-4.65,34.44-4.67,69.22-4.62,103.9,0,7.71,11.48,7.61,11.91,0q3.09-54.92,6.83-109.78c2.34-35,3.63-70.35,7.88-105.2,2.3-18.92,6.37-37.66,13.66-55.31l-11.69-1.58A226.72,226.72,0,0,1,63.23,333.3l11.69,1.59a235.55,235.55,0,0,1,29.29-114.44,277.79,277.79,0,0,1,74.68-85.84c16.68-12.55,35-22.87,54.91-29.39,7.25-2.38,4.15-13.88-3.16-11.48-37.76,12.38-70.22,37.08-96.76,66.21-27.65,30.33-49.36,65.3-61,104.86A246.94,246.94,0,0,0,63,334.89c0,7,9.43,7.67,11.69,1.58a236.32,236.32,0,0,0,14.68-84.88c-.08-7.17-9.25-7.49-11.69-1.59-13,31.48-15.3,65.82-17.6,99.42q-3.8,55.36-7.4,110.74-2,31.63-3.8,63.3H60.81c-.06-34.86-.22-70,4.72-104.55,4.76-33.27,18.65-66.08,16.41-100.07-.5-7.6-11.69-7.73-11.91,0a333.66,333.66,0,0,1-4.15,44.28c-1.23,7.49,10.24,10.72,11.48,3.16Z"/><path class="cls-13" d="M333.75,72.94c11.06,8.32,25,9.65,38.39,10.56C388,84.58,403.27,87.05,418,93.27c3,1.26,6.34.88,8.14-2.13,1.49-2.48.83-6.9-2.13-8.15a143.62,143.62,0,0,0-45.53-11c-13.39-1-27.52-.92-38.73-9.36-6.12-4.6-12.06,5.73-6,10.28Z"/><path class="cls-13" d="M329,40.3a122.77,122.77,0,0,1,49.54,7.44l3.16-11.48a352.11,352.11,0,0,0-72.64-6.68V41.49c29.08-1,58.52-1.86,86.92,5.55l3.16-11.48a324.09,324.09,0,0,0-54-6.15c-7.67-.22-7.66,11.69,0,11.91A305.35,305.35,0,0,1,396,47c7.44,1.48,10.66-9.52,3.16-11.48-29.43-7.68-59.93-7-90.08-6-7.63.25-7.69,12,0,11.91a336.13,336.13,0,0,1,69.48,6.25,6,6,0,0,0,3.16-11.48A131.52,131.52,0,0,0,329,28.4c-7.62.42-7.67,12.33,0,11.9Z"/><path class="cls-13" d="M592.42,438.29c-3.73,19.1,1.78,37.78,4.79,56.57a365.86,365.86,0,0,1,4.48,55.8,374.21,374.21,0,0,1-16.66,112c-2.27,7.34,9.22,10.48,11.48,3.16a382.14,382.14,0,0,0,13.28-166.76c-2.62-18.71-9.59-38.65-5.88-57.59,1.46-7.49-10-10.69-11.49-3.17Z"/><path class="cls-13" d="M579.72,436.3c18.94,40.31,17.9,86.31,29.33,128.74,2,7.39,13.48,4.26,11.49-3.16-11.75-43.61-11.06-90.13-30.54-131.59-3.26-6.93-13.52-.89-10.28,6Z"/><path class="cls-13" d="M409.26,89.86c14.56,1,27.18,9.33,39.11,17,6.46,4.16,12.44-6.14,6-10.28-13.92-9-28.23-17.43-45.12-18.65-7.65-.56-7.61,11.35,0,11.9Z"/><path class="cls-13" d="M444.26,103.69c15.33,15.85,34.79,26.35,53,38.48,16.73,11.15,33.43,25.1,40.18,44.71,2.47,7.2,14,4.11,11.48-3.16-15.48-45-65.75-57-96.22-88.45-5.33-5.52-13.75,2.91-8.41,8.42Z"/><path class="cls-13" d="M144.44,163.73c.23,5.36-5.65,11.6-8.25,16.11q-4.87,8.49-9.07,17.36a257.47,257.47,0,0,0-13.88,36.35l11.7,1.58c-.48-7.26,3.16-14.24,5.8-20.83a169.26,169.26,0,0,1,9.44-20.25c6.5-11.52,15.23-21.47,27.37-27.14,6.94-3.23.9-13.5-6-10.28-13.84,6.46-24.23,18.29-31.64,31.41a193.61,193.61,0,0,0-10.64,23.09c-3.09,7.7-6.79,15.51-6.23,24,.44,6.57,9.71,8.24,11.7,1.58a237.12,237.12,0,0,1,15-38.31q4.37-8.76,9.45-17.15c3.34-5.51,7.45-10.76,7.16-17.52-.32-7.64-12.23-7.68-11.91,0Z"/><path class="cls-13" d="M327.85,67.25c29.82,4.4,60.11,6.43,89.47,13.61,6.48,1.59,13.37,3,19.31,6.18s11.22,7.48,16.49,11.69c10.42,8.31,22.09,14.71,32,23.68,10.82,9.79,20.59,20.84,30.19,31.8,9.75,11.12,18.13,23,23.72,36.78,10.93,26.86,13.68,56.66,17.49,85.16,4.9,36.55,8.7,73.43,6.07,110.33H574.5a1258.52,1258.52,0,0,0-7-140.37l-9,5.14c8.24,3.91,10.7,13,12.26,21.34,2.3,12.22,3.47,24.74,4.82,37.09q4.3,39.3,5.77,78.82l11.7-1.58c-9.64-43.29-13.82-87.46-17.92-131.55-.7-7.51-12.33-7.74-11.9,0l6.71,121.94,11.7-1.58A343,343,0,0,1,573.3,310c-.22-7.64-12.13-7.68-11.9,0a359.74,359.74,0,0,0,8.76,68.87c1.47,6.48,12.06,5.16,11.69-1.58l-6.72-121.94h-11.9c4.19,45.13,8.47,90.4,18.34,134.72,1.45,6.53,11.94,5.13,11.69-1.59q-1.65-43.44-6.66-86.68c-1.46-12.5-2.33-25.56-5.55-37.77-2.49-9.45-7.36-18.72-16.54-23.08-3.62-1.71-9.48.24-9,5.14a1258.52,1258.52,0,0,1,7,140.37c0,7.74,11.37,7.57,11.91,0,2.41-33.92-.6-67.85-4.91-101.49-3.88-30.24-6.56-61.84-16.68-90.78-10-28.67-30.17-51.06-51.2-72.36a171.82,171.82,0,0,0-16.74-15c-5.5-4.29-11.52-7.68-17.19-11.71-11-7.83-20.44-17.56-33.56-21.89-33.15-11-68.89-12.37-103.21-17.43-7.49-1.1-10.73,10.37-3.16,11.48Z"/><path class="cls-13" d="M390,47.5c45.49,7.56,85.52,32.87,116.33,66.6,34.25,37.5,55.51,84.71,68.71,133.32,8,29.28,13.17,59.23,17,89.31.94,7.5,12.86,7.59,11.91,0-6.92-55-18.22-110-42.16-160.33C540.6,131.92,508.8,92.11,467.2,65.22c-22.44-14.51-47.64-24.81-74-29.2-7.49-1.24-10.71,10.23-3.16,11.48Z"/><path class="cls-13" d="M548.29,180.53c21.06,22.77,33.49,51.56,42.47,80.89,9.92,32.38,17.12,65.73,24.33,98.79,15.54,71.28,27.56,144.07,27.91,217.21.15,31.08-3,66.2-26.79,88.91l10.16,4.21c-3.78-32.55,2.79-64.69,8.1-96.67a553,553,0,0,0,7.3-97.7c-.24-18.55-1.21-37.09-2.51-55.6-.54-7.6-12.45-7.65-11.91,0,2.29,32.45,3.52,65,1.66,97.53-1.89,32.92-8.94,64.91-13.22,97.52-2.39,18.23-3.46,36.61-1.33,54.92.58,5,6.15,8.05,10.17,4.21,21.85-20.89,28.47-51.43,29.93-80.56,1.81-36-1.52-72.61-5.74-108.32-4.48-37.83-11-75.38-18.8-112.66-7.43-35.59-15.24-71.34-25.23-106.32-9.8-34.35-23.52-68.22-48.08-94.78-5.21-5.64-13.62,2.8-8.42,8.42Z"/><path class="cls-13" d="M55.73,353.27c-11.1,80.17-22.28,161.31-13.54,242.3.81,7.54,12.73,7.62,11.9,0-8.61-79.92,2.16-160,13.12-239.14,1-7.49-10.43-10.73-11.48-3.16Z"/><path class="cls-13" d="M70,360c-6.28-20.2,5.41-39.93,16.15-56.3s21.63-32.82,23.38-52.84c.46-5.34-6.72-7.57-10.17-4.21-28,27.29-43.66,63.7-56.36,100l11.48,3.16a897.24,897.24,0,0,1,33.86-87.41c2.56-5.7-4.45-12.63-9.35-7.21a87,87,0,0,0-22.61,56.54c-.18,7.88,11,7.37,11.91,0,5.83-45.48,32.06-87.74,70-113.44,6.31-4.27.35-14.59-6-10.28A177.1,177.1,0,0,0,56.37,311.74H68.28A74.13,74.13,0,0,1,87.4,263.62l-9.35-7.22A925.84,925.84,0,0,0,43,346.66C40.58,354,52,357,54.47,349.82c12-34.37,26.81-68.91,53.3-94.75l-10.16-4.21c-1.79,20.54-16,37.13-26.36,54-10.63,17.26-19.06,38-12.74,58.3,2.26,7.29,13.76,4.18,11.48-3.17Z"/><path class="cls-13" d="M105.06,289.67a567.42,567.42,0,0,0-44.39,71.05l10.88,4.59c2.66-12.89,11.67-22.57,20.31-31.95q14.72-16,30.33-31.07l-9.35-7.22A957,957,0,0,0,48.91,419.34c-2.91,6.84,6.27,12.82,10.28,6q30.66-52,62.71-103.19c2.55-4.07-.85-8.64-5.14-9-12.84-.93-23.18,8.5-28.43,19.44-6.57,13.69-10.24,29.13-14.92,43.54L43.5,468.14c-2.38,7.31,9.11,10.44,11.48,3.17L81.8,388.84c4.39-13.5,8.72-27,13.17-40.48,3.36-10.16,8.79-24.18,21.79-23.25l-5.14-8.95Q79.57,367.32,48.91,419.34l10.28,6a957,957,0,0,1,63.93-124.27c3.56-5.84-4.54-11.88-9.35-7.21q-17,16.42-32.88,33.85c-9.11,10-18,20.82-20.82,34.43-1.3,6.28,7.57,10.87,10.88,4.58a567.42,567.42,0,0,1,44.39-71.05c4.53-6.19-5.79-12.14-10.28-6Z"/><path class="cls-5" d="M575.92,464.3a639,639,0,0,0,6,82.23q2.8,20.28,6.93,40.35c2.17,10.55,3.31,24.56,12.2,31.93,3.22,2.67,8.89,2.1,10-2.63,12.21-54.65,10.25-110.84,8-166.4-.32-7.73-11.3-7.59-11.91,0q-6.24,78-17.5,155.58c-1.09,7.5,10.38,10.73,11.48,3.17Q612.59,529.47,619,449.78H607.09c2.21,54.45,4.41,109.67-7.56,163.24l10-2.63c-3.84-3.19-4.92-7.71-6-12.39-1.49-6.33-2.82-12.69-4.08-19.07-2.47-12.49-4.58-25-6.25-37.67a625,625,0,0,1-5.31-77c-.06-7.66-12-7.68-11.9,0Z"/><path class="cls-13" d="M598.19,458.87q-24.08,75.6-41.66,153.07l11.7,1.58q7.34-71.35,9.41-143.12H565.73q3.28,84.86,2.41,169.79c-.08,7.68,11.61,7.63,11.9,0q3.19-82.12,10.37-164h-11.9a844.4,844.4,0,0,1-2.89,151.66h11.9l2.07-169.74H577.68c5.17,58.75,7.31,117.9,1.79,176.71h11.91c-1.09-68.48-2.39-137.26-15.07-204.77-1.26-6.71-11.69-5-11.7,1.58a1308.85,1308.85,0,0,0,13.75,189.89c.83,5.69,10.63,5.67,11.48,0,10-67,20.1-134.59,15.44-202.49-.52-7.59-11.66-7.73-11.91,0q-2.58,80.06-.57,160.16c.2,7.71,11.42,7.6,11.91,0q4.71-73.65,5.8-147.45H598.6q5,79.44,5.56,159.08h11.91Q609,513.15,598.28,435.89c-.92-6.7-11.83-5-11.69,1.58a1156.8,1156.8,0,0,1-9.4,174.7H589.1c-2.81-51.92,15.35-101.5,33.11-149.41l-11.7-1.58q3.5,87.73,2.13,175.55c-.12,7.69,11.6,7.64,11.91,0q3.56-89.67,3.71-179.43c0-7.73-11.42-7.59-11.9,0L603.6,656.57h11.91q-4.93-105.68-1.15-211.49H602.45a1930.72,1930.72,0,0,1-6,203.53h11.91A1505.24,1505.24,0,0,1,619.64,478.2h-11.9A760.5,760.5,0,0,1,593,629.52l11.69,1.58q3.48-109.35,17.49-218H610.24C610.75,475,603.8,536.6,596.79,598h11.9q3.33-78.94,11.59-157.56H608.37a1022.46,1022.46,0,0,1,4.44,132.12c-.24,7.8,11.11,7.45,11.91,0q4.68-43.92,6.3-88.1h-11.9a1098.65,1098.65,0,0,1-9.68,173.2l11.7,1.58a410.73,410.73,0,0,1,18.45-103.68L627.9,554q0,65-5.53,129.74h11.91c2.42-42.77-5.73-85.46-1.46-128.2.67-6.61-10.54-8.19-11.69-1.58-6.24,36,1.23,72.14-.29,108.35-.27,6.56,10.77,8.31,11.69,1.58a873,873,0,0,0,8.2-122.72c0-7.68-11.64-7.65-11.9,0L626.71,603c-.26,7.75,11.23,7.51,11.91,0q3.76-41.68,4.47-83.54c.13-7.66-11.78-7.66-11.91,0q-.7,41.85-4.47,83.54h11.91l2.11-61.81h-11.9a852.25,852.25,0,0,1-7.78,119.56l11.7,1.58c1.47-35-6.17-70.34-.14-105.18l-11.69-1.59c-4.28,42.74,3.87,85.43,1.45,128.2-.44,7.71,11.26,7.55,11.91,0Q639.77,619,639.8,554c0-6.82-9.7-7.94-11.69-1.58a424,424,0,0,0-18.88,106.84c-.31,6.57,10.78,8.3,11.69,1.59A1118.51,1118.51,0,0,0,631,484.48c-.17-7.67-11.62-7.65-11.9,0q-1.62,44.16-6.31,88.1h11.91a1022.46,1022.46,0,0,0-4.44-132.12c-.76-7.67-11.1-7.64-11.91,0Q600.11,519,596.79,598c-.33,7.81,11.06,7.43,11.9,0,7-61.42,14-123,13.46-184.93-.07-7.89-11-7.37-11.91,0q-14,108.51-17.48,218c-.21,6.6,10.36,8.25,11.69,1.58A776.5,776.5,0,0,0,619.64,478.2c0-7.88-11-7.39-11.9,0a1502.93,1502.93,0,0,0-11.32,170.41c-.07,7.76,11.28,7.54,11.91,0a1933.41,1933.41,0,0,0,6-203.53c-.18-7.68-11.63-7.66-11.91,0q-3.78,105.72,1.15,211.49c.36,7.68,11.42,7.63,11.91,0L628.26,457.3h-11.9q-.15,89.74-3.72,179.43h11.91q1.37-87.78-2.13-175.55c-.28-6.92-9.39-7.81-11.69-1.58-18.12,48.89-36.41,99.59-33.54,152.57.42,7.85,10.94,7.44,11.91,0a1156.8,1156.8,0,0,0,9.4-174.7l-11.7,1.58q10.44,75.68,17.36,151.77c.69,7.49,12,7.79,11.91,0q-.59-79.61-5.56-159.08c-.48-7.59-11.79-7.73-11.91,0q-1.1,73.78-5.8,147.45h11.91q-2-80.07.57-160.16H593.37c4.6,66.85-5.13,133.38-15,199.32h11.48a1286.24,1286.24,0,0,1-13.32-186.72l-11.69,1.59c12.48,66.43,13.57,134.21,14.64,201.6.13,7.78,11.2,7.51,11.91,0,5.52-58.81,3.38-118-1.79-176.71-.67-7.52-11.82-7.79-11.91,0l-2.06,169.74c-.1,7.82,11.09,7.44,11.9,0a842.56,842.56,0,0,0,2.89-151.66c-.54-7.69-11.23-7.63-11.9,0q-7.17,81.85-10.37,164H580q.88-84.91-2.4-169.79c-.3-7.64-11.68-7.68-11.91,0q-2.07,71.72-9.41,143.12c-.69,6.69,10.22,8.07,11.69,1.58Q585.58,537.71,609.67,462c2.33-7.32-9.16-10.45-11.48-3.16Z"/><path class="cls-13" d="M640.38,371a162.31,162.31,0,0,0-18.56-98.55c-2.77-5.08-11.39-2.91-11.09,3A544.18,544.18,0,0,0,620,351.71l11.48-3.16-13.15-61.33c-1.65-7.67-12.5-4.2-11.48,3.16l10,71.91c1,7,11.31,4.73,11.69-1.59a234.28,234.28,0,0,0-16-100.13c-1.35-3.4-5.2-5.81-8.75-3.56-10.62,6.75,4.11,21.25,11.49,11.32,3.79-5.09,1.21-11-.93-16.2L605.58,231l-34.77-83.74c-2.88-6.94-13.08-4.53-11.48,3.16l12.07,58.4,10.88-4.59L544.87,118.8,535.52,126l39.83,38.24c4.7,4.51,13.27-1.43,9.35-7.22-25.08-37-56.6-79.22-105-83-4.22-.32-7.82,5.43-5.14,9a192.25,192.25,0,0,0,61.7,53.18c4.91,2.66,11.68-3,8.14-8.14a621.56,621.56,0,0,0-43.29-56.22c-4.51-5.22-12.6,1.46-9.35,7.21a181.19,181.19,0,0,0,39.65,48.22c5.75,4.93,14-3,8.42-8.41L489.52,69.63,482.3,79l17.44,11.87c5.52,3.76,12.52-5.1,7.22-9.35A265.75,265.75,0,0,0,339.84,23.57c-57.51.45-113.2,21.06-158.3,56.48A260.08,260.08,0,0,0,119,151.18l10.28,6C161,85.28,237.88,49.54,312.28,41.08a488.09,488.09,0,0,1,73-2.27c6.87.26,7.86-9.76,1.58-11.69C323.21,7.5,257.71,33.81,199.46,58.51l6,10.28A244.32,244.32,0,0,1,315.15,28.92c20.4-2.13,41.45-2.08,61.6,2,19.22,3.9,36.8,12,53,22.88,18.09,12.11,34.11,27,50,41.76L487,86.21C444.86,58.87,393.44,52,344.13,53.81c-47,1.69-95.32,8.86-138.73,27.48-24.22,10.38-46.61,24.89-64.86,44-4.93,5.16,1.25,12,7.21,9.35A311.82,311.82,0,0,0,238,73.85c5.59-5.39-2.65-13.31-8.42-8.42q-63.83,54.19-132.8,101.84l8.15,8.14a135.61,135.61,0,0,1,72-72.1c4.52-1.92,3.48-10.19-1.42-10.89-10.42-1.48-20.69,1.65-27.6,9.86-4.86,5.78,3.05,14,8.42,8.42L166.59,100l-9.35-7.22L83.69,214.45c-3.7,6.11,4.38,11.34,9.35,7.22a179.11,179.11,0,0,0,42.72-51.81c3.76-6.85-5.85-12.11-10.28-6l-51,70.23,10.88,4.59a227.56,227.56,0,0,1,47.53-74l-9.35-7.22A498.35,498.35,0,0,1,70.71,244l11.09,3a140.91,140.91,0,0,1,36.62-80.19l-10-5.8A391.27,391.27,0,0,1,55.8,258.83l10.28,6a363.37,363.37,0,0,1,62.32-96.27l-10-5.79A261.16,261.16,0,0,1,79,245.43L89.84,250a363.59,363.59,0,0,1,50.49-92.57l-10.88-4.59A998.73,998.73,0,0,1,84.63,256c-3.42,6.81,6.67,12.82,10.28,6l45.26-85.28-10.88-4.58A2007.13,2007.13,0,0,1,49.05,387.69l10.88,4.59a380.12,380.12,0,0,1,24.7-80.64l-11.09-3A877.81,877.81,0,0,1,72.45,461.5H84.36q-.56-84.6-2.83-169.19c-.21-7.8-11.14-7.5-11.9,0L59.18,395.45H71.09c3.25-46.13-3.06-92.66,4.13-138.55l-11.7-1.58c-1.58,30.28,6.31,60.65,1,90.78H76a614.58,614.58,0,0,1-7.19-72.54H56.9l5.38,48.86c.83,7.58,11.22,7.72,11.9,0l4.87-54.74H67.15A450,450,0,0,1,46.94,369.79l11.69,1.58a122.43,122.43,0,0,1,17.79-74.21l-11.09-3A887,887,0,0,1,63.4,458.4H75.3a832.43,832.43,0,0,1,19.38-124L83,332.81q-5.43,86.29-17.24,172l11.7,1.58A753.32,753.32,0,0,1,87.3,364.51l-11.69-1.58q4.2,85.31,2.49,170.74H90q-1.5-65.43-6.3-130.73c-.56-7.75-11.08-7.56-11.9,0Q62.6,487.68,60.89,573h11.9a419.8,419.8,0,0,1,5.32-112.91l-11.69-1.58L79,596.43H90.92L78.54,496.86c-.91-7.36-12-7.88-11.9,0q.85,58.83,5.48,117.49c.6,7.56,12.33,7.72,11.91,0l-6.64-121L65.7,494.91a754.71,754.71,0,0,0,31,132.25c2.05,6.15,11.85,5.4,11.7-1.59-.71-31.53-12.35-61.73-16.74-92.76L80.22,536c9.8,47,26.62,92.18,36.43,139.15,1.57,7.56,12.79,4.29,11.48-3.16q-8-45.32-19.22-89.94c-1.65-6.54-11.71-5.13-11.69,1.58l.15,69.76,11.1-3-24.41-47c-2.22-4.27-10.06-3.67-10.88,1.43l-9,56.41H75.62a455.62,455.62,0,0,1-15.27-69.93c-1-7-11.27-4.69-11.7,1.58l-4.86,70.73L55.49,662l-8.07-53.94c-1-6.57-12.49-5.09-11.69,1.58l7.93,65.81c.89,7.46,11.5,7.84,11.9,0a364.53,364.53,0,0,0-2.16-62.67l-11.7,1.58,7.76,53.82c1,6.67,11.92,5,11.69-1.58l-1.27-36.37H48a289.34,289.34,0,0,0,9.54,57c1.77,6.48,11.65,5.16,11.7-1.58a258.24,258.24,0,0,0-4.82-50.92c-1.27-6.57-12-5.11-11.69,1.58a174.75,174.75,0,0,0,9.59,49.05c2.1,6,12.09,5.52,11.7-1.58-1.07-19.29,7.14-38.71,22.6-50.6,2.56-2,3.87-5.1,2.13-8.15-1.43-2.52-5.6-4.09-8.14-2.13-18.78,14.45-29.82,37-28.5,60.88l11.69-1.58a163.23,163.23,0,0,1-9.16-45.89l-11.7,1.58a241.4,241.4,0,0,1,4.39,47.76L69,684a273.46,273.46,0,0,1-9.11-53.81c-.51-7.57-12.18-7.72-11.91,0l1.28,36.37L60.94,665l-7.76-53.82c-.94-6.56-12.5-5.08-11.69,1.59a364.53,364.53,0,0,1,2.17,62.67h11.9l-7.92-65.81-11.7,1.58L44,665.16c1,7,11.26,4.7,11.69-1.59l4.86-70.73-11.7,1.58a456.7,456.7,0,0,0,15.28,69.94c1.56,5.17,10.49,6.13,11.48,0l9-56.42-10.88,1.42,24.41,47c2.77,5.34,11.1,2.72,11.09-3l-.16-69.76-11.69,1.58q11.23,44.61,19.22,89.94L128.13,672c-9.81-47-26.62-92.19-36.43-139.16-1.6-7.65-12.53-4.21-11.48,3.17,4.23,29.94,15.63,59.18,16.31,89.59L108.22,624a754.81,754.81,0,0,1-31-132.24c-.94-6.63-12.06-5.07-11.69,1.58l6.63,121H84q-4.64-58.64-5.49-117.49H66.64L79,596.43c.92,7.43,12.61,7.73,11.91,0L78.32,458.48c-.56-6.17-10.37-8.69-11.69-1.59A431.09,431.09,0,0,0,60.89,573c.65,7.53,11.75,7.78,11.9,0q1.71-85.22,10.92-170H71.81q4.8,65.28,6.29,130.73c.18,7.66,11.75,7.67,11.91,0q1.71-85.39-2.5-170.74c-.31-6.32-10.53-8.55-11.69-1.59A770.32,770.32,0,0,0,65.54,506.4c.16,6.39,10.74,8.49,11.7,1.59Q89.3,420.75,94.89,332.81c.42-6.69-10.16-8.09-11.69-1.58A853.59,853.59,0,0,0,63.4,458.4c-.61,7.7,11.12,7.51,11.9,0a885.23,885.23,0,0,0,1.93-164.24c-.46-5.75-7.84-8.28-11.09-3a133.41,133.41,0,0,0-19.42,80.22c.53,6.6,9.57,8.19,11.7,1.58A463.28,463.28,0,0,0,79.05,267.68c.61-7.66-11.23-7.56-11.9,0l-4.87,54.74h11.9L68.8,273.56c-.82-7.43-12.22-7.81-11.9,0a640.47,640.47,0,0,0,7.6,75.71c.92,5.72,10.49,5.64,11.49,0,5.54-31.36-2.21-62.49-.56-93.95.34-6.58-10.65-8.28-11.7-1.58-7.36,47-1.22,94.46-4.55,141.71-.54,7.72,11.15,7.51,11.91,0L81.53,292.31H69.63Q71.9,376.9,72.45,461.5c0,7.8,11.2,7.51,11.91,0a877.81,877.81,0,0,0,1.09-152.86c-.42-5.2-8.51-9-11.1-3a393.57,393.57,0,0,0-25.9,83.48c-1.16,6.12,8,11.19,10.88,4.59a2031.41,2031.41,0,0,0,81.44-218.41c2-6.4-7.7-10.58-10.88-4.59L84.63,256l10.28,6a1028,1028,0,0,0,46-106c2.54-6.86-7.17-9.53-10.88-4.59a374.13,374.13,0,0,0-51.69,95.41c-2.49,6.76,7.23,9.69,10.88,4.59a270.53,270.53,0,0,0,40.69-85.5c1.53-5.54-5.88-10.3-10-5.79A373.13,373.13,0,0,0,55.8,258.83c-3.12,7,5.7,12.22,10.28,6A402,402,0,0,0,120,164.21c2.06-5.64-6-10-10-5.79A154.42,154.42,0,0,0,69.89,247c-.7,6.61,8,7.07,11.1,3a498.35,498.35,0,0,0,52.85-86.56c2.77-5.8-4.4-12.38-9.35-7.21A242.31,242.31,0,0,0,73.9,235.51c-2.66,6.73,7.23,9.61,10.88,4.58l51-70.23-10.28-6a170.13,170.13,0,0,1-40.86,49.4L94,220.46,167.52,98.78c3.48-5.75-4.64-12.13-9.35-7.21l-10.25,10.71,8.42,8.42c4-4.7,9.73-7.69,16-6.79L170.93,93a145.07,145.07,0,0,0-76.3,76.39c-2,4.81,2.63,12,8.14,8.14Q172.91,129.1,238,73.85l-8.42-8.42a302.69,302.69,0,0,1-87.82,58.94l7.22,9.35c31.35-32.85,74.45-49.95,118.19-59a463,463,0,0,1,68.6-8.64c23.64-1.3,47.58-.93,71,2.89C433.11,73.3,458.52,81.9,481,96.49c5.66,3.67,12.18-4.75,7.22-9.35-29.61-27.47-60.88-55.72-101-66-40.53-10.4-85.69-5.78-125.12,7.06a256.52,256.52,0,0,0-62.64,30.34c-6.53,4.36-.91,13.22,6,10.28C260.71,45.37,323.35,20,383.73,38.6l1.59-11.69c-82.08-3-170.86,11-230.75,72.25a177,177,0,0,0-35.6,52c-3,6.84,6.26,12.75,10.28,6A252.71,252.71,0,0,1,249,54c52-21.46,110-24,163.91-8.26a248.71,248.71,0,0,1,85.62,44.21l7.21-9.35L488.31,68.7c-5.64-3.85-12,4.68-7.21,9.35l50.32,49.22,8.42-8.41A171.58,171.58,0,0,1,502.05,73l-9.35,7.21a596,596,0,0,1,41.43,53.82l8.15-8.15A178.74,178.74,0,0,1,484.85,77l-5.14,9c43.44,3.38,72.37,44.11,94.71,77.08l9.35-7.21L543.94,117.6c-5.17-5-12,1.26-9.35,7.21L572,210.2c2.84,6.48,12.17,1.64,10.89-4.59l-12.08-58.39-11.48,3.16q11.83,28.53,23.69,57.06l11.46,27.61,6.11,14.72c1,2.46,2.06,4.9,3.06,7.37.46,1.05.89,2.11,1.28,3.19q.71,4.51,7,3.82l-2.73,3.56.65-.41-8.74-3.56a225.91,225.91,0,0,1,15.54,97l11.69-1.58-10-71.9-11.48,3.16L620,351.71c1.61,7.53,12.93,4.31,11.48-3.16a521.93,521.93,0,0,1-8.86-73.07l-11.1,3A151.7,151.7,0,0,1,628.48,371c-.43,3.22,3,5.93,5.95,6,3.56,0,5.53-2.78,6-6Z"/><path class="cls-10" d="M312.9,489.67c0-7.38,11.21-13.37,25-13.37,6.37,0,5.85-2.38,5.16.59-1.26,5.45.47,16.22,1.55,21.71.79,4.06-.18,7.91-6.71,7.91C324.11,506.51,312.9,497.06,312.9,489.67Z"/><path class="cls-10" d="M293.78,486.3c0-12.16,16.15-16.36,19.93-22.54,4.55-7.44,11.64,17,11.64,22.54s-7.06,10-15.78,10C293.78,496.3,293.78,491.83,293.78,486.3Z"/><polygon class="cls-10" points="322.96 365.05 338.49 365.05 343.1 476.89 309.93 479.99 322.96 365.05"/><path class="cls-13" d="M215.77,70.43A77.54,77.54,0,0,0,190.51,80.6c-6.48,4.05-.61,14.23,6,10.28a214,214,0,0,1,21.66-11.3c7-3.14.92-13.41-6-10.28a215,215,0,0,0-21.66,11.3l6,10.28a67.55,67.55,0,0,1,22.41-9c7.5-1.57,4.33-13-3.16-11.48Z"/><path class="cls-14" d="M5,696.58q-1,13.29-2.19,26.57c-.67,7.75,11.17,7.55,12,0q1.58-14.26,2.21-28.6c.35-7.72-11.65-7.71-12,0q-.63,14.34-2.21,28.6h12q1.16-13.29,2.19-26.57c.6-7.7-11.41-7.67-12,0Z"/><path class="cls-14" d="M23.31,279.68C24.1,368,20.2,456.25,14.92,544.39q-2.25,37.75-4.76,75.51c-.5,7.71,11.5,7.68,12,0C27.92,531.59,33.35,443.22,35,354.73q.67-37.53.36-75.05c-.07-7.72-12.07-7.74-12,0Z"/><path class="cls-14" d="M13.47,732.22c-.09,1.84-.17,3.67-.25,5.5a6,6,0,0,0,6,6,6.13,6.13,0,0,0,6-6c.08-1.83.16-3.66.25-5.5a6.05,6.05,0,0,0-6-6,6.13,6.13,0,0,0-6,6Z"/><path class="cls-14" d="M16.11,364.18c4.63,76.78,4.34,153.72,2.4,230.58q-.84,32.68-2,65.37c-.26,7.73,11.74,7.72,12,0C31.11,583.2,33.08,506.2,31,429.23q-.9-32.55-2.84-65.05c-.47-7.67-12.47-7.72-12,0Z"/><path class="cls-14" d="M10.78,298.94q2.6,25.59,4.4,51.25c.54,7.66,12.55,7.72,12,0q-1.82-25.67-4.4-51.25c-.78-7.61-12.79-7.69-12,0Z"/><path class="cls-14" d="M7,703.14Q3.65,745.46,0,787.76c-.66,7.69,11.34,7.65,12,0q3.6-42.3,6.93-84.62c.61-7.7-11.4-7.66-12,0Z"/><path class="cls-14" d="M18.19,239c11.82,102.34,6.88,205.56,0,308.06-1.93,28.78-4,57.54-5.94,86.31-.52,7.71,11.49,7.68,12,0,6.87-102.64,15.91-205.46,12.29-308.43-1-28.72-3-57.39-6.34-85.94-.87-7.58-12.88-7.67-12,0Z"/><path class="cls-14" d="M45.1,140.79c-6,12.28-8.88,25.38-10.64,38.87-1.9,14.54-3,29.21-3.81,43.85A666.65,666.65,0,0,0,32,313.12l11.7-1.58A138.18,138.18,0,0,1,37,282.27c-.86-7.53-12.77-7.62-11.9,0a152.61,152.61,0,0,0,7.17,32.43c2,6,12.28,5.5,11.7-1.58a668.06,668.06,0,0,1-1.59-85.71C43,213.24,44.1,199.08,45.71,185c1.5-13.06,3.83-26.28,9.67-38.18,3.37-6.85-6.89-12.89-10.28-6Z"/><path class="cls-14" d="M62.18,129.09C50.58,197.16,38.66,265.21,29.3,333.63q-4,29.28-7.34,58.64H33.87l.85-9.95c.65-7.63-11.26-7.59-11.91,0L22,392.27c-.66,7.7,11.07,7.48,11.91,0C41.52,324.14,52.56,256.46,64,188.89q4.8-28.32,9.65-56.63c1.27-7.5-10.2-10.72-11.49-3.17Z"/><path class="cls-14" d="M43.81,742.5a73.59,73.59,0,0,0,9.28-41.8c-.63-7.65-12.64-7.71-12,0a62.14,62.14,0,0,1-7.64,35.75c-3.74,6.76,6.62,12.82,10.36,6Z"/><path class="cls-14" d="M71.5,142.46c.08,18.17-4.12,35.61-7.27,53.4-3.09,17.51-6.41,35-9.58,52.48-6.26,34.49-11.5,69.14-15.17,104-7.7,73-11,146.55-13.35,219.94-1.33,41.2-2.27,82.42-3.27,123.64-.18,7.72,11.82,7.72,12,0,1.77-73.37,3.38-146.76,7.28-220.06,3.84-72.09,9.76-144,22.42-215.1,3.44-19.3,7.12-38.56,10.56-57.86,3.58-20,8.47-39.94,8.38-60.42,0-7.72-12-7.74-12,0Z"/><path class="cls-14" d="M47.15,781.64c4.86,6,9.86,10.14,18,7.08,8.45-3.17,9.73-10.58,9.09-18.65C72.68,749.89,68.65,730,65.84,710c-1-6.93-11.55-4.87-11.79,1.59l-1.24,33.5,11.18-3-8.94-20.75c-2.61-6.07-10.68-2.14-11.18,3a85.5,85.5,0,0,0,5,38.12c2.67,7.17,14.28,4.06,11.57-3.19a77.42,77.42,0,0,1-4.6-34.93l-11.18,3,8.94,20.75c2.52,5.84,11,2.37,11.18-3l1.24-33.5-11.78,1.6c1.92,13.68,4.42,27.27,6.27,41a180.35,180.35,0,0,1,2,19.81c0,1.54-.33,4.59-3,3.87-1.29-.35-3.13-3.71-3.92-4.68-4.89-6-13.34,2.55-8.49,8.49Z"/><path class="cls-14" d="M48.31,717.71C51,669,53.23,620.25,53.22,571.46c0-7.85-11.29-7.56-12,0L33,659.28H45L40.76,596c-.51-7.65-11.81-7.79-12,0-.72,30.53-1.4,61.06-.52,91.6.23,7.86,11.22,7.55,12,0q4.53-44,10.06-87.88l-9,5.18c3.64,1.86,2.87,6,2.46,9.47-.8,6.91-.9,14-1.31,20.9-.83,14.26-1.66,28.52-2.24,42.78-1.15,28.12-1.11,56.44.36,84.54.4,7.68,12.4,7.73,12,0-1.61-30.71-1.45-61.62,0-92.33.72-15.54,1.69-31.06,2.57-46.59.58-10.31,3.55-23.34-7.76-29.13-4.39-2.25-8.45.63-9,5.18q-5.52,43.88-10.06,87.88h12c-.88-30.54-.2-61.07.52-91.6h-12L33,659.28c.52,7.78,11.29,7.66,12,0l8.23-87.82h-12c0,48.79-2.22,97.54-4.91,146.25-.42,7.71,11.58,7.69,12,0Z"/><path class="cls-14" d="M123.76,797A556.84,556.84,0,0,1,41.18,670.29c-2.88-6.1-12.92-1.81-10.88,4.58C40.85,708,51.44,741.07,64.9,773.1c9.79,23.28,22.36,57,52.09,58.75,4.23.25,7.82-5.37,5.14-9A515.3,515.3,0,0,1,70,736.2c-2.86-6-13.14-1.77-10.88,4.59,9.68,27.21,20.26,55.77,42.8,75.1,5.08,4.36,12.58-1,9.35-7.21L62.55,715.41c-3.57-6.84-13.58-.83-10.28,6l18.78,38.84c3.39,7,13.26.87,10.28-6A533.59,533.59,0,0,1,40.14,593.87c-.72-7.56-12.63-7.64-11.91,0,6,62.87,13.77,131.76,61.29,178.39,5.1,5,12-1.29,9.35-7.22A677.85,677.85,0,0,1,40.32,470.6a664.87,664.87,0,0,1,7.71-85L36.34,384a1230.55,1230.55,0,0,0,5.17,241.65l11.7-1.58c-10.15-64.19-4-129.89-.33-194.38,3.7-64.93,7.77-129.87,14.19-194.6,3.64-36.72,8.06-73.36,13.59-109.84L69,123.68l-7.91,63.38c-.88,7,9.6,7.49,11.69,1.58L95.1,125.52l-11.48-3.17L64.43,188l11.48,3.17A220,220,0,0,1,95,128.72l-10.28-6a368.26,368.26,0,0,0-24.11,79.17c-1.35,7.43,9.67,10.71,11.49,3.17a366.69,366.69,0,0,1,29.16-79.67c3.45-6.82-6.82-12.86-10.28-6a381,381,0,0,0-30.37,82.51l11.49,3.17A354.8,354.8,0,0,1,95,128.72c3-6.88-6.92-13-10.28-6A230.27,230.27,0,0,0,64.43,188c-1.11,7.39,9.27,10.72,11.48,3.17L95.1,125.52c2.17-7.44-8.95-10.31-11.48-3.17L61.27,185.47,73,187.06l7.91-63.38c.83-6.59-10.68-8.21-11.69-1.58C59.25,187.58,52.8,253.51,48,319.54c-4.83,65.86-9.34,132-11.52,198-1.2,36.69-.46,73.44,5.27,109.76,1,6.56,12.5,5.09,11.7-1.58A1230.55,1230.55,0,0,1,48.25,384c.51-6.61-10.66-8.24-11.7-1.58a686.2,686.2,0,0,0,52,388.61l9.35-7.21c-45.1-44.25-52.11-110.36-57.8-170H28.23A552,552,0,0,0,71.05,760.26l10.28-6L62.55,715.41l-10.28,6L101,814.69l9.35-7.22c-21-18-30.72-44.48-39.74-69.84l-10.88,4.58a515.3,515.3,0,0,0,52.13,86.69l5.14-9c-11.78-.7-20.09-10.35-25.93-19.7-7.58-12.14-13-25.83-18.28-39.06-11.81-29.29-21.41-59.4-31-89.47L30.9,676.29a567.41,567.41,0,0,0,84.44,129.14c5,5.8,13.42-2.65,8.42-8.41Z"/><path class="cls-14" d="M504.39,54.53c14.46,25.92,36.45,46.1,55.67,68.35,20.2,23.38,34.44,50.41,45,79.34,6.12,16.75,11.16,33.86,16,51,2.09,7.42,13.08,4.3,11.49-3.16l-14.78-68.94-10.88,4.59a174.36,174.36,0,0,1,17.23,88.6H636a70.12,70.12,0,0,0-5.18-27c-2.86-7-13-4.52-11.48,3.16a1198.67,1198.67,0,0,1,22.7,182.61c.36,7.62,12,7.71,11.91,0l-.51-51.43C653.37,372,655,351.6,640,352.12a6,6,0,0,0-5.95,5.95q4.18,129.49,12.85,258.8,2.48,36.79,5.3,73.56c.58,7.55,11.78,7.76,11.91,0q.79-48.87,5.55-97.56L658,594.45a519.59,519.59,0,0,1,12.73,77.69h11.91q-9.84-86.76-15-173.95c-.45-7.58-12-7.72-11.91,0l1.11,102.88c.09,7.66,11.94,7.68,11.91,0q-.33-73.47,1.87-146.92H658.75l2.08,105.12,11.69-1.58a396.06,396.06,0,0,1-12-92.52H648.58L651.86,521l11.7-1.58a254.35,254.35,0,0,1-13.11-63.08c-.57-7.54-12.06-7.75-11.9,0l.71,36h11.91Q641.65,397.92,640.35,303c-.1-7.66-11.89-7.68-11.9,0l-.05,21.65,11.7-1.58C634,290,628.27,256.83,621.6,223.86a469.76,469.76,0,0,0-28.69-93.08c-7.32-17-15.41-33.73-23.5-50.41-3.34-6.89-13.61-.86-10.28,6,14,28.91,28.1,57.93,37.91,88.59,10,31.16,15.38,63.56,21.31,95.67l10.27,55.59c1.24,6.72,11.68,5,11.69-1.58l0-21.65h-11.9q1.27,94.83,10.81,189.27c.76,7.46,12.06,7.82,11.91,0l-.72-36h-11.9a266.58,266.58,0,0,0,13.53,66.24c2,6,12.11,5.49,11.69-1.58l-3.28-55.78c-.45-7.59-12-7.73-11.91,0A410.1,410.1,0,0,0,661,560.85c1.64,6.49,11.83,5.17,11.69-1.58l-2.07-105.12c-.15-7.67-11.68-7.66-11.91,0q-2.19,73.44-1.87,146.92h11.91l-1.11-102.88H655.77q5.12,87.16,15,174c.85,7.47,12.58,7.71,11.91,0a541.73,541.73,0,0,0-13.16-80.85c-1.68-6.94-11.07-4.74-11.69,1.58q-4.75,48.64-5.56,97.56h11.91q-9.93-129.18-15.41-258.66-1.56-36.84-2.75-73.7L640,364c1.51,0,1.45,8.38,1.46,9.74l.19,19.78.39,39.56H654a1220.82,1220.82,0,0,0-23.13-185.77l-11.48,3.16a61.19,61.19,0,0,1,4.75,23.84c0,7.73,11.4,7.58,11.91,0a186.55,186.55,0,0,0-18.86-94.61c-3.1-6.32-12.23-1.72-10.88,4.59l14.77,68.93,11.49-3.16c-8.49-30.22-17.79-60.44-32.1-88.49-14.07-27.59-34.17-49.65-54.85-72.34C534.05,76.6,523,63.53,514.67,48.52c-3.73-6.7-14-.7-10.28,6Z"/><path class="cls-14" d="M199.25,45.31C213.39,35,231.16,34,248,32.55l59.7-5.21c19.93-1.74,40.08-4.42,60.12-3.55,19.17.83,38,5.24,56.21,11a651.89,651.89,0,0,1,101.88,42c30.65,15.84,59.52,35.39,82.81,61.05a192,192,0,0,1,30.47,44.43,153.45,153.45,0,0,1,9.69,25.11c2,7,4.25,16.54-1.49,22.39l5.79-1.53a1.28,1.28,0,0,1-.3-1c-1.72-7.47-13.2-4.31-11.48,3.16,1.09,4.72,4.23,7.6,8.61,9.33a5.85,5.85,0,0,0,5.8-1.53c12.07-12.28,6.05-31.22.82-45.27a185.34,185.34,0,0,0-24-44.4c-21.3-29.25-49.49-52.45-80.49-70.81C518.77,57.9,482.34,43,445.93,29.74c-19.11-7-38.67-13-58.84-16-21-3.06-41.69-1.64-62.76.2L252.9,20.21C232.6,22,210.36,22.56,193.24,35c-6.13,4.47-.2,14.81,6,10.29Z"/><path class="cls-14" d="M373,11.57c28.95,4.7,64.06,10.22,81.82,36.61,4.33,6.44,7.37,11.11,15.26,13.24A136.53,136.53,0,0,1,489.85,68a143.56,143.56,0,0,1,35.58,23c22.05,19.09,39.6,42.8,55.47,67.09,18.29,28,32.77,57.54,41.88,89.76,10.29,36.43,14.9,74.1,19.39,111.59.9,7.51,12.82,7.6,11.91,0C650,325.09,645.85,290.64,637.54,257A329.75,329.75,0,0,0,598,162.76c-16-26-34-51.55-56-72.8A174.71,174.71,0,0,0,507.5,63.6a137.55,137.55,0,0,0-20.18-9.41C484.17,53,481,52,477.73,51.1c-4-1.11-7.71-1.28-10.18-5-9.35-14-20.76-24.49-36.14-31.62C413.94,6.42,395,3.15,376.11.09c-7.49-1.22-10.72,10.26-3.16,11.48Z"/><path class="cls-14" d="M471.76,47.9a110.19,110.19,0,0,0-36.11-26.57c-6.11-2.79-11.81,4.07-7.22,9.35l18.65,21.43c5.57,6.39,10.45,11.07,19.31,11.89,8.4.76,15.62.61,23.51,4.17s14.88,8.61,21.81,13.59c5.54,4,12.05-4.75,7.22-9.35a69.76,69.76,0,0,0-51.36-19.32c-6.57.31-8.25,9.85-1.58,11.69C486.47,70.44,503.81,83,519.43,97a406.76,406.76,0,0,1,44.85,46.56,203.45,203.45,0,0,1,32.66,56.67c8.3,22.2,14.64,45.34,20.81,68.2,7,26,12.46,52.37,12.62,79.35,0,7.66,12,7.68,11.91,0-.16-25.1-4.66-49.9-10.85-74.16-6.11-23.95-12.89-48-21.12-71.36a218.43,218.43,0,0,0-32.39-60.47c-13.78-18-29.68-34.41-46.32-49.8-18.14-16.76-38.3-32-62.45-38.71L467.57,65a57.81,57.81,0,0,1,42.94,15.84l7.21-9.35c-13-9.33-26.85-18.47-43.38-19.14-3.54-.15-7.56.44-10.9-1-3.55-1.53-6.09-5.53-8.56-8.37l-18-20.71-7.21,9.35a101.93,101.93,0,0,1,33.7,24.71c5.13,5.71,13.53-2.73,8.42-8.42Z"/><path class="cls-14" d="M627.51,281.18c-2.49,62-5,124.22-1.32,186.27,1.83,31,5.38,61.87,7.39,92.86s3,61.76,3.09,92.68q.08,52.29-3.56,104.5l11.7-1.58c-3.69-15.18,3.89-30.78,7.4-45.33a243.75,243.75,0,0,0,6.44-46.09H646.74a272.59,272.59,0,0,1-4,70.71l11.7,1.58q-2.53-47.19-3.15-94.45c-.1-7.65-11.92-7.67-11.9,0A497.76,497.76,0,0,1,621.13,777.2l11.48,3.17c12.66-56.72,25.23-113.81,27.59-172.07.31-7.66-11.6-7.65-11.91,0-2.31,57.2-14.73,113.21-27.16,168.9-1.66,7.45,9.42,10.59,11.48,3.17a509.91,509.91,0,0,0,18.66-138h-11.9q.61,47.25,3.14,94.45c.34,6.33,10.37,8.52,11.69,1.58a285.06,285.06,0,0,0,4.45-73.87c-.55-7.6-11.56-7.72-11.91,0a224.88,224.88,0,0,1-7.4,48.38c-4.08,15.22-9.88,30.29-6,46.21,1.65,6.81,11.24,4.86,11.69-1.59a1475.61,1475.61,0,0,0,1.19-185.37c-1.76-31-5.11-61.84-7.34-92.8s-2.83-62-2.56-93.09c.3-35,1.7-70.05,3.1-105,.31-7.67-11.6-7.65-11.9,0Z"/><path class="cls-14" d="M20.69,661.68c1.68,21.86,10.44,42.9,9.14,65H41.74q0-24.31-.1-48.63c-.06-16,.07-32.07-1.46-48s-4-32-3.86-48.12,2.32-32.46,4.5-48.58c.44-3.21-.77-6.35-4.16-7.32-2.76-.8-6.89,1-7.32,4.16-2.2,16.21-4.46,32.46-4.87,48.84s2,32.72,3.61,49.1c3.29,32.58,1.73,65.87,1.75,98.58,0,7.71,11.46,7.6,11.91,0,1.31-22.21-7.46-43.09-9.14-65-.58-7.59-12.49-7.65-11.91,0Z"/><path class="cls-14" d="M38,494.92l-1.14,94.91h11.9l0-4.07c0-7.66-11.95-7.68-11.9,0l0,4.07c0,7.66,11.81,7.67,11.9,0l1.14-94.91c.09-7.66-11.81-7.67-11.9,0Z"/><path class="cls-14" d="M36.51,495.25a402.4,402.4,0,0,1,.24,48.62c-.43,7.69,11.3,7.56,11.91,0q2.06-25.68,2.79-51.43c.22-7.74-11.32-7.55-11.91,0-3.18,40.84,1.44,81.34,5.54,122,4,39.56,9.42,79.18,21.59,117.16,2.33,7.27,13.82,4.16,11.48-3.17-12-37.58-17.44-76.72-21.35-115.87-4-40-8.48-79.84-5.35-120.07H39.54q-.74,25.74-2.79,51.43H48.66a402.4,402.4,0,0,0-.24-48.62c-.5-7.61-12.41-7.66-11.91,0Z"/><path class="cls-14" d="M496.07,758.9q-6.49,17.16-14,33.88c-3.15,7,7.19,13.09,10.36,6.05q8.16-18.14,15.21-36.74c2.73-7.23-8.86-10.35-11.57-3.19Z"/><path class="cls-13" d="M107.34,375.25a227.36,227.36,0,0,1,10.84,80.93c-.35,7.66,11.55,7.65,11.91,0a237.15,237.15,0,0,0-11.27-84.09c-2.34-7.26-13.84-4.16-11.48,3.16Z"/><path class="cls-2" d="M391,515.3c11.06,21.74,94.28,76.37,12,3.87-3.78-3.33-16.35-30.85-15.39-21.08"/><path class="cls-10" d="M303.7,712.85c7.66,0,7.67-11.9,0-11.9s-7.68,11.9,0,11.9Z"/><path class="cls-15" d="M343.79,52.53c-22.55-.52-59.68,12.74-81.24,13.08-61.64,1-135.28,63.41-159.81,238.07C89.63,397,76.59,500.88,117.85,546c0,0-16.48-47-8.13-154.65,21.43-276.09,96.42-307.64,238.65-299,152.83,9.33,167.89.44,197.8,302.34,9.14,92.26-3,150.44-3,150.44,26-52.74,35.1-181.52,26-241.5C543.15,132.87,455.22,81.38,396.48,64c-20.67-6.12-3.11-9.82-25.66-9.3L336,65.74C374,59.88,362,54.67,362,54.67"/><path class="cls-15" d="M591.61,351.78C563.37,133,472.48,75.94,407.9,53.3a204.36,204.36,0,0,0-72.58-11h-.2a204.32,204.32,0,0,0-72.58,11C198,75.94,107.06,133,78.83,351.78,63.2,472.93,50.09,608.31,95.45,667c0,0-18-61.17-8.94-201.19C109.79,106.78,236.56,56.77,335.22,56.6c98.66.17,225.43,50.18,248.7,409.25C593,605.87,575,667,575,667,620.35,608.31,607.24,472.93,591.61,351.78Z"/><path class="cls-14" d="M632.63,554.86l.93,97c.3,32,.6,64.16-3.86,95.91l11.69,1.58c-.81-53,14.5-105.66,4.52-158.51-1.27-6.74-11.6-5-11.69,1.58L633.84,622l11.69-1.58c-4.48-16-5.46-32.38-5.68-48.87-.23-17.29-.16-34.59-.14-51.88,0-34.61.51-69.21,2.36-103.77.41-7.65-11.5-7.63-11.91,0-1.88,35.22-2.33,70.48-2.36,105.74,0,17.27-.11,34.54.18,51.81.28,16.87,1.49,33.82,6.07,50.13,1.82,6.48,11.61,5.17,11.7-1.58l.38-29.58L634.43,594c9.73,51.57-5.74,103.59-4.94,155.35.1,6.42,10.72,8.45,11.69,1.58,4.53-32.21,4.6-64.67,4.3-97.13q-.47-49.49-.94-99c-.07-7.66-12-7.68-11.91,0Z"/><path class="cls-14" d="M573.15,143.56a45.23,45.23,0,0,1,8.94,20.67c1.07,6.56,12.28,5.1,11.69-1.59-.84-9.44-4.9-18-12.45-23.93-4.22-3.31-12-.47-10,5.79a1169.38,1169.38,0,0,1,35.43,134C616,324,620.16,369.82,623.72,416q3.07,40.05,6.16,80.1c.59,7.59,12.5,7.66,11.91,0-3.63-47.14-6.52-94.41-11.36-141.44-4.76-46.29-13.8-92-25.29-137q-9.84-38.53-22.28-76.34l-10,5.8c5,3.91,8.39,9.08,9,15.51l11.7-1.58a52.63,52.63,0,0,0-10.14-23.51c-4.59-6-14.94-.08-10.28,6Z"/><path class="cls-14" d="M588.53,172.19a258.21,258.21,0,0,0-50.15-75L530,105.57c41,34.58,49.62,92.52,59.74,142.13Q609,342.4,624,437.93q4.27,27.29,8.17,54.62c2.58,18.08,5.06,36.19,4.49,54.49-.24,7.67,11.66,7.66,11.9,0,.51-16.1-1.35-32.06-3.54-48-2.29-16.58-4.75-33.13-7.28-49.68q-7.52-49.23-16.2-98.28T603,253.23c-5.63-27.87-10.73-56.13-19.61-83.19-9-27.45-22.57-54-45-72.89-5.79-4.89-13.8,2.8-8.42,8.42a249.22,249.22,0,0,1,48.29,72.63c3.06,7,13.32,1,10.28-6Z"/><path class="cls-14" d="M524.9,75.71a68.84,68.84,0,0,0-63-17.9c-5.93,1.32-5.39,9.88,0,11.48,15.91,4.73,30,11,42.64,21.95,11.87,10.24,22.61,21.92,33.38,33.28,22.59,23.81,42.73,49.18,54.79,80,6.88,17.58,11.73,35.86,16.13,54.18,1.79,7.45,13.28,4.3,11.49-3.16-8.1-33.72-18.23-67.23-38-96.15-9.6-14.05-20.75-27-32.36-39.42-11.31-12.1-22.7-24.43-35.08-35.46a116.88,116.88,0,0,0-22.77-16.39c-8.57-4.54-17.81-7.57-27.07-10.32V69.29a56.46,56.46,0,0,1,51.4,14.84c5.47,5.37,13.9-3,8.42-8.42Z"/><path class="cls-14" d="M514.14,84.74l35.37,37.94c5.24,5.62,13.64-2.82,8.42-8.42L522.56,76.32c-5.24-5.62-13.64,2.81-8.42,8.42Z"/><path class="cls-14" d="M496,58.2,470,59.13c-3.15.12-8,1.21-11.08.28-2.95-.89-5.94-5-8.14-7a207.23,207.23,0,0,0-34.55-25A210.7,210.7,0,0,0,333.9.59c-7.6-.83-7.54,11.08,0,11.91a196.42,196.42,0,0,1,82,28.52c12.29,7.64,22.47,17,33.49,26.25,5.91,5,12.42,4.06,19.67,3.8l26.87-1c7.64-.27,7.68-12.18,0-11.9Z"/><path class="cls-14" d="M610.75,347.76c-.67,31.77,3.29,63.3,7.12,94.77,3.89,32,6.67,63.89,7.27,96.09.59,31.75-.42,63.51-2.11,95.22-.89,16.53-2,33-3.1,49.57-1,15.33-1.2,31.15-4.11,46.26-5.86,30.32-28.88,52-50.62,72.07l9.95,5.8c2.26-7.16,11.32-10.1,17.24-13.5a47.63,47.63,0,0,0,18.7-19.71c5.16-9.7,9.31-20,13.85-30l15.33-33.78H630l38.71,62.82c9.61,15.6,20.06,35,39.72,38.86l-2.62-10A147.62,147.62,0,0,0,690,826.64l11.1,3a150.48,150.48,0,0,0-16-60.56c-3.45-6.84-13.73-.82-10.28,6a136,136,0,0,1,14.41,54.55c.28,5.53,8.25,8.58,11.09,3a132.63,132.63,0,0,1,13.91-22c2.5-3.18,2.23-9-2.63-9.95-17.93-3.53-27.08-24.41-35.71-38.42l-35.61-57.79c-2.14-3.48-8.35-4.26-10.28,0L614.66,738.3c-4.75,10.47-9,21.39-14.61,31.42-4.76,8.52-11.18,12.66-19.49,17.21-7.51,4.11-14.21,9-16.89,17.44-1.86,5.92,5.78,9.65,10,5.79,19.56-18.07,39.54-37.19,49.43-62.5,5.53-14.16,6.35-29.44,7.4-44.44,1.17-16.51,2.32-33,3.34-49.55,4.05-66,5.27-131.86-2.4-197.62-4.19-36-9.51-72-8.73-108.29.16-7.67-11.74-7.66-11.91,0Z"/><path class="cls-14" d="M479.39,750.61l-1.66,158.68c-.08,7.67,11.82,7.67,11.9,0l1.66-158.68c.08-7.67-11.82-7.67-11.9,0Z"/><path class="cls-14" d="M497.13,739.91c-5.16,13.9-5.46,29.34-9.1,43.69a211.79,211.79,0,0,1-16,42.84c-3.43,6.83,6.84,12.86,10.28,6a225.64,225.64,0,0,0,16.74-43.92c3.9-14.9,4.19-31,9.55-45.45,2.67-7.19-8.83-10.3-11.48-3.17Z"/><path class="cls-14" d="M499,733.28A530.77,530.77,0,0,1,471.6,848.86c-2.59,7.23,8.91,10.34,11.48,3.16a544.51,544.51,0,0,0,27.85-118.74c.91-7.59-11-7.52-11.91,0Z"/><path class="cls-14" d="M500.17,712.64a379.18,379.18,0,0,1-36.76,165.7c-3.29,6.88,7,12.93,10.28,6a392.78,392.78,0,0,0,38.38-171.71c-.05-7.65-12-7.67-11.9,0Z"/><g id="Brows-2" data-name="Brows"><path class="cls-2" d="M451.23,279.07c-4.11.06-50.18,5.86-50.11,9.36s-.61,9.94,3.45,9.94c0,0,2.63,4.59,2.67,4.59,16.24-.23,41.93-12.13,53.64-10.26,2.24.35,17.06.71,22.95,3.21,1.07.45,1.53,0,12.58,6.07,2.73,0-1.31,2.22,0,0,1.84-3.14-9.45-12.22-13.1-13.88"/></g><path class="cls-10" d="M515.06,404.64c9.23-2.4,12.24,52.51,9.26,66.69L513.42,501c-13.83,16.1-1.54,12-18.3,27.35l-16.71,3.43-23.56,3c-37.17-10.16-47.44-28.59-61.8-69.82-20.62-59.22-8.34-20.19,51.3-2.89L492.28,452"/><path class="cls-11" d="M492,440.35c.89-13.16-17.24-19.85-38.72-20.13v0H430.83c-9.61,0-17.47,9.07-17.47,20.15h0c0,11.09,7.86,20.15,17.47,20.15h22.44C474.75,460.2,491,455.14,492,440.35Z"/><path class="cls-1" d="M155.29,395.35A75.46,75.46,0,0,0,142.59,423c-1.31,5.56,5.71,10.3,9.95,5.79q10.19-10.84,20.39-21.67l-9.35-7.22c-11.52,17.85-16.38,38.95-18.39,59.86-1.86,19.27.15,39.14,12.54,54.73,4.77,6,13.14-2.48,8.42-8.42-10.55-13.27-10.6-31.81-8.9-47.85,1.95-18.33,6.52-36.69,16.61-52.31,3.66-5.67-4.72-12.13-9.35-7.21l-20.39,21.67,9.95,5.79a66.86,66.86,0,0,1,11.5-24.79c4.55-6.17-5.78-12.12-10.28-6Z"/><path class="cls-1" d="M176.75,408.53a390.11,390.11,0,0,0-29.82,38.77c-4.29,6.37,6,12.34,10.28,6a364.8,364.8,0,0,1,28-36.36c5-5.75-3.36-14.2-8.42-8.42Z"/><path class="cls-1" d="M507.45,404.47a68,68,0,0,1,3.14,6.49c.44,1.09.84,2.19,1.22,3.29,2.37-2.62,2.68-3.6.95-2.95-2.92-.39-8,4-9.85,5.89-5.78,5.81-7.79,13.59-2.83,20.54,2.35,3.3,5.41,6,7.73,9.32a50.86,50.86,0,0,1,8.65,36c-1.1,7.5,10.37,10.73,11.48,3.17,2.65-18-2-36.08-13.63-50.17-1.92-2.32-6.29-5.13-4.65-8.3,2-3.92,5.82-4.33,9.3-6.15,9.38-4.92,2.3-16.58-1.23-23.15-3.63-6.76-13.91-.75-10.28,6Z"/><path class="cls-1" d="M511.9,420l4,16c1.13,4.6,8.8,6.24,10.88,1.42,2-4.64,1.8-9.75-2.36-13.2-3.27-2.7-8.81-2.06-10,2.63l-1.54,6.36h11.48a31.73,31.73,0,0,0-8-13.84c-4.2-4.3-11.46.12-9.95,5.79A139.59,139.59,0,0,0,515,448.61c3.25,6.94,13.51.9,10.28-6A121.38,121.38,0,0,1,517.89,422l-9.95,5.79a19.17,19.17,0,0,1,4.94,8.58c1.55,5.52,10.07,5.81,11.48,0L525.9,430,516,432.63a1.67,1.67,0,0,0,.5-1.23l10.88,1.42-4-16c-1.83-7.44-13.31-4.29-11.48,3.17Z"/><path class="cls-1" d="M479.72,549.06c10.77-2.19,19.25-9.42,26.29-17.51,3.85-4.43,8-9.07,10.94-14.15s4-10.59,4.62-16.35c1.31-12.92,2.35-26.67,1.16-39.64a39.33,39.33,0,0,0-4.89-16.32c-2.73-4.8-6.25-9-7.26-14.53l-10.88,4.59a108.17,108.17,0,0,1,9.22,32.39c.9,7.51,12.81,7.6,11.9,0A126.27,126.27,0,0,0,510,429.14c-3-6.52-12-1.6-10.88,4.58,1.69,9.32,9.53,15.78,11.34,25,2.19,11.11.56,23.83-.2,35-.34,5.1-.38,10.57-2.4,15.35-1.93,4.57-5.56,8.49-8.72,12.25-6.14,7.3-12.89,14.29-22.57,16.25-7.5,1.52-4.33,13,3.17,11.48Z"/><path class="cls-1" d="M377.49,419.23l-4.9,61.19c-.62,7.64,11.29,7.6,11.9,0l4.91-61.19c.61-7.64-11.3-7.6-11.91,0Z"/><path class="cls-1" d="M295.2,415.76l1.2,30.65a6,6,0,0,0,11.09,3l1.47-2.21c4.27-6.39-6-12.35-10.28-6l-1.47,2.21,11.09,3-1.19-30.65c-.3-7.64-12.21-7.68-11.91,0Z"/><path class="cls-1" d="M302.68,404.54a288.17,288.17,0,0,0-7.52,50.76l11.69-1.58-.75-2.45c-2.24-7.31-13.74-4.19-11.48,3.16l.75,2.45c2,6.54,11.3,5.11,11.7-1.58a269.48,269.48,0,0,1,7.09-47.59c1.79-7.45-9.69-10.62-11.48-3.17Z"/></g></g></svg>