<?xml version="1.0" encoding="utf-8"?>
<!-- Generator: Adobe Illustrator 23.0.2, SVG Export Plug-In . SVG Version: 6.00 Build 0)  -->
<svg version="1.1" id="Capa_1" xmlns="http://www.w3.org/2000/svg" xmlns:xlink="http://www.w3.org/1999/xlink" x="0px" y="0px"
	 viewBox="0 0 847.9 3417.5" style="enable-background:new 0 0 847.9 3417.5;" xml:space="preserve">
<style type="text/css">
	.st0{fill:#101016;}
	.st1{fill:#FCB3A9;}
	.st2{fill:#206466;}
	.st3{fill:#D26C7F;}
	.st4{fill:#EDBB98;}
	.st5{fill:#83B297;}
	.st6{fill:#93CCAD;}
	.st7{fill:#B76274;}
	.st8{fill:#DBA37D;}
	.st9{fill:#AD7957;}
	.st10{fill:#E09B6C;}
	.st11{fill:#845F4D;}
	.st12{fill:#F8F8F8;}
	.st13{fill:#DDA38C;}
	.st14{fill:#F9FFFC;}
	.st15{fill:#E5917F;}
	.st16{fill:#EFC6AB;}
	.st17{fill:#EDA38E;}
	.st18{fill:#968141;}
	.st19{fill:#FFE08C;}
	.st20{fill:#FFFFFF;}
	.st21{fill:#EFD084;}
	.st22{opacity:0.32;fill:#DBA37D;enable-background:new    ;}
</style>
<g id="Leg_x5F_02_4_">
	<polygon class="st0" points="373.6,3218.4 347.7,3416.5 319.4,3416.5 318.6,3304.9 	"/>
	<path class="st1" d="M209.3,3271.1c-7.5,15.7-54.1,51-11.8,55c53.5,5.1,92-14.2,132.9-121.9C341.9,3174,365,3168,365,3168
		l7.7-866.8L218,2300l64.5,856.1C232.9,3230.2,209.3,3271.1,209.3,3271.1z"/>
	<path class="st2" d="M365,3168.1c0,0-38.7-1.6-49.4-1.6c-21.6,0-33.2-10.2-33.2-10.2c-10.9,1.6-17.1,20-14.8,23.6
		c2.4,3.5,16.9,8.8,24,9.4c10.8,1,29.6,1.5,45.3,1.7c-2.4,3.8-4.7,8.1-6.6,13.2c-40.9,107.7-79.4,127-132.9,121.9
		c-42.3-4.1,4.3-39.3,11.8-55c2.2-4.5-49.5,50.3-64.5,58.2c-20.3,10.7-27.4,16.4-30.7,39.3c-3.5,24.8,21.9,40.1,34.5,46.2
		c3.8,1.8,18.6,2.8,18.6,2.8h112.4c5.5,0.2,7.7-3.3,8.1-5.1c16.3-70,73.3-166.2,81.3-177.1C377.3,3224.1,383.8,3184.6,365,3168.1z"
		/>
</g>
<g id="Leg_x5F_01_4_">
	<polygon class="st0" points="584.7,3218.4 558.8,3416.5 530.5,3416.5 529.7,3304.9 	"/>
	<path class="st1" d="M420.4,3271.1c-7.5,15.7-54.1,51-11.8,55c53.5,5.1,92-14.2,132.9-121.9c11.5-30.2,34.6-36.2,34.6-36.2
		l7.7-866.8l-154.7-1.2l64.5,856.1C444,3230.2,420.4,3271.1,420.4,3271.1z"/>
	<path class="st2" d="M576.1,3168.1c0,0-38.7-1.6-49.4-1.6c-21.6,0-33.2-10.2-33.2-10.2c-10.9,1.6-17.1,20-14.8,23.6
		s16.9,8.8,24,9.4c10.8,1,29.6,1.5,45.3,1.7c-2.4,3.8-4.7,8.1-6.6,13.2c-40.9,107.7-79.4,127-132.9,121.9
		c-42.3-4.1,4.3-39.3,11.8-55c2.2-4.5-49.5,50.3-64.5,58.2c-20.3,10.7-27.4,16.4-30.7,39.3c-3.5,24.8,21.9,40.1,34.5,46.2
		c3.8,1.8,18.6,2.8,18.6,2.8h112.4c5.5,0.2,7.7-3.3,8.1-5.1c16.3-70,73.3-166.2,81.3-177.1C588.5,3224.1,595,3184.6,576.1,3168.1z"
		/>
</g>
<path class="st3" d="M648.3,1578.7c-18.2-97.8-41.7-119.9-67-155.3c-19.6-27.5-20.1-64.3-17.5-97.7h-327
	c2.6,33.4,1.9,70.1-17.5,97.7c-24.6,35-46.3,56.6-66,152.9c-4.1,20.3-5.1,114-2.7,134.6l49.5,790h400.3l49.7-791.8
	C652.4,1690,651.8,1597.7,648.3,1578.7z"/>
<g>
	<g id="Illustration">
		<g id="Body_04">
			<path id="Neck" class="st4" d="M405,984.2c60.4,0,111.3-142.7,126.6-193.4h-50.5V720H328.9v70.8h-50.5
				C293.7,841.5,344.6,984.2,405,984.2z"/>
			<g id="Hand_01">
				<path class="st1" d="M62.2,1699.1l-5.9,34.4L0,1810.1l1.7,103.2c32.2-1.4,14-73.6,14-73.6s35.2-41.8,43.6-40.2
					c17.8,3.4-27.1,43.2-15.7,52s46.5-65.6,46.5-65.6l2.1-47.4l6-33.6L62.2,1699.1z"/>
				<path id="Hand_L" class="st5" d="M235.5,790.8c-30.7,0.2-59,16.4-74.7,42.7c-7.9,13.1-10.1,28.3-13.5,44.8
					c0,0-54.4,232.4-110,849.5l69.8,11.3l120.3-648.2l28.5-182.2C255.9,908.8,280.8,825.3,235.5,790.8z"/>
			</g>
			<g id="Hand_02">
				<path class="st1" d="M785.7,1699.1l5.9,34.4l56.3,76.6l-1.7,103.2c-32.2-1.4-14-73.6-14-73.6s-35.2-41.8-43.6-40.2
					c-17.8,3.4,27.1,43.2,15.7,52s-46.6-65.5-46.6-65.5l-2.1-47.4l-6-33.6L785.7,1699.1z"/>
				<path id="Hand_L-2" class="st6" d="M612.4,790.8c30.7,0.2,59,16.4,74.7,42.7c7.9,13.1,10.1,28.3,13.5,44.8
					c0,0,54.4,232.4,110,849.5l-69.8,11.3l-120.3-648.2L592,908.7C591.9,908.8,567.1,825.3,612.4,790.8z"/>
			</g>
			<g id="Skirt">
				<path class="st7" d="M173.2,1584.9c27.4-10.8,56.6-24,67.7-34.7c33.4-32.3,35-108.3,35-108.3s-17.8,68.1-47,94.1
					c-14.1,12.6-33.7,22-51.4,28.7C176,1571.3,174.6,1578.1,173.2,1584.9z"/>
				<path class="st7" d="M513.2,1543.9c-29.2-26-47-94.1-47-94.1s1.6,76,35,108.3c16.4,15.8,104.2,38.6,140.5,50
					c-5.7-13.3-9-21.5-9.3-23.3l-0.5-2.5C626.8,1581.3,545.2,1572.2,513.2,1543.9z"/>
			</g>
			<g id="Blouse">
				<path class="st5" d="M295.1,863.6l-15.6-69.2C300.5,813.2,295.1,863.6,295.1,863.6z"/>
				<path class="st5" d="M532.6,802.7l-21.4,67.6C533.7,853.4,532.6,802.7,532.6,802.7z"/>
				<path id="Shirt" class="st6" d="M680.5,829.5c-16-25.7-44.1-41.3-74.3-41.4h-80.5l-50.5-26l-96.3,204l-56-204l-50.5,26H230
					c-31.8,0-57,18.6-72.4,44.2c-7.9,13.1,22.3,90,30.8,120.4c11.2,39.9,30.3,163.2,30.3,163.2s11.9,203.7,12.4,210.7
					c2.3,29.6,7.6,61.8-6.2,87.8c0,0,86.1,21.5,174,21.5c85.5,0,174.1-21.5,174.1-21.5c-13.9-26-8.4-58.3-6.1-87.8
					c0.5-7,32.4-210.7,32.4-210.7l48.4-163.3C647.7,952.6,688.8,842.9,680.5,829.5z"/>
				<path class="st5" d="M385.1,1173.4V974.5c0.1,0.3,92.9-115.5,123.3-99.5c0,0-25.3-30.8-41.4-30.4
					c-11.7,0.3-78.4,120.7-81.9,129.7v-0.1c-3.7-9.5-47.4-121.5-59.1-121.7c-16.1-0.4-29.3,18-29.3,18c24.7-12.9,64.5,63.7,81.9,93
					l1,209.9H385.1z"/>
			</g>
		</g>
		<path id="Neck-2" class="st4" d="M307.4,685.2v87.6l18.5,83.2c26.8,8.2,131.9,8.2,158.7,0l18.5-83.2v-87.6H307.4z"/>
		<g id="ears">
			<path class="st8" d="M204.4,452.8l-0.3-108.3c0-2.5-1.8-4.6-4.3-5l-27.4-4.5c-0.4-0.1-0.9-0.2-1.3-0.4
				c-54.5-24.2-33.4,28-25.7,68c10.4,53.7,20.9,79.2,32.6,84.3c1.1,0.5,2.4,0.5,3.5,0.1l19.8-6.8c2.2-0.7,3.6-2.8,3.5-5.1
				C204.5,467.8,204.4,460.3,204.4,452.8z"/>
			<path class="st9" d="M200,377h-16.4c-9.3,0-17,13.9-17,30.8l0,0c0,16.9,7.6,30.8,17,30.8H200V377z"/>
		</g>
		<g id="Face_01">
			<g id="ears-2">
				<path class="st8" d="M601.4,448.1l0.3-113.3l32.3-5.3c55.3-25,34.1,27.7,26.3,68.2c-10.9,56.9-22,82.3-34.5,85.4l-25.2-8.7
					C601.2,465.8,601.4,457,601.4,448.1z"/>
				<path class="st9" d="M600.7,370.7h16.4c9.3,0,17,13.9,17,31l0,0c0,17-7.6,31-17,31h-16.4V370.7z"/>
			</g>
			<path class="st4" d="M555,73.6c-7.4-4.6-14.9-8.9-22.8-12.8c-1.5-0.8-2.2-2-2.4-3.4c-0.3-0.2-0.7-0.4-1-0.6
				c0.5,3.9-4.7,7.4-8.6,4.2c-2.3-1.9-4.6-4-6.8-6.1c-1-0.9-2.1-1.7-3.1-2.6c-1.1-0.1-2.2-0.5-3.1-1.4c-0.1-0.1-0.2-0.2-0.4-0.3
				c-7.8-3.1-15.1-7.1-22.6-10.9c-2-1-2.7-2.6-2.6-4.1c-12.1-4.5-24.8-8.6-37.9-12.6l-92.8,2.3C257.2,50.5,179.1,100.4,179.1,222
				l32.4,379.6c9.3,31.4,72.5,61.9,106.7,104l-1.6,129.2l186.7-93.9l-21-42.3c47.8-41.4,93.4-82.5,108.1-105l31.3-373.3
				C621.6,149.4,596.5,104.7,555,73.6z"/>
			<path id="Shadow" class="st10" d="M405,740.9c-48.7,0.9-63.5-26.7-97.4-47.1v38.9c16.4,9.1,71.8,39.1,101.1,39.1
				c28.9,0,60.1-25.2,94.5-45.7v-45.7C464.7,715,452,740.9,405,740.9z"/>
			<path id="nose" class="st8" d="M398.4,513c-16.3-1.2-24.2-5.9-29.5-9.6c-0.4-0.3-1-0.2-1.3,0.2c0,0.1-0.1,0.1-0.1,0.2
				c-0.2,0.5-0.2,1.1,1,1.6c1.3,0.6,23.4,22.9,33,22.9c9.4,0,20.7-12.8,27-19.6c2.9-3.1,0.7-5.5-1.6-2.9
				C422.9,510.3,404.2,513.4,398.4,513z"/>
			<g id="Brows">
				<path class="st8" d="M286.6,278.5c4.1,0.1,50.2,5.9,50.1,9.4s0.6,9.9-3.4,9.9c0,0-2.6,4.6-2.7,4.6
					c-16.2-0.2-41.9-12.1-53.6-10.3c-2.2,0.4-17.1,0.7-23,3.2c-1.1,0.5-1.5,0-12.6,6.1c-2.7,0,1.3,2.2,0,0
					c-1.8-3.1,9.5-12.2,13.1-13.9"/>
			</g>
		</g>
		<g id="Mouth">
			<path class="st11" d="M401.6,572.4c-28.4,4-42.9-0.9-60.8-5.3c4.9,35,35.2,57.7,59.4,54.8c35.3-4.1,56-18.3,58.9-53.6
				C442.2,570.3,437,567.4,401.6,572.4z"/>
			<path class="st12" d="M451.9,568.5c1.3-2.5-8-3.3-8-3.3c-15,7.6-21.2,1.4-44.8,1.3s-27.6,5.6-42.6-2.1c0,0,2.5,5.7-12,0.6
				c-2.2-0.8,25.3,18.5,54.6,18.6C429.9,583.6,450.8,570.5,451.9,568.5z"/>
		</g>
		<g id="Eye_R">
			<path class="st13" d="M327.2,367.2c0,22.5-18.2,40.7-40.7,40.7l0,0c-22.5,0-44-33.5-40.7-40.7c9.2-20.5,18.2-40.7,40.7-40.7
				C308.9,326.5,327.2,344.7,327.2,367.2L327.2,367.2z"/>
			<path class="st14" d="M323.7,375.6c0,19-18.4,26.1-37.4,26.1s-36.8-7-36.8-26.1s17.9-32.6,36.9-32.6S323.7,356.6,323.7,375.6z"/>
		</g>
		<g id="Eye_R-2">
			<path class="st13" d="M550.3,368.2c5.7,10.7-18.2,40.7-40.7,40.7s-40.7-18.2-40.7-40.7s18.2-40.7,40.7-40.7l0,0
				C532.1,327.5,539.7,348.4,550.3,368.2z"/>
			<path class="st14" d="M546,378.1c0,19-18.1,24.5-37.1,24.5s-39.4-5.5-39.4-24.5s19.6-33.7,38.7-33.7
				C527.3,344.4,546,359.1,546,378.1z"/>
		</g>
		<path id="nose-2" class="st15" d="M401.8,597.1c-17.9-0.5-25.9-1.5-40.3-6.2c-5.2-1.7-16-9.1-15.8-4.1c0.3,13.8,26,37.1,50.5,37.2
			c40.6,0.2,42.6-11.3,51.9-23c2.1-2.6,8.4-13.2,4.1-9C458.2,586.1,420.7,597.7,401.8,597.1z"/>
		<path id="nose-3" class="st15" d="M401.8,560c-8-0.5-11.7-9.4-20.5-6.1c-17.8,6.7-33.1,10.5-39.6,11.6
			c-7.5,1.3,24.9,10.5,51.2,10.5c26.7,0,68.8-5.9,67-7.4c-5.3-4.2-7.2-3.3-32.4-14.9C414.4,547.7,410.7,560.6,401.8,560z"/>
		<path class="st16" d="M403.2,706.7l0.3-15.9h-28.1c-24.1,3-25.3,24.8-13.6,29.6c8.4,3.5,17.2,7.4,39.8,6.5"/>
		<path class="st8" d="M438.7,670.3c-27.2,14.6-40.9,15-73.3,0"/>
		<path class="st8" d="M417.6,544.6c-0.7,0.1-1.4,0.4-2.1,0.7c-10.4,7.2-16.8,8.1-30.2-0.7"/>
		<path class="st17" d="M318.8,439.8c0.9-13.2-17.2-19.9-38.7-20.1l0,0h-22.4c-9.6,0-17.5,9.1-17.5,20.1l0,0
			c0,11.1,7.9,20.1,17.5,20.1h22.4C301.6,459.6,317.8,454.5,318.8,439.8z"/>
		<path class="st18" d="M524,373.6c-5.6-0.7-9.6-5.7-9-11.4c0.4-3.4,2.5-6.4,5.6-8c-10.7-7.1-25.2-4.2-32.3,6.6
			c-7.1,10.7-4.2,25.2,6.6,32.3s25.2,4.2,32.3-6.6c2.5-3.8,3.9-8.3,3.9-12.9c0-0.6,0-1.2-0.1-1.8C528.9,373.3,526.5,373.9,524,373.6
			z"/>
		<path class="st18" d="M302.5,372.4c-5.6-0.7-9.6-5.7-9-11.4c0.4-3.4,2.5-6.4,5.6-8c-10.7-7.1-25.2-4.2-32.3,6.6
			c-7.1,10.7-4.2,25.2,6.6,32.3c10.7,7.1,25.2,4.2,32.3-6.6c2.5-3.8,3.9-8.3,3.9-12.9c0-0.6,0-1.2-0.1-1.8
			C307.4,372,305,372.7,302.5,372.4z"/>
		<path class="st19" d="M558.2,788.1c5.9,2.5,4.1-0.6,3.6-3.4C551.7,784.7,548,783.9,558.2,788.1z"/>
		<path class="st19" d="M147.3,763.9L147.3,763.9c-0.9,0.8-2.1,1.3-3.4,1.3c0.5,5.5,1,11.1,1.4,16.6c0.1,1.6-0.6,2.9-1.6,3.7
			c2.2,2.3,4.4,4.3,6.4,6.2c0.4,0.4,0.9,0.6,1.3,0.8c0.2,0,0.3,0.1,0.5,0.1c3.1,0.8,6.5-2.6,4.6-6.1
			C152.3,778.6,149.3,771,147.3,763.9z"/>
		<path class="st19" d="M108.4,733.8c1.2,2.4,2.3,4.8,3.5,7.1c0.1,0,0.2,0,0.2,0C111,738.5,109.7,736.1,108.4,733.8L108.4,733.8z"/>
		<path class="st19" d="M114.2,671.6c0.1,0.4,0.2,0.8,0.3,1.2c3.1,11.4,6.8,22.6,11.2,33.6c-2.1-11.9-4.3-23.9-6.8-35.7
			C117.6,671.6,115.8,672,114.2,671.6z"/>
		<path class="st19" d="M695.6,545.9c0.1-4.9,0.3-9.8,0.7-14.6c-0.3-10.8-0.6-21.5-0.9-32.3c-14-67.4-35.1-147.2-38.3-237.4
			c-9.8-63.9-42-152.8-129-202c-1.5,2.4-5.1,3.8-8,1.4c-2.3-1.9-4.6-4-6.8-6.1c-1-0.9-2.1-1.7-3.1-2.6c-1.1-0.1-2.2-0.5-3.1-1.4
			c-0.1-0.1-0.2-0.2-0.4-0.3c-7.2-2.9-14-6.5-20.8-10C460.7,31.9,432,26,399.3,24.1c-82.4-5-152.5,33.7-203.2,83.8
			c-6.5,9.7-14,18.9-23.2,25.2c-12.3,14.8-23.1,30-32.1,45c-0.6,2.6-1.3,5.1-1.9,7.6c-1.8,7-3.3,14.1-4.7,21.2
			c-0.1,2.3-0.3,4.6-0.5,6.9c1.4,0.8,2.4,2.2,2.4,4.2c-0.9,31.7-7.9,62.8-15.7,93.5c0.9,0.8,1.5,2,1.4,3.6
			c-0.2,10.3-2.6,20.2-4.3,30.3c-0.4,4.1-0.9,8.2-1.5,12.3c-0.1,1.3-0.1,2.7-0.2,4.1c-0.1,16.5-0.6,32.8-1.6,49.3
			c-2,32.5-0.2,65.3-3.8,97.7c0.3,5.5,0.7,11,1,16.5c0.3,4.2,0.5,8.3,0.6,12.5c1,21.2,1.5,42.4,1.1,63.6
			c11.2,43.9,21,88.3,27.2,133.2c1.1-0.4,2.4-0.3,3.7,0.5c0.7-10.9,3.5-19.7,6.5-26c1.8-3.9,5.6-2.1,7.8,1.6
			c31.8,54.3,20.8,38.6,53.5,57.1c0,0,14.1,19.2,13.5,15.6c-4.4-28.3-18.5-73.5-17.3-102.2c0-1.2,0.4-2.3,1.1-3.2
			c0.2-43.2,8.4-82,0.1-125.3c-0.2-0.8-3-7.8-2.7-8.6l-9.4-110.5c4.6-118.1-1.6-259,65.8-311.7c31.8-24.7,93.8-37,116.2-34.2h17.6
			C551.3,98.8,579.3,94,591.4,420.8c0,0,0.7,27.3-7,136.2c-6.9,2-7.2,30.5-8.3,33.7c-0.1,0.2-0.1,0.4-0.2,0.6
			c-3.3,6.4-2.6,3-6.4,15.7c1.1,0.6-1.7,14.5-1.4,16.2c2.9,15.3,2.8,30.5,1.8,45.8c0.3,3.7,0.7,7.5,1,11.2c0.6,0.9,0.8,2,0.8,3.1
			v6.8c2.1,26.6,2.7,53.5-4.7,78.7c-0.3,1.3-1.1,2.3-2.2,3.1c-2.3,6-0.7,7.7,1.5,7.7c-1,0.5-2.2,1.2-3.5,1.9c-1.2,0.7-1.2,1.9-1,3.2
			c22.3,0,76.1-3.7,79.2-74.2c0.1-2.3,2-4.1,4.2-4c1.6,0,3,1,3.6,2.4c7.9,17,15,50.7-17.5,96.3l1.3-1.1
			c30.5-24.9,46.4-51.7,57.5-86.5c0.2-1.5,0.4-3,0.5-4.5c-3.4-11.4-2-23.7-0.9-35.8c-4.8-12.9-11.4-25.5-10.5-35
			c0.2-2.2,0.3-2.8,14.2-3.5c0-0.1,0-0.3,0-0.4c0.4-4.7,0.8-9.5,1.5-14.3c-1.7-24.6-3.7-49.2-6.2-73.8
			C688.3,546.5,692.6,544.8,695.6,545.9z"/>
		<path class="st11" d="M695.6,545.9c0.1-4.9,0.3-9.8,0.7-14.6c-0.4-17.5-1.1-34.9-1.4-52.4c-1.7-0.8-3-2.3-3.2-4.4
			c-0.8-9.8-0.8-19.7,0-29.5c-0.5-3.9-1-7.8-1.4-11.7c-1.4-5.4-2-11-1.9-16.6c-0.7-6.2-1.4-12.4-2.2-18.6c-3.7-17.4-7-34.8-9.4-52.3
			c-0.4-2.7,1.1-4.8,3.1-5.7c-0.5-0.6-0.9-1.3-1.1-2.3c-0.2-1.3-0.4-2.6-0.5-4c-0.9-0.8-1.5-1.9-1.6-3.4c-0.5-4.8-1.1-9.6-1.6-14.4
			c-0.3-0.3-0.5-0.6-0.7-1.1c-4.5-8.9-6.1-18.4-7.2-28c-3.5-12.6-5.9-25.4-6.5-38.5c0-0.4,0-0.7,0-1.1c0-2,1.2-3.5,2.7-4.2
			c-0.6-4.3-1-8.6-1.4-12.9c-4.8-7.3-9.4-14.7-13.7-22.2c-2-3.6,0.6-6.8,3.7-7.3c-14.3-35.8-31.1-63.6-49.1-85.5
			c-2-2-3.9-4.1-5.9-6.1c-9.6-7.9-19-16.2-27.9-25c-0.6-0.6-1-1.2-1.2-1.8c-11.4-7.9-23.3-15.1-35.8-21.4c-1.6-0.8-2.3-2.2-2.4-3.7
			c-0.4-0.2-0.7-0.4-1.1-0.7c0.9,4-4.5,7.9-8.5,4.6c-2.3-1.9-4.6-4-6.8-6.1c-1-0.9-2.1-1.7-3.1-2.6c-1.1-0.1-2.2-0.5-3.1-1.4
			c-0.1-0.1-0.2-0.2-0.4-0.3c-7.8-3.1-15.1-7.1-22.6-10.9c-1.9-1-2.6-2.5-2.6-4c-25.1-7.9-55.9-12.2-82.8-11.5l6.5-0.1
			c0,0-5.4-6.2-5.5-6.2h-0.1l-14.2,5c-27.9-0.7-14.3-4.9-61.7,10.6C268.1,51.7,180.9,95,134.5,241c-2.7,23.8-8.1,47.3-14.1,70.5
			c0.9,0.8,1.5,2,1.4,3.6c-0.2,10.3-2.6,20.2-4.3,30.3c-0.4,4.1-0.9,8.2-1.5,12.3c-0.1,1.3-0.1,2.7-0.2,4.1
			c-0.1,16.5-0.6,32.8-1.6,49.3c-0.7,11.9-0.9,23.8-1.1,35.7c44.4-337.9,178-413.5,286.7-413.6c111,0.2,253.6,53.2,279.7,434.1
			c10.2,148.5-10,213.4-10,213.4c11.3-13.8,19.3-31.5,24.8-52.1c0.2-1.4,0.4-2.9,0.6-4.3c-1.7-24.6-3.7-49.2-6.2-73.8
			C688.3,546.5,692.6,544.8,695.6,545.9z"/>
		<path class="st11" d="M648.4,346.5C621,144.7,532.9,92.1,470.3,71.2C447.6,63.8,423.8,60.3,400,61l0,0h-0.1h-0.1l0,0
			c-23.9-0.7-47.7,2.8-70.4,10.2c-62.7,20.9-150.8,73.5-178.1,275.3c-15.2,111.8-27.9,236.7,16.1,290.9c0,0-15.3-35.4-15.6-164.8
			c-0.8-330.9,97.7-409.4,248-398.3c177.5,13,226.2,47.8,248.8,379.1c8.8,129.2-16.3,184.1-16.3,184.1
			C676.2,583.2,663.5,458.3,648.4,346.5z"/>
		<path class="st19" d="M96.9,459c-0.2,0-0.4,0-0.5,0c-0.4,10.6-0.8,21.2-1.3,31.8c0.1,0.5,0.1,1,0.2,1.5
			c0.8-10.7,1.3-21.4,1.7-32.2C96.9,459.7,96.9,459.3,96.9,459z"/>
		<path class="st19" d="M117.5,345.5c-0.4,4.1-0.9,8.2-1.5,12.2c-0.1,1.4-0.1,2.7-0.2,4.1c0,4.7-0.1,9.4-0.2,14.1
			c0.9-6.1,1.5-12.3,1.8-18.5c0.2-4.2,0.2-8.5,0.2-12.7C117.6,345,117.5,345.2,117.5,345.5z"/>
		<path class="st19" d="M117.7,619.9c4.5,18.4,8.7,37,12.4,55.6c0.2,0.4,0.4,0.9,0.6,1.3c3.2,7,13.5,1,10.1-5.9
			C132.6,654.1,124.3,637.3,117.7,619.9z"/>
		<path class="st19" d="M405.5,31C352.6,20,300.4,40.5,257,69.6c-21.2,14.4-41.4,30.1-60.6,47c-18.5,16.1-35.8,34-48.7,55
			c-3.7,6-6.9,12.2-9.8,18.6c-1.3,5.6-2.5,11.1-3.7,16.7c-0.1,2.3-0.3,4.6-0.5,6.9c1.4,0.8,2.4,2.2,2.4,4.2
			c-0.1,4.3-0.4,8.5-0.7,12.7c3.2-10.4,6.8-20.6,11-30.5c19.1-45.6,59.1-77.9,97.7-106.8c44.9-33.6,100.3-63,158.2-50.9
			C409.8,44.1,413,32.6,405.5,31z"/>
		<path class="st19" d="M449.2,74.1c-58-23-129.6-18.1-179.6,21.1c-22.5,17.7-39.9,41.1-54.9,65.2c-16.6,26.7-31.4,54.4-44.3,83
			c-14.9,33-26.2,67.5-29.9,103.7l11.7-1.6c-7-48.5,6.8-97.3,29.4-139.9c11.7-21.9,25.5-42.7,41.2-62c15-18.5,31.8-36.1,52.3-48.6
			c24.4-14.9,52.7-21.3,80.7-25.8c7.5-1.2,4.4-12.7-3.2-11.5c-26.2,4.2-52.4,10.2-75.9,22.7c-22.7,12-41.5,30-57.9,49.5
			c-32.6,38.8-59.8,84-72.7,133.3c-7.5,27.8-9.3,56.9-5.4,85.5c1,7.1,11.1,4.5,11.7-1.6c6.2-60.7,35.2-117,65.6-168.9
			c13.8-23.6,29.2-46.6,49.3-65.3c21.7-20.1,48.2-32.4,77.1-37.7c34.1-6.3,69.5-2.3,101.6,10.5C453.2,88.4,456.3,76.9,449.2,74.1
			L449.2,74.1z"/>
		<path class="st19" d="M692,586.3c-1-12-2.1-23.9-3.3-35.9c-0.4-3.9,3.9-5.6,6.9-4.5c0.1-4.1,0.3-8.2,0.5-12.3
			c-0.1-15.3-1.1-30.5-2.3-45.7c-0.3-3.4-0.5-6.9-0.8-10.3c-0.8-0.8-1.3-1.9-1.4-3.1c-0.6-7.3-0.8-14.6-0.5-21.9
			c-0.6-8.2-1.3-16.4-2.1-24.5c-0.5-2.8-0.7-5.7-0.8-8.5c-0.7-7-1.3-14-2.1-20.9c0-0.2,0-0.3-0.1-0.5c-3.7-17.4-7-34.8-9.4-52.3
			c-0.3-2,0.5-3.6,1.6-4.7c-1.6-9.7-3.5-19.4-5.5-29c-3.4-7.9-4.8-16.2-5.7-24.6c-1.3-4.9-2.6-9.9-4-14.8
			c-6.2-21.4-13.5-43.5-25.7-62.1c-9.1-26.4-23.9-50.1-42-71.6c-21-24.8-45.6-47.6-73.2-64.9C491.5,55,456.4,43.6,420.2,48.6
			c-7.5,1.3-4.3,12.8,3.2,11.7c62.4-8.6,119.1,37.6,158,81.1c11.6,13,22,27,30.6,42c-4.9-2.8-10,4-7.5,8.5
			c14.1,26.4,25.3,54.1,33.3,82.7c1.6,16.9,2.4,33.9,3.5,50.8c0.8,13.1,1.6,26.2,2.4,39.4c-1.4,0.1-2.7,0.7-3.8,1.7
			c-1.1,1.1-1.7,2.5-1.7,4.1c-0.6,26.5,0.4,53,3.1,79.4c0.6,5.8,6.9,7.2,10.1,4.1c0.4,0.3,0.8,0.5,1.2,0.7
			c4.6,22.3,8.9,44.6,11.7,67.1c-4.5,63.7-7.2,127.6-3.5,191.4c0.4,6.3,10.6,8.6,11.7,1.6c0.1-0.5,0.2-1,0.2-1.5h0.2
			c0-0.3,0-0.6,0-0.9c5.6-36.9,11.1-73.9,16.6-110.9C690.6,596.5,691.3,591.4,692,586.3z M652.3,280.9c-0.8-3.2-1.7-6.4-2.6-9.5
			c-0.2-1.7-0.3-3.3-0.5-5c0.3,1.1,0.7,2.2,1,3.2c1.3,4.2,2.5,8.4,3.6,12.7C653.4,281.7,652.9,281.3,652.3,280.9z M661.4,318.2
			c-1.7-9.4-3.5-18.7-5.5-28.1c2.4,9.2,4.5,18.4,6.4,27.7C662,318,661.7,318.1,661.4,318.2z M668.6,473.1c1-0.9,1.6-2.3,1.6-4.2l0,0
			l0,0c0,0,0,0,0-0.1c0.3-10.9-2.5-21.6-7.7-31.1c1.1-8.8,1.9-17.7,2.4-26.5c0.2,0.2,0.5,0.4,0.8,0.5c5.1,28,9.2,56.1,9.9,84.6
			c0,1.4,0,2.7,0.1,4.1c-0.7-0.6-1.5-0.9-2.3-1.1C671.9,490.6,670.3,481.8,668.6,473.1z M679.9,588.7c-2.7,18.9-5.6,37.8-8.4,56.7
			c0.1-16.4,0.4-32.9,1.1-49.3c3,0.1,6.1-1.9,6.4-5.7h0.1l0.1-3.5c0.3-5.2,0.4-10.4,0.5-15.5l0.2-8c1.3-0.7,2.3-1.8,2.6-3.6
			c0.5-2.6,1-5.2,1.4-7.8C683.1,564.3,681.7,576.5,679.9,588.7z"/>
		<path class="st19" d="M185.3,618.8c-13.4-19.3-19.4-42.1-22.1-65.1c-3.1-25.9-3.7-52.2-3.5-78.2c0.4-55.2,6-110.2,13.9-164.8
			c4.4-30.5,9.5-61,14.8-91.4c1.3-7.5-10.2-10.7-11.5-3.2c-9.7,55.5-18.7,111.1-24.1,167.3c-5.3,54.7-7.9,110.6-2.1,165.4
			c2.8,26.7,8.8,53.7,24.3,76.1C179.3,631.2,189.7,625.2,185.3,618.8L185.3,618.8z"/>
		<path class="st19" d="M136.1,337.2c-1.9,24.5-5.2,48.9-10,73c-1.5,7.5,10,10.7,11.5,3.2c5-25.2,8.4-50.6,10.4-76.2
			C148.6,329.5,136.7,329.5,136.1,337.2L136.1,337.2z"/>
		<path class="st19" d="M396.8,41.4c9.2,1.2,18.5,2.1,27.6,3.5c7.2,1.1,14.3,2.8,18.9,8.8s13.1-2.4,8.4-8.4
			c-5.5-7-14.2-10.1-22.7-11.6c-10.7-1.8-21.5-2.8-32.3-4.2C389.2,28.5,389.3,40.5,396.8,41.4z"/>
		<path class="st19" d="M354.7,83.5c23.7-3.7,50.6-14.8,74.2-5.5c7.1,2.8,10.2-8.7,3.2-11.5c-25.7-10.1-54.7,1.5-80.5,5.5
			C344,73.2,347.2,84.6,354.7,83.5L354.7,83.5z"/>
		<path class="st19" d="M459.5,65c6.8,1,11.7,6.4,11.3,13.3c-0.4,7.7,11.5,7.6,11.9,0c0.6-11.7-8.3-23.1-20-24.8
			c-3.2-0.5-6.4,0.8-7.3,4.2C454.6,60.5,456.4,64.6,459.5,65L459.5,65z"/>
		<path class="st19" d="M439.3,88.2c16.8-1.7,33.7,1.4,48.9,8.7c6.9,3.3,12.9-6.9,6-10.3c-17-8.4-36-12-54.9-10.3
			C431.8,77,431.7,88.9,439.3,88.2L439.3,88.2z"/>
		<path class="st19" d="M424.1,39.1C472,50,518.4,70.7,555.8,103c18.7,16,34.7,34.8,47.4,55.9c14.1,23.6,23.9,49.5,31.2,76
			c8.2,29.5,13.4,59.7,18.5,89.8c1.3,7.5,12.8,4.4,11.5-3.2c-9.4-55.2-19.3-111.7-46.7-161.3c-24.9-45.1-64.4-80.2-110-103.6
			c-25.5-13-52.5-22.7-80.5-29C419.8,26,416.6,37.5,424.1,39.1L424.1,39.1z"/>
		<path class="st19" d="M291.4,93.2c-37.7,12.3-70.1,37-96.7,66.2c-24,26.3-43.5,56.2-55.9,89.5c-0.1,0.2-0.2,0.4-0.3,0.6
			c-13,31.5-15.3,65.8-17.6,99.4c-1.2,17.5-2.4,35-3.5,52.5c-1.1,5.9-2.2,11.8-3,17.7c-0.3,2.2-0.6,4.5-0.9,6.7
			c-0.9,28.6,0,57.4-3.5,85.8c0,0.3-0.1,0.5-0.1,0.7c0.8,4.9,1.3,9.9,1.6,14.9c3.3,2.8,9.8,1.3,10.1-4.3
			c2.1-36.6,4.3-73.2,6.8-109.8c0.2-3.3,0.4-6.5,0.6-9.8c2.5-11.7,5.6-23.4,8.2-35.2c0.5-0.6,0.8-1.4,1-2.4c0.4-2.5,0.8-5.1,1.2-7.6
			c2.5-12.8,4.1-25.6,3.4-38.7c0-0.4,0-0.7,0-1.1h-0.1c-0.1-1-0.3-1.9-0.7-2.6c5.6-20.6,8.3-41.9,8.2-63.4c4.1-11.1,9-22,14.8-32.4
			c18.7-33.5,44.1-62.7,74.7-85.8c16.7-12.6,35-22.9,54.9-29.4C301.9,102.3,298.7,90.8,291.4,93.2z"/>
		<path class="st19" d="M394.6,72.3c11.1,8.3,25,9.7,38.4,10.6c15.8,1.1,31.1,3.6,45.9,9.8c3,1.3,6.3,0.9,8.1-2.1
			c1.5-2.5,0.8-6.9-2.1-8.2c-14.5-6.1-29.8-9.9-45.5-11c-13.4-1-27.5-0.9-38.7-9.4C394.5,57.4,388.5,67.8,394.6,72.3L394.6,72.3z"/>
		<path class="st19" d="M389.8,39.7c16.8-1,33.7,1.6,49.5,7.4l3.2-11.5c-23.9-4.7-48.3-7-72.6-6.7v11.9c29.1-1,58.5-1.9,86.9,5.5
			l3.2-11.5c-17.8-3.6-35.9-5.6-54.1-6.1c-7.7-0.2-7.7,11.7,0,11.9c17.1,0.5,34.1,2.4,50.9,5.7c7.4,1.5,10.7-9.5,3.2-11.5
			c-29.4-7.7-59.9-7-90.1-6c-7.6,0.3-7.7,12,0,11.9c23.3-0.3,46.6,1.8,69.5,6.3c3.3,0.5,6.3-1.8,6.8-5.1c0.4-2.7-1.1-5.4-3.6-6.4
			c-16.8-6.2-34.8-8.9-52.7-7.9C382.2,28.2,382.2,40.1,389.8,39.7L389.8,39.7z"/>
		<path class="st19" d="M653.3,437.7c-3.7,19.1,1.8,37.8,4.8,56.6c2.9,18.5,4.4,37.1,4.5,55.8c0.2,38-5.5,75.7-16.7,112
			c-2.3,7.3,9.2,10.5,11.5,3.2c16.7-53.9,21.2-110.9,13.3-166.8c-2.6-18.7-9.6-38.6-5.9-57.6C666.2,433.4,654.7,430.2,653.3,437.7
			L653.3,437.7z"/>
		<path class="st19" d="M640.5,435.7c18.9,40.3,17.9,86.3,29.3,128.7c2,7.4,13.5,4.3,11.5-3.2c-11.8-43.6-11.1-90.1-30.5-131.6
			C647.6,422.8,637.3,428.8,640.5,435.7L640.5,435.7z"/>
		<path class="st19" d="M470.1,89.3c14.6,1,27.2,9.3,39.1,17c6.5,4.2,12.4-6.1,6-10.3c-13.9-9-28.2-17.4-45.1-18.7
			C462.4,76.8,462.5,88.7,470.1,89.3L470.1,89.3z"/>
		<path class="st19" d="M505.1,103.1c15.3,15.8,34.8,26.4,53,38.5c16.7,11.1,33.4,25.1,40.2,44.7c2.5,7.2,14,4.1,11.5-3.2
			c-15.5-45-65.8-57-96.2-88.4C508.2,89.2,499.8,97.6,505.1,103.1L505.1,103.1z"/>
		<path class="st19" d="M205.3,163.1c0.2,5.4-5.6,11.6-8.3,16.1c-3.3,5.7-6.3,11.4-9.1,17.4c-5.5,11.7-10.2,23.9-13.9,36.3l11.7,1.6
			c-0.5-7.3,3.2-14.2,5.8-20.8c2.7-7,5.8-13.7,9.4-20.3c6.5-11.5,15.2-21.5,27.4-27.1c6.9-3.2,0.9-13.5-6-10.3
			c-13.8,6.5-24.2,18.3-31.7,31.4c-4.1,7.5-7.6,15.2-10.6,23.1c-3.1,7.7-6.8,15.5-6.2,24c0.4,6.6,9.7,8.2,11.7,1.6
			c3.9-13.2,8.9-26,15-38.3c2.9-5.8,6.1-11.6,9.5-17.1c3.3-5.5,7.4-10.8,7.2-17.5C216.8,155.5,204.9,155.4,205.3,163.1L205.3,163.1z
			"/>
		<path class="st19" d="M388.7,66.7c29.8,4.4,60.1,6.4,89.5,13.6c6.5,1.6,13.4,3,19.3,6.2S508.7,94,514,98.2
			c10.4,8.3,22.1,14.7,32,23.7c10.8,9.8,20.6,20.8,30.2,31.8c9.7,11.1,18.1,23,23.7,36.8c10.9,26.9,13.7,56.7,17.5,85.2
			c4.9,36.5,8.7,73.4,6.1,110.3h11.9c0.3-46.9-2.1-93.7-7-140.4l-9,5.1c8.3,3.9,10.7,13,12.3,21.3c2.3,12.2,3.5,24.7,4.8,37.1
			c2.9,26.2,4.8,52.5,5.8,78.8l11.7-1.6c-9.6-43.3-13.8-87.5-17.9-131.5c-0.7-7.5-12.3-7.7-11.9,0l6.7,121.9l11.7-1.6
			c-4.9-21.6-7.7-43.6-8.3-65.7c-0.2-7.6-12.1-7.7-11.9,0c0.7,23.2,3.6,46.2,8.8,68.9c1.5,6.5,12.1,5.2,11.7-1.6l-6.7-121.9h-11.9
			c4.2,45.1,8.5,90.4,18.3,134.7c1.5,6.5,12,5.1,11.7-1.6c-1.1-29-3.3-57.9-6.7-86.7c-1.5-12.5-2.3-25.6-5.5-37.8
			c-2.5-9.4-7.4-18.7-16.5-23.1c-3.6-1.7-9.5,0.2-9,5.1c4.9,46.6,7.3,93.5,7,140.4c0,7.7,11.4,7.6,11.9,0
			c2.4-33.9-0.6-67.9-4.9-101.5c-3.9-30.2-6.6-61.8-16.7-90.8c-10-28.7-30.2-51.1-51.2-72.4c-5.2-5.4-10.8-10.4-16.7-15
			c-5.5-4.3-11.5-7.7-17.2-11.7c-11-7.8-20.4-17.6-33.6-21.9C462,61.5,426.3,60.1,392,55.1C384.5,54,381.3,65.5,388.7,66.7
			L388.7,66.7z"/>
		<path class="st19" d="M622.5,175.8c-21.2-44.5-52.9-84.3-94.5-111.2c-1.3-0.8-2.6-1.6-3.9-2.4c-1.3,0.2-2.7-0.2-4-1.2
			c-1.3-1.1-2.6-2.2-3.9-3.4C497,46.8,475.9,39.1,454,35.4c-7.4-1.2-10.6,10.3-3.2,11.5c45.5,7.6,85.5,32.9,116.3,66.6
			c34.3,37.5,55.5,84.7,68.7,133.3c8,29.3,13.2,59.2,17,89.3c0.9,7.5,12.9,7.6,11.9,0C657.8,281.1,646.5,226.1,622.5,175.8z"/>
		<path class="st19" d="M686.1,655.1c-0.6-21.6,2.6-43.1,6.2-64.4c-1.1-13.4-2.3-26.8-3.7-40.2c-0.4-3.9,3.9-5.6,6.9-4.5
			c0.1-4.9,0.3-9.8,0.7-14.6c-0.4-17.5-1.1-34.9-1.4-52.4c-1.7-0.8-3-2.3-3.2-4.4c-0.8-9.8-0.8-19.7,0-29.5c-0.5-3.9-1-7.8-1.4-11.7
			c-1.4-5.4-2-11-1.9-16.6c-0.7-6.2-1.4-12.4-2.2-18.6c-3.7-17.4-7-34.8-9.4-52.3c-0.4-2.7,1.1-4.8,3.1-5.7
			c-0.5-0.6-0.9-1.3-1.1-2.3c-0.2-1.3-0.4-2.6-0.5-4c-0.9-0.8-1.5-1.9-1.6-3.4c-0.5-4.8-1.1-9.6-1.6-14.4c-0.3-0.3-0.5-0.6-0.7-1.1
			c-4.5-8.9-6.1-18.4-7.2-28c-3.4-12.1-5.7-24.5-6.4-37.1c-9.4-28.6-22.4-56.1-43.1-78.5c-5.4-5.4-13.8,3-8.6,8.6
			c21,22.8,33.5,51.6,42.5,80.9c9.9,32.4,17.1,65.7,24.3,98.8c4.5,20.8,8.7,41.7,12.5,62.8c2.2,31.7,3.3,63.4,1.5,95
			c-1.9,32.9-8.9,64.9-13.2,97.5c-2.4,18.2-3.5,36.6-1.3,54.9c0.6,5,6.2,8,10.2,4.2c1.7-1.6,3.3-3.3,4.8-5.1
			c0.1-2.2,0.2-4.4,0.3-6.5c0-1.8,0.8-3.2,2-3.9c-0.1-5.2,0.1-10.4,0.4-15.6C691.1,647.1,688.8,651.2,686.1,655.1z"/>
		<path class="st19" d="M113.1,574.9c0.1,8.2,0.1,16.5,0,24.7c1.2-0.9,2-2.4,1.8-4.6C114.2,588.3,113.6,581.6,113.1,574.9z"/>
		<path class="st19" d="M116.8,351.8c-0.2,2-0.5,4-0.8,5.9c-0.1,1.3-0.1,2.7-0.2,4c-0.1,16.5-0.6,32.8-1.6,49.3
			c-2,32.5-0.2,65.3-3.8,97.7c0.4,5.5,0.7,11,1,16.6c0.2,2.2,0.3,4.5,0.4,6.8C112,473.2,120,414.3,128,356
			C129,348.7,118.6,345.4,116.8,351.8z"/>
		<path class="st19" d="M193,187.5c-26.9,18.4-48,43.6-61.3,72.7c-2.9,17.3-7,34.3-11.3,51.3c0.9,0.8,1.5,2,1.4,3.6
			c-0.2,10.3-2.6,20.3-4.3,30.4c-0.2,1.7-0.3,3.4-0.5,5.1c0.2,4.1,0.9,8.2,2.1,12.3c2.5,7,14,3.9,11.7-3.4
			c-6.3-20.2,5.4-39.9,16.1-56.3c10.7-16.4,21.6-32.8,23.4-52.8c0.5-5.3-6.7-7.6-10.2-4.2c-3.8,3.7-7.3,7.5-10.7,11.5
			c-0.3-1.2-1-2.3-1.8-3.1c12.4-22.5,30-42.2,51.4-56.7C205.3,193.5,199.4,183.2,193,187.5z M147.9,279.4c-2.2,3.8-4.6,7.4-7,11.1
			C143.1,286.8,145.5,283,147.9,279.4z"/>
		<path class="st19" d="M177.4,291.6c-0.4-4.5-7.8-7.5-11.5-2.5c-10.1,13.9-19.6,28.2-28.5,42.8c-7.4,8.6-14.1,18.1-16.4,29.5
			c-1.3,6.3,7.6,10.9,10.9,4.6c4-7.5,8.1-15,12.4-22.3c-0.8,2.3-1.6,4.7-2.4,7c-9.8,18.8-19,38-27.6,57.4c-0.1,1-0.1,1.9-0.2,2.9
			c-0.3,5.5-0.6,11-0.7,16.5c1.3,0.4,2.7,0.4,4-0.2l-4.3,13.2c-0.2,11.3-0.3,22.6-0.6,33.9c1.4-0.6,2.7-1.7,3.3-3.6
			c8.9-27.5,17.9-55,26.8-82.5c0.3-1,0.6-2,1-3c12.9-21.3,25.9-42.5,39-63.6c2.6-4.1-0.9-8.6-5.1-9c-0.3,0-0.6,0-0.8,0
			c2.4-4.1,4.9-8.2,7.3-12.3C187.1,295.5,182,290.5,177.4,291.6z"/>
		<path class="st11" d="M636.7,463.7c0.2,27.5,2.2,55,6,82.2c1.9,13.5,4.2,27,6.9,40.3c2.2,10.5,3.3,24.6,12.2,31.9
			c3.2,2.7,8.9,2.1,10-2.6c12.2-54.7,10.2-110.8,8-166.4c-0.3-7.7-11.3-7.6-11.9,0c-4.2,52-10,103.9-17.5,155.6
			c-1.1,7.5,10.4,10.7,11.5,3.2c7.7-52.7,13.7-105.6,17.9-158.8h-11.9c2.2,54.5,4.4,109.7-7.6,163.2l10-2.6c-3.8-3.2-4.9-7.7-6-12.4
			c-1.5-6.3-2.8-12.7-4.1-19.1c-2.5-12.5-4.6-25-6.2-37.7c-3.4-25.5-5.1-51.2-5.3-77c-0.1-7.7-12-7.7-11.9,0L636.7,463.7z"/>
		<path class="st19" d="M694.9,624.2c-1.7-24.6-3.7-49.2-6.2-73.8c-0.4-3.9,3.9-5.6,6.9-4.5c0.1-4.9,0.3-9.8,0.7-14.6
			c-0.1-5.9-0.3-11.9-0.5-17.8c-1.7,0.6-3.1,1.8-3.6,3.7c0.1-11.1,0-22.2-0.2-33.3c-0.1-2.6-1.4-4.2-3.1-5.1c0-5.2,0-10.3,0.1-15.5
			l0.4-6.6H689c-0.2-3.9-3.4-5.7-6.4-5.4c0.5-12.9,0.7-25.9,0.6-38.8c-0.1-7.9-11-7.4-11.9,0c0,0.1,0,0.2,0,0.3h-0.4
			c0,1,0,1.9,0,2.9c-0.5,3.7-0.9,7.4-1.4,11.1c-0.9-0.7-1.9-1.1-3-1.2c0-0.4,0-0.9-0.1-1.3c0.1-1.9,0.1-3.8,0.2-5.7h-0.5
			c-0.7-7.4-11.7-7.4-11.9,0.2c-0.1,4.2-0.2,8.4-0.4,12.6c-3.1,0-6.5,2.2-6.4,5.9c0.1,5.2,0.2,10.4,0.2,15.6c-2-1.3-4.7-1.3-6.6,0
			c-1.1-7.2-2.3-14.3-3.6-21.5c0-0.1,0-0.2,0-0.2l0,0c-0.1-0.5-0.2-0.9-0.3-1.4c-1.3-6.7-11.7-5-11.7,1.6c0,16,0.3,32,0.9,48
			c-1.5,44-4.4,88-8.9,131.9c0,0.1,0,0.2-0.1,0.3l0,0c0,0.5-0.1,0.9-0.1,1.4c-0.7,6.7,10.2,8.1,11.7,1.6c0.1-0.2,0.1-0.5,0.2-0.7
			c0,8.7-0.1,17.3-0.2,26c-0.1,7.7,11.6,7.6,11.9,0c0-0.1,0-0.1,0-0.2h0.1c0-0.9,0-1.8,0-2.7l0,0c2.2,5,10.8,4,11.4-2.6
			c1.3-14.3,2.2-28.7,2.7-43.1c0.2-1.3,0.4-2.6,0.6-3.9c-0.7,13.4-1.2,26.9-1.7,40.4c-0.1,0.5-0.2,1-0.3,1.5h0.2c0,0.4,0,0.8,0,1.3
			c-0.1,2.7,1.7,4.6,3.9,5.4c0,2.2-0.1,4.3-0.1,6.5c-0.2,2-0.3,3.9-0.5,5.9h0.4c0.1,4.3,3.7,6,7,5.3l-0.2,2.7h0.4
			c0.3,3.8,3.4,5.6,6.3,5.4c2.3,3.6,9,4,10.6-0.2c0,0.1,0,0.1,0,0.2c-0.1,1.9,0.8,3.5,2.1,4.5c0,4.6-0.1,9.3-0.3,13.9
			c-0.1,1-0.2,2.1-0.3,3.1h0.1c-0.2,3.8,2.6,5.7,5.5,5.7c0.6-8.9,1.9-17.9,1.9-26.4c0-1.8,0.8-3.2,2-3.9c-0.1-6.7,0.2-13.4,0.7-20
			C693.7,633.7,694.2,629,694.9,624.2z"/>
		<path class="st19" d="M697.3,365c0.6,0.5,1,1.2,1.2,2.1c0.3,1.2,0.5,2.3,0.8,3.5c0.6,0.1,1.2,0.2,1.8,0.5c0-0.2,0.1-0.4,0.1-0.6
			c0.2-1.4,0.3-2.8,0.5-4.2c-0.1-1-0.1-2-0.2-3c-0.1-0.1-0.2-0.2-0.3-0.3c-2-2.5-3.7-5.2-5.1-8C696.4,358.3,696.8,361.6,697.3,365z"
			/>
		<path class="st19" d="M679.9,340c-0.5-0.6-0.9-1.3-1.1-2.3c-0.2-1.3-0.4-2.6-0.5-4c-0.9-0.8-1.5-1.9-1.6-3.4
			c-0.5-4.8-1.1-9.6-1.6-14.4c-0.3-0.3-0.5-0.6-0.7-1.1c-3.2-6.3-4.9-12.8-6-19.5l9.2,66.3c0.3,1.8,1.1,3,2.3,3.6
			c-1.1-6.5-2.1-13.1-3-19.6C676.5,343.1,678,341,679.9,340z"/>
		<path class="st19" d="M661.7,259.5c-1.5,2.7-0.7,5.7,1.2,8.1C662.4,264.9,662,262.2,661.7,259.5z"/>
		<path class="st19" d="M104.4,675.1c0.2,1.4,0.6,2.5,1.3,3.3c-0.6-2-1.1-4-1.7-6.1L104.4,675.1L104.4,675.1z"/>
		<path class="st19" d="M122.9,691c-1.3-6.8-2.6-13.6-4-20.3c-1.3,1-3.1,1.4-4.7,0.9c0.1,0.4,0.2,0.8,0.3,1.2
			c0.4,1.5,0.8,3.1,1.3,4.6l0,0c0,0.2,0.1,0.4,0.1,0.5c1.1,3.8,2.3,7.6,3.5,11.3C120.4,690.2,121.6,690.8,122.9,691z"/>
		<path class="st19" d="M662,230.2c-4.8-7.3-9.4-14.7-13.7-22.3c-2.5-4.3,1.9-8.2,5.7-7.3c-4.9-11.8-9.8-23.7-14.8-35.5
			c4.5,0.6,9.3-4.1,6.1-8.7c-0.3-0.4-0.6-0.8-0.9-1.3h0.1l-0.2-0.2c-3.6-5.3-7.4-10.7-11.3-16.1c-1.7,1.9-4.6,2.6-6.9,0.1
			c-9.6-10.1-19.6-19.9-29.1-30c-9.6-7.9-19-16.2-27.9-25c-0.6-0.6-1-1.2-1.2-1.8c-11.4-7.9-23.2-15.1-35.8-21.4
			c-1.6-0.8-2.3-2.2-2.4-3.7c-0.3-0.2-0.7-0.4-1.1-0.7c0.9,4-4.5,7.9-8.5,4.6c-2.3-1.9-4.6-4-6.8-6.1c-1-0.9-2.1-1.7-3.1-2.6
			c-1.1-0.1-2.2-0.5-3.1-1.4c-0.1-0.1-0.2-0.2-0.3-0.3c-7.8-3.1-15.1-7.1-22.6-10.9c-2.6-1.3-3-3.6-2.2-5.5
			c-10.6-5.8-21.8-10.5-33.9-13.6c-16.5-4.2-33.8-6-51.1-5.7c-11,0.7-22,1.7-33,2.9c-14,2.2-27.8,5.6-41,9.9
			c-22,7.1-42.8,17.2-62,29.9c-0.2,0.1-0.5,0.2-0.7,0.3l0.1,0.1c-2.9,2-3.4,4.8-2.4,7.1c-11.7,7-22.7,15-33.1,24.4
			c-1.9-0.6-4-0.2-5.7,1.5l-1.1,1.2L218,92l-0.2,0.3l-5.7,5.8c-1.2,1-2.4,2.1-3.4,3.4c-1.2,1.4-1.6,2.9-1.5,4.3
			c-22.7,15.5-40.7,37.3-51.7,62.9c-1,2.3-0.4,5.2,1.1,7.1c-9.1,13.5-16.1,28.3-20.5,43.9c-1.1,31.1-8,61.6-15.7,91.6
			c0.9,0.8,1.5,2,1.4,3.6c-0.2,10.3-2.6,20.2-4.3,30.3c-0.4,4.1-0.9,8.2-1.5,12.3c-0.1,1.3-0.1,2.7-0.2,4.1
			c-0.1,11.6-0.4,23.2-0.9,34.8c1.9,0.2,3.8-0.7,4.8-3.1l0,0c0,0.6-0.1,1.2-0.1,1.7c-0.4,5.3,5,6.9,8.7,4.8
			c-0.4,10.4-1,20.8-1.8,31.2c-1,9-1.9,17.9-2.6,26.9c-0.2,2.4,0.8,4,2.3,4.9c-6.2,36.2-7.8,73.1-4.7,109.7c0.5,4.9,5.4,6.7,8.7,5.2
			c0.7,11.5,1.5,23,2.4,34.6l-3.4,21.3c-3.4-14.2-6.1-28.6-8.1-43c-0.9-6.1-8.7-5.1-11.1-0.7c8.4,32.3,16.2,64.9,22.4,97.8
			c1.3-0.9,2.2-2.5,2.1-4.7c-0.9-16.1,4.7-32.3,15.6-44.2l8.8,17c2.8,5.3,11.1,2.7,11.1-3v-9.1c2.6,10,5.1,20.1,7.2,30.2
			c0,0.2,0.1,0.4,0.1,0.6l0,0c1.7,7.5,12.8,4.2,11.5-3.3c-5.3-30.2-11.7-60.2-19.2-89.9c-0.8-3.1-3.4-4.4-6-4.2
			c-4.1-14.8-8-29.7-11.1-44.7c0-0.1,0-0.2,0-0.3l0,0c-0.3-1.4-0.9-2.4-1.7-3.1c0-0.2,0-0.5,0-0.7c0.8-41.5,0.5-83-0.9-124.4
			c2.2-23.2,4-46.4,5.5-69.6c0-0.2,0.1-0.4,0.1-0.6h-0.1c0-0.5,0.1-0.9,0.1-1.4c0.3-4.5-4.4-6.6-8-5.5
			c19.7-49.4,37.4-99.6,53.1-150.5l0.3-0.5h-0.1c0.1-0.3,0.2-0.6,0.3-1c1.1-3.4-1.2-6.3-4.1-7.2c1.6-4.2,3.2-8.3,4.7-12.5
			c0.8-2.2,0.4-3.9-0.7-5.2c20.3-14.8,40.2-30.1,59.8-45.8c8.1-5.6,15.9-11.7,23.4-18.1c14.2-5.2,29-9.2,43.8-12.3
			c22.6-4.6,45.5-7.5,68.6-8.6c23.6-1.3,47.6-0.9,71,2.9c26.4,4.3,51.8,12.9,74.3,27.5c1.7,1.1,3.5,1.1,5,0.5
			c14.4,15.7,31.3,29,50.1,39.2c1.2,0.7,2.5,0.8,3.7,0.6l31.3,71.6l0.1,0.5h0.1l0.5,1.1c2.5,5.8,10.3,2.5,11-2.8c0,0,0,0,0,0.1
			l11.5,27.6l5.4,13.1v-0.1c0-2,1.2-3.5,2.7-4.2C662.9,238.9,662.4,234.5,662,230.2z M141.8,631.1l1-6.3l1.8,3.4
			C143.7,629.2,142.7,630.1,141.8,631.1z M154.6,621.6L145,603c-0.2-0.4-0.5-0.8-0.9-1.2v-0.4 M144,304.5c-0.4-0.4-0.8-0.7-1.3-1
			c-0.1-3.9-0.2-7.8-0.3-11.6c-0.1-3.2-2-5-4.2-5.6l1.7-18.9h-0.2c0.2-3-1.7-4.8-3.9-5.4c0-1.4,0-2.7,0.1-4.1c0.1-0.5,0.1-1,0.2-1.5
			h-0.2c0-0.4,0-0.9,0.1-1.3c0.1-1.1-0.2-2-0.6-2.8c0.1-0.1,0.1-0.2,0.2-0.3c1.4,0.1,2.9-0.1,4.2-0.8c1.4,1.8,4.2,2.6,6.7,2
			c-0.4,0.7-0.7,1.5-1.1,2.2c-3.4,6.8,6.7,12.8,10.3,6l0,0h0.1c0.5-0.9,0.9-1.8,1.3-2.7l11.5-21.7
			C160.8,259.7,152.6,282.2,144,304.5z M179.8,150.6c-0.1,0.2-0.1,0.4-0.2,0.5c-0.7,0.5-1.4,1-2.1,1.5c1.3-1.9,2.6-3.8,4-5.7
			C180.9,148.2,180.4,149.4,179.8,150.6z M405,53.2c-34.9,1.3-70.6,5.6-104.4,15.3c-0.6-4.1-6.1-7.3-10.2-3.7
			c-4.7,4-9.4,7.9-14.2,11.9c-3.3,1.3-6.7,2.6-9.9,4c-5.5,2.3-10.8,4.9-16.1,7.7c13.6-10.7,28.3-20.1,44-27.8
			c25.1-10.5,52.2-17,78.9-20c23-2.5,46.1-3.2,69.3-2.4c10.6,1.7,21.1,4,31.4,7c2.6,0.8,5.2,1.6,7.7,2.4c3.1,1.8,6.1,3.7,9.1,5.7
			c6.2,4.2,12.2,8.7,18,13.4C475.7,55.1,439.8,52,405,53.2z M536.4,75c-2.2-1.9-4.3-3.9-6.5-5.8c2.7,1.6,5.3,3.2,7.9,4.8
			C537.3,74.3,536.9,74.6,536.4,75z M598,115.7l-3.9-3.8c-0.6-0.8-1.2-1.7-1.8-2.5c2.2,1.9,4.3,3.9,6.4,6
			C598.4,115.5,598.2,115.6,598,115.7z M617.9,146.2l2,1.9c0,0.6,0,1.2,0.2,1.8l0.5,2.3L617.9,146.2z"/>
		<path class="st16" d="M373.7,489.1c0-7.4,11.2-13.4,25-13.4c6.4,0,5.9-2.4,5.2,0.6c-1.3,5.5,0.5,16.2,1.5,21.7
			c0.8,4.1-0.2,7.9-6.7,7.9C384.9,505.9,373.7,496.5,373.7,489.1z"/>
		<path class="st16" d="M354.6,485.7c0-12.2,16.1-16.4,19.9-22.5c4.5-7.4,11.6,17,11.6,22.5s-7.1,10-15.8,10
			C354.6,495.7,354.6,491.2,354.6,485.7z"/>
		<polygon class="st16" points="383.8,364.5 399.3,364.5 403.9,476.3 370.8,479.4 		"/>
		<path class="st19" d="M276.6,69.8c-9,1.9-17.5,5.3-25.3,10.2c-6.5,4.1-0.6,14.2,6,10.3c7-4.2,14.2-7.9,21.7-11.3
			c7-3.1,0.9-13.4-6-10.3c-7.4,3.4-14.7,7.1-21.7,11.3l6,10.3c6.9-4.3,14.5-7.4,22.4-9C287.3,79.7,284.1,68.3,276.6,69.8L276.6,69.8
			z"/>
		<path class="st20" d="M64.1,769.7c0,1.7-0.1,3.3-0.2,5c0.6-1.8,1.2-3.6,1.9-5.3C65.3,769.5,64.7,769.6,64.1,769.7z"/>
		<path class="st20" d="M114.7,187.3c-3.5,13-5.8,26.3-5.8,39.5c2.1-5.7,4.3-11.4,6.5-17.1C115.6,202.2,115.4,194.7,114.7,187.3z"/>
		<path class="st20" d="M111,695.3c-1.2-0.7-2.5-1-3.9-0.9c2.2,3,4.5,6,6.7,9C112.8,700.7,111.9,698,111,695.3z"/>
		<path class="st20" d="M96.9,459c-0.2,0-0.4,0-0.5,0c-0.4,10.6-0.8,21.1-1.3,31.7c0.1,0.5,0.1,1,0.2,1.5
			c0.8-10.7,1.3-21.4,1.7-32.1C96.9,459.7,96.9,459.3,96.9,459z"/>
		<path class="st20" d="M134.3,207c-0.1,2-0.3,4-0.4,5.9c0.7-3.6,1.3-7.1,2-10.7c0.9-5,1.9-10,2.8-14.9
			C137,193.8,135.6,200.4,134.3,207z"/>
		<path class="st20" d="M104.4,733c1.5,1.6,1.4,4.1,0.3,6c0,0.5,0.1,1,0.1,1.5c0.3,0.3,0.5,0.6,0.8,0.9c2.2-0.2,4.3-0.4,6.5-0.5
			c-1.1-2.4-2.4-4.7-3.7-7.1c-1.3-1.4-2.6-2.9-4-4.3C104.4,730.7,104.4,731.8,104.4,733z"/>
		<path class="st20" d="M113.9,783.3c-0.4,0.6-1,1.1-1.7,1.4c-0.2,0.1-0.4,0.2-0.6,0.3c1.9,1.7,3.9,3.1,6.1,3.7c0.1,0,0.2,0,0.3-0.1
			C116.6,786.9,115.2,785.1,113.9,783.3z"/>
		<path class="st20" d="M126.8,767.3c-0.7,1-1.8,1.7-3.1,2c2.4,5.6,4.1,11.4,4.9,17.5c0.1,0,0.2,0,0.3-0.1c2.5-1.6,4.1-3.7,5-6.1
			C131.5,776.2,129.1,771.7,126.8,767.3z"/>
		<path class="st20" d="M102.6,763.4c-0.3,0-0.6,0.1-0.8,0.1c0.4,1.5,1.3,2.5,2.5,3.2C103.7,765.6,103.1,764.5,102.6,763.4z"/>
		<path class="st20" d="M114,572.1l0.1-1.1H114v-0.1c0-4.5-3.8-6.3-7.1-5.6c0,2.7-0.1,5.4-0.1,8.1c0,1.2,0,2.5,0,3.7
			c0.1,0.2,0.1,0.5,0.2,0.7c3.3,12.6,6.6,25.2,9.7,37.9c0.5-6.2,0.5-12.5-2.9-17.2C113.9,589.7,114,580.9,114,572.1z"/>
		<path class="st20" d="M167.2,778L167.2,778c-1.2,1.2-2.9,1.6-4.5,1.2c-1-0.1-2-0.6-2.9-1.5c-4.4-4.4-8.6-9-12.5-13.8
			c-0.9,0.8-2.1,1.3-3.4,1.4c0.5,5.5,1,11.1,1.4,16.6c0.4,5-7,6.7-9.3,2.5c-3.2-5.6-6.2-11.3-9.2-17.1c-0.6,0.9-1.5,1.5-2.5,1.8
			c0.5,1.2,0.9,2.3,1.4,3.5c1.9,4.5,3.9,9.3,6.1,14.3c3.1,1,5.4,4.5,3.3,7.2c0.1,0.2,0.2,0.4,0.3,0.6c4.7-0.9,9.5-1.7,14.3-2.2
			c3.1-0.3,4.6,1.8,4.7,4.1c2.8-0.6,5.6-1.4,8.3-2.3c0.6-0.2,1.2-0.4,1.8-0.6l-3.9-7.4c1.8,2.3,3.7,4.6,5.5,6.8
			c2.7-1.1,5.4-2.6,6.5-4.9C174.2,785,169.5,780.3,167.2,778z"/>
		<path class="st20" d="M144,164.1c-0.5,2.6-1.1,5.3-1.7,7.9c4.3-12.6,9.3-24.9,14.9-37c-1.6,1.1-3.2,2.2-4.8,3.3
			C150,147,147.1,155.6,144,164.1z"/>
		<path class="st20" d="M114.2,671.6c0.1,0.4,0.2,0.8,0.3,1.2c3.1,11.3,6.7,22.6,11.1,33.5c-2.1-11.9-4.3-23.8-6.8-35.6
			C117.6,671.6,115.8,672,114.2,671.6z"/>
		<path class="st20" d="M140.3,734.5c1.2-0.4,2.6-0.3,4,0.6c1.7,1.2,3.3,2.4,4.8,3.7c-5.2-13-10-26.2-14.3-39.5
			C136.8,711,138.6,722.7,140.3,734.5z"/>
		<path class="st20" d="M96.9,459c-0.2,0-0.4,0-0.5,0c-0.4,10.6-0.8,21.2-1.3,31.8c0.1,0.5,0.1,1,0.2,1.4
			c0.8-10.7,1.3-21.4,1.7-32.2C96.9,459.7,96.9,459.3,96.9,459z"/>
		<path class="st20" d="M120.4,311.5c0.4,0.4,0.8,0.8,1,1.3c0.2-2.5,0.4-5,0.6-7.5C121.4,307.4,120.9,309.5,120.4,311.5z"/>
		<path class="st20" d="M117.5,345.4c-0.4,4.1-0.9,8.2-1.5,12.3c-0.1,1.3-0.1,2.7-0.2,4.1c-0.1,16.5-0.6,32.8-1.6,49.3
			c-0.6,10-0.9,20-1,30c0.2-4,0.5-7.9,0.7-11.9c1.9-32.5,3.8-65,6.1-97.5C119.2,336.2,118.3,340.8,117.5,345.4z"/>
		<path class="st20" d="M181.5,792.8c-1.9,3.6-5.2,6.2-8.8,8.1c1.2,1.4,2.4,2.8,3.6,4.2c4.9,5.6,13.3-2.8,8.3-8.6
			C183.6,795.2,182.5,794,181.5,792.8z"/>
		<path class="st20" d="M170.2,804.4l-1-1.9c-8.1,3.4-17,4.9-25.7,6.3c8.2,12.2,19,21.6,34.3,22.6c4.2,0.3,7.8-5.4,5.1-9
			C178.5,816.5,174.3,810.5,170.2,804.4z"/>
		<path class="st20" d="M714.3,434.8c0.2-0.6,0.4-1.4,0.4-2.2h0.2c-0.1-1.6-0.2-3.2-0.2-4.8l-0.2-19c-0.2-0.6-0.4-1.1-0.6-1.7
			C714.2,416.4,714.4,425.6,714.3,434.8z"/>
		<path class="st20" d="M697.3,365c0.6,0.5,1,1.2,1.2,2.1c0.3,1.1,0.5,2.3,0.8,3.5c1,0.1,2,0.4,2.7,1.1c-0.2-2.8-0.4-5.5-0.6-8.3
			c-0.1-0.1-0.2-0.2-0.3-0.3c-2-2.5-3.7-5.2-5.1-8C696.4,358.3,696.8,361.6,697.3,365z"/>
		<path class="st20" d="M633.9,137.6c-0.1,0.3-0.3,0.6-0.5,0.8c10,14.2,18.3,29.4,25.3,45.3c0.3-0.2,0.6-0.4,0.9-0.6
			c-4.6-11.2-10.3-22.6-14-34.2C641.8,145,637.8,141.3,633.9,137.6z"/>
		<path class="st20" d="M706.6,185.5c0.7-0.3,1.4-0.6,2.1-0.8c-1.3-1.5-2.6-3-3.8-4.6C705.5,181.9,706.1,183.7,706.6,185.5z"/>
		<path class="st20" d="M713.3,193.5c1.5,0.9,3.2,1.6,4.9,2.3c-0.5-1.1-1.1-2.3-1.6-3.4C715.5,192.8,714.4,193.1,713.3,193.5z"/>
		<path class="st20" d="M529.6,43.8c-1.1-0.7-2.2-1.4-3.3-2.2c-0.1,0.3-0.2,0.6-0.3,1c1.2,0.8,2.4,1.6,3.6,2.4
			C529.5,44.6,529.6,44.2,529.6,43.8z"/>
		<path class="st20" d="M482.1,21.1c-0.1-0.1-0.2-0.2-0.4-0.3c-11.1-3.3-22.4-6-33.8-7.7c-9.4-1.4-18.7-1.8-27.9-1.8
			c-0.2,0-0.5,0.1-0.7,0.1c-5.3,1-10.7,1.9-16.1,2.5c-0.7,0.4-1.4,0.6-2.3,0.7c-18.7,1.1-37.4,3-55.9,5.5c-1.1,0.2-2.3,0.3-3.4,0.5
			c-0.7,0.5-1.6,0.7-2.7,0.8c-1,0-1.9,0-2.9,0c-15.4,2.2-30.8,4.6-46.1,7c-2.1,0.7-4.1,1.4-6.2,2.1c-10.2,3.6-20.2,8.3-29.3,14.3
			c1.6,1.2,3.8,1.5,6-0.1C274.2,34.4,292,33.4,308.8,32l59.7-5.2c19.9-1.7,40.1-4.4,60.1-3.5c18.3,0.8,36.3,4.8,53.7,10.2
			c1.1-1.8,3.2-3.2,5.6-2.9C485.7,27.6,483.7,24.5,482.1,21.1z"/>
		<path class="st20" d="M478.8,18.6c-9.2-2-18.4-4.2-27.4-6.4c-1.5-0.4-2.4-1.3-3-2.4c-2.3-0.5-4.6-1-7-1.6
			c-3.6,0.3-7.1,0.7-10.7,1.3c0.7,0.7,1.7,1.3,3.1,1.5c15.8,2.6,33.5,5.4,49.1,11.7c-0.3-0.6-0.6-1.1-0.8-1.7
			C481,20.2,479.9,19.4,478.8,18.6z"/>
		<path class="st20" d="M532.2,60.8c-1.6-0.8-2.3-2.2-2.4-3.7c-0.3-0.2-0.7-0.4-1.1-0.7c0.3,1.2,0,2.5-0.7,3.5
			c0.9,0.4,1.9,0.7,2.9,1s2,0.5,3,0.8C533.3,61.4,532.8,61,532.2,60.8z"/>
		<path class="st20" d="M633.9,137.6c-0.7,1.5-2.1,2.7-3.7,2.9c4,5.6,7.8,11.3,11.6,17c5.8,8.8,11.1,17.8,16.1,26.9
			c0.5-0.6,1.1-1,1.8-1.3c-4.6-11.2-10.3-22.6-14-34.2C641.7,145,637.8,141.3,633.9,137.6z"/>
		<path class="st20" d="M529.6,44.2c-0.3-0.4-0.7-0.7-1-1.1c-0.7-0.5-1.5-1-2.2-1.5c-0.1,0.3-0.2,0.6-0.3,1c1.2,0.8,2.4,1.6,3.6,2.4
			C529.5,44.7,529.5,44.4,529.6,44.2z"/>
		<path class="st20" d="M659.6,183.1c-4-9.9-8.9-19.9-12.6-30.1c-2-3-4.1-5.9-6.2-8.8c-2.3-2.2-4.6-4.4-6.9-6.6
			c-1.3,2.8-4.9,4.4-7.7,1.4c-9.6-10.1-19.6-19.9-29.1-30c-9.6-7.9-19-16.2-27.9-25c-0.6-0.6-1-1.2-1.2-1.8
			c-11.4-7.9-23.2-15.1-35.8-21.4c-1.6-0.8-2.3-2.2-2.4-3.7c-0.4-0.2-0.7-0.4-1.1-0.7c0.9,4-4.5,7.9-8.5,4.6c-2.3-1.9-4.6-4-6.8-6.1
			c-1-0.9-2.1-1.7-3.1-2.6c-0.7,0-1.4-0.2-2.1-0.6c4.9,5.6,9.3,9.8,16.3,11.3c0.6,0.6,1.4,1,2.4,1.3c20.5,5.7,37.8,18.2,53.4,32.2
			c16.2,14.3,31.2,29.9,44.8,46.6c13.9,17,24.9,36.1,32.7,56.7c1,2.8,2,5.5,3,8.3c-1.2-6.5-2.4-13-3.9-19.4
			C656.3,186.1,657.7,184.1,659.6,183.1z"/>
		<path class="st20" d="M697.3,365c0.1,0.1,0.2,0.2,0.3,0.4c0-2.4,0.1-4.9,0.1-7.3c-0.6-1-1.2-2-1.7-3.1
			C696.4,358.3,696.8,361.6,697.3,365z"/>
		<path class="st20" d="M695.6,545.9c0.1-4.9,0.3-9.8,0.7-14.6c-0.4-17.5-1.1-34.9-1.4-52.4c-1.7-0.8-3-2.3-3.2-4.4
			c-0.8-9.8-0.8-19.7,0-29.5c-0.5-3.9-1-7.8-1.4-11.7c-1.4-5.4-2-11-1.9-16.6c-0.7-6.2-1.4-12.4-2.2-18.6c-0.4-1.7-0.7-3.5-1.1-5.2
			c-0.1,24.7,0.4,49.4,1.9,74.1c1.5,26.2,4.3,52.4,6.4,78.7C694.1,545.5,694.9,545.6,695.6,545.9z"/>
		<path class="st20" d="M709.7,738.4c0.2-3.6,0.5-7.2,1-10.8c-2.2,1.1-4.6,1.5-7.3,0.6c-2.2-0.7-3.5-2.5-3.7-4.8
			c0-0.7-0.1-1.5-0.1-2.2c0,0.2,0,0.3-0.1,0.5c-0.5,3.1-3.7,4-6.3,3.3c-3.5,17.3-7.4,34.5-11.2,51.6c-1.7,7.5,9.4,10.6,11.5,3.2l0,0
			l0,0c1.6-5.7,3.1-11.4,4.5-17.2c3.4,1,7.8-1.3,8-5.6c0.4-5.2,0.7-10.4,1-15.6c1.4,0.7,3,0.9,4.4,0.6
			C710.3,741.2,709.6,739.9,709.7,738.4z"/>
		<path class="st20" d="M110.4,508.7c0.1,1,0.1,1.9,0.2,2.9l0.1-5.2C110.6,507.2,110.5,507.9,110.4,508.7z"/>
		<path class="st20" d="M114.2,671.6c0.1,0.4,0.2,0.8,0.3,1.2c3.1,11.4,6.8,22.6,11.2,33.6c-2.1-11.9-4.3-23.9-6.8-35.7
			C117.6,671.6,115.8,672,114.2,671.6z"/>
		<path class="st20" d="M113.1,601.2c2,7.7,3.9,15.4,5.7,23.2c-0.5-4.1-0.9-8.3-1.3-12.4c-1.6-16.2-3.3-32.5-4.6-48.7
			C113.2,576,113.3,588.6,113.1,601.2z"/>
		<path class="st20" d="M112,490c-0.4,6.3-0.9,12.5-1.5,18.8c0.2,3.7,0.5,7.4,0.7,11.1c0-0.5,0-0.9,0-1.4c0.5-8.8,0.9-17.7,1.1-26.5
			C112.2,491.2,112.1,490.6,112,490z"/>
		<path class="st20" d="M556.9,758.3c-4.3,11.4-9,22.7-14,33.9c-3.1,7,7.2,13.1,10.4,6c5.5-12.1,10.5-24.3,15.2-36.7
			C571.2,754.3,559.6,751.1,556.9,758.3L556.9,758.3z"/>
		<path class="st20" d="M553.4,792.2c5.1-7.9,9.6-16.2,13.3-24.8c1.3-3,0.9-6.4-2.2-8.2c-2.5-1.5-6.9-0.8-8.2,2.2
			c-3.7,8.6-8.2,16.9-13.3,24.8C538.8,792.7,549.2,798.7,553.4,792.2L553.4,792.2z"/>
		<path class="st20" d="M530.5,822.8c4-4.8,7.9-9.7,11.7-14.6c2-2.6,0.4-6.7-2.2-8.2c-3.1-1.8-6.2-0.4-8.2,2.2
			c-3.2,4.1-6.5,8.2-9.8,12.2c-2.1,2.5-2.4,6,0,8.5C524.1,824.9,528.4,825.3,530.5,822.8L530.5,822.8z"/>
		<path class="st19" d="M168.2,374.7c8.5,26.1,12.1,53.5,10.8,80.9c-0.4,7.7,11.5,7.6,11.9,0c1.3-28.5-2.5-57-11.3-84.1
			C177.3,364.2,165.8,367.3,168.2,374.7L168.2,374.7z"/>
		<path class="st16" d="M364.5,712.3c7.7,0,7.7-11.9,0-11.9S356.9,712.3,364.5,712.3z"/>
		<path class="st21" d="M404.6,51.9C382,51.4,344.9,64.6,323.4,65c-61.7,1-135.3,63.4-159.8,238.1c-13.1,93.3-26.2,197.2,15.1,242.3
			c0,0-16.5-47-8.1-154.6C192,114.7,267,83.2,409.2,91.8C562,101.1,577.1,92.2,607,394.1c9.1,92.3-3,150.4-3,150.4
			c26-52.7,35.1-181.5,26-241.5C604,132.2,516,80.7,457.3,63.4c-20.7-6.1-3.1-9.8-25.7-9.3l-34.8,11c37.9-5.9,26-11.1,26-11.1"/>
		<path class="st21" d="M652.4,351.2C624.2,132.4,533.3,75.3,468.7,52.7c-23.3-8-47.9-11.7-72.6-11h-0.2c-24.7-0.7-49.2,3-72.6,11
			c-64.5,22.6-155.4,79.7-183.6,298.5c-15.7,121.1-28.8,256.5,16.6,315.2c0,0-18-61.2-8.9-201.2c23.3-359,150-409,248.7-409.2
			c98.6,0.2,225.4,50.2,248.6,409.3c9.1,140-8.9,201.2-8.9,201.2C681.2,607.7,668.1,472.3,652.4,351.2z"/>
		<path class="st20" d="M688.7,550.4c-0.4-3.9,3.9-5.6,6.9-4.5c0.1-4.9,0.3-9.8,0.7-14.6c-0.4-17.5-1.1-34.9-1.4-52.4
			c-1.7-0.8-3-2.3-3.2-4.4c-0.8-9.8-0.8-19.7,0-29.5c-0.5-3.9-1-7.8-1.4-11.7c0-0.1-0.1-0.2-0.1-0.3c-1.2,29.3-1.5,58.6-1.6,87.9
			c0,17.3-0.1,34.5,0.2,51.8c0.3,15.9,1.4,31.8,5.3,47.2c0,3.3,0.1,6.5,0.1,9.8c0.2-1.8,0.4-3.7,0.7-5.5
			C693.2,599.6,691.2,575,688.7,550.4z"/>
		<path class="st20" d="M704.4,728.5c-0.3-0.1-0.7-0.2-1-0.3c-2.2-0.7-3.5-2.5-3.7-4.8c0-0.7-0.1-1.5-0.1-2.2c0,0.2,0,0.3-0.1,0.5
			c-0.6,4.1-5.9,4.4-8.5,2.2c-0.5,8.2-0.8,16.4-0.7,24.6c0.1,6.4,10.7,8.5,11.7,1.6c0.1-0.4,0.1-0.9,0.2-1.3h0.1c0-0.3,0-0.6,0-0.9
			C703.2,741.5,703.8,735,704.4,728.5z"/>
		<path class="st20" d="M678.9,337.8c-0.2-1.3-0.4-2.6-0.5-4c-0.9-0.8-1.5-1.9-1.6-3.4c-0.5-4.8-1.1-9.6-1.6-14.4
			c-0.3-0.3-0.5-0.6-0.7-1.1s-0.5-0.9-0.7-1.4c1.4,9.6,2.7,19.1,3.8,28.7c0.6-1,1.4-1.7,2.4-2.2C679.4,339.5,679,338.7,678.9,337.8z
			"/>
		<path class="st20" d="M662,230.2c-3-4.5-5.9-9.1-8.7-13.8c2.6,10.1,5.1,20.3,7.4,30.5c0.2-1.8,1.3-3.1,2.7-3.7
			C662.9,238.8,662.4,234.5,662,230.2z"/>
		<path class="st20" d="M657.3,185.4c-1.7-6.1-3.5-12.2-5.4-18.3c0.2-0.1,0.4-0.3,0.6-0.4c-2.6-5.9-5-11.8-6.9-17.8
			c-3.8-3.8-7.8-7.6-11.7-11.3c-0.3,0.6-0.7,1.2-1.2,1.6c-0.9,1.2-1.3,2.8-0.6,4.8c6.3,19.1,12.1,38.4,17.4,57.8
			c2.1-1.7,5.6-1.9,7.5,1.1c1.3,2.1,2.6,4.2,4,6.3c-1.3-6.8-2.5-13.7-4.1-20.4C656.6,187.5,656.8,186.3,657.3,185.4z"/>
		<path class="st20" d="M695.5,501.2c-0.2-7.5-0.4-14.9-0.6-22.4c-1.7-0.8-3-2.3-3.2-4.4c-0.8-9.8-0.8-19.7,0-29.5
			c-0.5-3.9-1-7.8-1.4-11.7c-1.4-5.4-2-11-1.9-16.6c-0.7-6.2-1.4-12.4-2.2-18.6c-2.2-10.2-4.2-20.4-6-30.6c1.6,16,2.9,32,4.1,48.1
			c2.1,26.7,4.1,53.4,6.2,80.1C690.8,498.8,693,500.6,695.5,501.2z"/>
		<path class="st20" d="M694.9,478.8c-1.7-0.8-3-2.3-3.2-4.4c-0.8-9.8-0.8-19.7,0-29.5c-0.5-3.9-1-7.8-1.4-11.7
			c-1.4-5.4-2-11-1.9-16.6c-0.7-6.2-1.4-12.4-2.2-18.6c-3.7-17.4-7-34.8-9.4-52.3c-0.4-2.7,1.1-4.8,3.1-5.7
			c-0.5-0.6-0.9-1.3-1.1-2.3c-0.2-1.3-0.4-2.6-0.5-4c-0.9-0.8-1.5-1.9-1.6-3.4c-0.5-4.8-1.1-9.6-1.6-14.4c-0.3-0.3-0.5-0.6-0.7-1.1
			c-4.5-8.9-6.1-18.4-7.2-28c-3.5-12.6-5.9-25.4-6.5-38.5c0-0.4,0-0.7,0-1.1c0-1.5,0.6-2.6,1.5-3.4c-1.3-6.4-2.6-12.9-3.9-19.4
			c-3.5-5.5-6.8-11-10-16.6c-2.3-4,1.3-7.5,4.7-7.4c-1.7-7.2-3.6-14.3-5.6-21.4c2-1.7,3.2-4.5,1.9-7.6c-4.9-11.2-10.6-21.9-17-32.2
			c-1.7,1.4-4.2,1.7-6.3-0.5c-9.6-10.1-19.6-19.9-29.1-30c-2.5-2.1-5-4.1-7.4-6.2c0.3,0.7,0.7,1.4,1.4,2.1l-0.2,0.2
			c0.7,0.6,1.5,1.3,2.2,1.9c9.6,10.3,18.3,21.4,26,33.1c17.9,32.3,24.3,71.8,31.6,107c12.9,63.1,24.3,126.5,34.3,190.2
			c2.8,18.2,5.6,36.4,8.2,54.6c1,6.6,1.9,13.3,2.7,19.9C695.4,500.9,695.1,489.8,694.9,478.8z"/>
		<path class="st20" d="M657.8,184.5c-4.2-8.9-9.1-17.5-14.7-25.7c-4.3-6.3-8.9-12.4-13.8-18.3c-1.1-0.1-2.2-0.5-3.2-1.6
			c-9.6-10.1-19.6-19.9-29.1-30c-9.6-7.9-19-16.2-27.9-25c-0.6-0.6-1-1.2-1.2-1.8c-11.4-7.9-23.2-15.1-35.8-21.4
			c-1.6-0.8-2.3-2.2-2.4-3.7c-0.4-0.2-0.7-0.4-1.1-0.7c0.9,4-4.5,7.9-8.5,4.6c-0.4-0.3-0.7-0.6-1.1-0.9c-1.5,3.1-0.1,7.6,3.6,8.7
			c15.9,4.7,30,11,42.6,21.9c11.9,10.2,22.6,21.9,33.4,33.3c21.8,22.9,41.2,47.4,53.4,76.7c1.8-0.3,3.6,0.3,4.9,2.3
			c1.3,2.1,2.6,4.2,4,6.3c-1.3-6.8-2.5-13.7-4.1-20.4C656.5,187,656.9,185.6,657.8,184.5z"/>
		<path class="st20" d="M395.4,4.8c5.3-0.6,10.5-1.4,15.8-2.3c-5.5-1-10.9-1.8-16.5-2.4c-3.6-0.4-5.4,2-5.6,4.8
			C391.2,4.8,393.3,4.8,395.4,4.8z"/>
		<path class="st20" d="M530.1,58.6c-0.5,0-1,0.1-1.6,0.1c-1,3-5.1,4.9-8.4,2.2c-2.3-1.9-4.6-4-6.8-6.1c-1-0.9-2.1-1.7-3.1-2.6
			c-1.1-0.1-2.2-0.5-3.1-1.4c-0.1-0.1-0.2-0.2-0.4-0.3c-7.8-3.1-15.1-7.1-22.6-10.9c-4.1-2.1-2.8-6.6,0.3-8.4
			c-2.4-1.6-4.9-3.1-7.4-4.5c-13-7.5-26.8-13.5-41-18c-5.6,0.7-11.2,1.6-16.9,2.7c-4.3,0.8-8.6,1.5-12.9,2.1
			c24.9,4.3,48.8,13.4,70.4,26.8c12.3,7.6,22.5,17,33.5,26.3c5.9,5,12.4,4.1,19.7,3.8l18.9-0.7c-5.4-3.2-10.9-6.2-16.6-9.1
			C531.1,60.2,530.5,59.5,530.1,58.6z"/>
		<path class="st20" d="M736.7,761.7l-14.4-23.4c-1.4,1.7-3.1,3.2-5,4.4c-3.1,2.1-7.7-0.6-7.5-4.3c0.2-3.6,0.5-7.2,1-10.8
			c-2.2,1.1-4.6,1.5-7.3,0.6c-1-0.3-1.7-0.8-2.3-1.5l28.5,46.2c3.1,5.1,6.3,10.5,9.9,15.7c0-0.3,0-0.7,0-1
			c-0.7-7.8-1.1-15.7-1.4-23.6C737.6,763.2,737.2,762.5,736.7,761.7z"/>
		<path class="st20" d="M698.9,723.4l1.1,1.9c-0.2-0.5-0.3-1.1-0.4-1.8c0-0.7-0.1-1.5-0.1-2.2c0,0.2,0,0.3-0.1,0.5
			C699.4,722.4,699.2,722.9,698.9,723.4z"/>
		<path class="st20" d="M689.7,720.4c0.1-0.4,0.1-0.9,0.2-1.3l0,0c0.3-2,0.5-4,0.7-6c-4.8-16.1,0-34.3,0.1-50.7c0-1.8,0.8-3.2,2-3.9
			c-0.1-6.7,0.2-13.4,0.7-20c0.4-4.7,0.8-9.5,1.5-14.3c-1.7-24.6-3.7-49.2-6.2-73.8c-0.4-3.9,3.9-5.6,6.9-4.5
			c0.1-4.9,0.3-9.8,0.7-14.6c-0.4-14.9-0.9-29.8-1.2-44.6c-0.2-2.7-0.4-5.4-0.7-8c-1.4-0.8-2.6-2.3-2.7-4.1
			c-0.7-8.3-0.8-16.7-0.3-25c-2.3-19-4.7-38-6.3-57c-3.2-15.5-6.1-31-8.2-46.6c-0.2-1.7,0.3-3.2,1.2-4.3c-3.1-0.2-6.4,1.7-6.5,5.7
			c-0.7,31.8,3.3,63.3,7.1,94.8c3.9,32,6.7,63.9,7.3,96.1c0.6,31.8-0.4,63.5-2.1,95.2c-0.9,16.5-2,33-3.1,49.6
			c-1.1,15.3-1.2,31.2-4.1,46.3c-4.4,22.7-18.4,40.6-34.4,56.6c-0.3,0.2-0.7,0.4-1,0.6c-7.5,4.1-14.2,9-16.9,17.4
			c-1.9,5.9,5.8,9.7,10,5.8c4.8-4.4,9.6-9,14.3-13.6c1.6-0.8,3.2-1.6,4.6-2.4c8-4.6,14.5-11.5,18.7-19.7c5.2-9.7,9.3-20,13.8-30
			l8.4-18.6C691.7,725,689.3,723.3,689.7,720.4z"/>
		<path class="st20" d="M749.4,787.4c0.2,2.4,0.5,4.8,0.8,7.1c0.5-4.7,0.8-9.3,1-14c-0.5-1.3-1-2.6-1.6-3.8c0,3-0.1,6-0.2,9
			C749.5,786.2,749.5,786.8,749.4,787.4z"/>
		<path class="st20" d="M772.4,800.1c-3.8-0.7-7.2-2.3-10.3-4.3c-0.3,4.4-0.6,8.9-1.1,13.3c0.1,0,0.1,0.1,0.2,0.1
			c-0.1,0.1-0.1,0.2-0.2,0.3c-1,8.6-2.5,17.2-4.6,25.6c1.9,0.1,3.7-0.8,4.8-3c3.9-7.8,8.6-15.1,13.9-22
			C777.5,806.9,777.2,801.1,772.4,800.1z"/>
		<path class="st20" d="M540.2,750l-1.7,158.7c-0.1,7.7,11.8,7.7,11.9,0l1.7-158.7C552.2,742.3,540.3,742.3,540.2,750z"/>
		<path class="st20" d="M558,739.3c-5.2,13.9-5.5,29.3-9.1,43.7c-3.8,14.8-9.1,29.2-16,42.8c-3.4,6.8,6.8,12.9,10.3,6
			c7.1-14,12.7-28.7,16.7-43.9c3.9-14.9,4.2-31,9.6-45.5C572.1,735.3,560.6,732.2,558,739.3L558,739.3z"/>
		<path class="st20" d="M559.9,732.7c-4.8,39.4-14,78.2-27.4,115.6c-2.6,7.2,8.9,10.3,11.5,3.2c13.7-38.4,23-78.2,27.8-118.7
			C572.6,725.1,560.7,725.2,559.9,732.7L559.9,732.7z"/>
		<path class="st20" d="M561,712c0.4,57.3-12.1,114-36.8,165.7c-3.3,6.9,7,12.9,10.3,6c25.6-53.6,38.7-112.3,38.4-171.7
			C572.8,704.4,560.9,704.4,561,712L561,712z"/>
		<g id="Brows-2">
			<path class="st8" d="M512.1,278.5c-4.1,0.1-50.2,5.9-50.1,9.4s-0.6,9.9,3.4,9.9c0,0,2.6,4.6,2.7,4.6
				c16.2-0.2,41.9-12.1,53.6-10.3c2.2,0.4,17.1,0.7,23,3.2c1.1,0.5,1.5,0,12.6,6.1c2.7,0-1.3,2.2,0,0c1.8-3.1-9.5-12.2-13.1-13.9"/>
		</g>
		<path id="Shirt-2" class="st6" d="M683.7,829.5c-16-25.7-44.1-41.3-74.3-41.4H529l-25.8-23.7l-121,201.7l-73.6-197.3l-32.9,19.3
			h-42.4c-31.8,0-61.5,14.1-75.1,42.8c-6.6,13.8,25,91.4,33.6,121.8c11.2,39.9,30.4,163.2,30.4,163.2s11.9,203.7,12.4,210.7
			c2.3,29.6,7.6,61.8-6.2,87.8c0,0,86.1,21.5,174,21.5c85.5,0,174.1-21.5,174.1-21.5c-13.9-26-8.4-58.3-6.1-87.8
			c0.5-7,32.4-210.7,32.4-210.7l48.3-163.2C651,952.6,692.1,842.9,683.7,829.5z"/>
		<path class="st5" d="M276.8,791.7c21,18.8,15.6,69.1,15.6,69.1"/>
		<path class="st5" d="M529.9,800l-21.4,67.6C531,850.7,529.9,800,529.9,800z"/>
		<path class="st5" d="M382.5,1170.7V971.8c0.1,0.3,92.9-115.5,123.3-99.5c0,0-25.3-30.8-41.4-30.4c-11.7,0.3-78.4,120.7-81.9,129.7
			v-0.1c-3.6-9.5-47.4-121.5-59.1-121.7c-16.1-0.4-29.3,18-29.3,18c24.7-12.9,64.5,63.7,81.9,93l1,209.9H382.5z"/>
		<path class="st17" d="M552.8,439.8c0.9-13.2-17.2-19.9-38.7-20.1l0,0h-22.4c-9.6,0-17.5,9.1-17.5,20.1l0,0
			c0,11.1,7.9,20.1,17.5,20.1h22.4C535.6,459.6,551.8,454.5,552.8,439.8z"/>
		<path class="st4" d="M216.1,394.8c-6.1,8.3-10.4,17.7-12.7,27.6c-1.3,5.6,5.7,10.3,10,5.8l20.3-21.7l-9.4-7.2
			c-11.5,17.9-16.4,39-18.4,59.9c-1.9,19.3,0.1,39.1,12.5,54.7c4.8,6,13.1-2.5,8.4-8.4c-10.6-13.3-10.6-31.8-8.9-47.9
			c1.9-18.3,6.5-36.7,16.6-52.3c3.7-5.7-4.7-12.1-9.4-7.2l-20.4,21.7l10,5.8c2.1-9,6-17.4,11.5-24.8
			C230.9,394.6,220.6,388.6,216.1,394.8L216.1,394.8z"/>
		<path class="st4" d="M237.6,407.9c-10.7,12.3-20.7,25.2-29.8,38.8c-4.3,6.4,6,12.3,10.3,6c8.6-12.7,17.9-24.8,28-36.4
			C251,410.6,242.7,402.1,237.6,407.9L237.6,407.9z"/>
		<path class="st4" d="M568.3,403.9c1.2,2.1,2.2,4.3,3.2,6.5c0.4,1.1,0.8,2.2,1.2,3.3c2.4-2.6,2.7-3.6,1-3c-2.9-0.4-8,4-9.8,5.9
			c-5.8,5.8-7.8,13.6-2.8,20.5c2.4,3.3,5.4,6,7.7,9.3c7.3,10.5,10.4,23.3,8.7,36c-1.1,7.5,10.4,10.7,11.5,3.2
			c2.6-18-2-36.1-13.6-50.2c-1.9-2.3-6.3-5.1-4.7-8.3c2-3.9,5.8-4.3,9.3-6.1c9.4-4.9,2.3-16.6-1.2-23.1
			C575,391.1,564.7,397.1,568.3,403.9L568.3,403.9z"/>
		<path class="st4" d="M572.7,419.4l4,16c1.1,4.6,8.8,6.2,10.9,1.4c2-4.6,1.8-9.8-2.4-13.2c-3.3-2.7-8.8-2.1-10,2.6l-1.5,6.4h11.5
			c-1.4-5.2-4.2-10-8-13.8c-4.2-4.3-11.5,0.1-10,5.8c2.2,8.1,5,15.9,8.6,23.5c3.2,6.9,13.5,0.9,10.3-6c-3.1-6.6-5.5-13.5-7.4-20.6
			l-10,5.8c2.4,2.4,4.1,5.3,4.9,8.6c1.6,5.5,10.1,5.8,11.5,0l1.6-6.4l-10,2.6c0.3-0.3,0.5-0.8,0.5-1.2l10.9,1.4l-4-16
			C582.3,408.8,570.8,411.9,572.7,419.4L572.7,419.4z"/>
		<path class="st4" d="M540.5,548.5c10.8-2.2,19.3-9.4,26.3-17.5c3.9-4.4,8-9.1,11-14.2s4-10.6,4.6-16.4c1.3-12.9,2.3-26.7,1.2-39.6
			c-0.4-5.7-2.1-11.3-4.9-16.3c-2.7-4.8-6.2-9-7.3-14.5l-10.9,4.6c4.7,10.3,7.8,21.2,9.1,32.4c0.9,7.5,12.8,7.6,11.9,0
			c-1.6-13.3-5.2-26.3-10.8-38.4c-3-6.5-12-1.6-10.9,4.6c1.7,9.3,9.5,15.8,11.3,25c2.2,11.1,0.6,23.8-0.2,35
			c-0.3,5.1-0.4,10.6-2.4,15.4c-1.9,4.6-5.6,8.5-8.7,12.3c-6.1,7.3-12.9,14.3-22.6,16.3C529.8,538.5,533,550,540.5,548.5
			L540.5,548.5z"/>
		<path class="st4" d="M438.3,418.6l-4.9,61.2c-0.6,7.6,11.3,7.6,11.9,0l4.9-61.2C450.8,411,438.9,411,438.3,418.6L438.3,418.6z"/>
		<path class="st4" d="M356,415.2l1.2,30.6c0.1,3.3,2.9,5.9,6.2,5.8c2-0.1,3.9-1.1,4.9-2.8l1.5-2.2c4.3-6.4-6-12.4-10.3-6l-1.5,2.2
			l11.1,3l-1.2-30.6C367.6,407.5,355.7,407.5,356,415.2z"/>
		<path class="st4" d="M363.5,403.9c-4,16.7-6.5,33.7-7.5,50.8l11.7-1.6l-0.8-2.5c-2.2-7.3-13.7-4.2-11.5,3.2l0.8,2.5
			c2,6.5,11.3,5.1,11.7-1.6c0.9-16,3.3-32,7.1-47.6C376.8,399.7,365.3,396.5,363.5,403.9L363.5,403.9z"/>
	</g>
</g>
<path class="st22" d="M338.8,511.1c-14.1,23.3-150.1,62.9-16.7,3.6c5.3-3.9,22.8-35.1,21.5-23.7"/>
<path class="st22" d="M449.5,491c-1.3-11.5,16.2,19.8,21.5,23.7c131.3,44.4-2.7,19.6-16.7-3.6"/>
</svg>
