<svg xmlns="http://www.w3.org/2000/svg" viewBox="0 0 161.35 20.67"><defs><style>.cls-1{fill:#1d262d;}</style></defs><title>divisor</title><g id="Capa_2" data-name="Capa 2"><g id="OBJECTS"><path class="cls-1" d="M97,10.69c1.49-.12,2.85-.21,4.22-.33a37.46,37.46,0,0,1,4.11-.18,1.06,1.06,0,0,0,1.17-.72c.4-.93.87-1.84,1.31-2.76A17.9,17.9,0,0,1,113.09.62a.84.84,0,0,1,1.07-.19,1,1,0,0,1,.53,1.09,10.52,10.52,0,0,1-.27,1.14,11.24,11.24,0,0,1-5.31,6.76c-.26.14-.58.24-.68.57.08.21.25.18.4.18,3.69,0,7.36.31,11,.7a1.05,1.05,0,0,0,1.17-.53,18.09,18.09,0,0,1,8.09-6.76l.42-.2c.47-.2.93-.48,1.42,0a1.45,1.45,0,0,1,.26,1.74,9,9,0,0,1-3.19,4A13.79,13.79,0,0,1,124,10.83l-.56.17c.17.35.51.26.76.29q4,.44,8,.83c.94.09.89,0,1.22-.88,1.23-3.41,2.83-6.56,6-8.59l.29-.19c.43-.26.85-.64,1.39-.26a1.32,1.32,0,0,1,.47,1.47,9.55,9.55,0,0,1-.79,2.21,13.69,13.69,0,0,1-5.17,6.23c.17.42.49.27.72.28a65.09,65.09,0,0,0,6.7,0c1,0,1-.06,1.29-1,1-3.45,3.47-5.59,6.39-7.34.67-.4,1.29,0,1.4.79a2.66,2.66,0,0,1-.3,1.36A15.8,15.8,0,0,1,148.49,11c-.17.16-.32.34-.47.51,0,0,0,.07,0,.17a40.77,40.77,0,0,0,7.24-2,.77.77,0,0,0,.56-.77c.25-2.23,1.75-3.16,3.79-2.38a3,3,0,0,1,.95,4.71,2.48,2.48,0,0,1-2.44.38,3,3,0,0,1-1.34-.72.76.76,0,0,0-.95-.12,35.22,35.22,0,0,1-7.88,2.34c.08.32.36.21.52.29a3.68,3.68,0,0,0,.57.15,8.79,8.79,0,0,1,4.5,2.85c.39.48.93,1,.57,1.67s-1.13.36-1.73.21a29.92,29.92,0,0,1-3.81-1.17,12.19,12.19,0,0,1-4.3-2.81,1.53,1.53,0,0,0-1.2-.61c-1.4,0-2.81,0-4.35,0,.3.56.74.58,1.07.72a11,11,0,0,1,5,4.43,2.53,2.53,0,0,1,.28.51c.17.45-.05.67-.47.74a2.22,2.22,0,0,1-.92-.14A18.29,18.29,0,0,1,137,16.72c-1.11-.87-2.19-1.78-3.27-2.69a1.85,1.85,0,0,0-1.13-.52c-2.11-.18-4.21-.4-6.33-.6,0,.38.29.43.48.56a28.19,28.19,0,0,1,5.68,5.76,1.77,1.77,0,0,1,.29.5c.25.67,0,1.07-.69.9-3.65-.91-7.15-2.13-9.67-5.15a7.28,7.28,0,0,1-1.3-2.36c-.13-.42-.34-.72-.78-.77-2.36-.27-4.73-.38-7.13-.51.06.34.27.39.43.46,2.56,1.24,4,3.49,5.18,5.9.14.29.26.62,0,.89s-.58.19-.87.07c-3.58-1.52-7.2-3-9.57-6.34a2.38,2.38,0,0,0-2.27-1.06c-3,.08-5.95.25-9.06.58a2.54,2.54,0,0,0,1.21.4,26.32,26.32,0,0,1,6.93,2.16,12.5,12.5,0,0,1,4,3.18c.32.39.75.83.44,1.35s-.83.37-1.3.3a24.27,24.27,0,0,1-5.79-1.48,28.73,28.73,0,0,1-3-1.42,9.9,9.9,0,0,1-3.23-2.69c-.42-.56-1-.81-1.5-1.29-.21-.23-.52-.12-.78-.07A22.76,22.76,0,0,0,84.1,17a6,6,0,0,0-1.43,1.38c-.16.25-.31.47-.65.29a.57.57,0,0,1-.3-.78,4,4,0,0,1,1-1.44,17.25,17.25,0,0,1,5.78-3.75,20.53,20.53,0,0,1,4.85-1.39,2.09,2.09,0,0,0,1.82-1.4c.43-1.09.94-2.15,1.39-3.23a13.42,13.42,0,0,1,4.16-5.46A8.87,8.87,0,0,1,102.2.3c.94-.49,1.72.07,1.64,1.14a4.48,4.48,0,0,1-.59,1.65A19.13,19.13,0,0,1,97.82,9.8l-.62.53A2.64,2.64,0,0,0,97,10.69ZM122,12.84c.52,2.44,5.7,5.92,8.56,5.75C128.17,15.89,125.71,13.45,122,12.84ZM117,17.41c-1.18-3.18-5.25-5.29-8-5.17C111,14.86,113.87,16.13,117,17.41Zm-9.74.55c-2.77-2.41-6.19-3.22-9.63-3.94A15.86,15.86,0,0,0,107.28,18Zm36,.43c-2.08-2.94-5.12-3.45-8-4.29A18.51,18.51,0,0,0,143.25,18.39ZM135,10.56a14.82,14.82,0,0,0,4.62-6.35C137.16,5.7,136,8.05,135,10.56ZM102.31,1.8a11.12,11.12,0,0,0-4.77,6.13A15.7,15.7,0,0,0,102.31,1.8ZM150.1,6c-2.37,1.15-4.65,3.84-4.87,6A21.55,21.55,0,0,0,150.1,6Zm-4.5,8.13a12.35,12.35,0,0,0,6.63,2.49C150.35,14.83,148,14.45,145.6,14.09ZM128.81,5.36a15.13,15.13,0,0,0-5.31,3.8C126.11,8.21,127.88,7,128.81,5.36ZM112.45,3.29a11,11,0,0,0-3.21,4A8.12,8.12,0,0,0,112.45,3.29Z"/><path class="cls-1" d="M64.14,10.24l-.62-.54A19.29,19.29,0,0,1,58.13,3a4.65,4.65,0,0,1-.58-1.65C57.48.24,58.26-.31,59.2.18a9.27,9.27,0,0,1,1.47,1A13.48,13.48,0,0,1,64.8,6.62c.44,1.09.94,2.15,1.38,3.24A2.06,2.06,0,0,0,68,11.27a21.13,21.13,0,0,1,4.84,1.41,17.43,17.43,0,0,1,5.76,3.79,4.22,4.22,0,0,1,1,1.44.58.58,0,0,1-.31.79c-.34.17-.48-.05-.65-.3A6.2,6.2,0,0,0,77.21,17a22.65,22.65,0,0,0-9.94-4.3c-.26-.05-.58-.16-.79.06-.45.48-1.08.73-1.5,1.28a10,10,0,0,1-3.24,2.68,28.91,28.91,0,0,1-3,1.4A24.06,24.06,0,0,1,53,19.58c-.46.07-1,.16-1.29-.3s.12-1,.45-1.35a12.38,12.38,0,0,1,4.05-3.16,25.94,25.94,0,0,1,6.94-2.12,2.69,2.69,0,0,0,1.21-.4c-3.11-.34-6.08-.53-9-.63A2.38,2.38,0,0,0,53,12.67C50.6,16,47,17.45,43.38,19c-.28.12-.64.22-.87-.08a.81.81,0,0,1,.05-.89c1.23-2.4,2.65-4.64,5.21-5.86.16-.08.37-.12.44-.47-2.41.12-4.78.22-7.14.48-.44,0-.65.34-.79.76A7,7,0,0,1,39,15.25c-2.55,3-6,4.21-9.71,5.1-.67.17-.93-.24-.68-.9a2,2,0,0,1,.29-.51,28.44,28.44,0,0,1,5.72-5.72c.19-.13.52-.18.48-.56-2.12.19-4.23.4-6.33.57a1.84,1.84,0,0,0-1.14.51c-1.08.91-2.17,1.81-3.28,2.67a18.24,18.24,0,0,1-6.74,3.24,2.39,2.39,0,0,1-.92.13c-.42-.07-.64-.29-.46-.74a3.1,3.1,0,0,1,.27-.51,11,11,0,0,1,5.07-4.4c.33-.14.77-.16,1.07-.72-1.53,0-2.94,0-4.35,0a1.51,1.51,0,0,0-1.2.61,12.39,12.39,0,0,1-4.31,2.78,30.47,30.47,0,0,1-3.82,1.15c-.6.15-1.35.44-1.73-.22s.19-1.19.58-1.67a8.81,8.81,0,0,1,4.51-2.82,3.68,3.68,0,0,0,.57-.15c.17-.08.44,0,.52-.29A34.64,34.64,0,0,1,5.53,10.4a.75.75,0,0,0-1,.12,3.06,3.06,0,0,1-1.34.71,2.49,2.49,0,0,1-2.45-.39,3,3,0,0,1,1-4.71c2.05-.76,3.54.17,3.78,2.4a.76.76,0,0,0,.55.77,39.24,39.24,0,0,0,7.24,2c0-.09,0-.14,0-.17l-.47-.51A15.34,15.34,0,0,1,9.62,5.76a2.56,2.56,0,0,1-.3-1.36c.12-.82.74-1.19,1.4-.78,2.91,1.77,5.39,3.92,6.35,7.38.27.95.3,1,1.29,1a65.08,65.08,0,0,0,6.7.07c.23,0,.55.14.72-.28a13.62,13.62,0,0,1-5.13-6.26,9.55,9.55,0,0,1-.79-2.21,1.36,1.36,0,0,1,.48-1.47c.55-.38,1,0,1.39.27l.3.2c3.19,2,4.77,5.2,6,8.61.32.92.27,1,1.21.89,2.65-.24,5.3-.51,8-.79.26,0,.59.07.77-.28l-.56-.18A13.69,13.69,0,0,1,33.31,8.8a9.15,9.15,0,0,1-3.17-4,1.46,1.46,0,0,1,.28-1.74c.49-.43.95-.15,1.42.06l.42.2a18,18,0,0,1,8.05,6.8,1.07,1.07,0,0,0,1.17.54c3.67-.38,7.35-.63,11-.65.15,0,.33,0,.4-.17-.09-.33-.41-.43-.67-.57A11.22,11.22,0,0,1,47,2.48a7.55,7.55,0,0,1-.27-1.14A1,1,0,0,1,47.24.25c.41-.26.75-.07,1.07.19a18.07,18.07,0,0,1,5.22,6.11c.44.93.9,1.83,1.3,2.77a1.07,1.07,0,0,0,1.17.73,35.35,35.35,0,0,1,4.11.2c1.36.13,2.72.23,4.21.35A2.64,2.64,0,0,0,64.14,10.24ZM30.78,18.32c2.86.19,8-3.26,8.59-5.71C35.61,13.21,33.14,15.63,30.78,18.32Zm21.58-6.23C49.57,12,45.48,14,44.28,17.21,47.43,15.94,50.3,14.69,52.36,12.09Zm11.31,1.84c-3.45.7-6.86,1.49-9.65,3.88A15.81,15.81,0,0,0,63.67,13.93Zm-37.6-.12c-2.88.81-5.93,1.31-8,4.24A18.56,18.56,0,0,0,26.07,13.81ZM21.8,3.89a14.81,14.81,0,0,0,4.59,6.37C25.41,7.75,24.2,5.39,21.8,3.89Zm42,4a11.12,11.12,0,0,0-4.73-6.16A15.78,15.78,0,0,0,63.81,7.84ZM16.1,11.56c-.2-2.11-2.47-4.81-4.83-6A21.35,21.35,0,0,0,16.1,11.56Zm-7,4.63a12.27,12.27,0,0,0,6.64-2.46C13.3,14.08,11,14.45,9.08,16.19ZM37.84,8.93A15,15,0,0,0,32.56,5.1C33.48,6.7,35.24,8,37.84,8.93Zm14.28-1.8a11,11,0,0,0-3.19-4A8.09,8.09,0,0,0,52.12,7.13Z"/></g></g></svg>