<svg xmlns="http://www.w3.org/2000/svg" viewBox="0 0 897.6 187.2"><defs><style>.a7862bd4-6066-44f9-81d5-ddffd1da4bd9{fill:#2f2f30;}</style></defs><title>florali</title><g id="bebb1610-f868-4fd2-aba2-93320efecdb4" data-name="Capa 2"><g id="a2ea4297-3ebc-48d6-bcde-5922f3c260bd" data-name="designs"><path class="a7862bd4-6066-44f9-81d5-ddffd1da4bd9" d="M227.5,62.6c-1.6,1-5,.7-6.7-.2s-1.9-1.2-1.9-2c2.8-5,7-3.4,11.1-3l-1-.5c-3.3-.3-6.6-.3-9.8-.9s-4.3-.3-5.7-2.4a2.1,2.1,0,0,1,.7-3.1c1-.5,2.2-.8,3.4-1.3-1.1-.1-2.8.1-3.1-.5s-3.4-.7-3.8-2.7a.2.2,0,0,0-.2-.2c-1-.7-2-1.9-1.2-2.8a4.3,4.3,0,0,1,3.4-.8c1.5.2,2.8,1.1,4.3,1.7s2.9,2.4,3.8,4,1.1.9,2.1.4c-.7-.6-1.5-.9-1.8-1.6a3.4,3.4,0,0,1-.5-2.5,6.5,6.5,0,0,1,2.6-2.6c1.3-.6,3.4.4,4.1,1.3s2.5,3.8,3.8,5.7a10.1,10.1,0,0,1,.4-3.1c.3-1,2.8-1.6,3.6-.9a7.1,7.1,0,0,1,1.9,2.3,34.3,34.3,0,0,1,1.9,4.4c.5,1.5.6,3.1,1.2,4.6a7.1,7.1,0,0,0,1.8,2.7c-.2-1.5-.4-3-.5-4.5s.2-3,.3-4.5,1.2-2.8,2.5-3.8a7.4,7.4,0,0,1,4,8.4c-.4,2-1.1,3.9-.5,6,.2.6-.3,1.6,0,2.5s.7,2.4,1.1,3.5.5.3.7.3c2.5,0,4.2,1.7,6.3,2.6s2.7,2,4.2,2.8c3.1,1.8,5.9,4,9,6a12.6,12.6,0,0,0,2.6,1.3h.4c1.3,1.8,3.5,1.7,5.1,2.8s2.1,1.2,1.5,2.9c2.6-.6,5.1-1.2,7.6-1.6a36.6,36.6,0,0,1,5.7-.5,82.6,82.6,0,0,1,8.6.1,21.3,21.3,0,0,1,4.2,1l.3-.5a.7.7,0,0,1-.6-.2,49.5,49.5,0,0,1-5.8-4,17.6,17.6,0,0,1-2.9-3.7c-1.8-2.6-3.5-5.2-5.4-7.7-.8-1-2.1-1.5-3-2.4-2.6-2.6-5-5.3-7.4-7.9a30.1,30.1,0,0,1-3.6-4.4,19.1,19.1,0,0,1-3.2-8.7c-.2-1.6-1-3.3-.7-4.9s-1.1-3-1.1-4.5c1.7-1.4,2.3-1.2,3.3.7a9.7,9.7,0,0,0,1.9,2.2c2.4,2.3,5.1,4.6,7.5,7s4.1,3.8,5.5,6.2,4.6,6.2,6.6,9.5a54.2,54.2,0,0,1,2.6,6c1.2,2.7,2.4,5.4,3.8,7.9s3.1,4.5,4.6,6.8,2.1,1,1.9,2.5l1.5.4-.3.3c.3.3.5.7.9.9a28.8,28.8,0,0,0,3.8,2.2,4.9,4.9,0,0,0,2.1.4,13.3,13.3,0,0,1,4.9.8,61.5,61.5,0,0,0,9.7,1.8c1.6.3,3.2.4,4.8.8s4.6,1.3,6.9,1.9c.5.2,1.2-.1,1.9-.1a51.4,51.4,0,0,0,5.6.1l-2.5-1.7c-2.4-1.8-4.8-3.6-7.1-5.6s-2.5-3-3.8-4.4-2.3-2.2-3.5-3.3a18.1,18.1,0,0,1-2.9-3.3,6.5,6.5,0,0,0-2.9-2.8,34.9,34.9,0,0,1-3.2-2.5l-5.1-3.6c-1.3-.8-2.9-1.3-3.8-2.4a12.2,12.2,0,0,0-5.3-3.7c-.6-.3-1.5-.2-2.1-.5s-2.2-1.6-3.4-2.4l-1.5-1a1.4,1.4,0,0,1,2.1-.5l8.2,4.2c.3.2.9,0,1.5,0s.1.4.1.4c2,1.4,3.6,2.8,5.5,3.9s5,2.8,7.4,4.3c.7.4,1.1,1.3,1.7,1.8l3.9,3.3a6.7,6.7,0,0,1-.1,1l.8-.5c.6.4,1.2,1.2,1.8,1.3s2.6,1.8,3.8,2.7a52,52,0,0,1,4.7,3.5l4.2,3.6a55.9,55.9,0,0,1,5.2,4.5c1.6,1.7,3.7,2.4,5.4,3.8a5.8,5.8,0,0,0,3.1,1.1,6.4,6.4,0,0,1,4.5,1.9,5.7,5.7,0,0,0,2.4.8l2.9.6c.1-.1.1-.3.2-.4l-2.8-1a27.9,27.9,0,0,1-4.5-2.6,30.3,30.3,0,0,1-5.3-4.8c-1.5-1.7-2.4-3.8-3.6-5.7s-2.1-2.3-2.6-3.6-3-2.6-3.6-4.8-.3-1.3.7-1.6l1.1-.7c.1.2.3.7.5.7,2.3.3,3.5,2.4,5.5,3.1s3.4,1.7,5.2,2.4a8.2,8.2,0,0,1,4.5,3.5c.9,1.5,2.2,2.8,3.2,4.2s2.9,3.8,4.4,5.6,3.7,3.7,5.4,5.7.9,2.1,1.4,3.2l2.2.6,6.4,2.9h.4c4.2.5,7.8,2.8,11.8,3.6l7.1,1.2,7.7,1.1c.7.1,1.4,1,2.1.1l.7.5c.3-.2.6-.6.9-.6a54.4,54.4,0,0,1,5.7.3c3.6.4,7.1,1,10.6,1.2a20.1,20.1,0,0,0,5.9-.9c2.7-.6,5.2-1.6,7.8-2.3s3-.7,4.4-1.2a6.7,6.7,0,0,0,1.2-.6l-.2-.5c-1.6.1-3.2.3-4.9.3a11.3,11.3,0,0,1-5.4-1c-.3-.1-.8.1-1.2.1a21.9,21.9,0,0,0-3.6-.3c-2.9.1-5.8.5-8.6.7s-3.5.1-5.2.3-1.9.6-3.3,1l-9-1.4a2.4,2.4,0,0,0-.6-.9l-7-3.3c-.8-.4-1.7-.4-2.6-.8a5.3,5.3,0,0,1-.9-1.1c.5-.3.9-1,1.4-1,4-.4,8.1-.6,12.1-.9l.7-.2a20.9,20.9,0,0,1,6.1-.4c1,0,2-.2,3-.1a59.8,59.8,0,0,1,7.4.9A54.4,54.4,0,0,1,441,100l4.1,1.4h1.4a3.8,3.8,0,0,1,1.3.6h1.7l2-.4a2.6,2.6,0,0,1,1.5,0l3.7,1.4a13.6,13.6,0,0,0,3.5.7,11.4,11.4,0,0,0,4.5-.1,90.8,90.8,0,0,1,9-2.2c4.2-1.1,8.6-.7,12.9-.4a4.5,4.5,0,0,0,2-.1c1.5-.5,3.1.4,4.7-.2a13.3,13.3,0,0,1,2.6-.5c-.8-.7-1.5-1.1-2.2-1.8a17.7,17.7,0,0,0-.6,1.7l-2.7-2.1a7.5,7.5,0,0,1,1.6-1.5l3.8-1.3a2,2,0,0,1,2.3.4c.7.6,2.2.3,3.3.1a7.7,7.7,0,0,0,2.3-1,9.1,9.1,0,0,0,2.3-.3,25.6,25.6,0,0,0,3.3-2.1l-3.4-.7c-4-.4-8-.7-11.9-1.2-1.4-.2-2.6-.8-3.9-1.1a17.7,17.7,0,0,0-2.3-.1c-1.4-.2-3-.1-4.2-.7s-2.2,0-3.2.2-2.4-.3-3.6-.1a9,9,0,0,0-1.9.5c-.4-.8-2.5-1.5-3.9-1.2a22.7,22.7,0,0,1-4.5.3,30.7,30.7,0,0,1-5.3-.5c-1.4-.2-2.8.2-4.1-.8s-1.5.1-2.2.1-4.3,0-6.4,0l-2.1.5h-.2c-1.8-1.1-3.8.5-5.7-.3.1,1.3-1.1,1.2-1.8,1.3-2.6.7-5.2,1.4-7.9,1.9s-5.2.7-7.8,1.1c-.9.1-1.9,1.2-2.6-.3a8.2,8.2,0,0,1-5.7.7c-1.7-.3-3.7-1.3-5.2-.9s-3.1-.9-4.7-1l-1.7.3c-1.8.1-3.2-1.1-4.8-1.6l-1.5-.3-1.1-.2c.3-.3.5-1,.7-1a40.5,40.5,0,0,1,4.9.4l.4.2c1-1.1,2-.3,3-.2,3.7.4,7.5.6,11.2.9,1.5.2,3,.5,4.6.6s1.1-.4,1.6-.4h3.8a5.8,5.8,0,0,0,4-1.6h.6a13.4,13.4,0,0,0,7.1-1.2c1.2-.5,2.6-.3,3.8-.7,3.2-.8,6.4-2,9.6-2.7s4,0,5.9,0a17.5,17.5,0,0,0,3.9-.3l-5.2-1.6-3.8-1-7.7-1.9c-2-.6-4-1.3-6.1-1.8l-3.9-.8a29.6,29.6,0,0,0-3.1-.3,2.4,2.4,0,0,0-2.6.9h-.7l-3.8-.9c-.1.3-.1.6-.2.9h-.3c-.7-.9-3.7-.9-4.9-.2a3.2,3.2,0,0,1-1.9.7,35,35,0,0,1-6.5.3c-2.5-.4-5.1.3-7.5-1.4s-3.2-1.2-4.8-1.9a22.7,22.7,0,0,1-3.4-1.9l-2.9-2a3.7,3.7,0,0,1-1.2-1.3c-.5-.7-.9-1.5-1.9-1.1h-.5l-4.6-2.9-2.1-1.2-5.1-2.1-4.7-2.2c-1.9-.7-3.7-1.5-5.6-2a14.6,14.6,0,0,0-3.6-.3c-.3-.1-.6.3-.9.4s-2.1-1.4-3.4-1.7a16.4,16.4,0,0,0-4.4-.4c-2.6.1-5-1-7.4-1.8a33,33,0,0,1-7.2-3.2c-3.1-1.8-6.1-3.9-9.2-5.8-.6-.3-1.4-.3-2-.6s-1.9-1.1-2.9-1.5-2.7-.9-4-1.5l-3.1-1.6a5.6,5.6,0,0,0-1.2-.4,2.2,2.2,0,0,1-2.7-1.6c.6-.2,1.3-.8,2-.8,4-.2,8.1-.4,12.2-.4a19.1,19.1,0,0,1,3.3.6c2.5.6,4.9,1,7.3,1.7a15,15,0,0,1,4,2c1.5,1.1,2.8,2.6,4.4,3.5s4.1,3.3,6.1,5.1a75.9,75.9,0,0,0,6.5,4.6c.2.2.4.5.6.4l2.3.3,2,.7a80.4,80.4,0,0,1,8.3,2.7c4.2,1.8,8.3,3.9,12.5,6h1.1c-1.6-1.4-2.8-2.6-4.2-3.6s-1.6-.9-2.3-1.5a2.1,2.1,0,0,1-.6-1.8c.3-.8,1.2-1.6,2.1-.9s4.1,1.9,6.3,2.5a80.6,80.6,0,0,0,8.8,1.7c.3,0,.8-.5,1.2-.5,3-.4,5.6.8,8.2,2a16.4,16.4,0,0,1,2.9,1.6l1.5,1.4c1.7,1.6,4,2.2,5.9,3.6s4.8,4.5,8.1,5.2h2.2a37.6,37.6,0,0,1,10.6.7c3.2.8,6.5,1.5,9.6,2.4s6.4,2.3,9.6,3.2,5.5,1.3,8.3,2,3.8,1.2,5.9,1.6l-7.1-5.7,1.7-.8c-1.3-1.3-2.5-2.6-4.7-1.4.4-1.7-.6-2.3-1.4-3.3-2.8-3.1-6.9-4.1-10-6.7s-4.8-3.9-7.1-6a37.2,37.2,0,0,1-3-3.7L437.6,53c-.9-.8-2-1.6-1.7-3.2.1-.1,0-.3,0-.4-1.3-2.6-2.5-5.2-3.8-7.7-.1-.4-.1-.8-.3-1a29.2,29.2,0,0,0-2.9-4c-.7-.7-1.6-1.3-1.3-2.6,2.5-.6,4.1.9,5.9,2.2a33,33,0,0,0,3.2,1.8l1.2,1.1c.5.4.5,1.4,1.5.8a.1.1,0,0,1,.2,0c1.1,2.8,4.7,2.1,6.2,4.5s4.2,4.5,5.1,7.8,2.4,4.4,3.6,6.6,2.1,4.1,4.1,5.6a1.7,1.7,0,0,1,.5,1.2c.1,2.1.7,3,2.6,3.6s1.1.9,1.6,1.3l3.2,3.2,1.9,1.9a38.1,38.1,0,0,1,3.2,2.4,17.7,17.7,0,0,1,2.7,2.8,7.5,7.5,0,0,0,4.8,2.5c1.5.4,2.9,1.5,4.4,1.5s3.5,2.1,5.7,1.4c.2,0,.5.4.8.7s.5-1.4,1.5-.6.7.6,1,.5c3.6-.6,6.9.7,10.1,1.5a36.1,36.1,0,0,0,7.2,1.2l6.1.6a9.1,9.1,0,0,1-1,1l.3.3c1.4-.7,2.9,0,4.5-.4s5.6,0,8.4.2a14.7,14.7,0,0,1,3.6.4,42.8,42.8,0,0,1,4.3,1.4l.7.2c1.2-.1,2.1.1,2,1.7,1.3-.4,2.9.4,3.3-1.3h3.6v-.3l1.8,1.1-.3,1.1.4.2,1.3-1.5c.9.2,1.9.8,2.8.5,2.6-.6,5.1-.3,7.7-.5s3.5.3,5.2-.1a28.5,28.5,0,0,0,4.3-1.6c0-.1.1.2.1.1l6.5-1.9-2.6-1.6c-.3-.2-.7,0-1.1-.1s-3-.7-4.4-1.2-1-1.2-1.7-1.5a45.9,45.9,0,0,0-5-2.4c-.6-.3-1.4-.4-1.8-.8-2.9-2.3-6.5-2.4-9.8-3.3-1.2-.3-2.5,0-3.7-.3s-1.8-.2-2.1,1.5a14.6,14.6,0,0,0-2-1.5,3.7,3.7,0,0,0-1.8-.1c-2.6.6-5,1.7-7.6,1.9s-4.9.4-7.4-.6-1.9-2-.4-3.9h-8.3a17.4,17.4,0,0,1,.1-3.2c0-.2.8-.2,1.3-.3.3-1.6,1.8-1.4,3-1.6l4.4-.4c.4,0,.6-.4,1.2-.8l-12-.7c-1.9-.1-3.9.3-5.8.1a5.2,5.2,0,0,1-2.6-1,1.6,1.6,0,0,1,.1-2.7c1.2-.7,2.6-1.2,4.1-2l-.8-.4a50.1,50.1,0,0,0-5.5-1.7c-1.3-.3-2.1-1.5-3.1-1.9s-1.9-2.1-2.6-3l2-2.2L510.6,59l-.9-3c-.4-1.6.2-3,1.4-3.3a1.9,1.9,0,0,1,1.3.2,9.6,9.6,0,0,1,4.9,5.2,11.6,11.6,0,0,1,1.3-2.2c.5-.5,1.4-1.4,2-1.2a7.1,7.1,0,0,1,3.4,1.6c1.1,1.1,1.9,2.6,2.9,3.8s1.6,1.8,2.3,2.8,4.1,4.9,6.2,7.5c-.4-1.2-.7-2.3-1-3.3a16.1,16.1,0,0,1-.9-2.9,20.9,20.9,0,0,1,.1-5.6c.4-2,2-2.3,3.7-1.1a8.2,8.2,0,0,1,3.1,6.6,8.4,8.4,0,0,0,1.5,3.9,9.3,9.3,0,0,1,1.3,3.1c.3,1.4.3,2.9,2.1,3.7s1.1,1.2-.2,2.6c2.1.4,4.3,1.3,6.5,1.2s5.1,1.4,7.4,2.6,1.9,1.2,3.4.9,2.6.9,3.6,1.8a8.2,8.2,0,0,0,3.5,1.7c.3.1.6.8.7,1a12.7,12.7,0,0,1,2.9.4l4.9,1.7,3.7,1.3h.6a1.5,1.5,0,0,1,.7-.3c3.5.4,7.1,0,10.6,1.7a13,13,0,0,0,6.6,1.7c3.6-.1,7.2.5,10.9.7l1.8-.3c-.3-.3-.5-.6-.6-.6-2.6.1-4.3-1.7-6.1-3.1s-1.4-.2-2.1-.6-4.2-1.7-6-2.9l-1.9-1.5c-2.1-1.7-4.5-3.1-6.5-4.9a9.5,9.5,0,0,0-4.1-2.1,12.7,12.7,0,0,1-1.9-1.3l-10.3-6.6c-1.7-1.2-3.2-2.6-4.9-3.6l-8.2-4.3L554.5,59a26.1,26.1,0,0,0-5.5-1.4c-3.5-.8-6.9-1.7-10.3-2.7-1.8-.4-3.5-1.1-5.3-1.4a6.5,6.5,0,0,0-2.4.6L529.2,52a16.3,16.3,0,0,1,3.1-.1,35.5,35.5,0,0,1,4.7.8l7.7,2.2a1.2,1.2,0,0,0,.8.1c3.3-1.3,5.7,1.1,8.5,2l2.1.7,4.5,2.2,1.9,1c1.8.8,3.6,1.3,5.3,2.2s3.7,2.4,5.5,3.5l5.9,3.6c.3.2.8,0,1.3,0,.6,2.4,3.2,2.8,5,4.5l.5-1,3.2,2.1c3.2,2.2,6.8,3.4,10.2,5a18.9,18.9,0,0,1,4.6,2.6c1,1,2.5,1,3.2,2.4s1.5.5,2.2.9l3.7,2.2,3.2,1.6a37.2,37.2,0,0,0,9.2,3.2,81.1,81.1,0,0,0,8.6,1.4l7.7.7,5.2.5c3.9.4,7.7,1,11.5,1.1a102.8,102.8,0,0,0,11.1-.1,61.7,61.7,0,0,0,6.2-.9c1-.2,1.9-.5,2.8.4s1,.1,1.5,0l15.6-2.7,5.6-1.4L705,92a63.7,63.7,0,0,0,7.5-2,61.9,61.9,0,0,0,8-3.4c3.3-1.6,6.4-3.6,9.6-5.3s3.9-1.8,5.8-2.9a29.2,29.2,0,0,0,3.7-2.4l5.3-4.7a1.2,1.2,0,0,0,.4-1l-7.6,1-4.2.5-2.7.5a15.1,15.1,0,0,1-7.6.4l-4.4-.7a28,28,0,0,1-4.1-1.3L707,67.8a4.5,4.5,0,0,0-1.6.3,13.6,13.6,0,0,1-1.7.4,20.2,20.2,0,0,0-7.7.7c-3.3.9-6.4,2.5-10,1.7a30.4,30.4,0,0,0-6-.5,4.7,4.7,0,0,0-2.7,1.2c-.3-.2-.8-.6-1.1-.6a33.3,33.3,0,0,0-4.5,1.3c-3,1.2-5.8,2.6-8.7,3.9a17.6,17.6,0,0,1-2,.9l-4.8,1.4c-3.7,1.2-7.5,2.6-11.3,3.6-1.5.5-3.3.1-5,.3s-4.3.7-6.5,1-4,.2-5.9.2l-5.4-.2c-.4-.1-1-.4-1-.6s0-2.1.3-2.2c3-.9,4.8-3.9,8.1-4.1,1-.1,1.9-1.1,2.9-1.5s4.9-.8,7.3-1.2a7.9,7.9,0,0,0,2.2-.9c1.2.7,2.6.3,4.1-.2l2.3-.7,5-1.5,5.6-1.3c1.1-.2,2.1-.7,3.2-.8a43.6,43.6,0,0,1,5.1-.3h5.5c.2,0,.5-.2.8-.7l-4-.9-5.4-1.1a56.7,56.7,0,0,1-5.7-1c-1.7-.4-3.4-1.1-5.1-1.6s-1.3-.1-1.8-.3l-5.8-1.9c-1.8-.5-3.7-.8-5.5-1.2l-3.6-.6h-1.2c-2.4.3-4.9-.3-7.1,1.1-2.1-1-4.1.3-6.1.5s-3.5,1.3-5.3,1.5a38.8,38.8,0,0,1-5.9.1c-.4-.1-.7-.5-1-.7-2.7.8-5.4,1.1-8.1-.3a3.4,3.4,0,0,0-1.7-.3c-1.1.2-2-.4-3-.4-3.1-.2-5.7-2.2-8.9-2.1s-5.6-.4-8.4-.7a12.7,12.7,0,0,1-1.8-.6l-.2.4c-.1-.3-.1-.6-.2-.9l-1.7.4c-.1-.8-.2-1.7-.4-2.9h3.9c.1,0,.4.1.5,0,2.4-1.5,5.2-1.1,7.8-1.7a40.2,40.2,0,0,1,4.9-.2c1.9-.2,3.8-.6,5.7-.7a33.7,33.7,0,0,1,5.5-.1,41.8,41.8,0,0,1,7.2.7c3.5.8,6.9,1.9,10.3,2.8s4.8,1.2,7.2,1.6c3.9.7,7.9.3,11.7,1.5s7.7,2,11.6,3L664.8,64c3.7.8,7.5,1.3,11.2,2h1.6l-3.9-4.2c-1.8-1.7-3.6-3.5-5.6-5.1s-2.3-1.1-3.4-1.7-2.6-1.8-4-2.6a15.9,15.9,0,0,0-4-1.8,29.8,29.8,0,0,1-7.2-3.4c-.2-.2-.5-.5-.6-.4-2,1.2-2.9-.9-4.4-1.4l-1.5-.8c-3.6-1.4-6.2-3.9-8.6-6.6s-3.5-4-5.4-6-1.6-1-2.3-1.6l-1.5-1.6a5.3,5.3,0,0,1-1-.6c-.4-.2-1-.6-1-.9a2,2,0,0,1,.6-1.3,1.5,1.5,0,0,1,1.3.1,23.9,23.9,0,0,0,3.4,2.1,29.5,29.5,0,0,0,4.1,1.7c3.3,1,6.7,1.6,9.8,2.8s6.6,2.7,8.7,5.9c.9,1.3,2.5,2.1,3.6,3.3s2.5,3.1,3.7,4.7a21.5,21.5,0,0,0,9.6,7.8,3.8,3.8,0,0,1,1.3.9l9.1,8.6a5.9,5.9,0,0,0,2,1.2c2.3,1,4.2,3.1,6.9,3.1a8.8,8.8,0,0,0,2.3,0c1.8-.3,3.5-1,5.3-1.3l6.6-1.2,1.5-.3c-1.1-1-1.9-1.8-2.8-2.5L696,59.5c-.9-.7-1.3-1.4-.6-2.5s0-.7,0-1.1a55.6,55.6,0,0,1,7.3,1.8,42.6,42.6,0,0,0,13.1,2.4A25.8,25.8,0,0,1,727,62.9c1.2.5,2.2,1.5,3.4,2a15.6,15.6,0,0,0,4.1,1.5c2.9.3,6,1,8.7.2s3.6.1,5.3.1a12.1,12.1,0,0,0,7.8-2.7,21.7,21.7,0,0,1,3.3-1.9c.3-.2.7-.3.7-.5s.9-2,2.5-2a1.4,1.4,0,0,1-.2-.6l-4.3-1.6-3.4-1.6c-3.6-1.7-7.1-3.5-10.8-5.1a13.6,13.6,0,0,0-5.1-1.5,51.3,51.3,0,0,0-9.6,1c-2.8.6-5.3,2-8,2.6a36.4,36.4,0,0,1-7.4.5c-.3,0-.8-1-.9-1.6a1.9,1.9,0,0,1,1.5-2.3c2.6-.7,5.2-1.5,7.8-2.1l5-.8v-.4h-1.7l-5.7.7a22.9,22.9,0,0,0-2.8.8,25,25,0,0,1-3.8.6,30.1,30.1,0,0,1-6-.1,15.6,15.6,0,0,1-4.2-1.9c-.5-.3.2-1.7.9-1.8a3.3,3.3,0,0,0,1.6-.7c-1.3,0-2.6.1-3.8,0a46.3,46.3,0,0,1-6.5-1c-.6-.1-1.1-1.3-1.1-1.9a1.6,1.6,0,0,1,1.8-1.8l9.2-.5a1,1,0,0,0,.8-.4l-4.2-.6c-1.7-.2-3.6.2-5.2-.3s-4.3-.4-5.9-2.2-2.2-1.2-3.2-1.9-1.2-.9-1.1-1a4.5,4.5,0,0,1,1.4-1.9,3.1,3.1,0,0,1,1.9-.4l5.1.7c.3,0,.6.5.9.9l-2.2.2h-4.7c3.9,2.9,8.1,4.4,12.9,3.8a16.5,16.5,0,0,0-4.2-2.1c-1.2-.3-1.9-.7-1.9-2l5.4,1.8,2.4.9.4-.3-1.9-2c-.7-.8-1.8-1.6-2-2.5a5.5,5.5,0,0,1,.5-3.3,1.7,1.7,0,0,1,1.6-.6,13.3,13.3,0,0,1,6,3.9l3.2,3.3c.4.4.8.5,1.1.8-.1-2.1-.2-4-.3-5.9l.4-.4a22.8,22.8,0,0,1,3,2.1c1.5,1.7,2.9,3.5,4.2,5.3s1.1,2.2,1.7,3.2a2,2,0,0,0,.4.8l.5-.3c-.4-1.3-.7-2.6-1.1-4a3.1,3.1,0,0,1,.5-3.1c.4-.5,1.7-.3,2.2-.4,1.3,2.5,2.4,4.8,3.7,6.9a35.7,35.7,0,0,0,3.8,4.9,41.6,41.6,0,0,0,6.1,5c1.1.8,2.9.5,4.3,1s5.4,2.3,8.1,3.4a104.3,104.3,0,0,0,11.7,4.5c2.1.6,4.5.2,6.7,0s5.7-.7,8.6-.9a15.5,15.5,0,0,1,3.1.4c-.4-.7-.8-1.5-1.2-2.1s-.5-.4-.8-.6c-2.4-.8-4.9-1.6-7.2-2.6-.6-.2-.9-.9-1.4-1.2L763,46.4l-.8-.5c-3.7-2.4-6.2-6.2-9.7-8.9l-4.7-3.2c-1.9-1.4-3.8-2.9-5.9-4.2a39.2,39.2,0,0,0-5.3-2.9c-2.3-1.1-4.7-2-7.1-2.9a8.8,8.8,0,0,0-1.6-.2c-1.7-.4-3.5-1.4-5.2-1.3s-5.3-1.1-8-1.5c-.6,0-1.1-.5-1.7-.7a41,41,0,0,0-4.8-1,17.9,17.9,0,0,0-4,.1c-2.5.1-3-.1-3.7-1.7l7.7-.9c0-.1-.1-.2-.1-.4a4.2,4.2,0,0,0,1.2.8c5.5.9,11,1.7,16.4,2.8a54.3,54.3,0,0,1,5.3,1.7l5.8,1.6a4.1,4.1,0,0,1,1.9.8,42.7,42.7,0,0,0,7.1,4.2,37.1,37.1,0,0,1,8.2,6.6,16.5,16.5,0,0,0,3.2,1.8c1.6.9,3.2,1.7,4.7,2.7a67,67,0,0,0,12.2,6.3c2.3.9,4.4,2.2,6.8,3a20,20,0,0,0,6,.5,14.5,14.5,0,0,0-2.2-.9A31.1,31.1,0,0,1,773,41.4a20.9,20.9,0,0,1-5.1-6c-1.2-2.5-2.8-4.9-3.5-7.7a26.1,26.1,0,0,0-2.6-5.3c-1.7-3.1-4.7-5.2-6.5-8.2S753.1,10,752,7.9,750.6,6,750,5a2,2,0,0,1-.2-1.3c.1-.3.7-.4,1.1-.5a.6.6,0,0,1,.8.5,31.5,31.5,0,0,0,3.7,3.6c4.1,2.7,8.4,5.1,12.5,7.8,1.7,1,2.9,2.7,4.5,3.9a16.8,16.8,0,0,1,4.9,6.6c1,1.9,2.2,3.7,3.3,5.6a36,36,0,0,0,3.1,5.4,36,36,0,0,0,8.8,8.6c.6.4,1,1,1.6,1.4a22.7,22.7,0,0,0,2.5,1.8,30.3,30.3,0,0,0,9.1,2.2l9.8,1.4,7.5,1.3c5.3,1.2,10.7.7,15.9,1.3,2.6.3,5.1,1,7.7,1.3l5.7.7,11.5,1.2a50.6,50.6,0,0,0,5.5.2c4.1-.1,8.3-.2,12.4-.5l10.9-.8c1.6-.1,3.3,0,5,0v.8l-2.6.3c-.1,1.8-1.6,1.8-2.8,2l-3.9.5a12.7,12.7,0,0,1,2.1,1.4c.2.2.5.7.4.8a2,2,0,0,1-.9.7l-5.3.7v.4l7,1.9a5.4,5.4,0,0,1-4.1.2c-1.2-.3-2.3-1-3.6-.1s-1.5.1-2.3-.1c-5-.9-10.1-1.8-15.1-3s-12.8-1.6-19.3-2c-3.2-.3-5.8,1.5-8.3,3.4s-3.5,2.2-5.2,3.3a20.9,20.9,0,0,0-2.2,2c-.7.7-1.3,1.7-2.1,2.1s-2.2,3.7-3.4,5.5-2.6,3.7-3.7,5.6a58.6,58.6,0,0,0-2.6,5.7,42.2,42.2,0,0,0-1.8,4.5,5,5,0,0,0-.5,2.6c.4,3-.8,5.6-1.5,8.3a10.1,10.1,0,0,0-.4,2.9c-.1,4.4-.4,8.7-.1,13.1s1.2,6.1,1.6,9.2a42.2,42.2,0,0,1,.3,6.2c0,.2-.4.4-.6.6s-.6-.4-.6-.7c-.3-2-.4-4-.7-6s-.5-2.6-.8-3.9a66.6,66.6,0,0,1-1.2-7.6c-.1-6.3,0-12.5.1-18.7.1-1.6.3-3.1.4-4.9-.7,0-1.5-.3-2.1,0a33,33,0,0,0-3.9,2.6c-2.3,1.3-4,3.5-6.7,4.5s-2.9,1.8-4.4,2.7l-1.4.5a42.3,42.3,0,0,0-5.1,1.3,3.8,3.8,0,0,1-3.8-.7c1.7-.6,3.3-1.5,5-1.7a18,18,0,0,0,6.7-2.8,22.9,22.9,0,0,1,2.7-1.4,12.2,12.2,0,0,0,2.8-1.4c1.7-1.6,4-2.6,5.3-4.9s3.5-2.5,5-3.9,2.9-2.4,3.5-4.6,1.7-3.1,2.6-4.7a14.8,14.8,0,0,0,1.8-3.8,10.4,10.4,0,0,1,3.5-5.7,5.8,5.8,0,0,0,1-1.2l1.2-1.6.8-1a6.7,6.7,0,0,1,.9-1.4l4.6-4.8c-2.3-.9-4.4-1.3-6.3-.6-4.5,1.5-9.2,1.7-13.8,2.3a14.5,14.5,0,0,0-5.1,2.1,6.1,6.1,0,0,1-1.4.7,37.7,37.7,0,0,0-5.7,1.8,52.3,52.3,0,0,0-7.1,4.4c-1.5,1-2.8,2.2-4.3,3.4V72.9c0-2-1.2-3.1-3.1-2.7a32.3,32.3,0,0,0-7.5,2.2c-2.8,1.2-5,3.5-7,5.8a7.5,7.5,0,0,0-.6,1.3,40.7,40.7,0,0,1-6.3,11.8,52.3,52.3,0,0,0-4.9,8.2c-1.1,1.7-2.1,3.7-3.6,5s-3.2,1.4-4.8,2.2a98.4,98.4,0,0,0-9.1,4.8c-2.4,1.4-4.4,3.3-6.7,4.9a7.9,7.9,0,0,1-2.3.7,41.9,41.9,0,0,1,1.5-5.7,15.1,15.1,0,0,1,2.4-3.6c.1-.3.4-.4.4-.7.4-1.9,2.1-2.8,3.3-4.1s.9-1.4,1.5-2.1a57.1,57.1,0,0,1,5.1-5.8,83.2,83.2,0,0,1,7.4-5.9,12.3,12.3,0,0,1,2.3-1.1,14.8,14.8,0,0,0,3.3-1.7,26.2,26.2,0,0,1,6-3.7c1.7-1,2.7-2.8,3.5-4.9s2.4-3.7,3.6-5.6c-2-.7-4.2-1.8-6.8-1.3s-3.3-.2-5-.3l-7.5-.5a8.1,8.1,0,0,0-4.8,1.1c-1.4.9-3,1.5-4.3,2.4a35.1,35.1,0,0,0-3.4,3.3,15.7,15.7,0,0,1-2.5,2,5.9,5.9,0,0,0-2.2,1.9c-1,1.3-2.3,2.4-3.4,3.6a8.6,8.6,0,0,0-1.4,1.3c-.9,1.1-1.8,2.3-2.6,3.5s-1.9,2.7-2.7,4.1-2.3,4.3-3.4,6.4-1.8,2-1.2,3.6-.3.7-.5,1-.9,3.4-1.6,4.9-.8,3.9-1.4,5.8-1.1,3.5-1.7,5.2a1.4,1.4,0,0,1-.6.7c-1.4-.1-1.3.9-1.5,1.7a24.2,24.2,0,0,0-1.4,5.1c-.1,2.9-1.8,5.2-2.6,7.8-.1.6-.7,1-1.1,1.5-2,2.5-3.9,5.1-6.1,7.5s-1.7,3.9-3.1,5.6-2.9,3.4-4.4,5-1.4,1.1-.5,1.9l-1.9.9c-.7-2,1.1-2.9,2-4.2s3.5-5.6,5.4-8.3,3.7-6.4,6.6-9a9.7,9.7,0,0,0,2.9-5.1,34,34,0,0,1,1.2-3.4c.5-1.8.7-3.7,1.1-5.5s.1-1,.4-1.3a2.3,2.3,0,0,0,.7-2.6c-.1-.3.2-.7.3-1.1a15.8,15.8,0,0,1,1.4-3.6c1.2-2,0-4.6,1.6-6.6s.1-1.7.4-2.5l2.2-5.7c1.2-2.9,2.2-5.7,3.4-8.5a15.9,15.9,0,0,1,1.8-2.7l-.3-.4-3,1.3c-3.2,1.3-5.1,4.2-7.5,6.5s-3.7,3.1-5.4,4.8a49.4,49.4,0,0,0-3.4,4.1l.9.5-2.2,4.3a9.9,9.9,0,0,1-1.1,1.7,14.8,14.8,0,0,0-2.9,7.5c-.1,1.3-.9,2.4-1.3,3.6a46.6,46.6,0,0,1-2.8,6c-.2.2-.6.3-.6.5l-.9,2.9c-1,3.1-3.8,4.9-5.8,7.3s-3.3,2.4-4.9,3.6l-3.4,2.2-4.2,3.3c-.7.6-1.2,1.5-1.9,2.1s-2.6,2.8-4,4.1l-1,1.3c-.3-1.4-.5-2.5-.7-3.5s2.6-3.3,3.7-5.1a19.8,19.8,0,0,0,.8-3.3,7.7,7.7,0,0,1,1.4-2.7c1.4-1.8,3.3-3,4.2-5.4a9.6,9.6,0,0,1,3.6-3.6,15.5,15.5,0,0,0,4.4-5.5,22.5,22.5,0,0,1,5.2-5.9c1.2-1.2,2.1-2.8,3.4-3.9,3.1-2.7,4.8-6.3,6.3-9.9l-.3-.4-4.3,2.8-1.7.8-4.6,2.8c-1.3.8-2.7,1.4-3.9,2.1l-6.5,4.1-.9.3-8.8.7a1.4,1.4,0,0,1-1.1-.3,11,11,0,0,1-2.5.1c-2.3-.2-4.6-.6-7-.7s-1.6-.6-1.7-1.9c5.5-.2,10.1-3,14.9-5.6-.7-2,1.4-2.3,2.5-2.9a27.1,27.1,0,0,1,6.9-2.5c4.4-.8,8.9-1.2,13.3-1.8l1.7-.4c.8-.3,1.5-1.2,2.5-.3,1.5-1.3,4.4-.1,5.1-2.3s2.8-2.4,3.7-3.4V93.7c-.3,0-.5-.1-.6,0-3.4,1.4-7,1.2-10.5,2s-7.9.8-11.6,2.2c-1.3.4-2.8.1-4.2.3l-3.1.9-11.3,3.8c-1.1.3-2.1.9-3.2,1.3s-3.2,1.2-4.8,1.8a27,27,0,0,0-4.8,1.6,17.4,17.4,0,0,0-3.8,2.9l-2.1,2.1c-2.3,2.1-4.7,4.2-5.4,7.4s-.8,4.5-1.3,6.7A31.7,31.7,0,0,1,639,137c-1.3,2.1-2.9,4-4.3,6-1.3-.7-2.4-3.2-2-5.3a77.8,77.8,0,0,1,1.7-8.1c.9-2.8,2.1-5.6,3.2-8.7a10.9,10.9,0,0,0-1.7.5,51.6,51.6,0,0,0-9.3,8.2,12.3,12.3,0,0,1-6.1,3.7,13.9,13.9,0,0,1-6.4.5c-.8-.2-1.8.5-2.7.8v.3l-1.4-.6c-.1-.6-.2-1.5-.4-2.4l4.5-4c1-.9,2-1.9,3-2.7a55,55,0,0,1,5-3.4,39.2,39.2,0,0,1,5.3-2.9l7.4-3.1,1.2-.4.5,1.2c1.3-.6,2.6-1.4,3.9-1.9a5.7,5.7,0,0,1,2.2-.4c1,0,1.8-.1,1.9-1.1l9.4-6.7-.3-.6-7.9-.7-10.5-.8c-2.4-.1-5-.5-7.4-.1s-3-.2-4.5.4-3.2.7-4.8,1.1-4.3,1.3-6.5,2.1a16.6,16.6,0,0,0-2.7,1.3c-.2.2-.2.7-.4,1s-1.9-.2-1.7.9a7.5,7.5,0,0,0-1.6.5l-1.9,1.5-3.7,3.3c-.2.1-.3.4-.4.5s-1.8.7-1.7,2a14.3,14.3,0,0,1-.1,2.9c-.7-.1-.8.3-1.2,1.3-1.2,3.3-.3,6.9-1.2,10.3a34.9,34.9,0,0,0-.6,6.5,5.2,5.2,0,0,0,.6,1.6c.5,1.5.6,3.2,1.5,4.3a8,8,0,0,1,1.4,4.9c.1,1.9.1,3.8.3,5.6a15.1,15.1,0,0,0,1,3l3.2,9.3c.4,1.2,1.3,2.3,1.6,3.7a41.7,41.7,0,0,0,1.8,5.7c.1.3.1.7.4.9s.6,1.6,0,2.4,2,.6,1.1,2a1.4,1.4,0,0,0,.1.9c1,1.5-.1,2.1-1.3,3v-1.9c.3-1.8-.7-3.3-1.4-4.9s-1.2-4.3-2-6.4-1.8-3.8-2.7-5.8-2.3-5.4-3.5-8.1a2.4,2.4,0,0,0-.6-1.1c-1.2-1.1-.5-2.6-.9-3.9a58.7,58.7,0,0,1-1.6-6,40.5,40.5,0,0,1-.4-5c-.1-.3,0-.6-.2-.8s-1.4-3.4-1.9-5.2a35,35,0,0,1-.8-6.5c0-.4.1-.8.1-1.2a22.6,22.6,0,0,0,.2-4.5,5.6,5.6,0,0,0-3.8,4.6,4.7,4.7,0,0,1-1.4,2.9c-.8,1.1-1.8,2-1.3,3.5s-.2.5-.3.5c-2.1.2-2,2.3-1.9,3.2.2,2.5-1.3,4.1-1.9,6.1s-2.5,2.7-3.2,4.2-3.4,3.8-4.6,6a7.1,7.1,0,0,1-2.3,1.9,19.5,19.5,0,0,0-5.2,4.7,35.8,35.8,0,0,1-2.9,3.9,11.4,11.4,0,0,1-2.8,2.1c-1.2.6-1.7.2-1.8-1.1s.7-3.8,1.5-5.6,1.6-3.3,2.2-5.1-.4-1.3-.3-1.9.3-2.1,1.3-3.1,2.1-3.3,3-5,2.7-4.4,6-4.6l-1.4-.8c1.6-1.4,3-2.7,4.5-3.8s5.2-3.4,7.5-5.5,2.4-3.4,3.6-5.2.8-2.6,2.7-2.1c.1,0,.4-.3.5-.5.6-2.7,3.1-3.7,4.6-5.5a21.1,21.1,0,0,0,2-2.9,5.7,5.7,0,0,0,1.2-1.9l-2.3,1.2c-2.3,1.2-4.6,2.2-6.8,3.5s-3.3,2.6-5.2,3.3-3.9,3.5-6.8,3.4c-.6,0-1.1,1.1-1.7,1.6l-2.9,3.1a1.8,1.8,0,0,1-.7.5c-.4.4-1.2.7-1.2,1.1-.3,2.6-2.9,3-4.1,4.6-2.7,3.7-6.4,6.5-7.6,11.2a12.6,12.6,0,0,1-1.9,2.8c-.4.5-.6,1.2-1.1,1.6a25.7,25.7,0,0,1-2.9,2.8c-1.9,1.7-4,3.2-5.8,5a27.9,27.9,0,0,1-7.2,5.6,23.6,23.6,0,0,0-4.8,3.5c-.7.5-1.1.7-1.6-.2s-.9-2,.2-3.2,2-3.4,3.1-5.1l1.6-2,3-5.4.9,1c1.4-1.9,2.7-3.8,4.2-5.7s1.2-.9,1.7-1.4a16.3,16.3,0,0,0,1.7-2c1.7-2.6,4.4-3.9,6.8-5.6s4.9-3,7.3-4.6a12.1,12.1,0,0,0,1.9-2l3.5-3.7-1,.4c-2.1,2.2-5,2.9-7.7,3.8a66.3,66.3,0,0,0-8.8,3.3,17.6,17.6,0,0,0-3.4,2.7c-.2.2-.3.4-.6.5a25.9,25.9,0,0,1-4.6,2.6c-2.8,1.2-5.9,1-9,1.4s-5.6-.4-8.5-.6a13.4,13.4,0,0,1-1.8-.7,17.5,17.5,0,0,1-2.4.3l-6.1.2c-.7,0-1.8,0-2-.4a3.9,3.9,0,0,1,.1-2.4c.2-.4,1.1-.5,1.7-.6l1-.3,6.1-2a6.9,6.9,0,0,1,1,1.2,3.6,3.6,0,0,1,.1-1l15-7a24.3,24.3,0,0,0,3.1.5c3.2-.1,6.4-.3,9.5-.7s6.9-1.1,10.3-1.8c1.3-.2,2.6-.7,3.9-.9a29.9,29.9,0,0,1,3,0c-.1-.3-.1-.6-.2-1.1,1.6-.4,3.1-.6,4.6-1.1a11.2,11.2,0,0,0,2.4-1.3l2.2-.5c.1-2.1,2.4-2.4,3.9-3.4l5.3-3a13.6,13.6,0,0,1,2.5-1.1,5.5,5.5,0,0,0,1.4-1.2c.7-.7,1.9-.7,2.9-1.1L595,113v-.7a16.7,16.7,0,0,0-3.2-.8,10.6,10.6,0,0,1-1.9-.6,19.1,19.1,0,0,0-4.8-.5,10.2,10.2,0,0,0-3.5.1c-2.8.7-5.8.1-8.6,1a27.3,27.3,0,0,1-5,.6h-1.8c-.8,1.3-2.5.8-3.9,1s-4.4.3-6.6.4h-8.3c-1.7.1-3.4.5-5.1.5l-6.6-.3-.7.2c-3.2.4-6.4.5-9.5,1.1-1.3.3-2.5,1.4-3.8,2.1l-1.4-.2-5.9,1.2a6.9,6.9,0,0,0-1.5.7,57.4,57.4,0,0,1-5,3.6c-2.6,1.5-3.9,3.9-5.1,6.4-.2.5-.9.8-1.2,1.3a35.2,35.2,0,0,1-1.6,3.9,16.3,16.3,0,0,1-3.1,2.7,4.5,4.5,0,0,1-1.4,1,5.4,5.4,0,0,1-2.7.5c-.5-.1-1-1.2-1.1-1.9-.3-2.8,1.2-4.6,3.3-6.3a20.8,20.8,0,0,0,3.7-4.6c-2,1.3-4.8,1.7-5.7,4.5-2.3.5-1.7,3.3-3,4.2s-1.3,2.8-1.9,4.2a6,6,0,0,1-2.4,2,3.8,3.8,0,0,0-2,2.3c-.2.7-.3,2-1.7,1.1s-.3.1-.5.1l-1.3.4c-.1-.5-.5-1.1-.4-1.6a36.2,36.2,0,0,1,.5-4l-2.2,2.7a5.9,5.9,0,0,1-1.3,1.8c-1.3,1-1.6,2.6-2.1,4s-1,2.2-2.4,2.4-.8.8-1.3.8-2.7-1.4-1.9-3.7h-.8a31.5,31.5,0,0,1-4.1,3.1,14.2,14.2,0,0,1-4.1,1.4,2.1,2.1,0,0,1-2.3-1.7,2.5,2.5,0,0,1,1-2c2.5-2,5-4,7.7-5.8a11.3,11.3,0,0,1,3.2-1.3v-.5l-5.8.3c-.1-.6-.5-1.7-.8-2.9,2.2-.4,3.5-2.8,5.9-1.6l1.7-1.3h-.9c-.2-2.7,1.6-4.2,4.4-3.9a47.9,47.9,0,0,0,10-.2c1.8-.1,2.6-1.5,4-2s.9-.6,1.8.1l4-2.5v-.5l-9.3,1.2c.1-.9-1.7-1.5-.5-2.7a26.6,26.6,0,0,1,2.4-2.3l-2-.7c2.1-.8,4.3-1,5.9-2.7-1.7.1-3,.1-4.3.3s-2.3,1-3.5,1.2l-5.9,1.2a2.7,2.7,0,0,0-2.3,1.3c-.4.6-1.5.7-2.3,1l-3.1,1c-1.1.4-1.4.8-1.7,2.4h-.1c-1.2,0-1.1-3.2-3.2-1.1s-2.5.7-3.3,2a1.6,1.6,0,0,1-.9.5l-1,.6c-.1.2-.1.5-.2.6l-4.5,2.9-6.1,4.2c-2,1.3-4,2.7-6.1,3.8s-4.1,1.5-6.1,2.3l-3.8,2c-1-.2-3.3,1-4,2.7a2.8,2.8,0,0,1-.4-.7l-1.2-.4a5.6,5.6,0,0,0-1.8-.1c-.2,0-.2.7-.3,1.2a12.7,12.7,0,0,1-2.3-1.2c-.2-2.2,0-2.3,2.3-2.6a37.8,37.8,0,0,0,4.6-1c.4-.1.7-.6.9-.6a15,15,0,0,0,2.4-.4l7.4-3.4a47.6,47.6,0,0,0,4.9-2.8l7.2-4.9a2.6,2.6,0,0,0,1.3-2.6c.3-.1,1,0,1.4-.3l4.3-3.4,3.3-2.5c1.4-1.1,2.9-2.3,4.4-3.3s1-.3,1.5-.8l-2.5-.2L455,115.9a30.9,30.9,0,0,1-4.3-.1c-1.7-.4-3.5-.4-5.2-1.1s-3.2.2-4.8.3H440l-3.1.7-2.4.8a3.2,3.2,0,0,0-.9.3c-2.5,2-5.2,3.9-7.6,6-.7.5-.8,1.6-1.1,2.5a25,25,0,0,0-1.1,3.9,10.8,10.8,0,0,0,.4,3c.2.7.3,1.1-.6,1.5s-2.1,3.7-1.4,4.7c-2.2,1.3-1,3.5-1.5,5.3s-.2,2.9-.5,4.3-1.1,4.9-1.7,7.3c-.1.3-.6.5-.9.7s-2,2.1-3.1,3.1l-2.7,2c-1,1-2.3,2.3-3.5,3.7s-.9.9-.8,1.2-.9,2-1.5,2.9a1.7,1.7,0,0,1-1.7.4c-.3-.1-.6-.9-.6-1.3a11.3,11.3,0,0,1,.8-2.4,36.2,36.2,0,0,1,1.3-4.7,56,56,0,0,0,1.7-5.4c.7-2.5,2.3-4.8,3.6-7.1s2-2.8,2.5-4.4a11.7,11.7,0,0,1,2.4-3.8c1.3-1.5,2.6-3.1,3.8-4.7a8.3,8.3,0,0,0,.5-2c.4-.6,1.3-1.4,1.2-2.2a19.8,19.8,0,0,1,1.5-6.9c0-.1.1-.3.1-.4s-.1-.2-.3-.6l-1.7.9-2.6,1.8a12.5,12.5,0,0,0-.8,1.2l-5.9,6.3-.7.5a4.8,4.8,0,0,0-1.4.9c-2.3,3.4-4.6,6.9-7,10.2s-2.9,4-4.4,5.9a7.6,7.6,0,0,1-2.6,1.8c-2.3.8-3.9,2.6-5.8,3.9a35.9,35.9,0,0,1-3.4,1.7c-.8.4-1.5,1-2.2,1.4a15.1,15.1,0,0,1-2.6,1.2,8.4,8.4,0,0,1-4.8,2.6,4.1,4.1,0,0,0-1.9,1.3,3.9,3.9,0,0,1-4.3,1.1,3,3,0,0,1,2.1-3c2.6-1,4.1-2.9,5.5-5a.4.4,0,0,1,.1-.3l6.3-4.6a40.1,40.1,0,0,0,3.9-3.3c2.3-2.4,4.6-4.8,6.7-7.3a15.3,15.3,0,0,0,1.4-2.1c1.5-2.6,4-4,6.4-5.4s2.8-2.2,4.3-3.2l5.5-3.5c1.4-.9,3.1-1.5,4.1-3.1s2-1.8,3-2.7a2.6,2.6,0,0,0-3.3-1c-2.2,1.2-4.5.7-6.7.9-.6,0-1.2.8-1.8-.1l-1.3,1.5c-1.2-1-3.8-.9-4.4.2l-2-.6-.3.9c-3,1-5.7,2.2-8.5,2.7s-3,1.6-4.5,2.3a38.6,38.6,0,0,0-5.6,3.2l-7.7,5.3a25.1,25.1,0,0,0-4.4,3.5c-1.3,1.5-3,2.6-3.8,4.6s-2.3,2.7-3.5,4c-2.8,2.6-5.5,5.3-8.5,7.6s-5.1,4.7-8.6,5.6a22,22,0,0,1-3.6.4c-1.2.1-2.3.1-3.4.3a8.5,8.5,0,0,0-1.7.8l-2.1-.5c-.5,1.9-2.4,1.7-3.8,2.3a13.2,13.2,0,0,1-1.2-1.6l2.2-1.5c2.3-1.3,4.8-2.2,6.8-3.8a33.4,33.4,0,0,1,4-2.5c1.5-.8,2.4-2.3,3.7-3.4s1.4-1.9,2.8-1.3c.5-1.2.7-2.6,2.4-2.9.7-2.2,2.9-3.3,4.5-4.8s5.5-4.6,8.3-6.8a8.5,8.5,0,0,1,4.1-2.1c1.8-.4,3.4-1.6,5.1-2.4s3.3-1.2,4.9-2,4-1.4,5.5-3.6c-2.5,0-4.8-.1-7,0a65.4,65.4,0,0,1-11.7-1.2c-2.3-.4-4.9.2-7.3.5a19.6,19.6,0,0,0-4.2.9,13.2,13.2,0,0,0-3.2,2l-.6.3c-2.4-.3-4.3,1-6.3,2l-5.6,2.3-6.7,3.2c-.2.1-.4.3-.5.2s-1.7.7-2.5,1.1l-3.4,1.3-4.4,1.7-.7.2-7.5.4c-.5,0-.9.4-1.4.6a12.8,12.8,0,0,0-.7-1.6c-.2,2-1.4,1.8-2.5,1.8h-6.9c-.3,0-.7.4-1,.5-2,.7-2.8.3-3.4-2,2.4-1.1,4.9-2.1,7.3-3.3s2.4-.3,2.9-1.7h.3c3.7-.9,7-2.9,10.5-4.5h1.2l1.4-.6,3.5-1.1a45.1,45.1,0,0,1,5.3-.7c4.3-.1,8.5-.9,12.8-.9a12,12,0,0,0,3.8-.3l6.4-2.7.6-.2c2.6-.5,5.2-1.3,7.9-1.6a44.7,44.7,0,0,1,7.3.4c2.8.3,5.5.9,8.3,1.2s3.1-.1,4.7-.1.8.5.9.6l2.5-1.2v-.4l-2.1-.4a4.5,4.5,0,0,1-1.2-.6c-.9-1.2-2.2-1.4-3.5-1.7a9.5,9.5,0,0,1-2.1-.9,23.2,23.2,0,0,0-8.7-1.2c-1,0-2-.5-3-.5a26,26,0,0,0-3.9.5,18.3,18.3,0,0,1-3.9.9,57.8,57.8,0,0,1-9.3-.1c-2.1-.3-4.1-1.7-6.3-2.1s-3.1-2.2-5.2-1.6c-.5.1-1.7-.9-1.7-1.4s.7-1.5,1.9-1.4a30.3,30.3,0,0,0,5.1-.9H341c.8.1,1.6.6,2.1-.5h.3c2.6.1,5-1,7.5-1.5,0,0,.1-.1.1,0,1.5,1.3,3.2-.1,4.8.4s3.5,0,5,.7,4.3.8,5.8,2.6,1.4.5,2.2.7,3.9,1,5.7,1.7.9,1.2,1.4,1.6a21.1,21.1,0,0,0,3.1,2.1c.9.5,1.9.6,2.8,1s2.6,1.2,3.4,1.6a9.4,9.4,0,0,1,3,.1c2.2.8,4.3.3,6.4-.3s7.1-2.5,10.7-3.6c2.1-.6,4-1.8,6.2-1.9a40.2,40.2,0,0,0,5-.6l-2.4,2.1,5-1a1.1,1.1,0,0,1,.1-.5l-2.7-.6c1.2-.8,2.4-1.4,4-.5l-1.1,1.5,9-1.5-1.4-1.3,3-1.4v.2l4.5-.4a1.2,1.2,0,0,0-.1-.5h-6.2c-1.7,0-3.4.1-5.1,0l-3.4-.4-8.5-1.5a21.3,21.3,0,0,1-2.5-.3l-6.9-1.6-2.9-.8-7-2c-1.9-.5-3.8-1.2-5.7-1.6s-4.7-.5-6.8-1.2l-2.8-.9-4.3-1.6-7.8-2.8a39.1,39.1,0,0,1-3.5-1.8l-.5,1.1c-1.9-2.1-4.2-.7-6.3-.8a5.7,5.7,0,0,0-4,1.6,3.4,3.4,0,0,1-3.9.5,17.1,17.1,0,0,1-2.9,1.6c-2.4.8-4.2,2.6-6.5,3.6s-5.1,1.1-7.7,1.7l-1.4.5a12.1,12.1,0,0,0-2.5.8c-1.2.4-2.4,1-3.6,1.5l-6.7,2.4c0,.1-.1.5-.2,1.1s-.5-.3-.6-.5-1.2-1-2.1-.1a10.3,10.3,0,0,1-2.6,1.2l-1.5.9c-.7-1.9-1.8-.2-2.6,0a21.4,21.4,0,0,0-4,2,28.2,28.2,0,0,0-2.9,1.8,11,11,0,0,0-1.5,1.6l-2.8.9c-.6.2-1.2.8-1.8,1l-5.8,1.2c-2,.4-4,.9-6.1.1s-1.9.1-2.9.2h-9.9c-.4,0-.8-.4-1.4-.6l-1.6,1.2-.8-2.6,2.6,1.1-.4-1.1a10.5,10.5,0,0,0,4.7.3,22.4,22.4,0,0,1,4.5-.1l6.3-.2c.9-.1,1.8-.5,2.8-.6a28.3,28.3,0,0,0,4.2-.6,41.1,41.1,0,0,0,5.7-2.5,9.3,9.3,0,0,0,2.7-2.1,8.5,8.5,0,0,0,1.9-.6c.9-.5,1.7-1.1,2.6-1.5s4.5-2.5,6.7-3.6,3.3-1.2,4.9-1.8l2.6-1.1v-.5l-3.6-.5a27.4,27.4,0,0,1-2.8-.5c-2.1-.8-4.5-1.3-6.2-2.7s-3.9-1.4-5.7-1.1-3.9-.1-5.9.3-3.3-.2-5-.2-4.2.2-6.3.4a34.4,34.4,0,0,1-4.5.5c-2.8-.2-5.3.7-7.9,1.5h-.4c-1.5,1.6-3.8,1.3-5.4,2.5s-3.2,1.9-4.8,3-.9,1.5-1.6,1.9-2.5,1.4-3.7,2.1c-2.7,1.6-5.7,1.9-8.7,2.2s-3.4,1-5.1,1.4l-4.7,1a4.9,4.9,0,0,0-1.7.6,2.9,2.9,0,0,1-2.8.7c-1.1-.3-2.3.1-3.4.1s-5.2.1-7.8.4c-1.1.1-2.3.6-3.4.8s-1.6.3-1.9-.8-.4-1.2-.2-1.4a5.6,5.6,0,0,1,1.8-.7c.2-.1.5.1.7,0l3.9-1.6c3.2-1.3,6.3-2.7,9.5-3.9s4.5-1.4,6.7-2.1a16.6,16.6,0,0,1,2.9-1c2-.3,3.3-2.1,5.6-1.9s2.4-1.1,3.7-1.6c2.9-1.4,6.1-1.3,9.2-1.8s4.8-.3,7-1.5,2.4-.2,3.7-.3v-.5l-4-.5-7.5-.7-10.2-.9h-.5a7.7,7.7,0,0,1-3.7.3c-1.1-.2-2.5.6-3.7,1.1s-3.9,2.1-6,2.5-3.9,1.8-6.2,2.1a37.8,37.8,0,0,0-6.3,1.9c-1.4.4-2.9,1.3-4.3,1.3a12.2,12.2,0,0,0-5,1.1c-1,.4-2.3.1-3.4.1l-5.4-.7a75.5,75.5,0,0,1-8.3-1.3c-2.8-.8-5.6-1.7-7.7-3.8a12.5,12.5,0,0,0-6.2-3.3c-.5-.1-.8-.9-1.2-1.4a4.7,4.7,0,0,1,1.5-.6,41.9,41.9,0,0,1,5,.3c3.8.3,7.6.8,11.4,1.2a19.4,19.4,0,0,0,2.4-.2h3.8a10.3,10.3,0,0,0,1.4-.4l.4.7h.3c.9-1.9,2.7-1,4-1.3a29.7,29.7,0,0,1,4.3-.7,30.3,30.3,0,0,1,3.2-.6c2.9-.5,5.8-1,8.8-1.3s6.7-.3,10-.2c1.7.1,3.4.9,5.1,1.1s4.1.2,6.2.3h6.3l7,.6,4.9.5c-.2-.4-.2-.5-.3-.5a49.3,49.3,0,0,0-6.4-2.4c-3-.9-6-1.6-9.1-2.3l-7.1-1.7a28.5,28.5,0,0,0-5.1-.7c-1.1,0-2.3.3-3.5.4l-.8-.3a11.7,11.7,0,0,0-5.2-1.2c-2-.3-3.9-.9-5.9-1.3s-3.3-.5-4.9-1-3.1-.4-4.6-.8a45.3,45.3,0,0,1-6-2.6,2.7,2.7,0,0,0-1.2.2l-2.6.8c0,.9-1.3,1.8-2.4,1.6a3.6,3.6,0,0,0-1.8.2c-1.3.3-2.5.9-3.7,1.3L188,89.9a1.1,1.1,0,0,1-.8.1c-2.7-.3-4.1,1.4-5.4,3l-2.3.8c-.3.1-.5.4-.7.4-1.7.1-3.3-.1-4.8,1.3a9.7,9.7,0,0,1-2.7,1.7,16,16,0,0,0-3.9,2l-1.6,1.1c-.3.2-.4.6-.7,1.1h-.3a12.4,12.4,0,0,1-3.1,2.3c-1.4.5-3,.6-4.5,1a26,26,0,0,0-3.6,1.3,3.4,3.4,0,0,1-3.2.2l-4.6,1.8a60.5,60.5,0,0,1-9.3,2.4c-2.8.4-5.7,1.7-8.7.5a6.9,6.9,0,0,0-2.4.3,4.8,4.8,0,0,1-4.1-1.1c1.4-1.8,3-.2,4.5-.3l5.7-.2c.2,0,.5-.4.7-.6a3.2,3.2,0,0,0,1.4.3c2.7-.6,5.4-.9,7.9-1.9l6.9-2.5c2.5-1,5.2-1.6,7.8-2.5s2.6-.8,3-1.7,1.6-.9,2.4-1.3a40.9,40.9,0,0,0,4.7-2.3,46.2,46.2,0,0,0,5-3.7c.4-.3.1-1.2.1-2l.9,1.1,9.3-4.2c-1.3-1.6-3.2-1.8-4.1-.5-1.2-1.5-1.9-1.6-3.6-.9s-5.6,2-8.3,3.2a33.6,33.6,0,0,0-4.2,2.2c-3.2,1.6-5.8,4.2-9.6,4.8-1.3.2-2.6,1.4-3.9,1.7s-3.8,1.5-5.9.6c-.4-.2-1,.2-1.5.1h-4.2l-6.5-.6-3.8-.2c-.4,0-.9,0-1.1-.2s-2-.6-3-.8-3.1.6-4.5,1.4l-1.8-1.4c.5-.6,1.1-1.7,1.7-1.8s1.8-1.2,1.8-2.5c1.6,1.1,3,.7,4.6.1a62.9,62.9,0,0,1,7.4-2.2c3-.8,6-1.8,9-2.3,4.8-.6,9.5-1.3,14.3-.3a35.2,35.2,0,0,0,5.8.4c.3.8.9,1.2,1.9.2a7.1,7.1,0,0,1,1.5-.8l2.1-1.1,2.7-.9,3.1-1.9-4.3-.9-4.7-1.2c-.7-.1-1.5-.5-1.1-1.4a1.7,1.7,0,0,1,2.2-1.1,13.1,13.1,0,0,0,2.8.1,7,7,0,0,0,1.4.3c4.6,0,9.2-.1,13.7-1.7.5-.2,1.2-.1,1.9-.4-1.3-.6-2.2-2-3.9-1.5a1.1,1.1,0,0,1-.8-.2l-1.9-.8-2.2-.9c-.4.8-1.1.9-2,0s-1-.4-1.6-.4l-4.6-.4a7.7,7.7,0,0,1-2.8-.8c-1-.7-1.8-.3-2.7-.3a17,17,0,0,1-3.9,0,11.1,11.1,0,0,0-7.6.9,11.4,11.4,0,0,1-3.7.5l-4.8.7c-2.4.1-3.8,2.1-5.8,3.1a7.3,7.3,0,0,0-1.9.7c-1.2.7-2.2,1.6-3.4,2.2a70.7,70.7,0,0,1-9.3,4.3c-1.6.5-2.9,1.5-4.4,1.9a29.3,29.3,0,0,1-10.2,1,26.5,26.5,0,0,0-6.9.5c-.8.1-1.4.1-1.6-.6a5.7,5.7,0,0,1,.1-2.2,1,1,0,0,1-.4-.9c.1-.3.8-.6,1.2-.7s1-.1,1.5-.3c2.9-1.2,5.8-2.6,8.7-3.6s3.2-2.3,5-3l1.5-.6a9.1,9.1,0,0,1,1.7-.9c1.2-.3,2.5-.3,3.6-.7a20.2,20.2,0,0,0,3.4-1.4l5.1-1.9a6.3,6.3,0,0,1,1.9-.3c1.5.2,3-.9,4.5,0a1.5,1.5,0,0,0,1.1-.2,3.5,3.5,0,0,1,3.1-.8c.9.1,2.1-.8,2.6-.5s2.5-.3,3.8.3,2,.1,3.5.1a9,9,0,0,0-6.6-2.7c-1.7,0-3.1-.7-4.7-.8a4.9,4.9,0,0,1-2.1-.4c-1.8-.9-3.8-1.2-5.6-2s-5.1-1.1-7.8-1.1-5.1.6-7.7,1-5.7,1.5-8.5,2.2-5.6,3.5-8.4,5.3-2.7,2.3-2.6,3.9A21.3,21.3,0,0,0,92,78.2,20.9,20.9,0,0,0,89.8,81l-2.6,3.9c-.3.4-.8.6-1.3,1.1s-.7,2.4-1.6,3.5a59,59,0,0,1-9.6,8.4,29.3,29.3,0,0,1-3.9,2.1c-.9.4-1.6,1.2-2.4,1.4a21.6,21.6,0,0,1-5.1.7,14,14,0,0,0-6.9,1.6,2.7,2.7,0,0,0-.7.8c-1.9-1.5-1.9-1.7-.1-3.3a19.9,19.9,0,0,1,2-2.1l8-6.2c1-.7,2.3-.9,3.3-1.6a21.6,21.6,0,0,0,4.3-3.7,26.2,26.2,0,0,1,7.8-7c2.5-1.5,4.7-3.5,7.6-4.5.2-.1.3-.5.4-.7l-.2-.5-7.5,1a18.3,18.3,0,0,1-4.7.3c-2.9-.3-5.9-.7-8.5-2.4a8.8,8.8,0,0,0-6-1.2c-.2-.6-.8-1.5-.6-1.8a20,20,0,0,1,2.6-2.4c.1-.1.4.1.5.1,3,1.6,5.9.3,8.9.1h.1c2.3,1.5,4.3-.5,6.5-.6s5.2,1,7.8,1.7,4.4,1.3,6.7,2c.2-1.3.5-1.8,1.8-1.6s1.5-.6,2.1-1.2c2.6-2.9,6.1-3.7,9.6-4.7a23,23,0,0,0,4.4-2.3,9.4,9.4,0,0,0,1.2-.9l-1.5-1a18.7,18.7,0,0,1-3.2.4c-1.6-.1-3.4-.8-4.8-.3s-4-.4-6.1.2-3.8-.4-5.7-.7l-6-.5H76c-1.3,0-2.6-.2-3.9-.3h-.3c-2.1,1.4-4.4.6-6.6.7a14.6,14.6,0,0,0-3.4,1c-2.1,1-4,2.2-6.2,3a22.9,22.9,0,0,1-5.2,1.1,19.2,19.2,0,0,0-6.1,2.1c-1.4.7-3,1-4.5,1.7s-2.6,1.3-4,1.7a26.2,26.2,0,0,1-6.7,1.6,14.5,14.5,0,0,1-6.2-1c-1.8-.8-3.6-.5-5.3-1.1a23.4,23.4,0,0,0-3.8-.9l-3-1L7.6,69.1l-.7-.9a2.3,2.3,0,0,0-3.4-.5,9.7,9.7,0,0,1-2,.5l-.9-1a3.5,3.5,0,0,0-.6-.9c1.2-2.6,3.3-2.6,5.6-2.7a29.7,29.7,0,0,0,5.2-.8h1a2.8,2.8,0,0,0,3.5-.5c1.7,0,3.2.1,4.7,0a24.2,24.2,0,0,0,4.7-.4c4.2-.8,8.4-1.1,12.5-2.3a65.5,65.5,0,0,1,7.9-1,52.9,52.9,0,0,1,5.6-.5,6.3,6.3,0,0,1,1.9.3c1.6.4,3.4,1.5,4.7,1s3,0,4.4-.9,2.5-.5,3.8-.7a2.4,2.4,0,0,0,1.4-.3l-7.7-3.1h.1l-2.4-1.1a57.3,57.3,0,0,0-7-2.3c-2.8-.6-5.3-1.6-8.3-1.3s-6-.5-9-.9-7.4-1.1-11-2-6.2.3-9.3.7l-2.3.3-.3-.4,2.5-3.1a5.2,5.2,0,0,1,.2,1.1l7.6-1a3.3,3.3,0,0,1,2.2.3c.6.4,1.4-.5,2,.5s1.7.1,2.6.2l3.7,1c1.9.3,3.5,1.4,5.6.2s2.6-.2,4-.2a47,47,0,0,1,5.3.2c1.3.2,2.6.6,3.9.9a24.4,24.4,0,0,0,2.6.6A23,23,0,0,1,58.7,50c3.1,1.3,6.3,2.3,9.4,3.4L70.2,50a20.7,20.7,0,0,1-2.5,0,5.2,5.2,0,0,1-2.3-.8c-1.9-2-1.6-3.2,1.4-4.5l-2.7-.5a19.3,19.3,0,0,0-2.4.1c-1.8,0-2.8-1.2-3.7-2.5a2,2,0,0,1,1.2-3.3,10.3,10.3,0,0,1,9.1,2,12.4,12.4,0,0,0,2.3,1.2A40.2,40.2,0,0,1,68,37.5c-.8-1.5-.3-2,1.3-2.2s4.5,1,6.3,2.3a17.2,17.2,0,0,1,2.7,2.7,1.3,1.3,0,0,0,1.3.3,2.4,2.4,0,0,0,1.1-1.3l2.2-.5c1.9,5,3.9,10,5.8,14.9l3.9.8,11.2,1.3,10.7,1.5c1.3.2,2.5.7,3.8.9s.7-.4.9-.5l-6-7,.3-.3,1.3.2L113.5,49l-3.3-3.1-6-5.1c-.2-.3-.6-.5-.7-.8s-2.4-1.8-3.8-2.4-4-1.1-5.3-3a2.7,2.7,0,0,0-1.2-.6l-3.1-1H88.6c-.1-.2-.2-.6-.5-.7s-3.1-1.1-4.6-1.8a18.7,18.7,0,0,1-2.9-2c-2-1.6-4-3.2-5.9-5a14.4,14.4,0,0,1-1.8-2.5,4.9,4.9,0,0,0-1.4-1.1c-1.9-1.1-2.3-3.1-2.9-5s-1.1-3.1-1.7-4.6a2.7,2.7,0,0,0-1.2-.7c-.2-.3-.2-1-.6-1.3S64,6.9,64.7,6.1s2.4-.7,2.8-.1,3.3,2.9,5.1,4.1,6.5,3.8,9.3,6.2,4.5,3.2,6.3,5.2,3.1,4.8,4.7,7.1.9,2.7,2.3,3.4.8,1.2,1.1,1.7l1.7.7,4.8,2.1c.6.3,1,.8,1.5,1.1,2.9,1.7,4.8,4.4,7,6.7.6.5,1.5.7,2,1.3a35.2,35.2,0,0,1,2.7,3.7l.3-.6c3.8,4.3,7.7,8.3,13,11.3-.2-.6-.2-.8-.3-.9-1.1-1.8-2.3-3.5-3.5-5.2s-4.3-6.2-6.3-9.3c-.3-.5,0-1.3,0-2s.1-.8-.1-1.1c-.9-2.2-1.6-4.7-3-6.5s-1.2-3.9-2.7-5.5-.7-2.7-1.1-4a10.9,10.9,0,0,0-.8-1.5c-1.5-1.7-1.5-4.1-2.4-6.1s-2.1-5-3.2-7.5a30.4,30.4,0,0,0-2.5-4.7,10,10,0,0,0-5.2-4.2c0-.3-.1-.8-.2-1.5a19.1,19.1,0,0,1,3.2,1.7c2.4,1.8,4.6,3.7,5.7,6.6s2.1,4.2,3,6.3,1.6,4.1,2.5,6.1,1.8,4.1,2.8,6.1a18.2,18.2,0,0,1,1.3,2.8c.8,1.6,1.6,3.1,2.5,4.6s1.9,3.9,3.1,5.8,3.1,4.5,4.7,6.8a13.8,13.8,0,0,0,1.9,2.8l7.4,7.4c1.3,1.3,2.5,2.6,3.9,3.8s3.1,2.3,5.5,2.1l-3-3.5c-2.9-3.2-5.5-6.5-6.2-10.9a40.2,40.2,0,0,0-1.8-5.9,6.6,6.6,0,0,1-.1-1.4c0-.2.1-.5,0-.7-.6-2-1.3-4-2-6s-.6-3-1.8-4.2a1.5,1.5,0,0,1,.1-2.6c.9-.6,1.4.2,2,.8,2.9,2.5,5.9,4.9,8.9,7.3a23.6,23.6,0,0,1,6.5,7.9c.8,1.7.9,3.8,1.8,5.3s.8,3.9,1.1,5.9,1.3,3.3,1.8,4.9,1.8,5.5,2.8,8.2a2.5,2.5,0,0,0,1.6,1.2l11.5,1.9,8.2,2c2.9.8,6,1.4,8.6,2.7a5.8,5.8,0,0,0,4.8.2l8-1.7-2-1.2-1.4-.5c-.4-.3-.7-.9-1.1-.1l-2.2-1.3c-1.2-.8-2.3-1.8-3.5-2.7l-3.7-2.9-2.5-1.3c-2.1-1-2.7-3.5-4.8-4.5-4.4-2.2-7.6-6.3-12.7-7.4-1.3-.3-2.3-1.4-3.6-1.9s-4.7-2.3-7.4-2.4l-1-.6a3,3,0,0,1,.7-1.1,29.6,29.6,0,0,1,2.6-1.6c-.2,1.7.7,1.7,1.9,1.8a25.9,25.9,0,0,1,4,1l.8-.5c.3.4.6.9.9,1,2.9.9,5.1,2.6,7.5,4.3s7.7,5.1,11.6,7.6c1.3.9,2.5,2,3.8,2.8a38.4,38.4,0,0,0,3.6,1.4l3.3,1.7c2.2,1.2,4.3,2.7,6.6,3.8a20.6,20.6,0,0,0,4.4,1.4l.6-.8c-.4-.1-.8-.4-1.2-.3a5.6,5.6,0,0,1-3.5-1.3c-2.3-1.5-4.7-2.7-7-4.1s-1.7-1.7-3.1-2-1.7-1.6-2.6-2.4a14.1,14.1,0,0,1-3.8-4.9c-.5-1.2-1.8-1.9-2.7-2.9s-2.2-2.3-3.4-3.5l-.8-.6a10.2,10.2,0,0,1-1.8-2.3,6.6,6.6,0,0,1,4.2.7,23.7,23.7,0,0,0,3.2,1.4c.9.3,2,.9,3.1,1.4s5.1,2.1,7.6,3.4a16.4,16.4,0,0,0,4.8,1.8,24.4,24.4,0,0,1,4.3,2.1,29.2,29.2,0,0,1,6.8,5.2c1.5,1.6,2.9,3.1,4.4,4.5s3.2,2.7,4.8,4l2.1,1.7a.8.8,0,0,0-.2.4c2.6-.1,5.3.3,7.7-.4s5,.3,7.6-.2c.7-.2,1.5.5,2.3.7s2.5.8,3.8.2.6-.1.8,0c3.2,1.6,6.6,1.7,10,2.4s4.9,1.3,7.4,1.8a48.5,48.5,0,0,0,5.5.8c-.8-.5-1.8-.9-2.6-1.5s-2.5-1.8-3.8-2.7-2.9-2.8-5.1-3.1c-.3-.1-.6-.5-.9-.8a3.2,3.2,0,0,0-4.3.5c-.1.2-.7.2-1,.2-.2-2.5-1.8-2.7-3.9-2.3s-2.5-.6-3.8-.5-4.4.8-6.6,1.1a10.4,10.4,0,0,1-3.5-.1c-1.4-.2-3.1.4-4.1-1.7a11.1,11.1,0,0,1,.7-2.3c.3-.4.9-.6,1.2-1a4.2,4.2,0,0,0,.3-1.2c1.1,1,3.4.9,4.1-.3Zm407,14.6a3.9,3.9,0,0,0,3.5.5c1.2-.4,2.6-1.1,4-.1s.9-.2,1.4-.3.6-.6,1-.6,3.3-.3,4.9-.6a34,34,0,0,0,4.6-.9c1.9-.5,3.6-1.2,5.4-1.8s4.5-1.4,6.8-2.1c-.4-.4-.7-.6-1-.5a32.1,32.1,0,0,0-4.3.7c-2.5.8-5.2.5-7.7,1.7s-5.5,1.4-8.2,2.3-2.9-.3-4.4.4-3.6.5-5.4.7c-.2.1-.4.5-.6.7s-.5-.6-.6-.5-1.5,1-2.3,1.5l.2.4a3.8,3.8,0,0,1,1.7-.4C634.6,78.5,634.6,77.9,634.5,77.2Zm18,21.9a1.3,1.3,0,0,1-1,.4,10.3,10.3,0,0,1-1.7-.1c-2.4.1-4.9.4-7.1-.7h-1l-5.3-.5-5.7-.5-2.6-.2c-2.2-.1-4.3-.9-6.6-.7s-6.9-.1-10.4-.3l-10.2-.7H581.2l-8.4.3a17,17,0,0,0-3.9.1c-2.7.4-5.2,1.3-8.1,1.1s-6.2-.1-9.2-.1-6.3,1.4-9.2,2.8c-1.4.6-2.6,1.7-4,2.3a50.9,50.9,0,0,1-5.6,1.4,16.1,16.1,0,0,1-4.3.7c-2.4-.2-4.7,1.1-7.1,0l-.4.2c-3.3-.1-6.7.2-9.8-.5s-4.5-.3-6.6-.6-2.6.3-3.3-.3-3.1-1-4.8-.4a10,10,0,0,1-3.3.8l-11.1-.2c-2.2,0-4.5-.8-6.8,0s-6.6,1.8-9.9,2.9a53.8,53.8,0,0,0-5.1,2c-1.7.8-3.4,1.7-5.2,2.4a4.8,4.8,0,0,1-1.7,0l.2.3-3,1.6,3.9,1a13.6,13.6,0,0,0,2.8,1.1l8.7.6c3.5.4,7,1.2,10.5,1.6s4.6,0,6.9.1c4.2.2,8.4.7,12.6-.3l11.7-2.3c2.6-.5,5.2-1.3,7.9-.1h.4a13.4,13.4,0,0,1,4-.6c3.4,0,6.7.4,10.1-.3a21.7,21.7,0,0,1,5.7-.6,49.7,49.7,0,0,0,9.4-.4c2.9-.6,6-.3,9.1-.5l12.5-1.1a5.5,5.5,0,0,0,1.8-.2,28.6,28.6,0,0,1,10.5-1.8l4.4-.2c1.7,0,3.3.2,5,.3l.9.2a21.6,21.6,0,0,1,5.1-.6c3.5-.1,6.9-.9,10.5-1.4l-.4-.9,3.6-.9a16.4,16.4,0,0,0,2.2-.2,3.3,3.3,0,0,0,1.4-.4c1.5-.7,3.3.5,4.6-.9s.3,0,.4,0c2.1-.4,4.1-.9,6.2-1.2a7.5,7.5,0,0,1,2.1-.2l6.6.3c.5,0,1-.6,1.5-.5l4.5.9v-.6c1.4-.4,2.2,1.7,3.9.5s1.6-.1,2.4,0l3.8.6h2.2c.8,0,1.7.6,1.9-.7,1.3,1.4,7.6,1.2,8.6-.2,3.2,1,5.4-1.3,8.1-2.2a3.3,3.3,0,0,0-1.3-.4c-3.2.1-6.5.2-9.7.1A34.7,34.7,0,0,1,652.5,99.1ZM206.9,82.8c.7.6,1.1,1.2,1.7,1.4a55.8,55.8,0,0,0,6.9,1.3c1.4.1,2.3,1.1,3.5,1.4s5.1.9,7.7,1.4l.9.2a25.7,25.7,0,0,0,4,.8c1.9.2,3.9-.1,5.8.1s4.6.8,6.9,1.2l10.1,2.3,4.3,1.4a36.5,36.5,0,0,0,4.1,1.8,9.3,9.3,0,0,0,2.9.1c.3.2.7.7,1.2.8a18,18,0,0,0,4,1c4.6.4,9.1,1.9,13.8,1,1.9-.4,3.9.1,5.9.1a12.9,12.9,0,0,1,1.9-.4c1.1,0,2.2.3,3.3.4v-.8l-4.9-.7c-1.3-.1-1.8-.8-1.1-1.8a2.3,2.3,0,0,1,1.8-.8q3.3.1,6.6.6c3.9.3,7.7.8,11.6,1s6.3.7,9.5-.3,4.8-.5,7.2-.7l2.8-.2,3.8.2c0-.2.1-.4.1-.6-2.4.4-3.8-1.9-6.3-1.7s-3.3-1.1-4.9-1.6-1.9-.1-2.6-.5-3.7-.8-5.6-1.1-3.8.8-5.9.6-2.6.3-3.9.4l-2.3.2c-2.8.2-5.6.8-8.4.4a17.9,17.9,0,0,0-8.6,1.3c-1.7.6-3.1,1.8-5.3.9s-3.5-.8-5-1.9a8.4,8.4,0,0,0-2.7-.8c-1.1-.3-2.3-.1-3.3-.5a11.5,11.5,0,0,0-7.5-1.2c-.5.1-1.5-.7-1.7-1.2s.6-1.4,1.1-1.7a8.1,8.1,0,0,1,2.7-.5l6.7-.3h5.4a3.3,3.3,0,0,0,1.3-.4,4.6,4.6,0,0,0-2.2-1.3l-8-1.8c-3.3-.7-6.6-.5-9.8-1.6s-3.9-.6-5.9-1.1-6-1.4-9-2.1c-1.1-.3-2.3-1.2-3-.9a1.4,1.4,0,0,1-1.9-.4H226.2l1.1-1.2a6.8,6.8,0,0,0-4.9.8c-2,1-4.2,1.6-6.2,2.6s-4.6,2.3-6.9,3.5ZM816.4,58a1.3,1.3,0,0,1,.1-.6l-2.7-.8c-2.4-.5-4.7-1.2-7.2-1.5a36.6,36.6,0,0,0-7.4,0c-2.5.2-4.8.8-7.2,1.2l-5.7.8c-2.7.4-5.4.8-8,1.4s-5.1.5-7.2,2.5c-.6.5-1.7,1.2-2.6-.1s-1-.3-1.4-.1l-4.9,2.8-5.1,2.7v.5H761c5.2.4,10.4,1,15.6,1.2,3.1.1,6.2.7,9.1-.8.3-.2.8-.1,1.1-.1a33.3,33.3,0,0,0,12.9-2.5C805.3,62.7,810.8,60.2,816.4,58Zm-52-43.3c.4,1.2.7,1.8.9,2.5a24.7,24.7,0,0,0,1,2.9c1.2,1.8,2.6,3.4,3.7,5.3s1.3,3.7,2.1,5.5,1.2,1.6,1.3,2.4.7,3.2,2.5,3.9,1,1.1,1.4,1.7,2.2,3.5,4.2,4.4,1.2.4,1.3.8,1.7,1.2,2.8,1.6a24.2,24.2,0,0,1,5.4,2.5,2.7,2.7,0,0,0,2.7.5c-.2-.3-.3-.5-.5-.6-3.1-3.1-6.4-6.1-9.4-9.3-1.5-1.6-2.4-3.7-3.5-5.6s-2.8-4.6-4.1-7a20,20,0,0,0-4.8-6.4c-1.2-1-2.4-2.2-3.7-3.1A31.9,31.9,0,0,0,764.4,14.7ZM417.5,70.9l-4.9-3.4-5.1-3.6c-1-.7-2.3-1.2-3.4-1.9s-.8-.7-1.2-.7c-2.3-.1-4.5-.9-7-.5a7.1,7.1,0,0,1-4.9-.6,12.8,12.8,0,0,0-3.5-.6C395.5,68.5,406.1,70.8,417.5,70.9ZM236,99.1l-.2-.6h-5.9a48.7,48.7,0,0,0-5.4.2,36.5,36.5,0,0,0-4.6.7c-3,.6-6.1.4-9,1.6-.9.4-2.6,1-3.5-.9l-.3,1-3.1.7c-.7,0-1.4.3-2,.3s-1.9-.4-2.7-.2-1.9.6-2.6-.1h-8.6l3,1.3,5.5.7,1.8.6a.8.8,0,0,0,.7,0c.9-1,2-.5,3.1-.7l9.3-1.1h2.9c1.3-1.1,2.3-1.2,3.2,0a22.6,22.6,0,0,1,2.2-1.1l8.1-1.9c1.1-.2,1.8-.1,2.3,1.1a5.4,5.4,0,0,1-1.3.7l-4.9,1.3-1.9.6-8.1.8-4.3.6c-.3.1-.7.5-1.1.5l-3.3.2-8.1.6-.9.2a14.4,14.4,0,0,0,4.4.9,16.5,16.5,0,0,1,6.3.7l.6.2a7.5,7.5,0,0,1,2.5-.9c2.4-.2,4.9.2,7.1-1.5.2-.2.6-.2.9-.3l8.4-2.4,7.8-2.6A12.6,12.6,0,0,0,236,99.1ZM583.2,54.6v.6c1.6.2,3.1.5,4.7.6,3.1.2,6.1.1,9.1.4s3.8.9,5.7,1.2,4.1,0,6.2.3a46.8,46.8,0,0,0,5.3,0h9.7c.2,0,.3-.2.5-.3l-5.1-1.6a11.1,11.1,0,0,0-2.2-.7c-.7-.2-1.4,0-2-.3-4.5-1.9-9.3-1.9-14-2.2-2.2-.1-4.5.9-6.7.9s-4.3-.2-6.4.4ZM181.6,84.9c1.2.3,2.3,1,3.3.8,4-.5,8-1.4,12-1.7s7-1.9,10.2-3.7c.8-.4,1.4-1.1,2.1-1.4l4.4-1.8c-1.5-.7-3.1-1.3-4.4-1s-1.7-.3-2.3-.1a46,46,0,0,0-5.2,1.9l-8.4,3.7-1.8.4c-2.8.5-5.6,1.5-8.4,1.5s-3.5,1-5.2,0-.7.2-1,.4C178.6,84.5,180,86.2,181.6,84.9ZM540.3,96.6c0-.1-.1-.2-.1-.3a5.7,5.7,0,0,1-1.8.3l-8.5-1.8-3.5-.8a16.7,16.7,0,0,0-8,0,10.1,10.1,0,0,1-1.5.7l-4.2.7-6.4,1.3a24.2,24.2,0,0,0-3.6,1v-.2l-2.7.5c0,.2.1.4.1.6a28.1,28.1,0,0,0,2.9,0c2.7-.3,5.3-.7,8-.9a25.6,25.6,0,0,1,3.9.3,4.5,4.5,0,0,1,1.1-.3,21,21,0,0,1,5.6.1,59.2,59.2,0,0,0,10.3.4,45.3,45.3,0,0,0,7.4-.9C539.6,97.3,539.9,96.9,540.3,96.6Zm224.1-7.8-.3-.7a12.1,12.1,0,0,0-2,.9,16.5,16.5,0,0,1-2.5,1.5c-2.1.8-4.3,1.4-5.9,3.1s-.8.3-1.2.4-1.3.2-1.6,1.3a3.7,3.7,0,0,1-1.7,2,8.3,8.3,0,0,0-3.7,4.2,17.6,17.6,0,0,1-4.1,4.9c-1.1.8-1.2,1.6-.5,2.5l3.3-2.5c2.1-1.5,4.4-2.7,6.4-4.3s4.5-3.8,6.7-5.8a5.5,5.5,0,0,0,1-1.6C761.3,93.9,762,90.5,764.4,88.8ZM302.3,79.2l.3-.2a2.5,2.5,0,0,0-.4-.7,63.4,63.4,0,0,1-3.9-6.6c-1.7-3.9-2.8-8.1-5.2-11.6-.4-.6-1.1-1-1.5-1.5s-2.1-3.3-3.3-4.8a80.5,80.5,0,0,0-6-7.1c-2.2-2.2-4.6-4.1-6.9-6.2v1.6a17.3,17.3,0,0,0,1.4,2l4.5,5.3a4.6,4.6,0,0,0,.7.7l2,2.2,1.1,1.6c1.2,1.6,2.5,3.2,3.6,4.9s.5,2.1,1.1,2.9c2.4,3.1,4.9,5.9,7.3,8.9a5.4,5.4,0,0,1,1.4,3.2c-.1,2.1,1.5,3,2.5,4.2A5.3,5.3,0,0,0,302.3,79.2ZM657,48.3l.3-.5-6.6-7.5a28.3,28.3,0,0,0-3-3,7.6,7.6,0,0,0-4.4-2.1c-1.8-.3-3.4-1.5-5.1-2.2s-1,0-1-.2-1.4-.8-2.2-.9a5.5,5.5,0,0,0-1.8.1,19.5,19.5,0,0,0,2.3,1.7c2.6,1.9,5.1,3.9,7.6,5.9a19.9,19.9,0,0,1,1.9,1.2c1.6,1.1,3,2.4,4.6,3.5s2.3,1.2,3.1,2.1A5.2,5.2,0,0,0,657,48.3ZM755.6,11l-.5.5c2.1,2.7,4.1,5.5,6.3,8.2s2.2,2.2,2.8,3.8,1.2,1.6,1,2.8.4.5.5.9l.9,1.8c1.2,2.5,2.4,5.1,3.8,7.4a24.6,24.6,0,0,0,3.8,4.1,17.3,17.3,0,0,0,2,1.4c.3-1.9-.1-3.1-1.4-4a5.3,5.3,0,0,1-2.9-4.4c0-.4-.4-.8-.6-1.2s-1.4-2.6-2-3.9-1-2.5-1.6-3.6-2.9-3.4-3.2-5.8c-.1-.4-.6-.8-.9-1.2l-.9-1.4h.2l-2.6-1.6c-.6-.3-1.4-.1-1.9-.4a11.2,11.2,0,0,1-1.6-2.2ZM218,72.8c-.2-.2-.3-.5-.6-.6L211,69.3c-2.2-1.1-4.4-2.4-6.5-3.6L200,63.1l-8-5.2a23.9,23.9,0,0,0-2.2-1.2l-4-2-.2.3.7.9a3.6,3.6,0,0,1,1.1,1,5.2,5.2,0,0,0,3,2.8,3.2,3.2,0,0,1,1.3,1c1.6,2.5,3.9,3.8,6.6,4.8a11.7,11.7,0,0,1,3,2.1C206.9,68.6,212,72.2,218,72.8ZM137.3,35.1c-.2.2-.4.3-.5.5l1.5,2.4c1,1.9,2.5,3.5,2.3,5.8a3.3,3.3,0,0,0,.9,1.6c.6.8,1.8,1.4,1.1,2.7,3.4,3.3,4.9,8,7.6,11.9a2.1,2.1,0,0,0-.1-1.4c-1.6-2.9-1.5-6.3-2.2-9.4a19.6,19.6,0,0,0-4.2-8.1,43.5,43.5,0,0,0-3.6-3.8ZM279.4,91v.6c1-.1,2,0,3-.2s3.1-1.1,4.8-1.4a7.1,7.1,0,0,0,2.4-.4c.8-.5,2.2-.9,2.9-.5,2.3,1.3,4.6.1,7,.3a33.7,33.7,0,0,0,6.2-.7l4.2-.5c-.7-1.5-1.9-2-3.9-1.8a5.3,5.3,0,0,0-1.7-.8c-.3-.1-.8.1-1.2.1s-2.7,0-4.1.2l-6.8.8-1.7.8-2.6.6c-1.1.3-2.1,1-3.2,1a1.8,1.8,0,0,0-2.2,1.7ZM125.7,95.7v.5c6.1,1.9,12.5,1.8,18.8,1.4,4-.3,8-2.6,11.7-4.6a35.1,35.1,0,0,0-5.6.3l-2,.6a27,27,0,0,1-3.9.8c-2,.1-4.1-.1-6.1-.2s-1.5-.3-2.6-.4l-.4.8ZM507,100.5c4.2,2.9,25.2,3.2,29-.3h-4.5l-6.3.2a10.2,10.2,0,0,1-3-.3,9.4,9.4,0,0,0-4.1-.8c-1.5.3-3,0-4.5.2a13.9,13.9,0,0,0-2.8,1.2C509.8,99,508.5,100.9,507,100.5ZM436.2,44c0,.5-.1.8,0,1l1.5,3.3c.2.7,0,1.7.5,2.2s2.8,3.1,4.1,4.8,4.8,4.3,7.3,6.4l2.3,1.7.4-.3a16.6,16.6,0,0,1-1.3-2.7c-.4-1.1-2-1.8-1.3-2.8a22.9,22.9,0,0,1-2.3-1.7c-.6-.7-1-1.7-1.6-2.3s-2.2-1.9-3.2-2.9a22,22,0,0,1-2-2.3,5.2,5.2,0,0,1-1-1.1Zm9.8,59.5c-.4-.2-.7-.6-1.1-.7l-4.6-.8a12.3,12.3,0,0,1-3.3-.8,20.8,20.8,0,0,0-8.1-1.8,35.8,35.8,0,0,0-7.3.4c-1.4.1-2.7.5-4.1.7v.6l4.7.5,9.4,1.3,1.3.5,1.5.6c2,.5,4.3-1.7,6.2.4h.2ZM709.1,60.6c-1.7-1.3-2.7-1.1-3.7.6l-2.8-.5a6.3,6.3,0,0,0,2,1.3l2.7,1a21.5,21.5,0,0,0,3.2,1.3c1.6.3,3.2.1,4,1.9.1.2.7.1,1,.1l9.2,1.3,4.5.2v-.7l-7-3.1a14.9,14.9,0,0,0-4-1.1c-3.4-.3-6.7-.4-10.1-.8-.6,0-1.2-.7-1.9-1.1l.3-.6ZM525.4,140.9v.4l.5.2a21.9,21.9,0,0,0,10.5,0c2.8-.7,5.7-1,8-3.3a14,14,0,0,1,5.6-3.1,24.9,24.9,0,0,0,4.1-1.4c.5-.2,1.2-.2,1.6-.5s2.4,0,2.4-2c-1.4.4-2.6.6-3.7,1l-2.5,1.3-1.6.4a72.7,72.7,0,0,1-7.6,3.3c-3.7,1-7.4,1.7-11.1,2.5ZM301.5,98v.3l14.1,2.8c.3.1.8-.3,1.3-.3l7.7-.6,6.5-.5a23,23,0,0,0,2.6-.3,29.9,29.9,0,0,0,3.2-.9v-.4l-8.5-.5a3,3,0,0,1-1.6.3c-2.7-.8-5.2.2-7.8.5a19.3,19.3,0,0,1-4.1.6c-2.6-.1-5.1-.4-7.7-.6Zm383.9,35a23.4,23.4,0,0,0-2.2,2.3c-1.3,1.5-2.4,3.1-3.6,4.6s-2.1,2.5-3.1,3.7a1,1,0,0,0,.5.4l1.3-1.1c1.9-2,3.6-4.1,5.6-5.9s4.5-3.7,6.7-5.6a28.3,28.3,0,0,0,2-2.8l1.7-2.1c.3-.1.3-.5.4-.8l3.3-6.2c.2-.5.3-1,.5-1.5-1.3,1.3-2.2,2.5-3.2,3.7l-5.5,5.6c-.6.7-1.5,1.5-1.5,2.2C688.3,131.9,686.2,131.8,685.4,133ZM19,67.4l.3.4c2.9.6,5.8,1.7,8.7,1.6s5.9-1.2,8.8-1.7,7.3-3,7.7-4.1l-4.4,1c-1.6.3-3.1.7-4.7.9s-4.5.3-6.7.6l-3.8.5c-1.6.2-3.3.2-5,.3ZM305.9,101v.6l1.1.4a54.3,54.3,0,0,0,5.8,1.3c2.6.5,5.3.9,7.9,1.2s3.1-.4,4.7-.3a28.1,28.1,0,0,0,10.4-1.7c1.9-.8,3.6-1.8,5.3-2.7l-.2-.5-.8.2a34.7,34.7,0,0,1-10.5,2.3c-3.5.2-6.9.3-10.3.8a21.5,21.5,0,0,1-8-.5ZM105.2,85.5v.4a28.1,28.1,0,0,0,4.1,0,46.2,46.2,0,0,0,6.3-1.1,30.7,30.7,0,0,0,4.2-1.7c.7-.3,1.3-.3,1.9-.6l5.2-2.9,6.1-2.8,2.7-1.4c-.1-.2-.2-.3-.2-.5l-1.5.6c-1.8.6-3.5,1.5-5.5,1.5s-2-.2-2.4,1.2-.6.2-.9.4a11.7,11.7,0,0,0-3.3,1.1c-2.2,1.6-4.6,1.9-7.1,2-.6,2.2-2.8,2.2-4.3,2.7S107,85.1,105.2,85.5Zm457.4,75.7h.1l6.2-4.7c2.1-1.9,3.9-4.1,5.8-6.2a24,24,0,0,0,2.7-2.8,45.9,45.9,0,0,0,2.7-6c.1-.2-.1-.6-.2-.9l-.6.5c-.8.9-1.5,1.8-2.3,2.6s-2.4,2.1-3.4,3.2-1.1,2-1.8,2.9l-4,4.8-4.3,4.8A9.1,9.1,0,0,0,562.6,161.2ZM695,108.4V108c-4.2.7-8.1,2.5-11.9,4.2s-7.6,3.7-11.3,5.5c3,.5,5.9.6,8.6-.7s5.4-3.3,8.2-4.9l5.5-3ZM324.1,37v.5c1,.4,2,1.1,2.9,1.1s3.1,1.7,4.9.8c1.2,1.7,3.4,1,5,2a7.8,7.8,0,0,0,2,1.1c2.9,1,5.7,1.9,7.5,4.6a1.8,1.8,0,0,0,.9.6l2,.9,1.2-.7c-3.4-2.5-6.6-4.9-9.9-7.1a19.4,19.4,0,0,0-8.8-3.1,2.3,2.3,0,0,1-1.1-.7ZM61.4,99.4c2.2-.6,4.2-1.2,6.1-1.9A7.5,7.5,0,0,0,69.9,96c1-.8,1.8-1.8,2.8-2.6a18.9,18.9,0,0,0,2.7-2,38.1,38.1,0,0,0,4-5,11.1,11.1,0,0,1,3.2-2.9l3.7-2.8,2.4-1.9-.3-.3a85.7,85.7,0,0,0-8.1,5.2c-2.2,1.8-4,4.1-6,6.1A10.4,10.4,0,0,1,70,93a41.1,41.1,0,0,0-4.2,2.1l-.3.3Zm75.3-60.5-.6.2c.4,1.6.8,3.1,1.3,4.6a36.4,36.4,0,0,0,1.4,4.7,26.8,26.8,0,0,0,1.9,4.2,36.2,36.2,0,0,0,2.4,4.3,36.5,36.5,0,0,0,3.1,3.6c1,1.1,2.1,2.1,3.2,3.2a39.5,39.5,0,0,0-2.3-5.1c-.9-1.7-1.9-3.4-2.9-5s-2.1-3.1-3-4.8a28.6,28.6,0,0,1-2.4-4.2c-.2-.5-.1-1.2-.3-1.8ZM72.1,15C70.8,18.8,84.3,30,90,30.4V30l-5.2-4-1-.9-2.4-2.2c-1.6-1.8-4.2-2.2-5.5-4.4-.1-.2-.6-.1-.8-.3a9.5,9.5,0,0,1-2-1.5A5,5,0,0,1,72.1,15ZM318.3,137.3v.2l-1.6.7a13.6,13.6,0,0,1-2.8,1.1c-1.7.3-3.2,1.7-5.1,1.2-.2-.1-.5.2-.5.4s-.1.6,0,.6a1.1,1.1,0,0,0,.9.2,25.7,25.7,0,0,1,3.8-.8c4.1,0,7.9-1.4,11.8-2.5a22.6,22.6,0,0,0,3.5-1.7l3.3-1.9-.3-.5Zm24.4,23.8v.3c3.9-1.2,7.2-3.6,10.3-6.1s6.3-5.1,8.5-8.6a7.6,7.6,0,0,0-2.9,1.3c-1.5,1.4-2.7,3.2-4.6,4.3a40.4,40.4,0,0,0-5.2,3.2,19.6,19.6,0,0,0-3.2,2.5c-.2.2.1.8.1.9Zm-93.5-51.2v.5c-.6-.4-1-1.1-1.6,0s-1.2.8-1.8,1.1l-5.4,2.1-1,.8c3,0,5.5-1.1,8.2-.2.8-1.5,2.4-2.2,4-2.8a9.2,9.2,0,0,0,2.7-1.6c1.2-.9,2.2-2.1,3.4-3.1a3.1,3.1,0,0,1,.9-.7v-.3l-4.4.8c.8,1.7.2,2.4-1.4,2.4a4.7,4.7,0,0,0-1.7.3Zm329,29.3c-7.5,4.1-11.8,10.7-15.3,18,.4,0,.9-.1,1-.4s2.2-2.7,3.2-4.1,2.4-3.3,3.8-4.8a44.5,44.5,0,0,1,5.6-5.9A4.3,4.3,0,0,0,578.2,139.2Zm-42.8-80c-1.3,5.1,1.5,8.8,4.2,12.5a4.7,4.7,0,0,0,1.4,1.4l.3-.3c-.3-2.1.3-4.6-2.6-5.3C539.4,64.6,537.6,60,535.4,59.2Zm-3.1,10.4-.9-1.1-5.6-6.9a14.9,14.9,0,0,1-1.5-2,4.1,4.1,0,0,0-4.1-2.4C520.4,60.3,529.3,69.5,532.3,69.6ZM132.9,73.8l-.2-.5-2.8.4-5,1.4c-.6.2-1,1.1-1.6,1.2-2.6.7-5.3,1.2-7.9,1.8a7.5,7.5,0,0,0-2.1,1.2L111,81l-2.4,1.5.2.3,1.2-.2,6.2-2.6c1.5-.5,3-.9,4.4-1.5,3.2-1.3,6-3.4,9.7-3.7A13.9,13.9,0,0,0,132.9,73.8Zm77.3-6.5.3-.3a5.6,5.6,0,0,0-.5-.8c-1.2-.9-2.8-1.6-3.6-2.7a16.9,16.9,0,0,0-5.9-5.1,100.1,100.1,0,0,0-9.4-4.3,8.1,8.1,0,0,0-1.6,0l2,1.5,7.5,4c.9.5,2.1,1,2.4,1.7s1.3,1.2,1.8,1.7,3.1,1.7,4.7,2.5S209.4,66.7,210.2,67.3ZM287,62.4c.9-3.1-1.6-4.6-2.9-6.5a41.2,41.2,0,0,0-4.9-5.4l-2.7-3.1-.5.3a43.2,43.2,0,0,0,3.4,6.4c1.8,2.5,4.1,4.5,6.2,6.8ZM557.5,141l-.4-.3-2.4,1.7a27,27,0,0,1-3.4,1.7c-.1.1-.2.1-.2.2s-1.3,2.1-2.1,3.1l-6.1,7.2-2,2a3.9,3.9,0,0,0-.6,1.1l.4.3a18.9,18.9,0,0,0,3.1-2.5c1.7-1.8,3.1-3.9,4.7-5.9a4.9,4.9,0,0,1,1.2-1.3c3.2-1.4,4.8-4.7,7.6-6.6C557.5,141.6,557.4,141.3,557.5,141ZM224.8,115.5c4.1-.4,8.2-.6,12.1-2.4,2.3-1.2,10.1-4.5,10.6-5.4-3.5,1.9-7.6,2.2-11.3,4S228.2,113.3,224.8,115.5ZM151,91.2l-.2-.4h1.4c.1,0,.1-.4.2-.6l-1-.2h-1.3l-5.1.4c-1.5.1-3.2,1.5-4.2-.1l-1.8.7-2.8,1.1c2.1.4,4.1.4,6,.8s3.5-1.2,5.2.2a2,2,0,0,1,.1-.5Zm216.4,47.3c-5.8,4.4-12.1,8.3-16.8,14.1C356.4,148.1,363.1,144.6,367.4,138.5ZM89.4,27.2C88.9,23.6,76.2,14.3,73,13.1v.2c1.8,2.5,4.5,4,6.8,6s2.5,1.8,3.7,2.8ZM393.2,148.9a11.5,11.5,0,0,0,1.9-1.7c1-1.2,1.9-2.5,3.5-3.1a8.8,8.8,0,0,0,2.3-1.4,32.7,32.7,0,0,0,3-3.5l2.1-2.8-.4-.4-3.8,2.4-3.7,2.6-.4.5ZM370.3,88.8c-3.6-4.7-6.6-9.6-13-10.2C357.9,79.9,368.3,88.4,370.3,88.8Zm-21-38.2L346.5,49,344,47.6a24.6,24.6,0,0,0-4.6-2.8,31.7,31.7,0,0,0-5.5-1.5c2.9,3,6.7,4.4,10.2,6.4A6.5,6.5,0,0,0,349.3,50.6ZM233,54.9c.3-1.1-.4-1.7-1.2-2.3a12.9,12.9,0,0,1-1.7-1.6,40.5,40.5,0,0,1-2.1-3.5,23.2,23.2,0,0,1-1.4-2.3c-.4-.2-.9-.7-1.5-1s-1-.5-1.2-.3a1.9,1.9,0,0,0-.7,1.4,1.9,1.9,0,0,0,.7,1.3c1.6,1.7,3.4,3.2,5.1,4.8s1.7,1.1,1.1,2.4.5.7.9.9A12.3,12.3,0,0,0,233,54.9ZM197.8,77.1c-2.1-.3-13.9,2.8-17.2,4.4C185.1,82.3,197.3,79.2,197.8,77.1Zm344.5,55.7c-.1.1-.4.6-.7.7s-2.4.6-3.4.7c-2.6.2-4.6,1.7-6.9,2.6-.2.1-.3.5-.5.7a29.3,29.3,0,0,0,5.3-.9l6.6-1.6a27,27,0,0,0,4-1.4v-.3ZM344,115.6l2.6-.3H352c1.6,0,3.1-.4,4.6-.1s3.9,1,5.9,1.5a17.9,17.9,0,0,0,2.4.2v-.5C358.1,113.5,351.1,112.3,344,115.6ZM234.6,46.8h-.5c-.3.3-.8.7-.7,1a24,24,0,0,0,1.2,4.4c.8,1.9,1.8,3.8,2.7,5.7.1.3.4.5.6.7s1.3,1.5,2,2.1a8.1,8.1,0,0,0,1,.9,4.7,4.7,0,0,0-.1-1.7c-.3-1.2-1.7-1.6-2.1-3.1s-1.7-4-2.5-6.1S235.2,48.1,234.6,46.8Zm460.8-5.5a28.4,28.4,0,0,0,8.1.7l7.7-.8,2.4.3C711.8,39.5,698.5,39.8,695.4,41.3ZM413.2,157.2c3.1-1.7,3.2-1.7,3.9-4.8s1.1-5.4,1.6-8.1a5.9,5.9,0,0,0-.5-.8c-.9,2.3-1.8,4.3-2.5,6.2s.5,1.3.2,1.7-1.8,3-2.7,4.6S413.2,156.7,413.2,157.2Zm92.5-38.3c-1.4-.8-5.4-.5-6.4.6-1.3-.9-2.3-.6-2.5.7s-1-.5-1.5-.5l-3.1.7-3.6,1a4.3,4.3,0,0,1,.1.5C494.4,120.8,500.4,122,505.7,118.9ZM439.4,42.8l-.4.5a30.6,30.6,0,0,0,9.5,9.1c-.8-1.8-1.4-3.9-2.7-5.2A40.3,40.3,0,0,0,439.4,42.8Zm61.4,14.9c1.5,2.3,10.2,5.4,12.7,4.8-.8-.8-1.3-1.7-2.1-2a64.5,64.5,0,0,0-7.5-2.2A28.4,28.4,0,0,0,500.8,57.7ZM70.5,37.6c0,.3-.1.4,0,.6s1.8,3.8,4.3,4.1c0,.1,0,.3.1.3l3.7,3.2c-.2-1.6-.3-2.8-.4-3.8C75.5,41,73.9,37.6,70.5,37.6Zm640.9-2.3a56.3,56.3,0,0,0-3.8-4.5,24.7,24.7,0,0,0-4.2-3c-.3-.2-.8,0-1.3,0l.3,1.3C704.3,32.7,708,33.7,711.4,35.3ZM501.9,125.8l-.3-.3-7.6,8.9a9.3,9.3,0,0,0-.8,2h.9c2.8-.8,4-3.3,5.4-5.5A47.4,47.4,0,0,0,501.9,125.8ZM416.5,73.3l-10.7-1V72a20.7,20.7,0,0,1-9.8-2.9C398.9,72.7,412,75.6,416.5,73.3Zm107.1-6.7c.1-.1.2-.3.4-.4s-.8-1-1.3-1.4a23.5,23.5,0,0,1-3.7-2.4c-1.4-1.3-2.5-2.9-3.8-4.3s-2.2-2.2-3.3-3.3-.2.3-.4.4c1.3,4.9,6,6.9,9.3,10.1A9,9,0,0,0,523.6,66.6Zm16.1,11.1v-.4h-3.5a41.7,41.7,0,0,0-7.1.4c-1.2.2-2.9-.2-3.7,1.6C530.5,80.2,535.1,78.9,539.7,77.7ZM371.3,93.9l-4.6-5a3.3,3.3,0,0,1-3.1-1.8c-.5-.8-1.1-1.4-2.2-.9C363.5,90.2,367.7,93.3,371.3,93.9ZM508,67.3v.9h16.5c-1.9-.3-4.3.1-5.7-.9s-4.3.2-5.6-1.3ZM273.8,88.4c.7.4,1.3.9,1.8.9a23.4,23.4,0,0,0,2.4-.9,2.6,2.6,0,0,1,1.5.1h.2l1-1.1V88c1.1-.1,2.4.1,3.2-.4a6.4,6.4,0,0,1,3.7-1.3,28.5,28.5,0,0,0,3.2-.6C289.1,84.8,279.1,86.5,273.8,88.4ZM72.2,96.5c3.2-.6,11.4-8.7,12.5-12.6-2.1,2-4,4.2-6.1,6.3ZM408,162a4.7,4.7,0,0,0,2.4-3.9,7.1,7.1,0,0,1,.5-2.2c.5-.8,1.3-1.5,1.8-2.3s1.6-2.6.9-4.4a18.1,18.1,0,0,0-3,4.4A83.3,83.3,0,0,0,408,162ZM533.6,73c-5.2-.1-10.4-.4-15.3,1.6C523.6,75.7,528.5,73.7,533.6,73ZM44.7,60.8c-4.7-.1-9.1,1.7-13.6,2.9C35.8,63.2,40.8,64.3,44.7,60.8Zm299.7,57.1c4.7,1.9,9.4,1.2,14.3.2-2.3-1.8-4.8-.6-7.1-.7A59.4,59.4,0,0,0,344.4,117.9ZM706.3,45.7a17.2,17.2,0,0,0,12.6-1.1C714.6,44,710.5,44.8,706.3,45.7Zm-74.9,75c-5,1.9-9.9,4-13.6,8,3.7-1.9,7.3-4,10.8-6.1l1.5-.5ZM245.2,60.5l.3-.2c0-.1.1-.3.1-.4a12,12,0,0,1,.6-7,4.3,4.3,0,0,0-2.1-4C244.1,52.9,243.3,56.8,245.2,60.5ZM723.8,34.9a5.5,5.5,0,0,0,0,1.3c1.6,2.6,3.1,5.4,4.9,7.9.5.6,1.7.7,2.7,1ZM428,104.7l-13.7-2.2C417.1,104.6,420.9,105.8,428,104.7Zm60.7,28-.3-.3-6,6.8c-1,1.1-.9,2.4-.8,3.8a1.6,1.6,0,0,0,.7-.7c0-1.5,1-2.2,2.3-2.8l.6-.6,2.3-4.3ZM79.2,71.2l10.1,1.5v-.5c-4-1.5-8-3.2-12.6-1.6l1.7,1.2Zm466.9,85,4.6-3.3.3-.5c1.2-1.3,2.4-2.7,3.5-4.1s.1-.7.1-1.1-.8-.1-1,.1a31.9,31.9,0,0,0-2.6,2.6,23,23,0,0,0-1.6,2A6.2,6.2,0,0,0,546.1,156.2ZM225.6,54.3l.2-.5-8.3-2.3-2.3,1.3a15,15,0,0,0,3.7,1.3,33.8,33.8,0,0,0,4.5-.1ZM725,49.2c-2.3-.4-8.5.5-10.3,2.6l5.2-.3a4.2,4.2,0,0,0,1.3-.3,7.8,7.8,0,0,1,1.5-1ZM325.3,133.4c-2.8-.5-10.2,1-11,3.2,1.8-.4,3.7-.7,5.5-1.2S323.2,134.2,325.3,133.4ZM229.6,60v-.5l-6.4-.7c-.1.1-.6.2-.9.5a2.4,2.4,0,0,0-.5,1.3c0,.2.7.6,1,.6s2.9-.4,4.3-.6Zm447.7,52a8.8,8.8,0,0,0,1.6-.2c2-.8,3.7-2.4,6.1-2.5.6,0,1.2-.7,1.8-1.1l-.3-.6C683.2,108.3,679.9,109.3,677.3,112ZM60.1,41.1a10.5,10.5,0,0,0,2.8,1.4,47.3,47.3,0,0,0,5.3.1C66.2,40.5,63.8,39.9,60.1,41.1ZM714.8,31l-.3.3c.7,3.6,3.2,6.7,5.3,6.8-.8-1.3-1.5-2.6-2.3-3.8S715.7,32.1,714.8,31Zm37.8,72.1c2.9-.3,6.1-3,6.5-5.2s-1.1.1-1.7.7S754.4,101.5,752.6,103.1ZM29.9,63.9v-.4l-9,.4c-.2,0-.5.5-.4.6s.4.5.6.5a7.4,7.4,0,0,1,2.1,0C25.6,65.7,27.7,64.4,29.9,63.9Zm466,59.9a2.5,2.5,0,0,0-.1-.8,36.2,36.2,0,0,0-4.6.2,38.4,38.4,0,0,0-4.6,1.1l.2.7ZM461,149.1a10.9,10.9,0,0,0,6.9-5.5A26.2,26.2,0,0,0,461,149.1ZM44.8,63.1a1.4,1.4,0,0,1,.2.6l7.8-1.9c-.2-.3-.3-.8-.5-.8a11.5,11.5,0,0,0-3.2-.1,16.6,16.6,0,0,0-3.3,1.6Zm726-15.9c-.7-1.7-5.6-4.1-7.6-3.7A21.5,21.5,0,0,0,770.8,47.2ZM67,47.2v.6H76C72.8,47,70,45.6,67,47.2Zm408.5,90.2c-1.1-1.4-7.7-.3-8.6,1.3ZM84.9,48.9,82,42.7l-.7.2a12.4,12.4,0,0,0,.6,4.3C82.2,47.9,83.6,48.2,84.9,48.9Zm550-13c2.5,3,5,5.5,8.4,6.7-2.1-1.9-4.6-3.5-6.3-6.1ZM71.6,52.7v.7H79A9.2,9.2,0,0,0,71.6,52.7ZM395.3,151c2.1-2.1,4.3-4,5.6-6.8C398.5,145.6,395,150,395.3,151ZM228.4,65.5v.8c1.2.9,2.6,0,3.9,0a31.5,31.5,0,0,0,4.3-.5v-.2Zm408.7,62.8.6.4c1.2-2.3,2.5-4.5,4-7.2C638.7,123.3,638.3,126,637.1,128.3ZM74.1,73c2.4,1.9,5.7,1.9,6.3.1Zm405.6,59.9h-7C473.9,134.2,478.9,133.8,479.7,132.9ZM193.3,70l.6-.6c-1-1.5-3-1.9-4.2-3.2s-.7-.1-1.1-.1v.3Zm477.6,44.9c1.4.3,1.4.3,6-2.2-.2-.2-.4-.6-.5-.5ZM472,146.5a4.6,4.6,0,0,1,.7.7,29.9,29.9,0,0,0,.8-3.2,13.8,13.8,0,0,0-1.7,1.5c-.4.5-.2,1.3-.5,1.7s-.6.8-.7.6Zm34.8-45.3v-.5h-5.2v.5C503.4,101.4,505.1,102.1,506.8,101.2ZM637,80.4c0-.3-.1-.5-.1-.8l-6,.9c0,.3.1.5.1.7Zm-189.6,23v.5c1.4.5,2.7,1.3,4.2.5v-.5Zm-63.1,23.8c.1.3.3.5.4.8l2.9-1.7-.2-.4-2.3-.4.8,1ZM216.7,47l.3-.6-3.9-1.7-.3.6ZM618,130.5a4.6,4.6,0,0,0,4.8-2.1ZM193.1,105.9a4.3,4.3,0,0,1,.1-.5L189,104c-.1.2-.1.5-.2.7ZM515.8,64.8l.2-.5-2.4-2c.1,1,.2,1.5.3,2.2ZM795.4,52h3.2C797.6,51.4,796.7,50.5,795.4,52ZM210.5,73.3c-1.2-1.6-1.7-1.5-2.6.4Zm507.6-4.9a1.5,1.5,0,0,1-.1.7l3.1.5a2,2,0,0,1,.1-.7ZM639.5,131l-.5-.2-1.4,2.7.6.2C638.7,132.8,639.1,131.9,639.5,131Z"/><path class="a7862bd4-6066-44f9-81d5-ddffd1da4bd9" d="M790,76.1a5.4,5.4,0,0,1,.5,2.1c-.2,1.4-.3,3.1-1.1,4.1a7.7,7.7,0,0,0-1.7,2.9,68.4,68.4,0,0,1-2.5,7.2,16,16,0,0,0-1.2,6.9,27.9,27.9,0,0,1-.8,6.3,35.8,35.8,0,0,1-.9,4.5c-.3.9-.8,1.7-1.4,3s-.9-.5-.9-1.3.1-1.6.1-2.5-.2-3.5-.2-5.3c-.1-.2-.1-.4-.2-.6-.8-1.8-1.6-3.7-2.3-5.5a4.2,4.2,0,0,1-.3-1.9c.4-3.4,1-6.8,3.1-9.8a25.9,25.9,0,0,1,6.5-6.3,10,10,0,0,0,1.8-2.6l1.4-1.8Z"/></g></g></svg>