<svg xmlns="http://www.w3.org/2000/svg" viewBox="0 0 897.6 187.2"><defs><style>.e1b05503-566c-4721-8a99-087616941659{fill:#2f2f30;}</style></defs><title>Recurso 5</title><g id="f5f435fb-1dd9-4e21-91ac-c8065a1b968d" data-name="Capa 2"><g id="e849cd84-2e47-4610-8603-29551a6bfe68" data-name="designs"><path class="e1b05503-566c-4721-8a99-087616941659" d="M670,124.6c1.7-1,5.1-.7,6.8.2s1.9,1.1,1.9,1.9c-2.8,5.1-7,3.5-11.1,3.1.3.1.6.4,1,.4,3.2.4,6.6.4,9.8,1s4.3.2,5.7,2.3a2.2,2.2,0,0,1-.7,3.2,28.6,28.6,0,0,1-3.5,1.2c1.2.2,2.9,0,3.2.6s3.4.6,3.8,2.7a.2.2,0,0,0,.2.2c1,.7,2,1.8,1.2,2.8a4.3,4.3,0,0,1-3.4.8c-1.5-.3-2.8-1.2-4.3-1.7s-2.9-2.4-3.8-4-1.1-.9-2.1-.4c.7.5,1.5.9,1.8,1.6a3.4,3.4,0,0,1,.5,2.5,6.5,6.5,0,0,1-2.6,2.6,4.3,4.3,0,0,1-4.1-1.3c-1.2-2-2.5-3.8-3.8-5.7a14.6,14.6,0,0,1-.4,3.1c-.3,1-2.8,1.6-3.6.9a8.3,8.3,0,0,1-1.9-2.3,34.3,34.3,0,0,1-1.9-4.4c-.5-1.5-.7-3.2-1.2-4.7a6.8,6.8,0,0,0-1.8-2.6c.1,1.5.4,3,.5,4.5s-.2,2.9-.3,4.4a4.9,4.9,0,0,1-2.5,3.8,7.3,7.3,0,0,1-4-8.4c.4-1.9,1.1-3.8.5-6-.2-.6.3-1.6,0-2.4a35.9,35.9,0,0,0-1.2-3.5c0-.2-.4-.3-.6-.3-2.5,0-4.2-1.7-6.3-2.6s-2.7-2-4.2-2.8c-3.1-1.8-6-4.1-9-6.1A20.6,20.6,0,0,0,626,108l-.4-.2c-1.3-1.7-3.5-1.7-5.1-2.7s-2.1-1.2-1.6-2.9l-7.5,1.5a36.8,36.8,0,0,1-5.7.6c-2.9.1-5.7,0-8.6-.1a32,32,0,0,1-4.2-1l-.4.4.7.2c2,1.4,4,2.6,5.8,4.1a19.9,19.9,0,0,1,2.9,3.6c1.8,2.6,3.5,5.3,5.4,7.8s2.1,1.5,3,2.4c2.5,2.6,5,5.2,7.4,7.9a35.7,35.7,0,0,1,3.6,4.3,20,20,0,0,1,3.2,8.7c.2,1.7.9,3.4.7,5s1,3,1.1,4.5c-1.7,1.4-2.3,1.2-3.3-.7a6.7,6.7,0,0,0-1.9-2.2c-2.5-2.4-5.1-4.6-7.5-7a35.9,35.9,0,0,1-5.5-6.2c-2-3.4-4.6-6.2-6.6-9.5s-1.7-4.1-2.6-6.1-2.4-5.3-3.8-7.8-3.1-4.5-4.6-6.8-2.1-1.1-1.9-2.5l-1.5-.4.3-.4c-.3-.3-.5-.7-.9-.9s-2.5-1.5-3.8-2.1a4.9,4.9,0,0,0-2.1-.4,11.6,11.6,0,0,1-4.9-.9,78.7,78.7,0,0,0-9.7-1.7c-1.6-.3-3.3-.4-4.8-.8l-6.9-2a13.7,13.7,0,0,0-1.9.2,34.5,34.5,0,0,0-5.6-.1l2.5,1.6c2.4,1.9,4.8,3.7,7.1,5.7a41.5,41.5,0,0,1,3.8,4.4l3.4,3.3a15.5,15.5,0,0,1,3,3.3,6.9,6.9,0,0,0,2.9,2.7c1.1.7,2.1,1.8,3.2,2.6l5.1,3.5c1.3.9,2.9,1.4,3.8,2.5a13.1,13.1,0,0,0,5.3,3.7c.6.3,1.5.1,2.1.5s2.2,1.6,3.4,2.4l1.5,1a1.4,1.4,0,0,1-2.1.5c-2.7-1.4-5.4-2.9-8.2-4.2-.4-.2-1,0-1.6,0v-.4c-2-1.4-3.7-2.8-5.5-4s-5-2.7-7.4-4.2c-.7-.4-1.1-1.3-1.7-1.9l-3.9-3.2a8.7,8.7,0,0,1,.1-1.1l-.9.6c-.5-.5-1.1-1.2-1.7-1.3s-2.6-1.8-3.9-2.7-3.1-2.3-4.6-3.5-2.8-2.4-4.2-3.6a55.9,55.9,0,0,1-5.2-4.5c-1.6-1.8-3.7-2.5-5.4-3.8a5.9,5.9,0,0,0-3.2-1.1,6.3,6.3,0,0,1-4.4-1.9,5.7,5.7,0,0,0-2.4-.8l-2.9-.6c-.1.1-.1.3-.2.4a15.7,15.7,0,0,1,2.8,1,29.1,29.1,0,0,1,4.5,2.6,30.3,30.3,0,0,1,5.3,4.8c1.4,1.6,2.4,3.8,3.6,5.6s2.1,2.4,2.6,3.7,3,2.6,3.5,4.7.4,1.4-.6,1.7l-1.1.7a1.6,1.6,0,0,0-.5-.8c-2.3-.2-3.5-2.3-5.6-3s-3.3-1.7-5.1-2.4a8.2,8.2,0,0,1-4.5-3.5,43.5,43.5,0,0,0-3.3-4.2c-1.4-1.9-2.8-3.9-4.3-5.7s-3.7-3.7-5.4-5.6a15.5,15.5,0,0,1-1.4-3.2l-2.2-.6-6.4-2.9-.4-.2c-4.2-.5-7.8-2.7-11.8-3.6l-7.2-1.1-7.6-1.2c-.7-.1-1.4-.9-2.1,0l-.7-.6c-.3.3-.6.7-.9.7-1.9-.1-3.9-.1-5.8-.3-3.5-.4-7-1-10.5-1.2a23.3,23.3,0,0,0-5.9.8c-2.7.7-5.2,1.6-7.9,2.4l-4.3,1.1a2.9,2.9,0,0,0-1.2.7,4.3,4.3,0,0,1,.1.5l4.9-.3a10.4,10.4,0,0,1,5.5,1c.3.1.8-.2,1.2-.1a21.9,21.9,0,0,0,3.6.3l8.6-.7c1.7-.2,3.5-.1,5.2-.4a14.7,14.7,0,0,0,3.3-1l9,1.5c.1.2.2.7.5.8l7.1,3.4a24.1,24.1,0,0,1,2.5.8c.4.2.7.7,1,1s-.9,1.1-1.4,1.1c-4,.4-8.1.6-12.1.9l-.7.2c-2,.6-4.1.3-6.1.4s-2,.2-3,.1a59.8,59.8,0,0,1-7.4-.9,54.4,54.4,0,0,1-5.4-1.5l-4.1-1.4c-.4-.2-.9,0-1.4-.1a2.4,2.4,0,0,1-1.3-.5,9.7,9.7,0,0,0-1.7-.1,14.2,14.2,0,0,0-2,.4,2.6,2.6,0,0,1-1.5,0c-1.2-.4-2.4-1.1-3.7-1.5a19.7,19.7,0,0,0-3.5-.6,11.4,11.4,0,0,0-4.5.1,90.8,90.8,0,0,1-9,2.2c-4.3,1.1-8.6.7-12.9.4a4.4,4.4,0,0,0-2,.1c-1.5.5-3.2-.4-4.7.2a13.1,13.1,0,0,1-2.7.5l2.3,1.7a17.7,17.7,0,0,0,.6-1.7l2.7,2.2a7.5,7.5,0,0,1-1.6,1.5l-3.8,1.3a2.2,2.2,0,0,1-2.3-.4c-.7-.6-2.2-.3-3.3-.1a9.5,9.5,0,0,0-2.4,1,8.9,8.9,0,0,0-2.2.3c-1.1.5-2.1,1.3-3.3,2a18.6,18.6,0,0,0,3.4.7l11.9,1.3c1.3.2,2.6.8,3.9,1.1h2.3c1.4.2,2.9.1,4.2.7s2.2,0,3.2-.2,2.4.2,3.6.1l1.9-.5c.3.8,2.4,1.4,3.9,1.2a22.8,22.8,0,0,1,4.5-.4l5.3.5c1.4.3,2.8-.1,4.1.9s1.5-.2,2.2-.2h6.4a15.5,15.5,0,0,0,2.1-.4h.2c1.8,1.1,3.8-.5,5.7.3-.1-1.3,1-1.2,1.8-1.4,2.6-.7,5.2-1.3,7.9-1.8s5.2-.7,7.7-1.1,2-1.2,2.7.2a8.7,8.7,0,0,1,5.7-.6c1.7.3,3.6,1.3,5.1.9s3.2.9,4.8,1l1.6-.3c1.9-.2,3.3,1.1,4.9,1.6a6.6,6.6,0,0,0,1.5.3h1.1c-.3.4-.5,1.1-.7,1.1a38.9,38.9,0,0,1-4.9-.4l-.5-.3c-.9,1.2-1.9.4-2.9.3l-11.2-1-4.6-.6c-.5,0-1.1.5-1.6.5h-3.8a5.4,5.4,0,0,0-4,1.6h-.6a12.5,12.5,0,0,0-7.1,1.2c-1.2.5-2.6.3-3.8.6-3.2.9-6.4,2.1-9.6,2.7s-4,.1-6,.1a17.1,17.1,0,0,0-3.8.3l5.2,1.6,3.7,1,7.8,1.9,6,1.8,3.9.8a29.6,29.6,0,0,1,3.1.3c1.1.1,2,.1,2.7-.9h.7l3.8.9c.1-.2.1-.5.2-.8h.3c.7,1,3.7,1,4.8.2a4.7,4.7,0,0,1,1.9-.6,29.2,29.2,0,0,1,6.6-.3c2.4.3,5.1-.3,7.5,1.4s3.2,1.2,4.8,1.8a18.1,18.1,0,0,1,3.3,2l3,1.9a8.1,8.1,0,0,1,1.2,1.4c.5.7.9,1.5,1.9,1.1h.5l4.6,2.8a12,12,0,0,0,2.1,1.3l5.1,2c1.6.7,3.1,1.6,4.7,2.2s3.7,1.5,5.6,2.1a14.6,14.6,0,0,0,3.6.3c.3,0,.6-.3.9-.4s2.1,1.4,3.4,1.7a20.9,20.9,0,0,0,4.3.4c2.7-.2,5.1,1,7.5,1.7a39,39,0,0,1,7.2,3.3c3.1,1.7,6.1,3.8,9.2,5.7a15.9,15.9,0,0,0,2,.7c1,.4,1.9,1,2.9,1.5s2.7.9,4,1.5l3.1,1.5a2.6,2.6,0,0,0,1.2.5c1.1-.1,2.1-.1,2.7,1.5s-1.3.9-2,.9c-4,.2-8.1.4-12.2.4a13,13,0,0,1-3.3-.7c-2.5-.5-5-.9-7.3-1.6a15.3,15.3,0,0,1-4-2.1c-1.5-1-2.8-2.5-4.5-3.4s-4.1-3.3-6-5.1-4.4-3.1-6.5-4.7c-.3-.1-.4-.4-.6-.3l-2.3-.4a8,8,0,0,1-2-.7,61.3,61.3,0,0,1-8.3-2.6c-4.2-1.8-8.3-4-12.5-6h-1.1l4.1,3.6c.8.6,1.7.9,2.4,1.5a2.5,2.5,0,0,1,.6,1.8c-.3.7-1.2,1.6-2.1.9s-4.2-1.9-6.3-2.5a80.6,80.6,0,0,0-8.8-1.7c-.4,0-.8.4-1.2.5-3,.4-5.6-.8-8.3-2a20,20,0,0,1-2.8-1.6l-1.5-1.4c-1.8-1.6-4-2.2-5.9-3.6s-4.8-4.6-8.2-5.2H472l-.9.2a37.6,37.6,0,0,1-10.6-.7c-3.2-.9-6.5-1.5-9.6-2.4s-6.4-2.3-9.6-3.3-5.5-1.2-8.3-1.9a56.9,56.9,0,0,0-5.9-1.6l7.1,5.7-1.7.7c1.2,1.4,2.5,2.6,4.7,1.5-.4,1.6.6,2.3,1.4,3.3,2.8,3,6.9,4.1,10,6.7s4.8,3.8,7.1,5.9a38,38,0,0,1,2.9,3.8,9.3,9.3,0,0,0,1.4,1.4c.9.9,2,1.7,1.7,3.2s0,.4,0,.5l3.8,7.7a3.8,3.8,0,0,0,.3,1,23.2,23.2,0,0,0,2.9,3.9c.7.8,1.6,1.4,1.3,2.6-2.5.7-4.1-.8-5.9-2.1a33,33,0,0,0-3.2-1.8l-1.2-1.1c-.5-.4-.5-1.4-1.5-.8H458c-1.1-2.8-4.7-2.2-6.2-4.6s-4.2-4.4-5.1-7.7-2.4-4.4-3.6-6.6-2.2-4.2-4.1-5.6a1.7,1.7,0,0,1-.6-1.2c0-2.1-.6-3-2.5-3.7a4.8,4.8,0,0,1-1.6-1.3l-3.2-3.1-2-1.9-3.1-2.4a17.7,17.7,0,0,1-2.7-2.8c-1.3-1.6-2.9-2.1-4.8-2.6s-2.9-1.4-4.4-1.5-3.5-2.1-5.7-1.3c-.2,0-.5-.5-.8-.7s-.5,1.4-1.5.5-.7-.5-1-.4c-3.6.6-6.9-.8-10.2-1.6a34.9,34.9,0,0,0-7.1-1.1l-6.1-.6,1-1.1-.3-.2c-1.4.6-2.9,0-4.5.3s-5.6,0-8.4-.1a22,22,0,0,1-3.6-.4l-4.3-1.4-.7-.2c-1.2.1-2.1-.1-2-1.7-1.3.4-2.9-.5-3.3,1.2H352v.3l-1.8-1.2.2-1-.3-.3-1.3,1.6c-.9-.2-2-.8-2.8-.6-2.6.7-5.2.3-7.7.6s-3.5-.4-5.2,0a38.3,38.3,0,0,0-4.3,1.7v-.2l-6.5,2,2.5,1.6c.3.2.8,0,1.2.1a36,36,0,0,1,4.4,1.2c.6.2,1,1.1,1.7,1.5s3.3,1.6,5,2.4a9.8,9.8,0,0,1,1.8.8c2.9,2.3,6.5,2.4,9.8,3.2,1.2.3,2.5.1,3.7.4s1.8.1,2.1-1.5a17.2,17.2,0,0,0,2,1.5,3.7,3.7,0,0,0,1.8.1c2.5-.6,5-1.7,7.6-1.9s4.9-.5,7.4.5,1.9,2.1.4,4h8.3c0,1,0,2.1-.1,3.2l-1.3.2c-.3,1.7-1.8,1.4-3,1.6a32.7,32.7,0,0,1-4.5.4c-.3.1-.5.4-1.1.9l12,.7c1.9,0,3.8-.3,5.8-.2a6.6,6.6,0,0,1,2.6,1.1,1.6,1.6,0,0,1-.1,2.7c-1.2.7-2.6,1.2-4.1,1.9l.8.5a56,56,0,0,0,5.4,1.7c1.4.3,2.2,1.5,3.2,1.9s1.9,2,2.6,3l-2,2.2L387,128.2l.9,3c.4,1.6-.2,3-1.4,3.3a2.7,2.7,0,0,1-1.3-.2,9.5,9.5,0,0,1-4.9-5.3,10.6,10.6,0,0,1-1.3,2.2c-.5.6-1.4,1.4-2,1.3a6.5,6.5,0,0,1-3.4-1.7,29.2,29.2,0,0,1-2.9-3.8l-2.3-2.7c-2.1-2.4-4.1-4.9-6.2-7.6a21.7,21.7,0,0,0,1,3.3,17.1,17.1,0,0,1,.9,3,20.9,20.9,0,0,1-.1,5.6c-.4,1.9-2,2.3-3.7,1a7.9,7.9,0,0,1-3.1-6.5,8.3,8.3,0,0,0-1.6-4,9.9,9.9,0,0,1-1.2-3c-.4-1.5-.3-3-2.1-3.7s-1.1-1.2.2-2.6c-2.1-.4-4.3-1.3-6.5-1.2s-5.1-1.4-7.4-2.6-1.9-1.2-3.4-1-2.7-.8-3.6-1.7a8.4,8.4,0,0,0-3.5-1.8c-.4-.1-.6-.7-.7-.9l-2.9-.4c-1.7-.5-3.3-1.2-4.9-1.8l-3.8-1.2h-.5c-.2,0-.4.3-.7.2-3.5-.3-7.1.1-10.6-1.7a15.3,15.3,0,0,0-6.6-1.7c-3.6.2-7.2-.4-10.9-.6l-1.8.2c.3.4.4.7.6.7,2.6-.2,4.3,1.7,6.1,3s1.4.2,2.1.7,4.2,1.7,6,2.9l1.9,1.5c2.1,1.7,4.5,3.1,6.5,4.9a10.7,10.7,0,0,0,4.1,2.1,8,8,0,0,1,1.9,1.3l10.3,6.6c1.7,1.1,3.2,2.6,4.9,3.6s5.5,2.8,8.2,4.2l5.8,2.9a21.4,21.4,0,0,0,5.5,1.5l10.3,2.6a52.6,52.6,0,0,0,5.3,1.5c.8.1,1.7-.5,2.4-.7l1.8,2.2c-1.2,0-2.2.2-3.1.1a35.5,35.5,0,0,1-4.7-.8l-7.7-2.2a1.2,1.2,0,0,0-.8-.1c-3.3,1.3-5.7-1.1-8.5-2a18,18,0,0,1-2.1-.8l-4.5-2.1-1.9-1.1a41.8,41.8,0,0,1-5.3-2.1c-1.9-1.1-3.7-2.4-5.5-3.6l-5.9-3.5c-.3-.2-.8,0-1.3-.1-.6-2.3-3.3-2.7-5-4.4l-.5,1-3.3-2.1c-3.1-2.2-6.7-3.4-10.1-5a16.4,16.4,0,0,1-4.6-2.7c-1-.9-2.5-1-3.3-2.4s-1.4-.4-2.1-.8l-3.8-2.2-3.1-1.6a37.4,37.4,0,0,0-9.2-3.3c-2.8-.6-5.7-.9-8.6-1.3l-7.7-.7-5.2-.6c-3.9-.3-7.7-.9-11.5-1.1s-7.4,0-11.2.2c-2,.1-4.1.6-6.2.9s-1.9.5-2.7-.5-1,0-1.5.1c-5.2.9-10.4,1.7-15.6,2.7a57.3,57.3,0,0,0-5.6,1.4l-3.7.7a63.7,63.7,0,0,0-7.5,2,61.3,61.3,0,0,0-8,3.3c-3.3,1.7-6.4,3.7-9.6,5.4l-5.8,2.8a30,30,0,0,0-3.7,2.5l-5.4,4.7a1.3,1.3,0,0,0-.3.9l7.6-.9,4.1-.5,2.8-.5a14,14,0,0,1,7.6-.4c1.4.3,2.9.3,4.4.7a32.4,32.4,0,0,1,4.1,1.3c2.6.9,5.1,2,7.7,2.8.5.2,1-.1,1.6-.2a13.6,13.6,0,0,1,1.7-.4,22.4,22.4,0,0,0,7.7-.7c3.2-.9,6.4-2.6,10-1.7a29.8,29.8,0,0,0,6,.4,4.3,4.3,0,0,0,2.6-1.1c.4.2.9.6,1.2.5a23.2,23.2,0,0,0,4.5-1.3c3-1.2,5.8-2.5,8.7-3.9l2-.9,4.8-1.3c3.7-1.2,7.4-2.6,11.3-3.7,1.5-.4,3.3,0,5-.2s4.3-.8,6.5-1,4-.2,5.9-.2l5.4.2c.4,0,1,.4,1,.6s0,2-.3,2.1c-3,1-4.8,4-8.1,4.2-1,.1-1.9,1.1-2.9,1.5s-4.9.7-7.3,1.2a16,16,0,0,0-2.3.8c-1.1-.6-2.5-.2-4,.3l-2.3.7-5,1.4-5.6,1.3a19.2,19.2,0,0,1-3.2.9c-1.7.2-3.4.2-5.1.3h-5.5c-.3.1-.5.3-.8.8l4,.8,5.4,1.1c1.9.4,3.8.6,5.7,1.1s3.4,1.1,5.1,1.6,1.2.1,1.8.3l5.7,1.8,5.6,1.3,3.6.5,1.2.2c2.4-.3,4.9.3,7.1-1.1,2.1,1,4.1-.4,6.1-.6s3.5-1.2,5.3-1.4a38.5,38.5,0,0,1,5.9-.1c.4,0,.7.5,1,.7,2.7-.9,5.4-1.2,8.1.3a3.4,3.4,0,0,0,1.7.3c1.1-.2,2,.3,2.9.4,3.1.2,5.8,2.2,9,2a47.8,47.8,0,0,1,8.4.8,6.4,6.4,0,0,1,1.8.6l.2-.4c.1.3.1.6.2.9l1.7-.5c.1.9.2,1.8.4,3h-3.9c-.1,0-.4-.1-.5,0-2.4,1.4-5.2,1.1-7.8,1.7s-3.3,0-4.9.2-3.8.6-5.7.7a51.9,51.9,0,0,1-5.6.1,55.1,55.1,0,0,1-7.1-.7c-3.5-.8-6.9-2-10.3-2.8s-4.8-1.2-7.2-1.6-7.9-.3-11.7-1.5-7.7-2-11.6-3l-13-3.2c-3.6-.8-7.4-1.4-11.1-2a10.4,10.4,0,0,0-1.6.1l3.8,4.2c1.9,1.7,3.7,3.5,5.7,5.1s2.3,1,3.3,1.7l4.1,2.6a17,17,0,0,0,3.9,1.8,24.3,24.3,0,0,1,7.3,3.4c.2.1.5.5.6.4,2-1.2,2.9.9,4.3,1.4l1.6.8c3.5,1.3,6.1,3.9,8.6,6.6s3.5,4,5.4,5.9a13.7,13.7,0,0,0,2.3,1.7l1.5,1.5a5.3,5.3,0,0,0,1,.6c.4.3.9.6,1,1a2.2,2.2,0,0,1-.6,1.3c-.3.2-1,0-1.3-.2s-2.2-1.5-3.4-2.1a26.1,26.1,0,0,0-4.2-1.6c-3.2-1-6.6-1.6-9.7-2.9s-6.6-2.6-8.7-5.8c-.9-1.3-2.5-2.1-3.6-3.3s-2.5-3.1-3.7-4.8a22.9,22.9,0,0,0-9.6-7.8,4.1,4.1,0,0,1-1.3-.8l-9.1-8.7a8.2,8.2,0,0,0-2-1.2c-2.3-1-4.2-3-6.9-3a18.5,18.5,0,0,0-2.3-.1l-5.3,1.4c-2.2.5-4.4.8-6.7,1.2l-1.4.3c1.1,1,1.9,1.8,2.8,2.5l4.2,3.3c.9.6,1.3,1.4.6,2.4s0,.7,0,1.2c-2.5-.6-5-1-7.3-1.8a42.6,42.6,0,0,0-13.1-2.4,25.4,25.4,0,0,1-11.2-2.8c-1.2-.6-2.2-1.5-3.4-2a10.7,10.7,0,0,0-4.1-1.5c-2.9-.4-6-1-8.7-.3s-3.6-.1-5.3,0a11.6,11.6,0,0,0-7.8,2.7,18.6,18.6,0,0,1-3.4,1.9l-.6.4c-.1,1.4-.9,2.1-2.5,2.1.1.2.1.4.2.5l4.3,1.7,3.4,1.5c3.6,1.8,7.1,3.6,10.8,5.2a13.6,13.6,0,0,0,5.1,1.5,51.3,51.3,0,0,0,9.6-1c2.7-.6,5.3-2.1,8-2.7a36.4,36.4,0,0,1,7.4-.4c.3,0,.8,1,.9,1.6a1.9,1.9,0,0,1-1.5,2.2c-2.6.8-5.2,1.5-7.9,2.1a41.7,41.7,0,0,1-4.9.8v.5h1.7l5.7-.7c1-.1,1.8-.6,2.8-.8a23.2,23.2,0,0,1,3.8-.6,29,29,0,0,1,5.9.1,13.3,13.3,0,0,1,4.2,1.9c.6.3-.1,1.7-.9,1.8a3.2,3.2,0,0,0-1.5.6h3.8a46.3,46.3,0,0,1,6.5,1c.5.1,1.1,1.2,1.1,1.9a1.6,1.6,0,0,1-1.8,1.8l-9.3.5c-.2,0-.4.1-.7.4l4.2.6c1.7.1,3.5-.2,5.2.3s4.3.3,5.9,2.1,2.1,1.3,3.2,2l1.1,1a6.7,6.7,0,0,1-1.4,1.9,3.1,3.1,0,0,1-1.9.3,41.8,41.8,0,0,1-5.1-.6c-.4,0-.6-.6-.9-.9l2.1-.2h4.7c-3.9-3-8-4.5-12.8-3.9A14.1,14.1,0,0,0,200,154c1.2.3,1.9.7,1.8,2l-5.3-1.8-2.4-1-.4.4,1.9,1.9c.7.9,1.7,1.6,2,2.6a7.6,7.6,0,0,1-.5,3.3,2,2,0,0,1-1.7.6c-2.4-.6-4.2-2.2-5.9-3.9l-3.2-3.4-1.2-.7c.2,2,.3,3.9.4,5.8l-.4.4a12.5,12.5,0,0,1-3-2.1,44.5,44.5,0,0,1-4.2-5.3,24,24,0,0,1-1.7-3.2l-.4-.7-.5.3c.3,1.3.7,2.6,1.1,3.9a3.3,3.3,0,0,1-.5,3.2c-.4.5-1.7.3-2.2.4-1.4-2.6-2.4-4.8-3.7-6.9a26.3,26.3,0,0,0-3.9-4.9,42.5,42.5,0,0,0-6-5.1c-1.2-.7-3-.4-4.3-1-2.8-1-5.4-2.2-8.1-3.3A104.3,104.3,0,0,0,136,131c-2.1-.6-4.5-.2-6.7,0s-5.7.7-8.6.9a15.4,15.4,0,0,1-3.1-.5,15.5,15.5,0,0,0,1.2,2.2c.1.3.5.4.8.5l7.2,2.6c.6.2.9,1,1.4,1.2l6.4,2.8.8.5c3.7,2.5,6.2,6.3,9.7,8.9l4.7,3.3c1.9,1.4,3.8,2.9,5.8,4.2a40.2,40.2,0,0,0,5.4,2.9c2.3,1.1,4.7,2,7.1,2.9a8.8,8.8,0,0,0,1.6.2c1.7.4,3.5,1.3,5.2,1.2s5.3,1.2,8,1.5c.6.1,1.1.6,1.7.7a41.5,41.5,0,0,0,4.8,1.1,17.9,17.9,0,0,0,4-.1c2.5-.1,3,.1,3.7,1.7l-7.7.8c0,.2.1.3.1.4a7.5,7.5,0,0,0-1.2-.7l-16.5-2.8c-1.7-.3-3.4-1.2-5.2-1.7l-5.8-1.6a5.4,5.4,0,0,1-1.9-.8,42.7,42.7,0,0,0-7.1-4.2,40.3,40.3,0,0,1-8.2-6.6,20.2,20.2,0,0,0-3.2-1.8l-4.7-2.7a70.4,70.4,0,0,0-12.2-6.3,67.1,67.1,0,0,0-6.8-3,17.6,17.6,0,0,0-6.1-.5,21.8,21.8,0,0,0,2.3.9,31.1,31.1,0,0,1,11.7,6.7,20.9,20.9,0,0,1,5.1,6c1.2,2.5,2.8,4.9,3.5,7.7a23.7,23.7,0,0,0,2.6,5.3c1.7,3.1,4.7,5.2,6.5,8.1s2.2,4.3,3.3,6.3a31.3,31.3,0,0,0,2,3,1.9,1.9,0,0,1,.2,1.3,2.8,2.8,0,0,1-1.1.5c-.4,0-.8-.1-.8-.5a25.1,25.1,0,0,0-3.7-3.6c-4.1-2.7-8.4-5.1-12.5-7.8-1.7-1.1-2.9-2.7-4.5-3.9a16.8,16.8,0,0,1-4.9-6.6c-1-1.9-2.2-3.8-3.3-5.7a40.7,40.7,0,0,0-3.1-5.3,32.7,32.7,0,0,0-8.8-8.6c-.6-.4-1-1-1.6-1.4a14.4,14.4,0,0,0-2.5-1.8,25.8,25.8,0,0,0-9.1-2.2l-9.8-1.4-7.5-1.3c-5.3-1.2-10.7-.7-16-1.4-2.5-.3-5.1-.9-7.6-1.3s-3.8-.4-5.8-.6c-3.8-.4-7.6-.9-11.4-1.2a51.5,51.5,0,0,0-5.5-.2l-12.5.4L5,130.5a42.1,42.1,0,0,1-5-.1v-.7l2.6-.3c.1-1.8,1.6-1.8,2.8-2a37.4,37.4,0,0,1,3.9-.5,12.7,12.7,0,0,1-2.1-1.4c-.2-.2-.5-.7-.4-.9a1.1,1.1,0,0,1,.9-.6l5.3-.7v-.5l-7-1.9a5.4,5.4,0,0,1,4.1-.2c1.2.4,2.3,1,3.6.2s1.5-.1,2.3,0c5,1,10.1,1.9,15.1,3S44,125.5,50.5,126c3.2.2,5.8-1.6,8.3-3.4s3.5-2.2,5.2-3.4a13,13,0,0,0,2.2-1.9,14.7,14.7,0,0,1,2.1-2.2c2.2-1.2,2.2-3.6,3.4-5.4s2.6-3.7,3.7-5.7A56.9,56.9,0,0,0,78,98.4l1.8-4.6a4.5,4.5,0,0,0,.5-2.5c-.4-3,.8-5.6,1.5-8.4a13.5,13.5,0,0,0,.4-2.9c.1-4.3.4-8.7.1-13s-1.2-6.1-1.6-9.2a43.6,43.6,0,0,1-.3-6.2c0-.2.4-.5.6-.7s.6.5.6.7c.3,2,.4,4.1.7,6.1s.5,2.6.7,3.9a50.3,50.3,0,0,1,1.3,7.6c.1,6.2,0,12.5-.1,18.7-.1,1.5-.3,3.1-.5,4.9a8.1,8.1,0,0,0,2.2,0l3.9-2.6c2.3-1.4,4-3.5,6.7-4.5a34.8,34.8,0,0,0,4.4-2.7l1.4-.5c1.7-.5,3.5-.7,5.1-1.3a3.6,3.6,0,0,1,3.8.7,32.8,32.8,0,0,1-5,1.7,16.5,16.5,0,0,0-6.7,2.8,24.4,24.4,0,0,1-2.8,1.4A9.9,9.9,0,0,0,94,89.2c-1.8,1.6-4,2.5-5.4,4.9s-3.4,2.5-4.9,3.9-3,2.4-3.5,4.5-1.7,3.2-2.6,4.7a13.8,13.8,0,0,0-1.8,3.9,10.1,10.1,0,0,1-3.5,5.6,11.3,11.3,0,0,0-1,1.3l-1.2,1.6-.8,1a6.7,6.7,0,0,1-.9,1.4l-4.6,4.8c2.3.9,4.3,1.3,6.3.6,4.5-1.5,9.2-1.8,13.8-2.3a13,13,0,0,0,5.1-2.2l1.3-.6a35.6,35.6,0,0,0,5.8-1.8,52.3,52.3,0,0,0,7.1-4.4c1.4-1,2.8-2.2,4.3-3.4v1.6c0,2,1.1,3.1,3.1,2.7a49.5,49.5,0,0,0,7.5-2.2,21.8,21.8,0,0,0,7-5.8,7.5,7.5,0,0,0,.6-1.3A39.4,39.4,0,0,1,132,95.9a57.3,57.3,0,0,0,4.9-8.2,20.6,20.6,0,0,1,3.6-5c1.3-1.1,3.2-1.4,4.8-2.2s6.2-3,9.1-4.8,4.4-3.4,6.6-5a20.8,20.8,0,0,1,2.4-.6,41.9,41.9,0,0,1-1.5,5.7,28.2,28.2,0,0,1-2.4,3.6c-.1.2-.4.4-.4.6-.4,2-2.1,2.9-3.3,4.2s-.9,1.4-1.5,2.1-3.3,4-5.2,5.8-4.8,4-7.3,5.9a16.3,16.3,0,0,1-2.3,1.1,20.1,20.1,0,0,0-3.3,1.6,30.6,30.6,0,0,1-6,3.8c-1.8.9-2.7,2.8-3.5,4.8s-2.4,3.8-3.6,5.7c2,.7,4.1,1.8,6.8,1.3s3.3.2,5,.3l7.5.4a8,8,0,0,0,4.8-1c1.4-.9,3-1.5,4.3-2.5s2.2-2.1,3.4-3.2a16.4,16.4,0,0,1,2.5-2.1,5.7,5.7,0,0,0,2.2-1.9c1-1.2,2.3-2.3,3.4-3.5a8.6,8.6,0,0,0,1.4-1.3l2.6-3.6c.9-1.3,1.9-2.6,2.7-4s2.2-4.3,3.4-6.4,1.8-2,1.2-3.6.3-.7.5-1,.9-3.5,1.6-4.9.8-3.9,1.4-5.8,1.1-3.5,1.7-5.2.4-.7.6-.7,1.3-.9,1.5-1.7a24.2,24.2,0,0,0,1.4-5.1c.1-2.9,1.8-5.2,2.6-7.9.1-.5.7-.9,1.1-1.4,2-2.5,3.8-5.2,6-7.5s1.8-3.9,3.2-5.6l4.4-5.1c.6-.6,1.4-1,.5-1.9l1.9-.8c.7,2-1.1,2.9-2,4.2s-3.5,5.6-5.4,8.3-3.7,6.4-6.6,9a9.3,9.3,0,0,0-2.9,5.1c-.2,1.2-.9,2.2-1.2,3.4s-.7,3.7-1.1,5.5-.1.9-.4,1.2a2.5,2.5,0,0,0-.7,2.7c.1.3-.2.7-.3,1.1a18.3,18.3,0,0,1-1.4,3.5c-1.3,2.1,0,4.7-1.6,6.7s-.2,1.7-.4,2.5-1.5,3.8-2.3,5.7-2.1,5.7-3.3,8.5a15.9,15.9,0,0,1-1.8,2.7l.3.4,3-1.4c3.2-1.3,5.1-4.1,7.5-6.4s3.6-3.1,5.3-4.8a47.1,47.1,0,0,0,3.5-4.1l-.9-.6c.8-1.4,1.4-2.9,2.2-4.3l1.1-1.6a13.8,13.8,0,0,0,2.8-7.5c.2-1.4,1-2.4,1.4-3.6a41.1,41.1,0,0,1,2.8-6c.1-.3.6-.3.6-.6l.9-2.8c1-3.2,3.8-5,5.8-7.3a22.1,22.1,0,0,1,4.9-3.6l3.4-2.3,4.2-3.2c.7-.6,1.2-1.5,1.9-2.2l4-4.1,1-1.3c.2,1.4.5,2.5.7,3.6s-2.6,3.3-3.7,5.1-.5,2.2-.8,3.3a11.5,11.5,0,0,1-1.4,2.7c-1.4,1.8-3.3,3-4.2,5.3s-2.2,2.7-3.6,3.7a16.1,16.1,0,0,0-4.4,5.4,23,23,0,0,1-5.2,6c-1.2,1.2-2.1,2.8-3.4,3.9-3.1,2.7-4.8,6.2-6.3,9.9l.3.4,4.3-2.8,1.7-.9,4.6-2.7,3.9-2.1,6.5-4.1.9-.4,8.8-.7a3.9,3.9,0,0,1,1.1.3h2.5c2.3.2,4.6.6,7,.6s1.5.6,1.7,2c-5.5.1-10.1,3-14.9,5.5.7,2.1-1.4,2.4-2.5,3a23.6,23.6,0,0,1-6.9,2.4c-4.4.9-8.9,1.3-13.4,1.9l-1.6.4c-.8.3-1.6,1.1-2.5.3-1.5,1.3-4.4.1-5.2,2.3s-2.7,2.4-3.6,3.4v3.7h.6c3.3-1.5,7-1.2,10.5-2s7.8-.8,11.6-2.2c1.3-.4,2.8-.1,4.1-.3a29.9,29.9,0,0,0,3.2-.9l11.3-3.8,3.2-1.4c1.5-.6,3.1-1.2,4.8-1.7s3.3-.9,4.8-1.6a21.2,21.2,0,0,0,3.8-2.9l2.1-2.1c2.3-2.1,4.7-4.2,5.4-7.4s.8-4.5,1.3-6.7a33.2,33.2,0,0,1,4.5-10.4c1.3-2,2.8-4,4.3-6,1.3.8,2.3,3.3,2,5.3s-1,5.5-1.7,8.1-2.1,5.7-3.2,8.8a7.6,7.6,0,0,0,1.6-.6,42.3,42.3,0,0,0,9.3-8.1,12.3,12.3,0,0,1,6.2-3.7,12.6,12.6,0,0,1,6.4-.5c.8.1,1.8-.5,2.7-.8v-.4l1.4.6c.1.7.2,1.6.4,2.5l-4.5,4c-1,.9-2,1.9-3,2.7a55,55,0,0,1-5,3.4,46.3,46.3,0,0,1-5.4,2.9c-2.4,1.1-4.9,2-7.3,3l-1.2.5a5.9,5.9,0,0,1-.5-1.3l-3.9,2a8.5,8.5,0,0,1-2.2.4c-1,0-1.8.1-1.9,1l-9.4,6.8.3.5,7.9.7,10.4.8c2.5.2,5.1.6,7.5.2s2.9.2,4.4-.5,3.3-.6,4.8-1,4.4-1.4,6.6-2.1a16.6,16.6,0,0,0,2.7-1.3c.2-.2.2-.7.3-1s2,.2,1.8-.9l1.6-.5,1.9-1.5,3.7-3.3c.2-.2.3-.5.4-.5a1.7,1.7,0,0,0,1.6-2,28.3,28.3,0,0,1,.2-2.9c.6.1.8-.3,1.2-1.3,1.2-3.4.3-6.9,1.2-10.3a34.9,34.9,0,0,0,.6-6.5,7,7,0,0,0-.6-1.7c-.5-1.4-.6-3.1-1.5-4.3a8.3,8.3,0,0,1-1.5-4.8,54.3,54.3,0,0,0-.2-5.7c-.2-1-.7-2-1-3-1.1-3-2.1-6.1-3.2-9.2-.4-1.3-1.3-2.3-1.6-3.7a54,54,0,0,0-1.8-5.7c-.1-.3-.1-.8-.4-.9s-.6-1.6,0-2.4-2-.6-1.2-2.1.1-.6,0-.8,0-2.1,1.3-3a9.2,9.2,0,0,1-.1,1.8c-.2,1.9.8,3.3,1.5,4.9s1.2,4.4,2,6.5,1.8,3.8,2.7,5.7l3.5,8.1a2.7,2.7,0,0,0,.6,1.2c1.1,1.1.5,2.6.9,3.9a56.9,56.9,0,0,1,1.6,5.9,43.8,43.8,0,0,1,.4,5.1c0,.2,0,.6.2.7s1.4,3.5,1.9,5.3.5,4.3.8,6.5c0,.3-.1.7-.1,1.1a34.4,34.4,0,0,0-.3,4.6,5.3,5.3,0,0,0,3.8-4.6,6.1,6.1,0,0,1,1.4-2.9c.9-1.1,1.9-2,1.4-3.6s.2-.5.3-.5c2.1-.2,2-2.3,1.9-3.2s1.3-4,1.9-6,2.5-2.8,3.2-4.3,3.4-3.7,4.6-5.9a6.2,6.2,0,0,1,2.3-1.9,17.7,17.7,0,0,0,5.1-4.7c1-1.3,1.9-2.7,3-3.9a9.4,9.4,0,0,1,2.8-2.1c1.2-.6,1.7-.2,1.8,1.1s-.7,3.8-1.5,5.5-1.6,3.4-2.2,5.1.4,1.4.3,1.9a6.8,6.8,0,0,1-1.3,3.2c-1.4,1.3-2.1,3.3-3.1,5s-2.6,4.4-5.9,4.6l1.4.8c-1.6,1.3-3,2.6-4.6,3.8s-5.1,3.4-7.4,5.5-2.4,3.4-3.6,5.2-.8,2.6-2.7,2.1c-.1,0-.4.3-.5.5-.6,2.7-3.1,3.6-4.6,5.4s-1.3,2-2,2.9a8.8,8.8,0,0,0-1.2,1.9l2.3-1.1,6.8-3.5c1.8-1,3.3-2.6,5.2-3.3s3.9-3.5,6.8-3.5c.6,0,1.1-1,1.6-1.5l3-3.1.6-.6c.5-.3,1.3-.6,1.3-1,.3-2.6,2.9-3,4.1-4.7,2.6-3.6,6.4-6.5,7.6-11.1a12.6,12.6,0,0,1,1.9-2.8,9.5,9.5,0,0,1,1-1.7l2.9-2.7c2-1.7,4-3.3,5.9-5.1a27.6,27.6,0,0,1,7.2-5.5,28.1,28.1,0,0,0,4.8-3.5c.7-.5,1.1-.7,1.6.2s.9,2-.2,3.2-2,3.4-3.1,5.1l-1.6,2-3,5.4-.9-1.1-4.2,5.8c-.4.5-1.2.9-1.7,1.4a15.4,15.4,0,0,0-1.7,1.9c-1.7,2.7-4.4,4-6.8,5.7s-4.9,3-7.3,4.6a11.4,11.4,0,0,0-1.9,1.9l-3.5,3.8,1-.4c2.1-2.2,5-3,7.7-3.9a65.9,65.9,0,0,0,8.8-3.2,17.6,17.6,0,0,0,3.4-2.7l.5-.5a31,31,0,0,1,4.7-2.6c2.8-1.2,5.9-1.1,8.9-1.5s5.7.4,8.5.7a6.2,6.2,0,0,1,1.9.7l2.4-.4,6-.2c.7,0,1.9.1,2,.5a3.9,3.9,0,0,1,0,2.4c-.2.4-1.1.4-1.7.6l-1,.3-6.1,2L375.8,48v1l-15,6.9a13.1,13.1,0,0,0-3.1-.4c-3.2.1-6.4.2-9.6.6s-6.8,1.2-10.2,1.8c-1.3.3-2.6.8-3.9,1a29.9,29.9,0,0,1-3,0,7.5,7.5,0,0,1,.2,1.1l-4.6,1c-.9.3-1.6,1-2.4,1.3a6.5,6.5,0,0,1-2.2.5c-.2,2.2-2.4,2.4-4,3.4l-5.2,3.1-2.5,1.1a5.5,5.5,0,0,0-1.4,1.2c-.7.6-2,.7-2.9,1.1l-3.4,1.4v.7a16.8,16.8,0,0,0,3.2.9,6,6,0,0,1,1.9.6,19.1,19.1,0,0,0,4.8.5,13.6,13.6,0,0,0,3.5-.1c2.8-.7,5.8-.1,8.6-1a27.3,27.3,0,0,1,5-.6h1.8c.8-1.3,2.5-.8,3.9-1s4.4-.3,6.6-.4h8.3c1.7-.1,3.4-.5,5-.5l6.7.2c.2.1.5-.1.7-.1,3.2-.4,6.3-.6,9.4-1.1,1.4-.3,2.6-1.4,3.9-2.2a3,3,0,0,0,1.4.2c2-.3,3.9-.7,5.9-1.2a3.9,3.9,0,0,0,1.5-.6,57.4,57.4,0,0,1,5-3.6c2.6-1.5,3.9-3.9,5.1-6.5.2-.5.9-.7,1.2-1.3s.8-2.7,1.6-3.8a15.3,15.3,0,0,1,3-2.7,4.9,4.9,0,0,1,1.5-1,5.5,5.5,0,0,1,2.7-.6c.5.1,1,1.3,1.1,2,.3,2.8-1.2,4.6-3.3,6.3a24.5,24.5,0,0,0-3.8,4.6c2.1-1.4,4.8-1.8,5.8-4.5,2.3-.6,1.7-3.3,2.9-4.2s1.3-2.8,2-4.2a5.3,5.3,0,0,1,2.4-2,3.6,3.6,0,0,0,1.9-2.4c.3-.6.4-1.9,1.8-1h.5l1.3-.5a13.6,13.6,0,0,1,.4,1.7c-.1,1.2-.3,2.3-.6,4l2.3-2.7a5.9,5.9,0,0,1,1.3-1.8c1.3-1.1,1.6-2.6,2.1-4s1-2.2,2.4-2.5.8-.7,1.3-.8,2.7,1.5,1.9,3.7c.3,0,.6.1.8-.1a37.9,37.9,0,0,1,4-3,13,13,0,0,1,4.2-1.4,2.1,2.1,0,0,1,2.3,1.7,2.5,2.5,0,0,1-1,2c-2.5,2-5,4-7.7,5.8a15.3,15.3,0,0,1-3.2,1.3V47l5.7-.3.9,2.9c-2.2.4-3.5,2.8-5.9,1.6L427,52.5h.9c.2,2.7-1.6,4.2-4.4,3.9a55.8,55.8,0,0,0-10,.1c-1.8.2-2.6,1.6-4,2.1s-.9.6-1.8-.1l-4,2.5v.5l9.3-1.3c-.1,1,1.7,1.6.5,2.8a26.6,26.6,0,0,1-2.4,2.3l2,.7c-2.1.8-4.3.9-5.9,2.7a23.9,23.9,0,0,0,4.2-.4c1.3-.2,2.4-.9,3.6-1.2l5.9-1.1a2.7,2.7,0,0,0,2.3-1.3c.3-.6,1.5-.7,2.3-1l3.1-1c1.1-.4,1.4-.8,1.6-2.4h.2c1.1,0,1.1,3.2,3.2,1s2.5-.7,3.3-2,.6-.3.8-.5a3.9,3.9,0,0,0,1.1-.6c.1-.1.1-.4.2-.5l4.5-2.9,6.1-4.2c2-1.3,4-2.7,6.1-3.8a63.7,63.7,0,0,1,6.1-2.3l3.7-2c1.1.2,3.4-1,4.1-2.8a4.8,4.8,0,0,0,.4.8l1.2.4a5.5,5.5,0,0,0,1.8.1c.2,0,.2-.7.3-1.3l2.3,1.2c.2,2.3,0,2.4-2.3,2.7a34.1,34.1,0,0,0-4.6,1,2.3,2.3,0,0,0-.9.6,8.6,8.6,0,0,0-2.4.4l-7.4,3.4a47.6,47.6,0,0,0-4.9,2.8c-2.4,1.6-4.9,3.2-7.2,4.9a2.5,2.5,0,0,0-1.3,2.6c-.3.1-1,0-1.4.3s-2.8,2.2-4.3,3.4l-3.3,2.5-4.4,3.3c-.4.3-1,.3-1.5.7l2.5.2,10.3,1.4c1.4.2,2.9-.2,4.3.2a47.6,47.6,0,0,1,5.2,1c1.4.5,3.2-.1,4.8-.2h.7l3-.7a18.4,18.4,0,0,0,2.5-.9c.2-.1.6,0,.8-.2,2.6-2,5.2-3.9,7.7-6,.6-.5.8-1.7,1.1-2.5a28.5,28.5,0,0,0,1.1-3.9,10.3,10.3,0,0,0-.4-3c-.2-.7-.3-1.1.6-1.6s2.1-3.6,1.4-4.7c2.2-1.2.9-3.4,1.5-5.2s.2-2.9.5-4.3,1.1-4.9,1.7-7.3c.1-.3.6-.5.9-.8l3.1-3,2.7-2,3.5-3.7c.3-.4.9-.9.8-1.2s.9-2.1,1.5-3a1.8,1.8,0,0,1,1.6-.3c.4.1.7.9.6,1.3a7.3,7.3,0,0,1-.7,2.4,36.2,36.2,0,0,1-1.3,4.7,56,56,0,0,0-1.7,5.4c-.7,2.5-2.4,4.7-3.6,7.1a19.2,19.2,0,0,0-2.5,4.4,11.7,11.7,0,0,1-2.4,3.8,59.9,59.9,0,0,0-3.8,4.7,7.4,7.4,0,0,0-.5,1.9c-.4.7-1.3,1.5-1.3,2.3a17.7,17.7,0,0,1-1.4,6.9c0,.1-.1.3-.1.4s.1.2.3.6a9.5,9.5,0,0,0,1.7-1,20.3,20.3,0,0,0,2.6-1.8c.3-.2.5-.8.8-1.1l5.9-6.3.7-.5a4.5,4.5,0,0,0,1.4-1c2.3-3.3,4.5-6.8,7-10.1s2.9-4,4.4-5.9a5.8,5.8,0,0,1,2.6-1.8c2.3-.8,3.9-2.6,5.8-3.9a15.4,15.4,0,0,1,3.4-1.7l2.2-1.4a12.3,12.3,0,0,1,2.6-1.2,8.1,8.1,0,0,1,4.7-2.6,3.9,3.9,0,0,0,2-1.4c1.3-1.2,2.9-1.7,4.3-1a3,3,0,0,1-2.1,3c-2.6,1-4.1,2.8-5.5,5,0,0,0,.2-.1.2l-6.3,4.7a30.9,30.9,0,0,0-3.9,3.3c-2.4,2.3-4.6,4.8-6.8,7.3a14.8,14.8,0,0,0-1.3,2.1c-1.5,2.5-4,4-6.4,5.4s-2.8,2.2-4.3,3.2l-5.5,3.5c-1.4.9-3.1,1.5-4.1,3.1s-2,1.8-3,2.7a2.6,2.6,0,0,0,3.3.9c2.2-1.1,4.5-.6,6.7-.8.6-.1,1.2-.8,1.8,0a8.6,8.6,0,0,0,1.3-1.4c1.2,1,3.8.9,4.4-.2l2,.6a7.8,7.8,0,0,0,.3-.9,67.5,67.5,0,0,1,8.4-2.7c1.9-.4,3.1-1.6,4.6-2.4a44,44,0,0,0,5.6-3.1l7.7-5.3a25.1,25.1,0,0,0,4.4-3.5c1.3-1.6,3-2.7,3.8-4.7s2.3-2.7,3.5-3.9c2.8-2.6,5.4-5.4,8.5-7.6s5.1-4.7,8.6-5.6c1.2-.3,2.4-.3,3.6-.5s2.3-.1,3.3-.3a7.1,7.1,0,0,0,1.8-.8l2.1.6c.4-2,2.4-1.7,3.8-2.4l1.2,1.7a18.2,18.2,0,0,1-2.3,1.5,54.4,54.4,0,0,0-6.7,3.7,21.9,21.9,0,0,1-4.1,2.6c-1.4.7-2.3,2.3-3.6,3.4s-1.4,1.9-2.8,1.2c-.5,1.3-.7,2.7-2.5,2.9-.6,2.2-2.8,3.3-4.5,4.9s-5.4,4.5-8.2,6.8a8.5,8.5,0,0,1-4.1,2.1c-1.8.3-3.4,1.6-5.1,2.4s-3.3,1.2-4.9,2-4,1.4-5.6,3.6c2.6,0,4.9.1,7.1,0a58.1,58.1,0,0,1,11.7,1.2c2.3.4,4.9-.3,7.3-.5a19.6,19.6,0,0,0,4.2-.9,21.4,21.4,0,0,0,3.2-2c.2-.1.4-.4.6-.3,2.4.2,4.2-1,6.3-2s3.8-1.5,5.6-2.4l6.7-3.1c.2-.1.4-.3.5-.2s1.7-.7,2.4-1.1a24.8,24.8,0,0,1,3.5-1.3l4.4-1.7.7-.2,7.5-.4c.4,0,.9-.4,1.4-.6l.7,1.6c.2-2.1,1.4-1.9,2.4-1.9h7c.3,0,.7-.4,1-.5,1.9-.8,2.8-.3,3.4,1.9-2.5,1.1-4.9,2.1-7.3,3.4s-2.4.2-2.9,1.6-.2.1-.3.2c-3.7.9-7.1,2.9-10.5,4.4-.4.2-.9,0-1.2.1l-1.4.5a26.1,26.1,0,0,1-8.8,1.8c-4.3.1-8.5,1-12.8,1a10.3,10.3,0,0,0-3.9.3c-2.1.8-4.2,1.8-6.3,2.7h-.6a58.2,58.2,0,0,1-7.9,1.6,29.9,29.9,0,0,1-7.3-.4c-2.8-.2-5.5-.8-8.3-1.1s-3.1.1-4.7.1-.8-.5-1-.6l-2.4,1.2v.4l2.2.4a2,2,0,0,1,1.1.6c1,1.2,2.3,1.3,3.6,1.6a18.6,18.6,0,0,1,2,1,26.4,26.4,0,0,0,8.8,1.2c1,0,2,.5,3,.5a23.2,23.2,0,0,0,3.8-.5,20.7,20.7,0,0,1,4-.9,48.2,48.2,0,0,1,9.3.1c2.1.2,4.1,1.6,6.3,2.1s3.1,2.1,5.2,1.6c.4-.1,1.7.9,1.7,1.4s-.7,1.4-1.9,1.4a30.3,30.3,0,0,0-5.1.9h-1.2c-.8-.1-1.6-.6-2.2.5h-.2c-2.6-.1-5,1-7.5,1.5h-.1c-1.5-1.4-3.2.1-4.8-.4s-3.5-.1-5-.7-4.3-.8-5.8-2.6-1.5-.5-2.2-.7-3.9-1-5.8-1.7-.8-1.2-1.3-1.6a15.4,15.4,0,0,0-3.1-2.1c-.9-.5-1.9-.6-2.8-1l-3.4-1.6a9.4,9.4,0,0,1-3-.1c-2.2-.9-4.3-.3-6.4.3s-7.1,2.4-10.8,3.6c-2,.6-3.9,1.8-6.2,1.8s-3.3.5-4.9.7l2.3-2.1-4.9.9a4.3,4.3,0,0,1-.1.5l2.7.7c-1.2.7-2.5,1.4-4,.5l1.1-1.5-9,1.5,1.4,1.2-3,1.5v-.2l-4.5.4c0,.3,0,.5.1.5h11.3a18.6,18.6,0,0,1,3.4.4l8.5,1.5a21.3,21.3,0,0,1,2.5.3l6.8,1.6,3,.8,6.9,2c2,.5,3.9,1.2,5.8,1.6s4.7.5,6.8,1.2l2.7.9,4.4,1.6,7.8,2.8a35.9,35.9,0,0,1,3.4,1.7,9.1,9.1,0,0,0,.6-1.1c1.8,2.2,4.1.8,6.2.9a5.7,5.7,0,0,0,4.1-1.6,3.5,3.5,0,0,1,3.9-.6,27,27,0,0,1,2.9-1.5c2.4-.9,4.1-2.6,6.5-3.6s5.1-1.1,7.7-1.7l1.3-.5,2.6-.8L576,78l6.7-2.4c0-.2.1-.5.2-1.1s.5.3.6.5,1.2,1,2.1.1a9.6,9.6,0,0,1,2.5-1.2l1.6-1c.6,2,1.8.3,2.6.1a20.5,20.5,0,0,0,3.9-2l3-1.8a11,11,0,0,0,1.5-1.6l2.7-.9c.7-.3,1.3-.8,1.9-1s3.8-.8,5.8-1.2,4-.9,6.1-.1,1.9-.2,2.8-.2h10a3,3,0,0,1,1.3.6l1.7-1.2c.3.8.5,1.5.8,2.6l-2.6-1.2.4,1.2a9.3,9.3,0,0,0-4.7-.3,33.4,33.4,0,0,1-4.5.1c-2.1,0-4.2,0-6.3.2a23,23,0,0,0-2.8.6,19.3,19.3,0,0,0-4.2.6,36.4,36.4,0,0,0-5.7,2.5,11.4,11.4,0,0,0-2.8,2.1,13.9,13.9,0,0,0-1.9.6L596.2,74c-2.2,1.2-4.5,2.5-6.8,3.6s-3.2,1.2-4.8,1.8L582,80.5v.4l3.6.6a27.4,27.4,0,0,1,2.8.5c2.1.8,4.5,1.3,6.2,2.7s3.9,1.4,5.6,1.1,4,0,6-.4,3.3.3,5,.3,4.2-.2,6.2-.4,3.1-.7,4.6-.6a20.4,20.4,0,0,0,7.8-1.4h.5c1.4-1.6,3.7-1.4,5.4-2.5s3.2-1.9,4.7-3,1-1.5,1.6-2,2.6-1.3,3.8-2c2.7-1.6,5.7-1.9,8.7-2.3a47.7,47.7,0,0,0,5.1-1.3l4.7-1a5.1,5.1,0,0,0,1.7-.7,3.1,3.1,0,0,1,2.8-.6c1,.3,2.2-.1,3.4-.1l7.8-.4c1.1-.1,2.2-.6,3.4-.8s1.6-.3,1.9.7.3,1.3.1,1.5a6.7,6.7,0,0,1-1.7.7,2.1,2.1,0,0,0-.8,0L679.1,71c-3.2,1.3-6.3,2.7-9.5,3.9s-4.5,1.4-6.7,2.1-1.9.8-2.9,1-3.3,2.1-5.6,1.9-2.4,1-3.7,1.6c-2.9,1.4-6.1,1.3-9.3,1.8s-4.7.3-7,1.4-2.3.3-3.6.3v.5l3.9.6,7.6.7,10.1.9h.6a7.7,7.7,0,0,1,3.7-.3c1.1.2,2.4-.6,3.7-1.1s3.9-2.1,6-2.5,3.9-1.8,6.1-2.1a36.1,36.1,0,0,0,6.4-1.9c1.4-.4,2.8-1.3,4.3-1.4a10.7,10.7,0,0,0,5-1,7.8,7.8,0,0,1,3.4-.1l5.4.6a57.5,57.5,0,0,1,8.3,1.4A16.4,16.4,0,0,1,713,83a12.7,12.7,0,0,0,6.2,3.2c.5.2.8,1,1.2,1.5a4.7,4.7,0,0,1-1.5.6l-5-.3-11.4-1.2a19.4,19.4,0,0,0-2.4.2h-3.8a4.3,4.3,0,0,0-1.4.4l-.4-.7c-.2,0-.3,0-.3.1-.9,1.8-2.7.9-4,1.3l-4.3.7a30.3,30.3,0,0,1-3.2.6,84.7,84.7,0,0,1-8.8,1.2,66.8,66.8,0,0,1-10,.2c-1.7,0-3.4-.9-5.1-1.1s-4.2-.1-6.2-.2h-6.4l-6.9-.6-4.9-.5c.2.4.2.5.3.5,2.1.8,4.2,1.8,6.4,2.4s6,1.6,9,2.3l7.1,1.7a30.7,30.7,0,0,0,5.2.6,19.5,19.5,0,0,0,3.4-.3,1.9,1.9,0,0,1,.8.3,16.3,16.3,0,0,0,5.3,1.2c2,.2,3.9.9,5.9,1.3a42.6,42.6,0,0,1,4.9,1c1.5.5,3.1.4,4.6.8a63.2,63.2,0,0,1,6,2.5c.3.2.8,0,1.2-.1l2.6-.8c0-1,1.3-1.8,2.4-1.6a3.7,3.7,0,0,0,1.8-.2c1.3-.4,2.5-1,3.7-1.3s3.1-.8,4.6-1.2h.8c2.7.4,4-1.3,5.3-2.9l2.4-.9c.3-.1.5-.4.7-.4,1.7,0,3.3.2,4.7-1.2a9.5,9.5,0,0,1,2.8-1.7,13.5,13.5,0,0,0,3.9-2.1l1.6-1c.3-.2.4-.6.7-1.1h.2a14.9,14.9,0,0,1,3.2-2.3c1.4-.6,3-.6,4.5-1a17.8,17.8,0,0,0,3.6-1.4,3.6,3.6,0,0,1,3.2-.1,39.3,39.3,0,0,1,4.6-1.8,57.7,57.7,0,0,1,9.3-2.4c2.8-.5,5.7-1.7,8.7-.6.6.3,1.6-.1,2.4-.2a4.8,4.8,0,0,1,4.1,1.1c-1.5,1.8-3,.2-4.5.3h-5.7l-.7.6A3.4,3.4,0,0,0,764,78a41.4,41.4,0,0,0-7.9,1.9l-6.9,2.5c-2.5,1-5.2,1.6-7.8,2.4-1.1.4-2.6.9-3,1.8s-1.6.8-2.5,1.2-3.1,1.5-4.6,2.4a47.4,47.4,0,0,0-5.1,3.7c-.3.3,0,1.2,0,2l-.9-1.1L716,99c1.3,1.6,3.2,1.8,4.1.4,1.2,1.6,1.9,1.7,3.6,1l8.3-3.2c1.5-.6,2.8-1.5,4.2-2.2,3.2-1.6,5.8-4.2,9.5-4.8,1.4-.3,2.6-1.4,4-1.7s3.8-1.6,5.9-.6c.3.2,1-.2,1.4-.2h4.2l6.6.6,3.8.2c.4,0,.9,0,1.1.2s2,.6,3,.8,3.1-.6,4.5-1.4l1.8,1.4c-.6.6-1.1,1.7-1.7,1.7s-1.8,1.3-1.9,2.6c-1.5-1.1-2.9-.7-4.5-.1s-4.9,1.5-7.5,2.2a65.7,65.7,0,0,1-9,2.2c-4.7.7-9.4,1.3-14.2.3a37,37,0,0,0-5.9-.3c-.2-.8-.8-1.3-1.8-.2a4.1,4.1,0,0,1-1.5.7,22.5,22.5,0,0,1-2.1,1.2l-2.7.9a33,33,0,0,0-3.1,1.9l4.3.9,4.7,1.1c.7.2,1.5.6,1.1,1.5a1.8,1.8,0,0,1-2.3,1.1,11.8,11.8,0,0,0-2.7-.2l-1.4-.2c-4.6,0-9.2.1-13.7,1.7-.5.2-1.2.1-1.9.4,1.3.6,2.2,2,3.9,1.5.2-.1.6.1.8.2l1.9.8,2.2.8c.4-.7,1.1-.8,2,.1s1,.4,1.6.4l4.6.4a6.1,6.1,0,0,1,2.8.8c1,.6,1.8.3,2.7.3a12.1,12.1,0,0,1,3.8,0,11.4,11.4,0,0,0,7.7-.9,11.4,11.4,0,0,1,3.7-.5,39.7,39.7,0,0,1,4.8-.7c2.4-.2,3.8-2.2,5.8-3.1l1.9-.7c1.2-.7,2.2-1.7,3.4-2.3a85.6,85.6,0,0,1,9.3-4.2c1.6-.5,2.9-1.5,4.4-1.9a27.1,27.1,0,0,1,10.2-1,32.1,32.1,0,0,0,6.9-.5c.8-.1,1.4-.1,1.6.6a5.2,5.2,0,0,1-.1,2.1c0,.1.4.6.4,1s-.8.5-1.2.7-1,.1-1.5.3c-2.9,1.2-5.8,2.6-8.7,3.6s-3.2,2.2-5,3a9.4,9.4,0,0,0-1.5.6,6.5,6.5,0,0,1-1.7.8c-1.2.3-2.5.4-3.6.8a20.2,20.2,0,0,0-3.4,1.4l-5.1,1.9a6.3,6.3,0,0,1-1.9.3c-1.5-.2-3,.9-4.5,0a1.4,1.4,0,0,0-1.1.2,3.6,3.6,0,0,1-3.1.7c-.9,0-2.2.9-2.6.5s-2.5.4-3.8-.2-2-.1-3.5-.1a9.3,9.3,0,0,0,6.6,2.7c1.7,0,3.1.7,4.7.8a4.9,4.9,0,0,1,2.1.3c1.8,1,3.8,1.3,5.6,2s5.1,1.1,7.8,1.2,5.1-.7,7.7-1,5.6-1.5,8.5-2.3,5.6-3.4,8.3-5.3,2.8-2.2,2.7-3.8,2.3-1.5,3.3-2.3a14.6,14.6,0,0,0,2.1-2.8c1-1.3,1.8-2.6,2.7-3.9a13.1,13.1,0,0,1,1.2-1.1c-.4-1.4.8-2.4,1.7-3.5a54.6,54.6,0,0,1,9.6-8.4,29.3,29.3,0,0,1,3.9-2.1,8.4,8.4,0,0,1,2.4-1.4,20.8,20.8,0,0,1,5-.7,14.2,14.2,0,0,0,7-1.7c.3-.1.5-.5.7-.7,1.9,1.5,1.9,1.7.1,3.3s-1.2,1.5-2,2a96.5,96.5,0,0,1-8.1,6.2c-.9.7-2.2,1-3.2,1.7a21.6,21.6,0,0,0-4.3,3.7,26.2,26.2,0,0,1-7.8,7c-2.5,1.5-4.8,3.5-7.6,4.5-.2,0-.3.5-.5.7l.3.4,7.5-.9a17.9,17.9,0,0,1,4.6-.4c3,.4,6,.8,8.6,2.4a8.2,8.2,0,0,0,5.9,1.3c.3.5.9,1.5.7,1.7a15.4,15.4,0,0,1-2.6,2.5l-.6-.2c-2.9-1.5-5.8-.2-8.8-.1H824c-2.3-1.4-4.3.6-6.5.7s-5.3-1-7.8-1.7l-6.7-2c-.2,1.3-.6,1.8-1.8,1.5s-1.5.6-2.1,1.2c-2.6,3-6.1,3.8-9.7,4.8a19.9,19.9,0,0,0-4.3,2.3,5,5,0,0,0-1.2.8l1.5,1.1a18.7,18.7,0,0,1,3.2-.4c1.6,0,3.4.8,4.7.3s4.1.3,6.2-.2,3.8.4,5.6.6l6.1.6,10.4-.2c1.3,0,2.6.3,3.9.4h.2c2.2-1.3,4.5-.6,6.7-.7a8.8,8.8,0,0,0,3.4-1c2-.9,4-2.1,6.2-2.9a30.2,30.2,0,0,1,5.2-1.2,17.7,17.7,0,0,0,6-2c1.5-.7,3.1-1.1,4.6-1.7s2.6-1.3,4-1.8a30.9,30.9,0,0,1,6.7-1.5,13.1,13.1,0,0,1,6.2,1c1.8.8,3.6.5,5.3,1.1s2.5.6,3.8.9l2.9.9,3.3-1.3.7.9a2.3,2.3,0,0,0,3.3.5,12.9,12.9,0,0,1,2.1-.5l.9,1a7,7,0,0,0,.6.9c-1.2,2.6-3.4,2.6-5.6,2.7a29.7,29.7,0,0,0-5.2.8,1.8,1.8,0,0,1-1-.2,3.1,3.1,0,0,0-3.5.5h-4.7a39.1,39.1,0,0,0-4.8.5c-4.1.8-8.3,1.1-12.4,2.2a50.1,50.1,0,0,1-7.9,1.1l-5.6.5a4.1,4.1,0,0,1-1.9-.4c-1.6-.4-3.5-1.4-4.7-.9s-3-.1-4.4.9-2.5.5-3.8.6a3.7,3.7,0,0,0-1.4.4l7.7,3.1h-.1l2.4,1.1a57.3,57.3,0,0,0,7,2.3c2.7.6,5.3,1.6,8.3,1.3s6,.4,9,.9,7.3,1.1,10.9,2,6.3-.3,9.4-.7l2.3-.3.3.4-2.5,3.1a6.5,6.5,0,0,1-.2-1.1c-2.5.3-5,.7-7.6.9a4.1,4.1,0,0,1-2.2-.2c-.6-.4-1.5.5-2-.6s-1.7,0-2.6-.2-2.5-.7-3.8-.9-3.4-1.5-5.5-.2-2.7.2-4,.2a31.4,31.4,0,0,1-5.3-.3,27,27,0,0,1-3.9-.8l-2.6-.6a23,23,0,0,1-6.8-1.9c-3.1-1.3-6.3-2.3-9.4-3.4l-2.1,3.4h2.5c.8.2,1.8.2,2.3.8s1.6,3.2-1.4,4.4l2.7.6h2.4c1.8-.1,2.8,1.2,3.7,2.5a2,2,0,0,1-1.3,3.3,10.1,10.1,0,0,1-9-2,12.4,12.4,0,0,0-2.3-1.2c.9,1.5,1.9,2.8,2.6,4.2s.3,2-1.3,2.2-4.5-1-6.4-2.3-1.7-1.9-2.7-2.7a1.4,1.4,0,0,0-1.2-.4,3.1,3.1,0,0,0-1.1,1.4l-2.2.5c-1.9-5-3.9-10-5.8-14.9a27,27,0,0,0-3.9-.8l-11.2-1.3c-3.6-.4-7.1-.9-10.7-1.5-1.3-.2-2.5-.7-3.8-1s-.7.4-.9.6l6,6.9-.3.4-1.3-.2,1.3,1.6,3.3,3,5.9,5.2c.3.2.7.4.8.7s2.4,1.9,3.8,2.5,4,1.1,5.3,3c.2.3.8.4,1.2.6l3.1,1h1.4c.2.2.3.6.6.7s3.1,1.1,4.6,1.8a13.7,13.7,0,0,1,2.9,2c2,1.6,4,3.2,5.9,4.9a24,24,0,0,1,1.8,2.6,4.9,4.9,0,0,0,1.4,1.1c1.9,1.1,2.3,3.1,2.9,4.9s1.1,3.2,1.7,4.7.7.4,1.2.7.2,1,.6,1.3,1.1,1.2.4,2-2.4.7-2.8.1-3.3-2.8-5.1-4.1-6.5-3.7-9.3-6.2-4.5-3.1-6.3-5.1-3.1-4.8-4.8-7.1-.8-2.7-2.3-3.4-.7-1.2-1-1.7l-1.7-.7c-1.6-.7-3.3-1.4-4.8-2.2a14,14,0,0,1-1.6-1c-2.8-1.7-4.7-4.4-6.9-6.7-.6-.6-1.5-.8-2-1.3s-1.8-2.4-2.8-3.7l-.2.5c-3.9-4.2-7.7-8.2-13-11.2.2.6.2.8.3.9l3.4,5.2c2.2,3.1,4.3,6.1,6.4,9.3.3.4,0,1.3,0,2s-.1.8.1,1.1c.9,2.2,1.6,4.7,3,6.4s1.2,4,2.7,5.6.7,2.6,1.1,4a3.9,3.9,0,0,0,.8,1.4c1.5,1.8,1.5,4.1,2.3,6.1s2.1,5.1,3.3,7.5a27.3,27.3,0,0,0,2.5,4.8,10,10,0,0,0,5.2,4.2c0,.3.1.8.2,1.5a31,31,0,0,1-3.2-1.7c-2.4-1.8-4.6-3.7-5.7-6.6s-2.1-4.2-3-6.4-1.6-4.1-2.5-6.1-1.8-4-2.8-6a23.9,23.9,0,0,1-1.3-2.8c-.8-1.6-1.6-3.1-2.5-4.6a64.5,64.5,0,0,0-3.1-5.8l-4.7-6.9a27.5,27.5,0,0,0-1.9-2.8c-2.4-2.5-5-4.9-7.4-7.3s-2.5-2.6-3.9-3.8-3.1-2.3-5.5-2.1l3,3.5c2.9,3.1,5.5,6.4,6.2,10.9.3,2,1.2,3.9,1.7,5.9a3.2,3.2,0,0,1,.2,1.4c0,.2-.1.5-.1.7l2.1,6c.5,1.4.6,3,1.8,4.2a1.6,1.6,0,0,1-.1,2.6c-.9.6-1.4-.2-2-.8-2.9-2.5-5.9-4.9-8.9-7.3a23,23,0,0,1-6.5-8c-.8-1.6-.9-3.7-1.8-5.2s-.8-4-1.2-5.9-1.2-3.3-1.7-4.9-1.8-5.5-2.9-8.2a2.4,2.4,0,0,0-1.5-1.3c-3.9-.7-7.7-1.1-11.5-1.9s-5.5-1.2-8.2-1.9-6-1.4-8.6-2.7a6.2,6.2,0,0,0-4.8-.3c-2.5.7-5.1,1.2-8,1.8l1.9,1.1,1.5.6c.4.2.7.9,1.1,0l2.2,1.3,3.5,2.7c1.2,1,2.4,2,3.7,2.9a12.3,12.3,0,0,0,2.5,1.4c2.1,1,2.7,3.5,4.8,4.5,4.4,2.1,7.6,6.3,12.7,7.4,1.3.3,2.3,1.4,3.6,1.8s4.7,2.3,7.4,2.5c.3,0,.6.4,1,.5s-.4.9-.7,1.2l-2.6,1.6c.2-1.7-.7-1.7-1.9-1.8a25.9,25.9,0,0,1-4-1l-.8.5a3.6,3.6,0,0,0-1-1.1c-2.8-.8-5-2.6-7.4-4.2s-7.8-5.1-11.6-7.7c-1.3-.8-2.5-1.9-3.8-2.7a38.4,38.4,0,0,0-3.6-1.4l-3.3-1.7c-2.2-1.3-4.3-2.7-6.6-3.8a20.6,20.6,0,0,0-4.4-1.4l-.6.8c.4.1.8.4,1.2.3a5.6,5.6,0,0,1,3.5,1.3c2.2,1.4,4.7,2.7,7,4.1s1.7,1.7,3.1,2,1.7,1.6,2.6,2.4a14.1,14.1,0,0,1,3.8,4.9c.5,1.1,1.8,1.9,2.7,2.8s2.2,2.4,3.4,3.5.5.4.8.7a10.2,10.2,0,0,1,1.8,2.3,6.7,6.7,0,0,1-4.2-.8,17.9,17.9,0,0,0-3.2-1.3c-.9-.3-2-.9-3.1-1.4a74.3,74.3,0,0,1-7.6-3.5,17.2,17.2,0,0,0-4.8-1.7,19.4,19.4,0,0,1-4.3-2.2,25.1,25.1,0,0,1-6.9-5.2c-1.4-1.5-2.8-3-4.3-4.4s-3.2-2.7-4.8-4l-2.1-1.7.2-.5c-2.6.1-5.3-.3-7.7.4s-5.1-.2-7.6.3c-.7.1-1.5-.5-2.3-.7s-2.5-.8-3.8-.2a1.1,1.1,0,0,1-.8,0c-3.2-1.7-6.6-1.8-10-2.4s-4.9-1.3-7.4-1.8a33.1,33.1,0,0,0-5.5-.8l2.6,1.4,3.8,2.8c1.7,1,2.9,2.8,5.1,3.1.3.1.6.5.9.7a3,3,0,0,0,4.3-.5c.1-.2.7-.1,1-.2.2,2.6,1.7,2.7,3.8,2.4s2.6.5,3.9.4,4.4-.8,6.6-1a10.3,10.3,0,0,1,3.5,0c1.4.3,3.1-.4,4.1,1.8a21.1,21.1,0,0,1-.8,2.2c-.2.5-.8.6-1.1,1.1a3.5,3.5,0,0,0-.3,1.1c-1.1-.9-3.4-.8-4.2.4ZM263.1,109.9a4.2,4.2,0,0,0-3.5-.4c-1.2.4-2.6,1-4,.1s-.9.1-1.4.3l-1,.6-4.9.5-4.7,1c-1.8.5-3.5,1.2-5.3,1.8l-6.8,2.1c.4.4.7.6,1,.5a28.3,28.3,0,0,0,4.2-.7c2.6-.8,5.2-.5,7.8-1.7s5.5-1.5,8.2-2.3,2.9.3,4.4-.4,3.6-.5,5.3-.8.5-.4.7-.6l.6.5,2.3-1.5-.2-.4a11.6,11.6,0,0,1-1.8.4C263,108.7,263,109.3,263.1,109.9ZM245.1,88l1-.4,1.7.2c2.4-.1,4.8-.4,7.1.7h1l5.2.5,5.7.5,2.7.2c2.2.1,4.2.9,6.6.7s6.9.1,10.4.3l10.2.6c2.1.2,4.3.2,6.4.2h13.3l8.4-.3c1.3-.1,2.6.1,3.9-.1s5.2-1.3,8.1-1.1,6.1,0,9.2,0,6.3-1.4,9.2-2.7,2.5-1.8,4-2.3a35.3,35.3,0,0,1,5.6-1.4,12.9,12.9,0,0,1,4.3-.7c2.4.2,4.7-1.1,7.1,0,.1,0,.2-.2.4-.2,3.3.1,6.7-.2,9.8.5s4.4.3,6.6.5,2.6-.2,3.3.4,3.1,1,4.8.4a10,10,0,0,1,3.3-.8l11.1.2c2.2,0,4.5.7,6.8,0l9.9-2.9a43.4,43.4,0,0,0,5-2c1.8-.8,3.5-1.7,5.3-2.4a4.3,4.3,0,0,1,1.6-.1c0-.1-.1-.1-.1-.2l2.9-1.6-3.8-1a11.3,11.3,0,0,0-2.8-1.2c-2.9-.3-5.8-.2-8.7-.5s-7-1.2-10.5-1.6-4.6,0-6.9-.1c-4.2-.3-8.4-.7-12.6.2s-7.8,1.7-11.7,2.4-5.2,1.3-7.9.1h-.4a25.7,25.7,0,0,1-4,.6c-3.4-.1-6.8-.4-10.1.3a21.7,21.7,0,0,1-5.7.6,42.6,42.6,0,0,0-9.4.4c-2.9.6-6.1.3-9.1.5l-12.6,1L329,77c-3.4,1-6.8,2-10.5,1.8-1.4-.1-2.9.2-4.4.2l-5-.3-.9-.2a28.4,28.4,0,0,1-5.1.6,94.4,94.4,0,0,0-10.5,1.4,7.9,7.9,0,0,1,.4.9l-3.6.8a16.4,16.4,0,0,1-2.2.2l-1.5.5c-1.4.7-3.2-.5-4.5.9s-.3,0-.4,0L274.6,85h-2.2l-6.5-.2c-.5,0-1,.6-1.5.5l-4.5-.9c0,.2-.1.5-.1.6s-2.2-1.7-3.9-.5-1.6.1-2.4,0l-3.9-.6h-2.2c-.7-.1-1.6-.6-1.9.7-1.2-1.4-7.5-1.2-8.5.2-3.2-1-5.5,1.3-8.1,2.2a3.1,3.1,0,0,0,1.3.3h9.7A35.6,35.6,0,0,1,245.1,88Zm445.6,16.4c-.7-.6-1.1-1.3-1.7-1.4a33.5,33.5,0,0,0-6.9-1.3c-1.4-.1-2.3-1.2-3.5-1.4s-5.1-.9-7.7-1.4l-.9-.2a25.9,25.9,0,0,0-4-.9c-1.9-.1-3.9.2-5.8,0a55.8,55.8,0,0,1-6.9-1.3c-3.4-.7-6.7-1.4-10.1-2.3a21.6,21.6,0,0,1-4.3-1.4c-1.4-.5-2.7-1.3-4.1-1.7a9.3,9.3,0,0,0-2.9-.1,6.2,6.2,0,0,0-1.2-.9,19.2,19.2,0,0,0-4-.9c-4.6-.4-9.1-1.9-13.8-1-1.9.3-3.9-.1-5.9-.1s-1.3.4-1.9.4l-3.3-.5v.8l4.9.8c1.3.1,1.8.8,1.1,1.8a2.3,2.3,0,0,1-1.8.8l-6.6-.6c-3.9-.3-7.8-.9-11.6-1s-6.3-.8-9.5.3-4.8.5-7.2.7l-2.8.2-3.8-.2a4.3,4.3,0,0,1-.1.5c2.4-.3,3.8,1.9,6.3,1.8s3.3,1.1,4.9,1.6,1.9.1,2.5.5,3.8.8,5.7,1,3.8-.8,5.9-.5a18.1,18.1,0,0,0,3.9-.5l2.3-.2c2.8-.1,5.6-.7,8.3-.3a21.2,21.2,0,0,0,8.7-1.3c1.7-.6,3-1.8,5.3-1s3.5.9,5,1.9a6.2,6.2,0,0,0,2.7.9,17.5,17.5,0,0,1,3.3.5c2.4,1,4.8,1.8,7.5,1.2a2.1,2.1,0,0,1,1.7,1.2c.1.4-.6,1.4-1.1,1.7a8,8,0,0,1-2.7.4l-6.8.4h-5.3l-1.3.4a4.8,4.8,0,0,0,2.2,1.4l8,1.8c3.3.7,6.6.5,9.8,1.6s3.9.6,5.9,1l9,2.2c1.1.2,2.3,1.1,3,.8a1.4,1.4,0,0,1,1.8.5h10.6l-1.1,1.2a6.9,6.9,0,0,0,4.9-.8c2-1.1,4.2-1.7,6.2-2.6s4.6-2.4,6.9-3.5ZM81.2,129.2c0,.2-.1.4-.1.6l2.7.8c2.4.5,4.7,1.2,7.1,1.5a37.5,37.5,0,0,0,7.5-.1c2.4-.2,4.8-.8,7.2-1.1l5.7-.8c2.7-.4,5.4-.8,8-1.4s5.1-.5,7.2-2.5a1.6,1.6,0,0,1,2.6.1c.1.2,1,.3,1.3.1l5-2.9,5.1-2.6v-.6c-1.2,0-2.5.1-3.8,0-5.2-.4-10.4-1-15.7-1.2-3-.1-6.1-.8-9,.8h-1.1a37.5,37.5,0,0,0-12.9,2.5C92.3,124.5,86.8,126.9,81.2,129.2Zm52,43.3c-.4-1.2-.7-1.9-.9-2.6a13.6,13.6,0,0,0-1.1-2.8c-1.1-1.8-2.6-3.4-3.6-5.3a52,52,0,0,1-2.1-5.5c-.4-.9-1.2-1.6-1.3-2.4s-.8-3.2-2.6-3.9a3.7,3.7,0,0,1-1.3-1.7c-1.1-1.9-2.2-3.6-4.3-4.4-.4-.2-1.1-.4-1.2-.8s-1.7-1.3-2.8-1.6a24.2,24.2,0,0,1-5.4-2.5,2.7,2.7,0,0,0-2.7-.5l.5.6c3.1,3.1,6.4,6.1,9.4,9.3,1.5,1.6,2.4,3.7,3.5,5.5s2.8,4.7,4.1,7.1a18.6,18.6,0,0,0,4.8,6.3c1.2,1.1,2.4,2.2,3.7,3.2S132,171.7,133.2,172.5Zm346.9-56.3,4.9,3.5c1.7,1.1,3.3,2.4,5,3.6s2.3,1.2,3.5,1.9.8.7,1.2.7c2.3.1,4.5.9,6.9.5a7.9,7.9,0,0,1,5,.5c1,.6,2.3.5,3.5.7C502.1,118.6,491.5,116.4,480.1,116.2ZM661.5,88.1l.3.6h5.9l5.4-.2a36.5,36.5,0,0,0,4.6-.7c3-.6,6-.4,9-1.6.9-.4,2.5-1,3.5.9l.3-1,3.1-.7a17.7,17.7,0,0,1,2-.4c.9,0,1.9.5,2.7.3s1.9-.6,2.6.1h8.6l-3-1.2-5.5-.8-1.8-.5a.8.8,0,0,0-.7,0c-.9,1-2,.5-3.1.6l-9.3,1.2a15,15,0,0,1-2.9-.1c-1.3,1.2-2.3,1.3-3.2,0a12,12,0,0,1-2.3,1.1l-8.1,1.9a1.5,1.5,0,0,1-2.2-1,3.3,3.3,0,0,1,1.3-.7l4.9-1.3a10.6,10.6,0,0,1,1.9-.6l8-.8c1.5-.1,2.9-.4,4.3-.6s.8-.5,1.2-.5,2.2-.1,3.3-.2l8.1-.6.8-.2a11.1,11.1,0,0,0-4.3-.9,17.3,17.3,0,0,1-6.4-.7l-.5-.2a10.6,10.6,0,0,1-2.5.9c-2.4.2-5-.2-7.1,1.5l-.9.2-8.4,2.5L663.2,87A8.2,8.2,0,0,0,661.5,88.1ZM314.4,132.6V132c-1.6-.2-3.1-.5-4.7-.6l-9.1-.4c-1.9-.2-3.8-.9-5.7-1.2s-4.1-.1-6.2-.3a31.3,31.3,0,0,0-5.3,0h-9.8l-.4.3,5.1,1.6,2.2.7c.7.2,1.4,0,2,.3,4.5,1.9,9.3,1.9,14,2.2,2.2.1,4.5-.9,6.7-.9a34.9,34.9,0,0,0,6.4-.4A37,37,0,0,1,314.4,132.6ZM716,102.3c-1.2-.4-2.3-1-3.3-.9-4,.5-8,1.5-12.1,1.8s-6.9,1.9-10.1,3.6c-.8.4-1.4,1.1-2.2,1.5s-2.9,1.2-4.3,1.8c1.5.6,3.1,1.3,4.4,1s1.6.3,2.3.1a46.5,46.5,0,0,0,5.2-2l8.4-3.6,1.8-.4c2.8-.6,5.6-1.5,8.4-1.5s3.5-1,5.2,0c.2.1.6-.2,1-.4C719,102.6,717.6,101,716,102.3ZM357.3,90.5v.3c.6,0,1.2-.3,1.7-.2l8.6,1.8,3.5.8c2.7.5,5.4.8,8-.1.5-.1,1-.5,1.4-.6l4.2-.7,6.5-1.3,3.6-1v.2l2.7-.5a1.3,1.3,0,0,1-.1-.6h-2.9c-2.7.2-5.3.7-8,.8a25.5,25.5,0,0,1-3.9-.2l-1.1.3a21,21,0,0,1-5.6-.1,51.5,51.5,0,0,0-10.4-.4,60.3,60.3,0,0,0-7.3.8A4.1,4.1,0,0,0,357.3,90.5ZM133.1,98.4a4.3,4.3,0,0,1,.4.7l2-.9c.9-.5,1.6-1.2,2.4-1.6s4.4-1.3,6-3,.8-.3,1.2-.4a1.7,1.7,0,0,0,1.6-1.3,3.3,3.3,0,0,1,1.7-2,8.3,8.3,0,0,0,3.7-4.2,16.3,16.3,0,0,1,4.1-4.9c1.1-.9,1.2-1.6.4-2.5l-3.2,2.5c-2.1,1.4-4.4,2.7-6.4,4.3s-4.5,3.8-6.7,5.8a6.5,6.5,0,0,0-1,1.5C136.3,93.2,135.6,96.7,133.1,98.4Zm462.2,9.5-.3.3.3.7a64.4,64.4,0,0,1,4,6.6c1.7,3.9,2.8,8,5.2,11.6.4.6,1.1.9,1.5,1.5s2.1,3.3,3.3,4.8a80.5,80.5,0,0,0,6,7.1c2.1,2.2,4.6,4.1,6.9,6.1,0-.4.1-1.1.1-1.5a21.9,21.9,0,0,0-1.4-2l-4.5-5.4-.7-.6-2-2.2-1.1-1.6c-1.2-1.6-2.6-3.2-3.7-4.9s-.4-2.2-1-3c-2.4-3-5-5.8-7.3-8.8a5.4,5.4,0,0,1-1.4-3.2c.1-2.1-1.5-3-2.5-4.3A14.9,14.9,0,0,0,595.3,107.9Zm-354.7,31-.3.4c2.2,2.6,4.3,5.1,6.6,7.6l2.9,3a9,9,0,0,0,4.5,2.1c1.8.3,3.4,1.4,5.1,2.2s1,0,1,.2,1.4.7,2.2.9a10.9,10.9,0,0,0,1.8-.1,19.5,19.5,0,0,0-2.3-1.7l-7.7-5.9a18.8,18.8,0,0,0-1.8-1.2l-4.6-3.5c-1-.8-2.3-1.2-3.1-2.1A5.2,5.2,0,0,0,240.6,138.9ZM142,176.2l.4-.5c-2-2.7-4-5.5-6.2-8.2s-2.2-2.3-2.8-3.8-1.3-1.6-1-2.8-.4-.6-.5-.9l-.9-1.9c-1.3-2.4-2.4-5-3.8-7.4a28.6,28.6,0,0,0-3.8-4,14.3,14.3,0,0,0-2-1.4c-.3,1.9.1,3,1.4,4a5.3,5.3,0,0,1,2.9,4.4c0,.4.4.8.6,1.2s1.4,2.6,2,3.9,1,2.4,1.5,3.6,3,3.4,3.3,5.7c.1.5.6.8.9,1.3l.9,1.3-.2.2,2.6,1.6c.5.2,1.4,0,1.9.4s1,1.5,1.6,2.2Zm537.5-61.8c.2.2.4.5.6.6l6.5,2.9c2.2,1.1,4.3,2.4,6.5,3.6l4.5,2.6,8,5.2a23.9,23.9,0,0,0,2.2,1.2l3.9,2,.3-.3-.8-.9c-.3-.3-.9-.6-1-1a5.2,5.2,0,0,0-3-2.8,3.2,3.2,0,0,1-1.3-1,11.8,11.8,0,0,0-6.6-4.8,14.8,14.8,0,0,1-3-2.1C690.7,118.6,685.6,115,679.5,114.4Zm80.8,37.7.5-.5-1.5-2.4c-1-1.9-2.5-3.5-2.3-5.9,0-.5-.5-1-.9-1.5s-1.8-1.4-1.1-2.7c-3.4-3.4-5-8-7.6-11.9a2.2,2.2,0,0,0,.1,1.4c1.6,2.9,1.5,6.3,2.2,9.4a20.3,20.3,0,0,0,4.2,8.1c1.1,1.3,2.4,2.6,3.6,3.8ZM618.2,96.2v-.6a15.1,15.1,0,0,0-3,.2c-1.6.4-3.1,1.1-4.8,1.4a6.7,6.7,0,0,0-2.4.4,3.9,3.9,0,0,1-2.9.5c-2.3-1.3-4.7-.1-7-.3s-4.1.4-6.2.7l-4.2.5c.6,1.5,1.9,2,3.8,1.8a6.7,6.7,0,0,0,1.8.7h1.2l4.1-.2,6.8-.8,1.7-.8,2.6-.7a12.1,12.1,0,0,1,3.1-.9,2,2,0,0,0,2.3-1.7Zm153.6-4.7V91c-6.1-2-12.5-1.8-18.8-1.4-4,.3-8,2.6-11.8,4.6a33.8,33.8,0,0,0,5.6-.3,16.6,16.6,0,0,0,2.1-.6,18,18,0,0,1,3.9-.8c2-.1,4,.1,6.1.2a14.1,14.1,0,0,1,2.5.4l.5-.9ZM390.6,86.7c-4.2-3-25.2-3.3-29.1.3H366l6.4-.2a10.3,10.3,0,0,1,3,.4c1.3.4,2.5,1,4.1.7s3,.1,4.5-.2a10.8,10.8,0,0,0,2.8-1.1C387.8,88.2,389.1,86.3,390.6,86.7Zm70.8,56.4c0-.4.1-.7,0-.9s-1.1-2.2-1.5-3.3,0-1.7-.5-2.2-2.8-3.1-4.1-4.8-4.8-4.3-7.3-6.4l-2.3-1.7-.4.3c.4.9,1,1.8,1.3,2.7s2,1.7,1.3,2.8a13.7,13.7,0,0,1,2.3,1.7c.6.6,1,1.6,1.6,2.3l3.2,2.9,2,2.2,1,1.2Zm-9.8-59.4a4.1,4.1,0,0,0,1.1.7l4.6.8a12.1,12.1,0,0,1,3.3.7c2.5,1.4,5.3,1.7,8.1,1.9a44.7,44.7,0,0,0,7.3-.4c1.4-.1,2.7-.5,4.1-.7v-.6l-4.7-.6-9.4-1.2-1.3-.5-1.5-.6c-2-.6-4.3,1.7-6.2-.5h-.2ZM188.5,126.6c1.7,1.2,2.7,1,3.7-.6l2.8.5a4.9,4.9,0,0,0-2-1.3l-2.7-1a10.8,10.8,0,0,0-3.2-1.3c-1.6-.3-3.2-.1-4-1.9-.1-.2-.7-.1-1-.2l-9.2-1.2-4.5-.3v.8l7,3.1a18.2,18.2,0,0,0,4,1.1l10.1.7c.6.1,1.2.8,1.8,1.2a1.4,1.4,0,0,1-.2.6ZM372.2,46.2v-.3l-.5-.2a21.9,21.9,0,0,0-10.5-.1c-2.8.8-5.7,1.1-8,3.3a13.7,13.7,0,0,1-5.6,3.2,38.4,38.4,0,0,0-4.1,1.3c-.5.3-1.2.2-1.6.6s-2.4,0-2.4,2a27.4,27.4,0,0,0,3.7-1.1c.9-.3,1.6-.9,2.5-1.3s1.1-.1,1.6-.3a72.7,72.7,0,0,1,7.6-3.3c3.6-1.1,7.4-1.7,11.1-2.5Zm223.9,43v-.3L582,86.1c-.3-.1-.8.3-1.3.3l-7.7.5-6.5.6a20.6,20.6,0,0,0-2.6.3,29.9,29.9,0,0,0-3.2.9v.4l8.5.5a3,3,0,0,1,1.6-.3c2.7.8,5.2-.2,7.8-.6a27,27,0,0,1,4.1-.5c2.6,0,5.1.4,7.7.6Zm-383.9-35c.7-.8,1.6-1.5,2.2-2.3s2.4-3.1,3.6-4.6,2.1-2.5,3.1-3.7l-.5-.5a14.2,14.2,0,0,0-1.3,1.2c-1.9,1.9-3.6,4-5.6,5.9s-4.5,3.7-6.7,5.6a28.3,28.3,0,0,0-2,2.8c-.6.7-1.1,1.4-1.7,2s-.3.6-.4.9l-3.3,6.2c-.2.4-.3,1-.5,1.4,1.2-1.2,2.2-2.5,3.2-3.6s3.7-3.7,5.5-5.7,1.5-1.4,1.5-2.1C209.2,55.3,211.3,55.4,212.2,54.2Zm666.4,65.6-.3-.4c-2.9-.6-5.8-1.7-8.8-1.7s-5.8,1.2-8.7,1.8-7.3,3-7.8,4l4.5-.9c1.5-.3,3.1-.7,4.7-.9s4.4-.4,6.7-.6l3.8-.5,5-.4C878,120.2,878.3,119.9,878.6,119.8Zm-287-33.6.2-.6-1.1-.4-5.8-1.4c-2.6-.4-5.3-.9-7.9-1.1s-3.2.4-4.7.3a28.1,28.1,0,0,0-10.4,1.7,54.4,54.4,0,0,0-5.4,2.7l.3.4a1.3,1.3,0,0,0,.8-.2,34.5,34.5,0,0,1,10.5-2.2c3.4-.2,6.9-.3,10.3-.8a21.6,21.6,0,0,1,8,.4C588.1,85.5,589.9,85.8,591.6,86.2Zm200.8,15.5v-.4a28.1,28.1,0,0,0-4.1-.1,46.6,46.6,0,0,0-6.3,1.2,25.6,25.6,0,0,0-4.3,1.7,9.5,9.5,0,0,0-1.8.6l-5.2,2.8-6.1,2.9-2.7,1.4.2.5,1.5-.6c1.8-.6,3.5-1.5,5.4-1.5s2.1.2,2.5-1.2.6-.3.9-.4a16,16,0,0,0,3.3-1.1c2.2-1.6,4.6-1.9,7.1-2,.6-2.3,2.8-2.2,4.3-2.8A31,31,0,0,1,792.4,101.7ZM335,26h-.2c-2,1.6-4.2,3-6.1,4.7s-3.9,4.1-5.8,6.1a37.1,37.1,0,0,0-2.7,2.9,63.6,63.6,0,0,0-2.8,5.9c-.1.3.2.6.2.9a1.8,1.8,0,0,0,.7-.5l2.3-2.5c1.1-1.1,2.4-2.1,3.4-3.2s1.1-2,1.8-2.9,2.6-3.2,4-4.8,2.9-3.2,4.3-4.9A6.1,6.1,0,0,0,335,26ZM202.6,78.7c0,.2,0,.3.1.4A49.3,49.3,0,0,0,214.6,75c3.8-1.7,7.5-3.7,11.3-5.5-3-.5-6-.6-8.6.7s-5.4,3.3-8.2,4.8l-5.5,3.1Zm370.9,71.5v-.5a9.1,9.1,0,0,0-3-1.1c-1.7.1-3-1.7-4.8-.8-1.2-1.8-3.5-1-5-2a8.2,8.2,0,0,0-2-1.2c-2.9-1-5.8-1.8-7.5-4.6l-.9-.6-2-.8-1.2.7c3.4,2.5,6.5,4.9,9.8,7.1a20.2,20.2,0,0,0,8.9,3.1,3.6,3.6,0,0,1,1.1.6ZM836.2,87.8c-2.2.6-4.2,1.1-6.1,1.8a13.2,13.2,0,0,0-2.5,1.6l-2.7,2.6a18.9,18.9,0,0,0-2.7,2,31.3,31.3,0,0,0-4,5,11.1,11.1,0,0,1-3.2,2.9l-3.8,2.7-2.3,2,.3.3a85.7,85.7,0,0,0,8.1-5.2,70.5,70.5,0,0,0,6-6.2,10.8,10.8,0,0,1,4.3-3.2,40,40,0,0,0,4.2-2l.3-.3Zm-75.3,60.4.6-.2c-.4-1.5-.9-3-1.3-4.5a36.4,36.4,0,0,0-1.4-4.7,26.8,26.8,0,0,0-1.9-4.2,26.7,26.7,0,0,0-2.5-4.3,34.7,34.7,0,0,0-3-3.7c-1-1.1-2.1-2-3.2-3.1a32.9,32.9,0,0,0,2.3,5c.9,1.7,1.9,3.4,2.9,5.1s2,3.1,3,4.7,1.6,2.8,2.4,4.2.1,1.3.3,1.8Zm64.6,24c1.3-3.8-12.2-15-17.9-15.4,0,.1-.1.3,0,.4l5.2,4,1,.9,2.4,2.2c1.6,1.7,4.2,2.2,5.5,4.3.1.2.5.2.8.3a15.6,15.6,0,0,1,2,1.6A5,5,0,0,1,825.5,172.2ZM579.3,49.8h-.1l1.5-.7a11.5,11.5,0,0,1,2.9-1.1c1.7-.3,3.2-1.7,5.1-1.2.1,0,.5-.2.5-.4a.8.8,0,0,0,0-.7l-1-.2a16.6,16.6,0,0,1-3.7.9c-4.1-.1-7.9,1.4-11.8,2.5a15.8,15.8,0,0,0-3.5,1.6l-3.3,1.9.3.6ZM554.9,26.1l-.2-.4a34.2,34.2,0,0,0-10.2,6.1,35.1,35.1,0,0,0-8.5,8.7,10.4,10.4,0,0,0,2.8-1.3c1.6-1.4,2.8-3.2,4.7-4.3s3.5-2.1,5.2-3.2a27.2,27.2,0,0,0,3.2-2.5c.2-.2-.1-.8-.1-1Zm93.5,51.2v-.5c.6.4,1,1.1,1.6,0a2.8,2.8,0,0,1,1.8-1.1l5.4-2.1.9-.8c-2.9-.1-5.5,1-8.1.2a7.6,7.6,0,0,1-4.1,2.8,13.5,13.5,0,0,0-2.6,1.5c-1.2,1-2.2,2.1-3.4,3.2l-1,.7.2.3,4.4-.8c-.8-1.7-.2-2.4,1.4-2.4a8.6,8.6,0,0,0,1.7-.3ZM319.4,48c7.5-4.1,11.7-10.8,15.3-18-.4,0-.9.1-1,.4s-2.2,2.7-3.2,4.1-2.4,3.3-3.8,4.8a78.1,78.1,0,0,1-5.6,5.9A3.6,3.6,0,0,0,319.4,48Zm42.8,80c1.3-5.1-1.5-8.8-4.2-12.6a8.6,8.6,0,0,0-1.4-1.3l-.3.3c.3,2-.3,4.5,2.6,5.3C358.2,122.6,360,127.2,362.2,128Zm3-10.5,1,1.2c1.9,2.3,3.8,4.5,5.6,6.8a24.3,24.3,0,0,1,1.4,2,4.1,4.1,0,0,0,4.2,2.4C377.2,126.9,368.3,117.7,365.2,117.5Zm399.5-4.1.2.5,2.8-.4,5-1.4c.6-.3,1-1.1,1.6-1.3,2.6-.6,5.2-1.1,7.8-1.8a9.1,9.1,0,0,0,2.2-1.1l2.3-1.7,2.4-1.5a.5.5,0,0,1-.2-.4l-1.2.3-6.2,2.5-4.4,1.6c-3.2,1.3-6,3.4-9.7,3.7A6.4,6.4,0,0,0,764.7,113.4Zm-77.3,6.5-.3.3a5.6,5.6,0,0,0,.5.8c1.2.9,2.8,1.5,3.6,2.7a15.7,15.7,0,0,0,5.9,5,61.6,61.6,0,0,0,9.4,4.3c.3.2.7.1,1.6.1a14.6,14.6,0,0,0-2-1.5l-7.6-4.1c-.8-.4-2-.9-2.3-1.7s-1.3-1.1-1.8-1.6-3.1-1.7-4.7-2.6A17,17,0,0,1,687.4,119.9Zm-76.8,4.9c-.9,3,1.6,4.5,2.9,6.5a41.2,41.2,0,0,0,4.9,5.4l2.6,3.1.6-.3a50.1,50.1,0,0,0-3.4-6.5c-1.9-2.4-4.2-4.5-6.2-6.7ZM340.1,46.1l.3.4,2.5-1.8,3.4-1.7h.2a24,24,0,0,1,2.1-3.1l6.1-7.2c.6-.7,1.4-1.3,2-2l.6-1.1-.4-.3a19.5,19.5,0,0,0-3.1,2.4c-1.7,1.9-3.1,4-4.7,5.9s-.7,1.1-1.2,1.3c-3.2,1.5-4.8,4.7-7.6,6.6C340.1,45.5,340.1,45.9,340.1,46.1ZM672.8,71.7c-4.1.4-8.3.6-12.1,2.4s-10.1,4.5-10.6,5.4c3.5-2,7.6-2.2,11.3-4S669.3,73.9,672.8,71.7ZM746.6,96l.2.4h-1.5c-.1,0-.1.4-.1.6l1,.2h1.3l5.1-.4c1.5-.1,3.2-1.5,4.2.1l1.7-.7,2.9-1.1c-2.1-.4-4.1-.4-6-.8s-3.5,1.1-5.2-.3a2.2,2.2,0,0,1-.1.6ZM530.1,48.7c5.9-4.4,12.2-8.3,16.9-14.1C541.2,39.1,534.5,42.5,530.1,48.7ZM808.2,160c.5,3.5,13.2,12.9,16.4,14.1v-.3c-1.8-2.5-4.6-3.9-6.8-5.9s-2.5-1.8-3.7-2.8ZM504.3,38.3a16.4,16.4,0,0,0-1.8,1.6c-1,1.3-1.9,2.6-3.5,3.2a6.8,6.8,0,0,0-2.3,1.4,32.7,32.7,0,0,0-3,3.5c-.8.9-1.4,1.9-2.1,2.8l.4.4,3.8-2.5,3.7-2.6a.8.8,0,0,0,.4-.4C501.3,43.4,502.7,41.1,504.3,38.3Zm23,60c3.6,4.7,6.6,9.7,13,10.3C539.7,107.2,529.2,98.7,527.3,98.3Zm21,38.3,2.8,1.6,2.5,1.4a26.9,26.9,0,0,0,4.6,2.8,44.1,44.1,0,0,0,5.5,1.5c-2.9-3-6.8-4.4-10.2-6.4A6.2,6.2,0,0,0,548.3,136.6Zm116.3-4.3c-.3,1.1.4,1.7,1.2,2.3a12.9,12.9,0,0,1,1.7,1.6l2.1,3.4,1.4,2.3,1.4,1.1a2.4,2.4,0,0,0,1.3.3,1.9,1.9,0,0,0,.7-1.4,2.1,2.1,0,0,0-.7-1.4l-5.1-4.7c-.7-.6-1.7-1.2-1.1-2.4a1.6,1.6,0,0,0-.9-.9A6.5,6.5,0,0,0,664.6,132.3Zm35.2-22.2c2.1.2,13.9-2.8,17.2-4.4C712.4,104.9,700.2,107.9,699.8,110.1ZM355.3,54.4c.1-.1.4-.7.7-.7s2.4-.6,3.4-.7c2.6-.3,4.6-1.7,6.9-2.6.2-.1.3-.5.5-.7a32,32,0,0,0-5.4.9l-6.6,1.5-4,1.5.2.2ZM553.6,71.5l-2.6.4h-5.4a35.7,35.7,0,0,1-4.6.1c-2-.3-3.9-1-5.9-1.5a19.4,19.4,0,0,0-2.4-.2v.5C539.5,73.7,546.5,74.8,553.6,71.5Zm109.3,68.9h.6c.3-.4.8-.7.7-1A22,22,0,0,0,663,135c-.8-2-1.8-3.9-2.7-5.8l-.6-.7-2-2.1-1-.8a9.6,9.6,0,0,0,0,1.7c.4,1.2,1.8,1.6,2.2,3s1.7,4.1,2.5,6.2S662.4,139.1,662.9,140.4Zm-460.8,5.5a27.7,27.7,0,0,0-8-.7c-2.6.3-5.1.6-7.7.7a7.5,7.5,0,0,1-2.4-.3C185.8,147.7,199.1,147.3,202.1,145.9Zm282.2-116c-3,1.8-3.1,1.8-3.8,4.9s-1.1,5.4-1.6,8c0,.2.2.3.5.9l2.5-6.2c-.1-.6-.5-1.3-.3-1.7s1.9-3,2.8-4.6A3.1,3.1,0,0,0,484.3,29.9ZM391.8,68.2c1.5.9,5.5.6,6.5-.5,1.3.9,2.3.6,2.5-.7s1,.5,1.5.4l3.1-.6,3.6-1-.2-.5C403.2,66.4,397.2,65.2,391.8,68.2Zm66.4,76.2a1,1,0,0,1,.4-.5,30.6,30.6,0,0,0-9.5-9.1c.8,1.8,1.4,3.9,2.7,5.2S456,142.9,458.2,144.4Zm-61.4-14.9c-1.6-2.3-10.2-5.5-12.7-4.8.8.7,1.3,1.7,2.1,2,2.4.9,5,1.5,7.5,2.2A28.4,28.4,0,0,0,396.8,129.5Zm430.3,20.1V149c-1.2-1.7-1.8-3.8-4.3-4.2-.1,0-.1-.2-.1-.3s-2.3-1.9-3.7-3.1c.2,1.6.3,2.7.4,3.8C822.1,146.2,823.7,149.5,827.1,149.6Zm-640.9,2.3a53.2,53.2,0,0,0,3.8,4.5,34.7,34.7,0,0,0,4.2,3c.3.2.8,0,1.3,0a5,5,0,0,0-.4-1.3C193.3,154.5,189.6,153.4,186.2,151.9ZM395.7,61.4l.3.3,7.6-8.9a9.3,9.3,0,0,0,.8-2h-.9c-2.8.8-4,3.3-5.4,5.5A47.4,47.4,0,0,0,395.7,61.4ZM481,113.8l10.8,1-.2.4a21,21,0,0,1,9.9,2.8C498.7,114.4,485.6,111.6,481,113.8Zm-107,6.8-.4.3a5.8,5.8,0,0,0,1.3,1.4c1.2.9,2.6,1.5,3.7,2.5s2.5,2.9,3.8,4.2,2.2,2.3,3.3,3.4a.8.8,0,0,1,.4-.4c-1.4-5-6-6.9-9.3-10.1A9,9,0,0,0,374,120.6Zm-16.1-11.1v.4h3.5a55.3,55.3,0,0,0,7.1-.4c1.2-.2,2.9.2,3.7-1.6C367.1,107,362.5,108.3,357.9,109.5ZM526.2,93.2l4.7,5.1a3.1,3.1,0,0,1,3.1,1.8c.5.7,1.1,1.4,2.2.9A15.3,15.3,0,0,0,526.2,93.2ZM389.6,119.8V119l-16.6-.2c2,.4,4.4,0,5.8,1s4.2-.2,5.6,1.3Zm234.2-21c-.7-.4-1.3-1-1.8-.9a23.4,23.4,0,0,0-2.4.9,3.8,3.8,0,0,1-1.5-.1h-.2l-1.1,1.1v-.5c-1,.1-2.3-.1-3.2.4a6.6,6.6,0,0,1-3.6,1.3,15.8,15.8,0,0,0-3.2.6C608.4,102.4,618.5,100.7,623.8,98.8Zm201.6-8.1c-3.2.6-11.4,8.6-12.5,12.6,2.1-2,4-4.2,6-6.3ZM489.6,25.2a4.6,4.6,0,0,0-2.4,3.9,8.7,8.7,0,0,1-.5,2.2c-.5.8-1.3,1.5-1.8,2.3s-1.6,2.6-1,4.4a15.1,15.1,0,0,0,3.1-4.5A81.2,81.2,0,0,0,489.6,25.2ZM364,114.2c5.2.1,10.4.3,15.3-1.6C374,111.5,369,113.4,364,114.2Zm488.8,12.2c4.8,0,9.2-1.7,13.7-2.9C861.8,123.9,856.8,122.9,852.8,126.4ZM553.2,69.3c-4.7-2-9.4-1.2-14.4-.2,2.4,1.8,4.8.5,7.1.7A59.7,59.7,0,0,0,553.2,69.3ZM191.3,141.5a17.6,17.6,0,0,0-12.6,1C183,143.2,187.1,142.4,191.3,141.5Zm74.9-75.1c5-1.8,9.9-3.9,13.5-8-3.7,1.9-7.2,4.1-10.8,6.2a6.4,6.4,0,0,1-1.5.5Zm386.1,60.2c0,.1-.1.1-.2.2s-.2.3-.1.5a12,12,0,0,1-.6,7,4.2,4.2,0,0,0,2.1,3.9C653.4,134.3,654.3,130.4,652.3,126.6ZM173.7,152.2a2.7,2.7,0,0,0,.1-1.2c-1.6-2.7-3.1-5.4-4.9-7.9-.5-.6-1.7-.7-2.7-1C168.8,145.5,171.2,148.8,173.7,152.2ZM469.6,82.5l13.7,2.2C480.5,82.6,476.6,81.4,469.6,82.5Zm-60.7-28,.3.2,6-6.7c1-1.1.9-2.4.8-3.8-.4.2-.7.4-.7.7s-1.1,2.2-2.3,2.7l-.6.7L410,52.6ZM818.4,116l-10.1-1.5v.5c4,1.5,8,3.2,12.6,1.6a12.6,12.6,0,0,1-1.7-1.3ZM351.5,31l-4.6,3.3c-.2.1-.2.3-.4.5s-2.3,2.6-3.4,4-.1.8-.1,1.2a1.7,1.7,0,0,0,1-.1,31.9,31.9,0,0,0,2.6-2.6,15.8,15.8,0,0,0,1.6-2.1A6,6,0,0,0,351.5,31ZM672,132.9l-.2.5,8.3,2.3,2.3-1.3a16.6,16.6,0,0,0-3.7-1.3,33.8,33.8,0,0,0-4.5,0Zm-499.4,5c2.3.5,8.5-.5,10.3-2.6l-5.3.4-1.2.2c-.5.3-.9.8-1.5,1.1A15.7,15.7,0,0,1,172.6,137.9ZM572.3,53.8c2.7.5,10.2-1,11-3.3a54.7,54.7,0,0,0-5.5,1.3A53.4,53.4,0,0,0,572.3,53.8ZM668,127.1v.5l6.4.8c.1-.1.6-.2.9-.6a1.9,1.9,0,0,0,.5-1.3c0-.2-.7-.5-1-.5s-2.9.4-4.3.6ZM220.3,75.2a4.2,4.2,0,0,0-1.6.1c-2,.9-3.7,2.5-6.1,2.6-.6,0-1.2.7-1.8,1.1l.3.5C214.4,78.8,217.6,77.9,220.3,75.2ZM837.5,146c-1-.4-1.8-1.2-2.8-1.3a47.3,47.3,0,0,0-5.3-.1C831.3,146.7,833.8,147.3,837.5,146ZM182.8,156.2l.3-.4c-.8-3.6-3.2-6.6-5.3-6.7.8,1.3,1.5,2.6,2.3,3.7S181.9,155.1,182.8,156.2ZM145,84c-2.9.4-6.1,3.1-6.5,5.3s1.1-.2,1.6-.7Zm722.7,39.2v.5l9.1-.5c.1,0,.4-.4.4-.5s-.4-.5-.6-.5-1.5.2-2.1,0C872,121.5,869.9,122.7,867.7,123.2Zm-466-59.9a2.8,2.8,0,0,0,.1.9c1.5-.1,3,0,4.5-.2a39.9,39.9,0,0,0,4.7-1.1l-.2-.7Zm34.9-25.2a10.6,10.6,0,0,0-6.9,5.5A26.2,26.2,0,0,0,436.6,38.1ZM852.8,124l-.3-.6-7.7,2c.2.3.3.8.5.8a11.5,11.5,0,0,0,3.2.1,16.6,16.6,0,0,0,3.3-1.6Zm-726,15.9c.7,1.8,5.6,4.2,7.5,3.8A19,19,0,0,0,126.8,139.9Zm703.8.1v-.7h-8.9C824.8,140.2,827.6,141.6,830.6,140ZM422.1,49.7c1.1,1.5,7.7.4,8.6-1.2Zm390.6,88.6,2.9,6.2.7-.2c-.2-1.5,0-3-.6-4.3S814,139,812.7,138.3Zm-550,13c-2.5-3.1-5-5.5-8.4-6.7,2.1,1.9,4.6,3.5,6.2,6Zm563.2-16.8v-.7h-7.3A9.4,9.4,0,0,0,825.9,134.5ZM502.3,36.2c-2.1,2.1-4.3,3.9-5.6,6.8C499.1,41.6,502.6,37.2,502.3,36.2Zm166.8,85.5v-.8c-1.2-.9-2.6-.1-3.9,0a31.5,31.5,0,0,0-4.3.5v.2ZM260.4,58.8l-.5-.3-4,7.2C258.9,63.9,259.3,61.1,260.4,58.8Zm563.1,55.4c-2.5-2-5.7-1.9-6.4-.1ZM417.9,54.3h7C423.7,53,418.7,53.4,417.9,54.3Zm286.3,62.9-.5.5c.9,1.6,2.9,2,4.2,3.3s.7.1,1,.1a.4.4,0,0,0,.1-.3ZM226.7,72.3c-1.4-.4-1.4-.4-6,2.2.1.2.4.6.5.5ZM425.6,40.7l-.7-.8-.9,3.2a6.8,6.8,0,0,0,1.8-1.5c.3-.4.1-1.2.4-1.7s.7-.8.8-.5A8.6,8.6,0,0,0,425.6,40.7ZM390.7,86v.5h5.2a.8.8,0,0,1,.1-.4C394.2,85.8,392.5,85.1,390.7,86ZM260.6,106.8c0,.2.1.5.1.8l6-1a1.3,1.3,0,0,1-.1-.6Zm189.6-23v-.6c-1.4-.4-2.7-1.3-4.2-.4v.5Zm63.1-23.9-.4-.7L510,60.8l.2.5,2.2.4-.7-1.1Zm167.6,80.2-.3.7,3.9,1.7a1.9,1.9,0,0,0,.2-.7ZM279.5,56.6a4.8,4.8,0,0,0-4.7,2.2Zm425,24.7a.7.7,0,0,0-.1.5l4.2,1.4a1.4,1.4,0,0,1,.2-.7ZM381.7,122.4v.4l2.4,2.1c-.1-1-.2-1.6-.3-2.2ZM102.2,135.2H99C100,135.7,100.9,136.7,102.2,135.2Zm584.9-21.4c1.2,1.7,1.7,1.6,2.6-.4Zm-507.7,4.9a6.4,6.4,0,0,0,.2-.7l-3.1-.4a1.3,1.3,0,0,1-.1.6Zm78.7-62.6.5.3c.5-.9.9-1.8,1.3-2.7l-.5-.3C258.9,54.3,258.5,55.2,258.1,56.1Z"/><path class="e1b05503-566c-4721-8a99-087616941659" d="M107.6,111.1a5.4,5.4,0,0,1-.5-2.1c.2-1.4.2-3.2,1.1-4.1a7.7,7.7,0,0,0,1.7-2.9q1-3.6,2.4-7.2a16,16,0,0,0,1.3-6.9,27.2,27.2,0,0,1,.8-6.3,35.8,35.8,0,0,1,.9-4.5,25,25,0,0,1,1.4-3c.6-.2.9.4.9,1.3s-.1,1.6-.1,2.4.2,3.6.2,5.4a1.4,1.4,0,0,0,.2.6c.7,1.8,1.6,3.6,2.3,5.5a3.8,3.8,0,0,1,.3,1.8c-.4,3.5-1,6.9-3.1,9.9a25.9,25.9,0,0,1-6.5,6.3c-.8.5-1.2,1.7-1.9,2.6l-1.3,1.8Z"/></g></g></svg>