<svg xmlns="http://www.w3.org/2000/svg" viewBox="0 0 450.55 206.24"><defs><style>.cls-1{fill:#7481a5;}</style></defs><title>hojas-b</title><g id="Capa_2" data-name="Capa 2"><g id="designs"><path class="cls-1" d="M220.91,203.8c5.2-2.8,10.65-5.18,15.58-8.38a113.06,113.06,0,0,0,14.43-11.18c5-4.56,9.5-9.64,12.49-15.91a74.43,74.43,0,0,1,5.89-9.9c3.33-4.87,6.84-9.62,10.42-14.32,2.28-3,4.81-5.81,7.23-8.7l.7.45a31.35,31.35,0,0,1-1.78,4.16c-3.66,6.07-7.5,12.07-9.06,19.09A59.63,59.63,0,0,0,274.92,172c0,4.11,0,7.94-2.53,11.37a1.37,1.37,0,0,0-.1,1.11.92.92,0,0,0,.86.27,7.44,7.44,0,0,0,2.34-1.32c4.67-4.82,9-9.86,10.81-16.56,1.64-6.21,3.18-12.44,4.84-18.64s3.27-12.19,5.1-18.23a67.3,67.3,0,0,1,3-7c1.7.86,3,1.34,2.84-1.28-.11-1.41-.31-3.15.37-4.21a33.41,33.41,0,0,1,5.21-6.19c2.5-2.4,5.36-4.43,7.91-6.79,3.68-3.42,7.19-7,10.83-10.5,1.64-1.56,3.47-2.92,5.12-4.46.8-.75,1.26-1.86,2.09-2.56,5-4.28,10.11-8.49,15.21-12.69a23,23,0,0,1,3-1.7c-2.68,4.27-4.85,8-7.29,11.57-4.38,6.36-8.9,12.63-13.4,18.9-3.29,4.58-6.74,9-9.92,13.69-2.51,3.66-5.41,7.27-6.92,11.35-3.3,8.94-5.88,18.14-8.64,27.27-.75,2.48-1.06,5.11-1.57,7.67l-.69,0c-.2-1.46-.41-2.91-.6-4.37-.72-5.68-1.18-11.37.29-17,.78-2.95,1.3-6.06,2.65-8.75a103.36,103.36,0,0,1,7-11.55c2.81-4.15,5.75-8.23,8.86-12.16,2.58-3.28,5.5-6.29,8.26-9.43,1.89-2.15,3.81-4.27,5.61-6.48,2.34-2.88,4.61-5.82,6.86-8.78,1.24-1.63,2.37-3.35,3.55-5l-.65-.56c-1.62,1.76-3.3,3.46-4.84,5.29-3.44,4.1-6.74,8.32-10.23,12.36-2.41,2.79-5.29,5.17-7.53,8.07-4.13,5.37-7.55,11.32-12,16.4-6.06,7-8,15.41-10,23.89a22.89,22.89,0,0,0-.23,7.44c.42,4.25,1.09,8.49,1.83,12.7.38,2.14.49,4.54,2.88,6.28a9.5,9.5,0,0,0,.38-1.8c-.06-11.87,4.74-22.08,10.84-31.85,2.7-4.34,5.49-8.62,8.18-13,1.88-3,3.66-6.1,5.48-9.16a4.56,4.56,0,0,1,.2,2.53c-.67,3.72-1.32,7.43-2.1,11.13-.66,3.15-1.56,6.25-2.24,9.4a11.3,11.3,0,0,0,1.06,7.75,68.51,68.51,0,0,1,3.63-6c5.87-7.58,11.3-15.49,15.12-24.25,2.39-5.5,3.59-11.54,5-17.42,1.32-5.4,1.8-11,3.46-16.33,1.31-4.21.07-9.26,3.93-12.67.24-.22.07-.85.18-1.26.57-2.26.57-5,1.9-6.66,2.54-3.2,5.85-5.79,8.53-8.34-.62,4-1.3,8.38-2,12.72l1.14.21c.49-2.1,1-4.18,1.48-6.28,1-4.69,2.24-9.32,5.46-13s6.61-6.81,10-10.27a4.36,4.36,0,0,1,.07,1.23c-1.12,5.43-1.9,11-3.53,16.23a67,67,0,0,1-5.89,13.31c-2.93,5.11-6.91,9.7-8.23,15.56-1.2,5.36-1.86,10.84-2.69,16.27-.27,1.73-.32,3.5-.51,5.73.83-.49,1.37-.62,1.56-1,2.52-4.52,5.14-9,7.43-13.63a49.62,49.62,0,0,0,3.79-9.74c.94-3.73,1.14-7.64,1.71-11.47A43,43,0,0,1,379.72,63c.85-2.75,2.36-5.29,3.11-8.05,1.87-6.9,3.69-13.83,5.11-20.84,1.28-6.36,5.35-11.23,8.28-16.69,1.29-2.39,3.78-4.14,6.07-6.54-.46,11.12-.47,21.77,5,30.71a33.78,33.78,0,0,0-2.39,3c-1.4,2.37-2.5,5-4.09,7.18-2.58,3.6-5.4,7-8.22,10.45-4.61,5.59-6,12.51-8.14,19.15a1.56,1.56,0,0,0,.6,1.43,1.7,1.7,0,0,0,1.51-.4c.61-.58.91-1.48,1.52-2.06a80,80,0,0,0,15.68-19.91c1.88-3.47,3.29-6.83,3.2-10.8a23.4,23.4,0,0,1,.72-4.17,57,57,0,0,1,1.85,6.33c.38,2.24.86,4.63.44,6.79-1.59,8.06-3.42,16.09-5.38,24.07a58.63,58.63,0,0,0-2.11,16.71c.18,3.91.19,7.83.35,11.75.14,3.15.26,6.32.66,9.45.56,4.46,1.27,8.91,2.12,13.32a55.2,55.2,0,0,0,2,6.3,39.21,39.21,0,0,0,3.51-7.69c1.31-4,2.17-8.11,3.74-12,2.5-6.16,2.08-12.55,1.63-18.82-.65-9-2.17-17.92-3.07-26.9-.79-8-.51-16-2.61-23.83-1.13-4.19-2.12-8.42-3.2-12.63a6.45,6.45,0,0,0-.56-1.21c2.27,2.46,4.56,5.19,7.11,7.64,3.89,3.74,7.86,7.41,12,10.88a21.14,21.14,0,0,0,12.48,5,10.28,10.28,0,0,1,3.59,1.16c2.64,1.27,5.22,2.67,8.34,4.28a8.69,8.69,0,0,0-.36-2.44c-1.61-3.13-3.18-6.28-5-9.26a25.52,25.52,0,0,0-4.49-5.62c-5.4-4.84-11.84-8.08-18.35-11.11-5-2.34-10.14-4.52-15.25-6.7-2-.86-2.63-2.53-2.84-4.45-.24-2.19-.48-4.39-.53-6.59a37.76,37.76,0,0,1,2.09-14.75c-.86-.59-1.68-1.21-2.48-1.87a34,34,0,0,1-8.24,5.3c.09.28.18.56.28.84l3.46,0c-.79.91-1.35,2.19-2.24,2.49-4.17,1.4-7.09,4.77-11,6.58s-7.78,3.88-11.57,6c-4,2.24-7.87,4.78-11.89,7a5.6,5.6,0,0,1-7-1,75,75,0,0,1-6.25-7.08c-1.71-2.17-1.81-4.54-.73-7.21,1.53-3.79.18-7.51-2.27-10.22-2.22-2.47-5.45-4-8.31-5.89-.43-.28-1.22,0-1.85,0A5.24,5.24,0,0,0,336,1.77c2,3.7,4.07,7.32,5.93,11.06,1,2,1.42,4.28,2.43,6.28a46.57,46.57,0,0,0,4.13,6.7c1.58,2.13,3.48,4,5.57,6.39a9.45,9.45,0,0,1-2.24.62c-6.45-.29-12.9-.58-19.34-1a35,35,0,0,0-13,1.34c-2.55.81-5.36.8-8.05,1.15.52,3.28,23.82,9.53,34.28,8.59l-18.53,16.9.36.72a25.74,25.74,0,0,0,3.64-.53c6.66-1.93,13.37-3.74,19.93-6s13.75-3.08,19.53-7.46a34,34,0,0,1,6.69-4.26c-2.37,2.42-4.7,4.89-7.12,7.26-3.48,3.43-6.87,7-10.61,10.11a64.45,64.45,0,0,1-8.79,5.69,4.79,4.79,0,0,1-2.8.32c-3.54-.47-7.06-1.08-10.59-1.63-.43-.07-.86-.1-1.29-.14-2.89-.27-5.78-.48-8.65-.81-4.41-.51-8.81-1.22-13.23-1.62-5.63-.49-11.28-.6-16.67,1.61a16.1,16.1,0,0,0-2,1.21c0,.32,0,.64,0,1,5.09,1.21,10.28,2.12,15.25,3.71s9.7,3.87,14.43,5.8c-7.56.73-15.45,1.4-23.32,2.29a36.25,36.25,0,0,0-7.21,1.74c-2.14.7-4,1.06-6.2-.16-5.07-2.81-10.25-5.46-15.52-7.89a96.21,96.21,0,0,0-9.86-3.52,5.6,5.6,0,0,0-1.78,0,6.08,6.08,0,0,0,.79,1.57,55.21,55.21,0,0,0,5.95,5.9,17.11,17.11,0,0,0,5.64,2.66A74.62,74.62,0,0,0,282.1,79c.82.14,1.73-.28,2.55-.13A26.14,26.14,0,0,1,288.13,80c-5.11,2.8-9.86,5.2-14.4,7.92S264.5,93,260.47,96.38l.38.72,7.07-1.6-5.5,7.46c.92.15,1.58.47,1.82.28,3.75-3.14,8.43-2.7,12.8-3.45,3.87-.66,7.71-1.48,11.56-2.23a1.32,1.32,0,0,0,.5-.13c6.29-4.28,13.45-3.84,20.49-3.56,4.09.17,8.15,1,12.23,1.55.08.27.17.54.25.81-1.81,1.59-3.73,3.08-5.42,4.79-7.19,7.28-16.36,11-25.78,14.09a124.57,124.57,0,0,1-13,3.52,14.9,14.9,0,0,1-5.79-.21,53.39,53.39,0,0,1-12.91-4.71c-8.76-4.25-17.86-7.78-27.18-11.76.56-4.47,2.16-9.62-.12-14.72-.89-2-1.7-4-2.59-6,0-.11-.48,0-1-.09-.66,6.89-3.38,13.69.43,20.94-9.95-1.89-19.63-2.1-29.72.44.64.67,1,1.26,1.47,1.51,8.28,4.08,16.59,8.1,24.84,12.23a3.53,3.53,0,0,1,1.56,2.1c.63,2.34,1,4.75,1.66,7.79-2.14-1.59-3.95-3-5.87-4.35-3-2.07-6.14-4-9.18-6.06-1.2-.81-2.33-1.74-3.45-2.66-6.12-5-13.39-7.31-21-8.78-4.65-.9-9.29-1.83-14.39-2.33a15.81,15.81,0,0,0,2.55,2.24c2.15,1.19,4.46,2.07,6.6,3.27,3.21,1.78,6.15,4.17,9.53,5.48a42.33,42.33,0,0,0,12.13,3c6.26.44,11.11,3.44,16,6.81,4.21,2.91,8.6,5.56,12.9,8.33a4.93,4.93,0,0,1,1.59,1.27c.19.3-.14,1.38-.37,1.43-3.4.64-6.87,1-10.24,1.76-4.84,1.14-7.77-2.2-11.23-4.36a5.38,5.38,0,0,0-2.57-.93c1.42,3.35,4.56,4.56,7.81,6.42-1,.38-1.64.67-2.3.85-7.86,2.15-14.08-1.23-19.77-6.06-6.07-5.15-11.76-10.8-18.12-15.56-4.1-3.06-9-5.23-13.75-7.21-4.38-1.81-9.08-2.87-13.67-4.17S142.58,102,138,100.76l-.49.76a20.7,20.7,0,0,0,3.09,3.3c6,4.2,10,10.28,14.76,15.7a59.19,59.19,0,0,0,6.87,6.56c2.66,2.17,5.53,4.09,8.38,6,7,4.75,14.87,6.55,23.15,7.07a1.68,1.68,0,0,1,1.35,1.12c-2.49-.22-5-.41-7.46-.65-3.76-.35-7.52-.7-11.27-1.12-5.35-.6-9.87-3.16-14.25-6.06-1.05-.7-2.2-1.67-3,.59l8.82,5-.15.81c-2.69-.23-5.45-.15-8-.78s-5.11-1.95-7.94-3.09l.41,2.17a14.08,14.08,0,0,1-2.74-.48c-3.82-1.47-7.7-2.84-11.35-4.67-1.22-.62-1.79-2.52-2.71-3.79a31.93,31.93,0,0,0-2.86-3.67,24.83,24.83,0,0,0-3.05-2.26c-3.92-2.94-5.33-7.51-7.2-11.68A84.91,84.91,0,0,0,111.47,93.9C109,90.74,106,88,103.28,85A5.15,5.15,0,0,1,102,83.16c-.87-3.28-1.59-6.6-2.45-9.88A2.09,2.09,0,0,0,98.47,72a2,2,0,0,0-1.69.36c-1.5,1.48-2.88,3.08-4.23,4.54l-7.86-4.71-.84.67,4.51,8.76c-3.3,4.47-4.42,10-5,15.33s.16,10.73.33,16.38c-1.18-1.58-2.34-3.33-3.71-4.91-.85-1-2.16-1.56-3-2.54-2.46-2.8-3.08-6.39-3.09-9.87,0-6.8.44-13.61.75-20.42.15-3.31,1-6.7.5-9.91a40.29,40.29,0,0,0-3.31-10.33,88.33,88.33,0,0,0-5.63-10.39c-1-1.61-1.94-3.59-4.83-3.91,1.44,16.51.88,32.85,4.57,49.73-3.58-4.18-6.88-7.68-9.78-11.49-5.8-7.59-12-14.57-20.72-19.05-5.07-2.6-9.75-6-14.47-9.24-4.44-3-8.76-6.29-13-9.57C5.81,39.8,4,37.86,2,36.17c-.43-.35-1.2-.3-1.81-.43,0,.54-.3,1.17-.11,1.6a9.72,9.72,0,0,0,1.74,2.83A10.73,10.73,0,0,1,5,45.68C5.3,47.28,7.05,48.54,8,50a53,53,0,0,1,3.25,5.53c5.13,10.37,12.07,19,22.14,25.14a136,136,0,0,0,18.38,9c4.52,1.91,8.56,5,12.8,7.53a22.39,22.39,0,0,1,4,2.68c3.09,2.92,6.06,6,9,9s5.89,6.48,9,9.57c3.48,3.47,7.09,6.81,10.76,10.07,1.09,1,2.57,1.48,3.68,2.76-4.23-.89-8.45-1.86-12.7-2.64-5-.91-10-1.5-14.93-2.58a11.69,11.69,0,0,1-4.58-2.79c-1.55-1.31-2.79-3-4.24-4.42a4.52,4.52,0,0,0-1.27-.78c-.14.47-.29.93-.44,1.4l4.92,4.21-.86,1c-1.79-.35-3.79-.3-5.33-1.12h0c-.28.89-.58,1.77-.89,2.65q2.85.27,5.72.72c2.38.38,4.74.83,7.12,1.21,4.48.72,9,1.33,13.46,2.14,4.73.86,9.42,1.93,14.14,2.86a12.4,12.4,0,0,0,2,0,7.1,7.1,0,0,1,2.63.17c3.8,1.71,7.4,4,11.32,5.28,7.22,2.42,14.62,4.31,22.05,6.46-3.3,1.57-6.56,3.17-9.86,4.68a5.78,5.78,0,0,1-2,.22c-6.68.32-12.64-2.32-18.59-4.73-7.08-2.87-14.2-5.26-21.94-5.39-8.25-.13-16.5-.37-24.75-.53a3.66,3.66,0,0,0-1.32.53,11.05,11.05,0,0,0,.61,1.3c.35.58.77,1.13,1.12,1.65a20.68,20.68,0,0,1,4.14,1c7.12,3.2,14.18,6.53,21.26,9.81,2.31,1.06,4.43,2.21,7.33,1.59,2.3-.49,4.88.28,7.36.49L95,159.13c-.15.06-.34.06-.5.12-3.73,1.32-7.47,2.61-11.18,4-2.39.9-4.77,2.94-7.08,2.82a193.13,193.13,0,0,1-21-2.43,40.57,40.57,0,0,0-19.78,1.63c-7.06,2.39-13.84,5.6-20.71,8.53-.56.24-.89,1.06-1.6,2,2.08-.3,3.53-.79,4.91-.65,3.36.35,6.66,1.24,10,1.44a82.55,82.55,0,0,0,11.23-.18c7.77-.62,15.65-.83,23.24-2.39,6.36-1.32,12.37-4.33,18.54-6.59.15-.06.36-.11.44-.23,2-3.37,5.53-4,8.81-5.15,2.75-.95,5.46-2,8.22-2.92,2.38-.78,4.82-1.4,7.23-2.1a3,3,0,0,1-1.2,1.49c-4.38,3.26-9.06,6.2-13,9.88-3.36,3.1-6,7-8.8,10.68-2.55,3.34-4.91,6.83-7.29,10.3-.32.46-.21,1.22-.3,1.84a16.36,16.36,0,0,0,1.73-.49c4-1.62,8-3.79,12.14-4.78,5.92-1.39,10-5.24,13.89-9.24s7.21-8.47,10.94-12.6a64.34,64.34,0,0,1,8.33-8.26c2.89-2.22,6.38-3.67,9.61-5.44a65.42,65.42,0,0,1,19.58-6.77c1.74-.32,4.05-1.64,5.51,1,.1.18,1.3,0,1.74-.3a15.23,15.23,0,0,1,8.42-3.06c8.69-.64,17.09.63,25.47,2.1-4.06,2.33-8.13,4.49-12,6.94C176,153,172,156.7,167.34,158.83c-6.21,2.81-12.42,5.87-19.28,7.14a126.74,126.74,0,0,0-13.69,3.41c-4.87,1.47-8.61,4.78-12.55,8.67a10,10,0,0,0,2.49.51c2.72-.24,5.43-.54,8.13-.93,5.81-.83,10.65-3.93,15.48-6.91,1.77-1.09,2.84-3.45,4.67-4.3,3.37-1.57,7.07-2.45,10.94-3.72-2.4,2.29-4.82,4.28-6.85,6.61-2.69,3.09-5,6.49-7.61,9.66-3.85,4.68-7.85,9.25-11.67,14-.66.82-.77,2.1-1.13,3.17l.82.61c2.5-4.48,7.26-4.18,11.13-5.69,3.42-1.33,7.2-1.86,10.46-3.46a148.61,148.61,0,0,0,13.24-7.85c2.24-1.41,4.77-2.73,6.37-4.73,3.53-4.39,6.24-9.44,9.86-13.75A174.49,174.49,0,0,1,203,145.48c2.57-2.38,5.8-4.65,9.85-3.8,1-2.51,7.83-4.19,11.05-3L220,143.39c.18.24.37.48.55.73.62-.32,1.26-.59,1.84-1,3.78-2.37,7.34-5.25,11.38-7s8.48-2.42,12.78-3.42c9.07-2.12,17.36-6.28,25.94-9.68,3-1.2,6.09-2.29,9.18-3.31,3.31-1.1,6.7-2,10-3.11s6.31-2.4,9.46-3.61c-3.92,4.65-7.52,7.67-11,8.61-8.56,2.3-17.23,4.28-25.66,7A67,67,0,0,0,251.42,135c-2.23,1.29-3.94,3.48-5.86,5.29-2.76,2.59-5.49,5.2-8.24,7.8l.38.66,30.79-7.9c.11.22.22.44.32.66-7.29,4.21-14.5,8.55-21.9,12.56a50.48,50.48,0,0,1-10,4c-3.11.88-6.41,1-9.6,1.65-9.72,1.89-18.32,6.3-26.36,11.92a7.44,7.44,0,0,0-1.34,1.67,7.16,7.16,0,0,0,2.25.74c1.71,0,3.44-.62,5.13-.48a31.58,31.58,0,0,0,18.43-4.31c4.46-2.51,8.81-5.2,13.18-7.87,2.84-1.74,5.57-3.67,8.44-5.35,5.63-3.27,11.38-6.32,17-9.65,4-2.38,7.72-5.14,11.65-7.59,3.57-2.24,7.88-3.26,10.72-6.69.22-.26.78-.24,1.51-.44-1.48,1.84-2.68,3.37-3.91,4.86-3.5,4.21-7.34,8.17-10.41,12.66-2.69,3.95-4.39,8.3-9.38,10.44-3.33,1.43-5.74,4.85-9,6.64-5.78,3.19-10.47,7.68-15,12.28-4.95,5.06-9.1,10.89-13.79,16.22-2.81,3.2-6,6.06-9,9.13a6.49,6.49,0,0,0-.9,1.87l.66.51C218.44,205.42,219.62,204.5,220.91,203.8ZM376.15,71.51Q371.85,85,367.56,98.58l-.66-.21c-1-10.24,2.52-19.07,8.14-27.21Zm11.61,5.32c1.81-10.63,10.56-17.08,15.91-26.26C403.87,53.1,391.3,73.35,387.76,76.83ZM339,3.24c5.43.74,9.25,8.12,7,13.77C343.57,12.37,341.23,7.72,339,3.24ZM327,33.29c6,0,12,.43,18,.72,2.64.13,5.28.49,7.92.46a46.46,46.46,0,0,0,6-.9c-2.13,2.71-4,3.32-6.86,3.09-4.52-.39-9.11.27-13.66.07s-9.15-1-13.74-1.36a24.76,24.76,0,0,0-4.66.49C321.86,33.39,324.58,33.28,327,33.29Zm-1.8,5.42a25.63,25.63,0,0,1-4.93-1.45c.07-.28.14-.55.2-.83l32.87,1.78c-2.16,1.19-3.47,2.95-6.54,3.28C339.32,42.29,332.46,39.37,325.24,38.71Zm9.63,16.67c4.47-7,41.49-32.81,51.76-35.13a63.1,63.1,0,0,1-14.74,14.31C366.33,38.63,360,41,354.2,44.43c-6.23,3.74-12.55,7.32-18.83,11C335.24,55.46,335,55.39,334.87,55.38Zm28.86-6.77c-4.21,1.7-8.73,2.62-13.11,3.89l-14.68,4.23-.42-.77c3.77-1.85,7.62-3.54,11.27-5.58S353.4,45.63,357,44a97.81,97.81,0,0,0,20.48-12.25c3.51-2.71,6.07-6.62,9.22-9.83,2.25-2.31,4.74-4.37,7.15-6.52a5.9,5.9,0,0,1,1.51-.55c-1.52,3-2.63,5.63-4.17,8-2.48,3.84-4.85,7.87-8,11.16C377.64,40,371.45,45.49,363.73,48.61ZM270.64,72.68l.39-1,8.28,3.12-.36,1Zm38.91,73.16a1.2,1.2,0,0,1,0-.64c1.33-4.33,2.48-8.72,4.07-12.94,3.46-9.21,9.7-16.71,15.54-24.43,1.86-2.47,3.48-5.12,5.22-7.67.26-.38.58-.7.87-1C328.71,115.9,319.31,131.06,309.55,145.84Zm41.76-57.58c-1.07,5.5-2,11-3.28,16.5-1.22,5.29-3.8,10-6.09,14.92-2.65,5.68-6.74,10.27-9.56,15.72a10.33,10.33,0,0,1-2.67,3.1l22.74-56.68C352,84.31,351.69,86.29,351.31,88.26Zm4-18.47c-4.57,12-9.1,24-13.71,35.95s-9.28,23.79-13.93,35.69l-.57-.07c.52-3,.94-6.07,1.56-9.07,1.22-5.87,2.43-11.75,3.87-17.56,1-4,2.44-8,3.57-12,2-7.17,6.86-12.69,10.74-18.8,2.33-3.66,4.09-7.7,6.12-11.55.52-1,1.12-1.92,1.68-2.88Zm-54.43-4.61a14.15,14.15,0,0,1-2.26.14c0-.26,0-.52,0-.77,3.92-2.1,8.31-2.19,12.47-1.81,6.79.61,13.51,2.08,20.27,3.05,3.55.51,7.15.72,10.72,1.06,1.35.13,2.71.23,4.66.4a10,10,0,0,1-7.47,1.61Q325,67.13,310.69,65.28c-2.2-.28-4.37-.87-6.56-1C303.08,64.21,302,64.94,300.91,65.18ZM311,66.89l34.18,2.91C333.31,74.54,321.7,73.88,311,66.89Zm-2.89,12c-11.32,2.45-22.49,5.3-32.29,12,1.54-.62,3.06-1.29,4.61-1.86,6.66-2.46,13.17-5.45,20-7.17,7.22-1.82,14.78-2.28,22.14-3.61,4-.71,7.82-2,11.73-3a4.4,4.4,0,0,1,1.2,0l.22.69c-2.08,1.12-4,2.61-6.25,3.28-5.09,1.55-10.35,2.54-15.46,4a143.16,143.16,0,0,1-24.19,5.12c-4.6.52-9,2.58-13.59,3.46-2.58.49-5.26.45-7.75,1.56C275.87,86.05,300,77.23,308.08,78.87ZM285.29,91.26c7.11-2,13.51-4.58,19.93.69C298.77,91.86,292.37,94.07,285.29,91.26ZM273.57,99c-.07-.36-.14-.72-.2-1.08l14-2.73.23,1.36Zm16.14-4.65c.11,0,.16.28.56,1C282,93,275,96.63,267.81,99.12c.89-2.48,4.22-5.51,6.89-6C279.8,92.08,284.78,93,289.71,94.34Zm29.22-.89c-4.14-1-8.18-2.38-12.27-3.59-1.7-.5-3.42-1-5.12-1.62,18-4.21,35.9-8.44,50.45-21l.66.93a22.73,22.73,0,0,1-2.84,3.57c-5.95,5-12,9.87-18,14.88-2.07,1.74-3.82,3.86-5.89,5.61A7.74,7.74,0,0,1,318.93,93.45ZM230,90.64l-.36-.26c-.17.34-.33.68-.49,1l-.24-.21c.11-1.25.21-2.51.33-3.85,2.29,2.32,2.67,5.35,1,8.47C230.12,93.9,230.05,92.27,230,90.64ZM185.33,106.4l.25-.92a51.35,51.35,0,0,1,17.12,4.71l-.22.93Zm6.75,3.55,17,3.76-.18.73C206.87,115.18,195.82,112.51,192.08,110ZM63.19,44.63c5.38,7.54,2.3,15.64,2.24,23.54l-.65,0ZM66,72.7a9.91,9.91,0,0,1,0-1.54c.57-5,1.27-10.09,1.67-15.15a36.35,36.35,0,0,0-.55-6.2C70,55.94,74,61.57,73,69c-.93,7.1-.92,14.32-1.25,21.49-.06,1.37.2,2.75.09,4.15C68.76,87.61,66.3,80.43,66,72.7ZM5.19,42.37l.61-.51a45.8,45.8,0,0,0,4,3.39C18,50.78,26,56.54,34.38,61.63,42.14,66.33,49,71.8,53.9,79.49c.51.79,1.19,1.47,1.77,2.22s1,1.35,1.67,2.36c-4.58-3.14-8.66-6-12.86-8.77C40.91,73,37,71.12,33.62,68.58,26,62.9,18.49,57.13,11.29,51,8.71,48.74,7.19,45.27,5.19,42.37Zm61.1,53.69c-4.24-2.49-8.38-5.18-12.76-7.41-2.93-1.5-6.25-2.21-9.29-3.53a58.41,58.41,0,0,1-6.66-3.67C31.77,78,26,74.33,21.83,68.85c-3.71-4.91-6.91-10.22-10.33-15.36l.4-.06c9.69,7.16,19.31,14.4,29.1,21.42,3.54,2.53,7.74,4.17,11.15,6.85,4.34,3.4,8.14,7.48,12.23,11.2,1.38,1.27,2.93,2.36,4.4,3.53l-.55.79Zm2.76,74.08c-13.57,4.44-27.56,5-41.6,5.18,0-.32-.09-.64-.14-1,2.7-.65,5.39-1.36,8.11-1.93s5.37-.92,8-1.46c.48-.1.86-.62,1.29-1A109.17,109.17,0,0,0,69.05,170.14Zm4.06-2.8a4.63,4.63,0,0,1,1.15.2v.74c-2.54.24-5.07.6-7.61.69-6.32.22-12.64.3-19,.49a17.81,17.81,0,0,0-2.94.53l.06-.06c-6.51,1.3-13,2.67-19.58,3.88a8.54,8.54,0,0,1-4.65-.67,13.11,13.11,0,0,1,2.37-1.47c5-1.85,10-3.8,15.15-5.37C44,164.51,50,165,56,165.89,61.67,166.75,67.31,167.9,73.11,167.34ZM68.94,142c15.4-.54,30.73-.74,45.18,7.59C98.21,150,83.7,145.21,68.94,142Zm43.73,15.19c-11.56,8.44-19.53,21-32.28,28.05C88.76,173.17,97.43,161.42,112.67,157.23Zm8.5-2.84c-2.21,2.22-4.51,4.36-6.59,6.69-4,4.52-7.75,9.28-11.87,13.69-4.24,4.56-8.67,8.9-15.29,10-2.16.37-4.15,1.7-6.21,2.6l-.77-1.08a15.34,15.34,0,0,0,2.67-1.39c3.29-2.55,6.63-5.05,9.73-7.81,7.82-6.95,15.48-14.07,23.31-21,1.27-1.12,3-1.66,4.59-2.47Zm-.74-3.41.1.85a65.45,65.45,0,0,1-7.45,1.15c-6.48.28-13,.32-19.46.46a1.84,1.84,0,0,1-.52,0c-6.35-1.88-12.6-4-18-8l.15-.67c2.2.36,4.41.68,6.6,1.1,7.51,1.44,15,3.05,22.53,4.3,2.92.48,6,.07,9,.19C115.71,150.5,118.07,150.78,120.43,151ZM97.89,74.07c-.69,1.85-1.29,3.44-1.88,5C93.57,78,93.85,77.18,97.89,74.07ZM89,80.4c-.34-.62-.7-1.24-1.06-1.87l.68-.52c2.52,2.77,5,5.53,7.55,8.33,1,1.08,1.86,2.23,2.73,3.39,3.22,4.27,6.44,8.54,9.6,12.85,3.36,4.59,6.63,9.25,10,13.83a4.37,4.37,0,0,0,1.47.94c-3-4.42-5.86-8.95-9-13.24-5.28-7.1-10.75-14-16.17-21-1.08-1.39-2.32-2.65-3.48-4l.44-.57c2.31,1.66,4.68,3.23,6.91,5a66,66,0,0,1,17.15,20.1c3.3,6,6.43,12.09,9.67,18.11.44.82,1.24,1.44,1.7,2.25a31.75,31.75,0,0,1,1.36,3.09l-.87.65c-4.41-2.62-8.87-5.17-13.24-7.87a35.8,35.8,0,0,1-11.74-12.4C99.8,102.62,98,97.17,95.53,92.12,93.55,88.12,91.21,84.3,89,80.4Zm.09,2.9c1.09,1.9,2,3.25,2.62,4.68a2,2,0,0,1-.13,1.72c-3,4.26-3.66,9.21-4.36,14.17a10.44,10.44,0,0,1-1.49,3.69C83.82,99.26,86,91.54,89.11,83.3Zm3.72,7.15c2.3,3.63,3,7.16.46,11.15-1.8,2.83-2.89,6.1-4.32,9.16-.09.18-.43.24-.65.35C86.35,108.12,89.76,92.6,92.83,90.45Zm53.91,52.39a105.05,105.05,0,0,1-15.55-1.69A122.83,122.83,0,0,1,116,136.49c-1.56-.55-2.78-2-4.26-2.88-1.87-1.09-3.85-2-5.77-3a47.72,47.72,0,0,1-6.31-3.39c-3.3-2.4-6.72-4.8-9.37-7.82-1-1.18-.65-4.23,0-6.12C91.84,108.6,93.93,104.05,96,99l7.62,12.23c3.45,5.53,8.51,9.29,14,12.51,7,4.12,14,8.28,21.26,12,3.58,1.87,7.61,2.87,11.44,4.27a2.67,2.67,0,0,1,1.47,1.14C150.09,141.79,148.39,142.93,146.74,142.84Zm-4.14,26.34c0,.51-.08,1-.12,1.45-1.31.45-2.62.94-3.94,1.36-3.36,1.08-6.73,2.13-10.17,3.23C129.68,172.45,137.58,170.32,142.6,169.18Zm6-1.18c-5.48,3.87-10.83,7.16-17.92,8.14l11.8-5.51v0l0,0,0,0h0C144,168.93,145.65,167.41,148.6,168Zm39-8.75c-3.68,4.4-6.57,9.47-10.24,13.88-2,2.41-4.82,4.22-7.44,6-3.48,2.4-7.14,4.56-10.73,6.8a8.12,8.12,0,0,1-1.86.88c-4.12,1.21-8.26,2.38-12.39,3.57l-.69-.8c3.3-2.56,6.67-5,9.87-7.7,7-5.87,14.4-11.36,20.73-17.89a113.27,113.27,0,0,1,24.06-18.77,18.63,18.63,0,0,1,2.61-1C196.66,149.39,191.87,154.11,187.58,159.25Zm20.3-18.38c-2,.61-4.08,1.13-6.06,1.85A53.42,53.42,0,0,0,185,153.11c-7.79,6.82-15,14.26-22.76,21.17-4.64,4.15-9.74,7.78-14.63,11.66-1.86,1.48-3.71,3-5.56,4.5l-.53-.47c1.67-2,3.34-4,5-6a46.46,46.46,0,0,0,4.48-5.29c4.53-7.34,11.13-12.81,17.33-18.5,4.41-4.06,10-7,15.25-9.95s10.87-5.68,16.46-8.18c2.34-1,5-1.3,7.58-1.92Zm-26.44-4.1A48.15,48.15,0,0,1,160.91,124c-4.79-5-9.23-10.35-13.61-15.79l19.87,11.16.37-.66L142.65,104l.24-.52c1.5.5,3,1,4.51,1.5,6.27,1.94,12.61,3.69,18.81,5.82a42.38,42.38,0,0,1,17.55,11.28,76,76,0,0,0,18,14.41c.11.06.13.28.31.72-6.93-.88-11.72-5.48-17.23-8.68s-11-6.2-16.79-8.92c2.78,2,5.47,4.15,8.39,5.93,4.76,2.89,9.63,5.62,14.56,8.24,3.5,1.86,7.17,3.42,10.11,4.81A44.75,44.75,0,0,1,181.44,136.77Zm88.42-14.05a35.61,35.61,0,0,0-3.85,1c-7.82,2.86-15.62,5.78-23.43,8.66a4,4,0,0,1-1.74.29c-5.45-.63-11.76-7.65-11.74-13a6.1,6.1,0,0,1,.46-1.53c6.47,2.86,13.06,4.76,20,4.77C256.27,122.88,263,122.48,269.86,122.72Zm-22.72-1.56a46.07,46.07,0,0,1-19.72-6C222,112,216,109.7,210.3,107a1.5,1.5,0,0,1-.8-1.38c2.29.73,4.57,1.51,6.88,2.15a5.47,5.47,0,0,0,1.93-.21c1.34,2.43,4.08,1.95,6.14,2.73,5,1.89,10.14,3.41,15.28,4.89,2.77.79,5.65,1.19,8.48,1.76,1.16.23,2.34.37,3.48.67a94.56,94.56,0,0,1,12.06,3.85C258.21,121.37,252.65,121.61,247.14,121.16Zm22.87-.65c-3.05-.46-6.13-.78-9.14-1.42-4.25-.9-8.41-2.24-12.68-3a140.44,140.44,0,0,1-21.26-6.26c-2.8-1-5.77-1.56-8.66-2.32l0,.06c-3.93-1.44-7.85-2.86-12.42-4.51,3.05-.31,5.67-.78,8.29-.78a66.44,66.44,0,0,1,9,.71,79.59,79.59,0,0,1,25.68,7.74c4.7,2.4,9.39,4.84,14.13,7.16a18.54,18.54,0,0,0,3.45.87c1.25.31,2.48.66,3.72,1C270.12,120,270.06,120.24,270,120.51Zm-37.34,41.31-.77.66c-5.2,4.91-11.67,7.24-18.41,9a4.66,4.66,0,0,1-2.76-.06l1-.59a12.8,12.8,0,0,0-2.49.12c-1.36.31-2.67.8-4.64,1.41,3.74-4.62,16.45-10,29.26-12.58Zm57.38-14c-2.25,8.35-4.16,16.81-7.57,24.79l-.82-.25q3.6-12.44,7.22-24.86Zm-10.34-13a119.09,119.09,0,0,1-30.26,9.05,24.34,24.34,0,0,0-4.37,1.45,3.34,3.34,0,0,1-2.2.23l2.85-2.05a5.25,5.25,0,0,1-.54-.79c5.92-5.82,12.56-10.52,20.68-12.75,6.91-1.89,13.85-3.63,20.79-5.43.45-.12.92-.16,1.39-.24.07.21.13.41.2.61-4.26,1.62-8.51,3.26-12.78,4.86-5.27,2-10.62,3.78-15.8,6a114.34,114.34,0,0,0-10.48,5.44c-.68.37-1.11,1.2-1.66,1.82,6.9-3.41,13.72-7,20.71-10.17,2.93-1.34,6.27-1.73,9.31-2.85,4.75-1.75,9.4-3.76,14.09-5.64a1.55,1.55,0,0,1,1.42.1c-1,.89-1.87,1.85-2.9,2.65C286.72,129.74,283.59,133.14,279.71,134.82Zm12.86-4.15a5.07,5.07,0,0,1,2.22-2.23c-.42,1-.91,2-1.25,3-1.62,4.93-3,10-4.84,14.79A106.89,106.89,0,0,0,283,164.61a59,59,0,0,1-3,10.18c-.87,2.21-2.48,4.12-4,6.53.32-6.12,0-11.71,1.08-17a73.53,73.53,0,0,1,5.84-15.83C285.76,142.39,289.29,136.59,292.57,130.67Zm-41.71,51.77A92.09,92.09,0,0,1,229,198.58c.07-.75,0-1.08.12-1.21,6.36-6.26,12.7-12.55,19.14-18.74,3-2.91,6.22-5.61,9.31-8.44a3.64,3.64,0,0,0,.57-1.09h0l8.07-8.39C265.94,162.88,255.12,178.27,250.86,182.44Zm-9.39-2.72c6.3-5.67,13.09-10.81,19.66-16.19l.49.47L258,169.14a61.1,61.1,0,0,0-5.58,4.24c-6,5.71-12,11.54-17.9,17.35-3,3-6,6-9.25,8.75A83.58,83.58,0,0,1,241.47,179.72Z"/></g></g></svg>