<svg xmlns="http://www.w3.org/2000/svg" viewBox="0 0 39.6 32.1"><defs><style>.f68d4975-f891-4b02-a135-d527163b55a7{fill:#2f3136;}</style></defs><title>hojai</title><g id="fc838b68-65b8-4c35-bb09-972bb7040517" data-name="Capa 2"><g id="f2b1e070-cfbd-4e99-b1b9-efd6b1e3e579" data-name="OBJECTS"><path class="f68d4975-f891-4b02-a135-d527163b55a7" d="M20,.6a.6.6,0,0,0,.1.6c.7,1.7-.1,3.1-.4,4.8a9.3,9.3,0,0,0,.3,4.7A16.1,16.1,0,0,0,21.2,14a11.6,11.6,0,0,0-6.4-3c-5.2-.7-9.1,1.6-14,2.6l-.6.5a.9.9,0,0,0,.1,1.3h0c4.3,3.3,11.1,6.2,16.9,5.1-3.2,2.8-5.8,6.1-6.6,10.6a.8.8,0,0,0,.3.7.7.7,0,0,0,.9.2h0c3.5-1.9,7.7-1.6,10.3-5.1a10.9,10.9,0,0,0,2.2-8.9,37,37,0,0,0,14.8-1.8c1-.3.3-1.8-.7-1.5a33.8,33.8,0,0,1-13,1.7,8.4,8.4,0,0,0,2-6.8A11.1,11.1,0,0,0,21.3.1h-.1a.9.9,0,0,0-1.1.3ZM2.5,14.9c2.6-.8,5-1.9,7.8-2.3a11.7,11.7,0,0,1,11.2,4.1C16.4,21.2,7.8,18.5,2.5,14.9ZM19.6,27.1c-1.9,1.7-4.6,1.9-7,2.7,1.5-5.1,5.8-8.5,10.1-11.5A8.9,8.9,0,0,1,19.6,27.1ZM25.4,7.8A7.3,7.3,0,0,1,24,15.4a11.8,11.8,0,0,1-2.5-9.9,10.5,10.5,0,0,0,.5-3A9.4,9.4,0,0,1,25.4,7.8Z"/></g></g></svg>