<?xml version="1.0" encoding="utf-8"?>
<!-- Generator: Adobe Illustrator 23.0.2, SVG Export Plug-In . SVG Version: 6.00 Build 0)  -->
<svg version="1.1" id="Capa_1" xmlns="http://www.w3.org/2000/svg" xmlns:xlink="http://www.w3.org/1999/xlink" x="0px" y="0px"
	 viewBox="0 0 395.9 177.8" style="enable-background:new 0 0 395.9 177.8;" xml:space="preserve">
<style type="text/css">
	.st0{fill:#FFE594;}
</style>
<title>hojas-a</title>
<g>
	<g id="designs">
		<path class="st0" d="M46,147.3c-0.9,3.7-1.8,7.3-2.8,11.1l-2.1-2.3c-0.5,2.1-1.8,4.2-1.3,5.8c1.2,4-0.4,6.9-2.6,9.9
			c-0.3-1.3-0.1-2.6-0.3-3.9c-0.3-1.2-0.6-2.4-1.1-3.5h-1.2c0.8,3.4,0.8,6.9,0.1,10.3c0.8,1,1.6,2,2.4,3c0.7,0,1.3-0.1,1.9-0.3
			c4.2-2.5,8.1-5.4,12.4-7.6c6-3,12.3-4.5,19.1-2.7c5.1,1.4,10.2,2.6,15.4,3.6c6.4,1.2,12.3-0.8,17.7-4.1c0.1-0.1,0.1-0.3,0.3-0.9
			c-9-3.4-19-0.5-27.5-4.3c2.7-2,5.6-4.1,8.4-6.4c2.9-2.3,5.5-4.8,7.8-7.6c2.1-2.6,4.1-5.3,6-8.2l-1.2-0.7c-0.6,0.6-1.3,1.1-2,1.5
			c-8.3,2.7-13.8,9-19.4,15.1c-1.3,1.1-2.6,2.1-4.1,3l0,0c-2.4,1.6-4.8,3.4-7.3,5c-0.5,0.4-1.3,0.3-1.9,0.5
			c-7.1,3.1-14.2,6.3-21.3,9.5c-1.3,0.8-2.5,1.7-3.6,2.7c0.2-4.8,3.6-7.7,6.2-11.1c2.9-3.7,5.9-7.4,9-11c0.9-0.9,2-1.6,3.2-2.1
			c4.4-2.5,9.1-4.5,13.1-7.4c4.7-3.4,9.2-7.2,12.1-12.4c1.2-2.2,2.6-4.2,5.9-3.6c3.6,0.6,7.4,0.3,11.1,0.9c5.3,0.8,8.8,4.4,11.5,8.7
			c4.7,7.4,13,10,21.2,7c1-0.2,2-0.4,3-0.4l-14.9-8.3c-4.7-2.6-10.2-3.8-14.2-7.2c-1.1-0.2-2.1-0.4-3-0.6c-1.1-0.4-2.3-0.7-3.4-0.9
			c-2.6-0.3-5.3-0.4-7.9-0.4c-1.9,0-3.8,0.1-5.8,0.2c0.1-0.3,0.2-0.6,0.3-0.9c2.7-4.4,9.6-7.1,14.5-5.6c3,0.9,4.1,0.7,7-1.2
			l-10.7-1.1c4.5-4.2,9.3-6.8,15.6-3.4c0-0.2,0-0.5,0-0.7c-0.2-0.3-0.5-0.6-0.7-0.8c-0.4-0.3-0.6-0.7-0.6-1.2
			c1.6,0.3,3.3,0.2,4.8,0.8c8.3,3.6,16.4,7.3,24.6,10.9c3.1,1.5,6.3,2.7,9.6,3.6c3.3,0.7,6.6,1.1,10,1.1c4.4,0.2,8.7,0.3,13.1,0.1
			c4.1-0.2,8.1-1,12.2-1.4c0.8-0.1,1.5,0.1,2.3,0c0.5-0.1,1-0.4,1.4-0.7c-0.2-0.4-0.3-1-0.7-1.2c-6-4.1-12-8.2-18.1-12
			c-5.5-3.4-11.4-6.2-18-6.9c-6.1-0.6-12.1-1.8-18.2-2.6c-1.2,0-2.3,0.1-3.5,0.4c-3,0.3-6,0.4-8.9,0.8c-1.5,0.3-2.9,0.7-4.4,1.2
			l-0.3-0.6c2.2-1.2,4.4-2.4,6.6-3.5c4.2-2.1,8.3-4.4,12.6-6.2c3.9-1.7,7.9-3,12-3.8c3.5-0.6,7.3-0.3,10.9-0.2
			c1.6,0,2.4-1.7,4.4-1.1c5.7,1.5,11.6,2.4,17.4,3.5c4.3,0.9,8.6,2.2,13,2.7c6.4,0.7,12.8,0.3,19-1.3c1.7-0.4,3.5-0.6,5.2-0.9
			c4-0.7,7.9-1.5,12.1-2.3c0.3,1,0.6,2.1,0.6,3.2c-0.2,3.3-0.9,6.7-0.7,10c0.3,3.7,0.8,7.4,1.6,11.1c0.3,1.9,0.7,3.8,1.2,5.6
			c0.4,0.9,1,1.8,1.7,2.7c1.2-3.8,2.4-6.9,3-10c0.8-4.2-0.6-8-3.1-11.5c-1-1.6-1.7-3.5-1.9-5.4c-0.2-2.3-0.2-4.6,0-6.8l6.3-1.5
			c-0.9-0.9-1.4-1.5-2-2c-0.3-0.2-0.7-0.3-1-0.2c-5.1,0.5-7.1-2.9-9-6.8c-1.6-2.8-3.3-5.5-5.2-8.2c2.3,0.8,4.7,1.3,6.8,2.4
			c4.7,2.8,10,5.2,13,10.2c2,3.3,4.2,6.5,5.6,10c2.6,6.8,6.8,12.4,11.8,17.6c0.4,0.5,0.7,0.9,1,1.4c0.5-0.7,1.3-1.3,1.2-1.7
			c-1-4.1-1.8-8.2-3.3-12.1c-1.9-4.8-4.8-9.1-9.8-11.5c-1.3-0.6-2.4-1.6-3.1-2.8c-2.5-4.6-6.4-7.5-10.8-9.8c-4.6-2.4-9.3-4.6-14.1-7
			c3.2-0.3,6.5-0.8,9.9-1c3.9-0.3,7.7-0.3,11.6-0.6c1.8-0.1,3.5,0.5,4.8,1.6c5.6,3.9,7.8,9.9,10.6,15.6c1.5,2.8,3.3,5.4,5.4,7.7
			c2.7,3.4,5.7,6.5,9,9.4c5.4,4.6,11.9,7.2,18.7,9.2c2.5,0.7,4.8,1.7,7.3,2.6c-3.5-18.9-14.2-40.8-45.4-45.8c1.3-0.6,2-1.3,2.8-1.3
			c5.5,0,10.9,0.1,16.4,0.4c5.1,0.2,10,1,14.1,4.8c1.9,1.5,4,2.7,6.4,3.4c6.3,2.4,9.1,7.5,11,13.4c2.1,6.5,5.2,12.2,10.6,16.6
			c2.1,1.9,4,3.9,5.8,6c2.8-1.2,2.4-3.1,1.7-5.1c-1.6-4.7-3.1-9.4-5-14s-5.4-7.7-9-10.8c-4.8-4.2-11-5.7-16.2-9
			c-2.2-1.4-4.6-2.6-7.6-4.3c1.3-0.2,2.6-0.3,3.9-0.3c3.3,0.5,6.6,1.2,9.9,1.7s6.4,1,9.6,1.6l0.5,0.1c0.1-0.6,0.1-1.2,0.2-1.8
			c-2-0.6-4-1-6-1.3c-8-0.9-16.1-1.5-24.2-2.2c-2.1-0.2-4.1-0.4-6.2-0.6c4.9-1.8,9.9-3.3,14.9-4.5c6.5-1.5,13-3.1,19-6.1
			c2.9-1.4,5.8-2.7,8.7-4c1.1-0.6,2.3-1,3.5-1.3c5.2-0.3,10.4-0.7,15.6-0.7c6.8,0.1,13.7,0.7,20.5,0.8c3.3-0.1,6.6-0.4,9.9-1
			c2.7-0.4,5.2-1.5,7.9-1.9c4.1-0.5,8-1.8,11.7-3.7c4.3-2.3,8.7-4.3,13-6.5c0.7-0.4,1.1-1.4,1.6-2.2c-0.9-0.1-1.7-0.2-2.6-0.2
			c-3.5,0-7,0.5-10.5,0c-5.9-0.7-11.8-2.4-17.7-2.7c-6.7-0.3-13.5-1.1-20,1.8c-0.4,0.2-0.8,0.2-1.3,0.2c-5.7,0.2-10.5,3.1-15.4,5.3
			c-4.2,1.9-7.8,4.9-11.8,7.2c-2.3,1.3-4.8,2.2-7.1,3.5c-2,1.1-3.9,2.5-5.8,3.8l-0.5-0.7c3-2.8,6.3-5.3,8.9-8.4
			c8.9-10.4,15.9-22,19.7-35.3c0.2-1.1,0.3-2.3,0.2-3.4l-0.8-0.2c-2,1.8-3.9,3.6-5.9,5.3c-7.6,6-13.5,13.9-17.1,22.8
			c-2.2,4.8-4.6,9.6-7.3,14.1c-0.5,0.9-2,1.3-2.4,2.3c-1,2.4-5.4,7.1-7.8,7.7c-5.5,1.5-10.9,3-16.4,4.3c-3.8,0.9-7.6,1.6-11.4,2.4
			c1.1-1.7,2.6-2.8,3.7-4c2.2-2.4,4-5.3,6.3-7.5c3.2-3,7-5.5,10.3-8.5c4-3.5,7.7-7.3,11.2-11.2c2.2-2.5,3.5-5.8,5.2-8.7l-0.5-0.8
			c-0.9,0.4-2.2,0.5-2.7,1.2c-2.3,3.1-5.4,4.8-8.8,6.4c-1.9,0.9-4,2.2-5,3.8c-4,6.3-9.1,11.9-12.7,18.6c-2.7,4.9-8.1,7.2-11.9,11
			c-1.2,1.2-4.2,0.5-6.4,0.7l-0.4-0.8c1.7-0.8,3.3-1.8,4.8-2.8c2.4-1.8,3-3.2,2.1-5.5c-0.6,0.7-1,1.3-1.4,1.8
			c-4.6,5.2-10.6,7.6-17.3,8.3c-9,1-18.1,1.4-27.1,2.4c-7.4,0.9-14.8,2.5-22.2,3.7l-9.2,1.7c2.6-2.3,5.5-3.9,8.1-6s4.8-4.5,8.3-4.8
			c0.3,0,0.5-0.4,0.8-0.6c3.6-2.7,7.9-2.8,12.1-3c5.1-0.2,10.3,0.7,15.3,0.1c10.3-1.2,19.3-5.7,27.8-11.4c0.4-0.3,0.5-1,0.7-1.5
			c-0.5-0.2-1-0.3-1.5-0.3c-2.4,0.1-4.8,0.5-7.2,0.5c-7.8,0-15.6-0.4-23.4-0.3c-3.9,0.1-7.8,0.4-11.3,2.6c-2,1-4,1.9-6.1,2.6
			l-0.6-0.7c0.6-1.2,1.2-2.5,1.7-3.8c2.6-7.8,5.3-15.5,7.5-23.4c1.7-6.2,2.6-12.6,3.9-18.9c0.3-1.3,0.9-2.6,1.1-3.9
			c0.1-0.4-0.5-0.9-0.7-1.4c-0.4,0.2-0.8,0.5-1.2,0.8c-1.4,2-2.7,4-4.2,6c-3.3,4.5-7.2,8.7-9.7,13.6c-3.1,6.4-4.9,13.4-5.3,20.5
			c-0.3,5.4-1.1,10.7-1.6,16.3c-2.8-1-3.3,0.7-3.5,2.7c-0.4,2.9-1,5.6-3.7,7.4c-5.6,3.7-11.1,7.4-16.7,11.1c-0.6,0.3-1.3,0.5-2,0.6
			c0.9-2.1,2.1-4.2,3.4-6.1c0.3-0.5,0.1-1.3,0.2-2c-0.6,0.2-1.3,0.3-1.6,0.7c-0.9,0.9-1.6,2-2.2,3.1c-2.3,5-6.7,8.7-12,10.2
			c-4,1.3-8,2.3-12.3,3.6l0.9,1.8l-11.8,5.3c-0.1-0.5,0.1-1,0.5-1.4c3.3-3.1,6.7-5.9,9.8-9.2c5.2-5.7,9.2-12.4,11.9-19.6
			c1.1-2.9,3-5.5,4.3-8.3c0.2-0.5-0.2-1.2-0.4-2.3C155,59.6,150,64,145.1,68.4c-1.7,1.4-3.2,3-4.4,4.8c-3,5.6-5.6,11.3-8.5,16.9
			c-1.1,2.2-2.6,4.2-4.1,6.7c0.9,1.2-0.2,1.7-1.7,2.5c-6.6,3.3-13.2,6.9-19.8,10.3c-0.8,0.3-1.7,0.5-2.5,0.7
			c1.8-2.6,3.5-4.7,4.8-6.9c1.9-3.3,3.4-6.7,5.2-10c2.1-4,4.2-8,6.3-12c1.1-2.2,1.6-4.8,3.2-6.5c3-3,6.3-5.9,9.7-8.4
			c6.4-5.2,13.3-9.8,19.4-15.4c4.9-4.4,8.9-9.8,13.1-14.9c2.9-3.4,5.4-7.1,8-10.7c0.4-0.6,0.2-1.6,0.4-3L164,29l0.8,0.6L150.5,43
			l0.5,0.5c4.3-3.8,8.6-7.5,12.9-11.3c0.8-1,1.8-1.8,2.8-2.6c-3,9.7-27.9,33.4-41,39.5l3.2-3.9v0.1c-0.1-0.7-0.4-1.4-0.1-2
			c0.5-1.2,1.6-2.1,1.9-3.3c1.1-4.8,4.5-7.9,7.4-11.5c5.3-6.6,12.3-10.9,19.3-15.2c1.8-1.1,3.8-2,5.6-2.9c-0.4-0.2-0.9-0.2-1.3-0.1
			c-6.3,1.4-11.2,5.5-16.3,8.8c-4.6,2.9-8.3,7.6-11.9,12c-2.3,2.8-3.7,6.3-5.2,9.6c-3.8,8-7.4,16-11.3,24c-2,4.1-4.5,8.1-6.9,12.4
			c0-0.9,0.1-1.8,0.3-2.7c3.9-11.1,3.8-22-1.5-32.8c-2-4-3.7-8.2-5.6-12.3c-0.3-0.5-0.9-1.2-1.4-1.2s-1.1,0.7-1.4,1.2
			c-0.6,1.1-1,2.3-1.3,3.5c-0.7,3.1-1.2,6.2-1.3,9.3c0,7.5,2.8,14.2,6.1,20.8c1.9,3.7,3.9,7.5,2.5,11.9l-3.5,0.3
			c2,2.3,4.6,3.8,3.6,6.7c-0.6,1.7-2,3.1-2.6,4.7c-1.3,3.7-5.1,5.5-6.7,9.2c-0.9,2.1-4.5,2.9-6.9,4.3c0.7-2,1.5-3.9,2.6-5.7
			c0.2-0.8,0.2-1.6,0.1-2.4c-0.9,0.1-1.7,0.4-2.5,0.7c-3.9,2-7.7,4.1-11.6,6.1l-0.6-0.6c0.3-1,0.6-2.1,1-3c0.6-1.6,1.4-3.1,2-4.7
			c2.1-5.5,0.8-11.3,1.6-17c0.5-4.6,1.3-9.2,2.4-13.7c1.2-4.5,2-8.9,0.2-13.3c-1-2.6-2.1-5.5-5.3-6.9c-0.5,4.8-1.5,9.4-1.3,13.8
			c0.4,8.5,1.5,17,2.2,25.5c0.2,1.1,0.2,2.2,0,3.3c-1.5,5.4-3.1,10.8-4.8,16.1c-0.5,0.8-1.2,1.5-2.1,1.9c-6.7,3.3-13,7-17.1,13.5
			c-3,4.6-6,9-9.2,13.8c-0.2-0.5-0.3-1.1-0.3-1.6c0.4-2.4,0.8-4.8,1.3-7.3c0.6-3.2,1.3-6.4,2-9.6c1.1-4.7,2.3-9.5,3.5-14.2
			c2.3-8,3.6-16.1,2.6-24.5c-0.7-7.1-2.5-14.1-5.4-20.6c-2-4.4-4.9-8.4-7.5-12.5c-1.3-1.8-2.7-3.5-4.2-5.1c-0.1,3.4,0,6.1-0.2,8.8
			c-0.7,8.3-2,16.6,0.1,25c2.4,9.3,4.9,18.7,7.2,28.1c0.6,2.6,1,5.3,1.1,7.9c0.2,3,0.2,6,0,9c-0.2,3.4-0.6,6.7-1,10
			c-0.2,0.6-0.5,1.1-0.9,1.6c-1.4-2.5-2.6-4.6-3.8-6.8c-2.7-5.1-5.1-10.2-8-15.2c-2.9-5.1-6.8-9.7-11.3-13.6
			c-3.7-3.2-7.7-6.2-11.3-9.5s-7.2-7-9.4-11.6c-0.3-0.6-1.5-0.9-2.5-1.5c1.8,5.8,3.5,10.9,5,16c2.6,8.7,6,16.9,11.3,24.3
			c4.4,6.1,10,11.2,16.4,15C37,142.5,41.5,144.8,46,147.3z M72.1,158.1c0.7,0.1,1.7,0.6,2.1,0.3c2-1.7,3.9-3.7,5.9-5.4
			c3.7-3.3,7.5-6.5,11.3-9.7c0.5-0.3,1.1-0.5,1.7-0.6c-2,6.5-15.5,17.6-21.9,18.4C71.4,160.1,71.8,159.1,72.1,158.1L72.1,158.1z
			 M66.1,164.5c4-1.6,8.4-1.8,12.6-0.8c3.4,0.7,6.9,1.2,10.4,1.6c3.3,0.4,6.6,0.7,10.4,1.1c-4.4,3-8.8,3.1-13.2,2.5
			c-5.6-0.9-11-2.3-16.5-3.5C68.7,165.2,67.7,164.9,66.1,164.5L66.1,164.5z M129.2,143.6c-2.8,0.7-10-2.9-12.7-7L129.2,143.6z
			 M114.1,136.8c1.6,1.4,3,3,4.7,4.2c1.7,1.1,3.4,2.2,5.3,3.1c-7.2,0-11.5-4.2-14.3-10.7C111.2,134.6,112.7,135.7,114.1,136.8
			L114.1,136.8z M233.1,118.3c0.4-3.4,0.7-6.8,1.1-10.5C235.2,111.5,236.4,115,233.1,118.3z M233.2,113.8l-1.1,0.1l-0.9-9.5l1.1-0.1
			L233.2,113.8z M248.4,94.2l8.2,14C253.4,106.2,249.2,99,248.4,94.2z M255.7,104.7c-2.1-3.5-4.2-7-6.4-10.7
			C251.9,94.4,255.6,100.2,255.7,104.7z M292.9,106.9c-4.7-4.9-9.7-9.8-14.4-15c-2.3-2.6-3.7-6-6.2-8.4c-3.5-3.4-7.6-6.3-11.5-9.4
			c-0.7-0.6-1.5-1.1-2.6-1.8C273.1,73.3,290,91.4,292.9,106.9z M268,80.8c2,1.4,3.6,3.2,4.8,5.3c2.8,4.8,6.8,8.5,10.8,12.3
			c3.8,3.5,7,7.5,9.5,11.9c-6.4-1.4-12-3.3-17.1-6.7c-1.9-1.2-3.8-2.3-5.5-3.7c-5-4-9.2-9-12.3-14.6c-2.7-4.7-5-9.7-7.4-14.6
			c0.3-0.3,0.6-0.5,0.9-0.8C257.1,73.5,262.7,77,268,80.8z M316.8,103.9l-13.3-21.1C311.2,87.8,315,95.3,316.8,103.9L316.8,103.9z
			 M318.2,108.4c-8.5-6.7-14.6-14.9-16.4-25.9L318.2,108.4z M340.1,36.2c13.6-4.1,27.4-2.9,41.1-0.1v1.1c-4.1,0.2-8.3,0.2-12.4,0.6
			c-6.3,0.7-12.6,0.6-18.9,2.3c-5.9,1.6-12.2,1.7-18.3,2.6c-2.8,0.4-5.5,1.1-8.2,1.7C328.3,40.1,334.3,38,340.1,36.2L340.1,36.2z
			 M352.6,47.8c-6.4-0.1-12.9-0.7-19.3-1c-2.9-0.2-5.7-0.2-8.6-0.3c-0.1-0.2-0.1-0.5-0.2-0.7c2.9-0.7,5.8-1.6,8.8-2.2
			s5.9-0.9,8.9-1.3c1.9-0.2,3.9-0.2,5.8-0.5s4.1-1.3,6.1-1.5c6.7-0.6,13.5-1,20.2-1.5c2.6-0.2,5.2-0.8,7.8-1.2
			c2.4-0.3,4.7-0.6,7.1-0.9c0.1,0.3,0.1,0.5,0.2,0.8c-4.5,2-8.8,4.6-13.4,6C368.5,45.8,360.7,47.8,352.6,47.8L352.6,47.8z
			 M325.8,13.9c-1.8,2.9-3.4,5.8-5.3,8.6c-1.7,2.5-3.4,5-3.7,8.1c-0.2,0-0.5,0-0.6,0c-3.1,4.1-6.1,8.3-9.2,12.4
			c-0.1,0.2-0.4,0.2-0.7,0.3C306.8,36.3,318.3,18.4,325.8,13.9L325.8,13.9z M300.6,51.3c0.5-0.6,1-1.3,1.5-1.8
			c2.9-3.2,5.8-6.3,8.6-9.5c1.4-1.4,2.6-2.9,3.8-4.5c0.9-1.6,1.6-3.2,2.3-4.9l0,0L327,13c0.4-0.9,1.1-1.6,1.9-2.1
			c-5.2,16-14.7,30.2-27.6,41L300.6,51.3z M291.3,32.2l-7.4,5.8C284.9,34.1,288.1,33.2,291.3,32.2z M289.9,35.7
			c-1.8,1.7-3.5,3.4-5.4,4.9s-4,2.6-6.1,4C279.6,41.5,282.5,39,289.9,35.7z M216,49.2c3.6-0.7,7.3-1,11-0.9c5.3,0,10.7,0.5,16,0.8
			l0.1,0.5c-4,0.6-8.1,1.7-12.1,1.8c-8.2,0.3-16.4,1.4-24.3,3.3c-0.3,0.1-0.6,0.1-1.7,0.3C208.1,52.1,211.9,50.1,216,49.2z
			 M213.3,8.6c-3.2,6.4-7,12.6-9.4,19.2s-3.3,13.6-5,20.5C196.7,37,203.5,17.8,213.3,8.6z M197,58.3c3.6-7.3,4-15.3,5.8-23
			c0.8-4,1.9-7.8,3.4-11.6c1.5-3.5,4-6.5,5.8-9.9c1-1.9,1.8-3.8,2.6-5.8c-3.5,17.6-6.4,35.5-17,50.9C197.3,58.5,197,58.3,197,58.3z
			 M199.1,59.4c1.5-1,2.8-2.5,4.4-2.9c4.9-1.4,9.9-2.5,15-3.4c3.5-0.6,7.1-0.7,10.7-0.4c5.8,0.4,15.6-2.6,20.2-4.5
			c-0.3,0.4-0.4,1-0.8,1.3c-10.4,6.9-22.8,10.2-35.3,9.3c-4.6-0.3-9.4-1-13.9,1.4L199.1,59.4z M170.8,80c6.2-3.7,13.1-4.8,20-6
			c5.4-1,10.8-2,16.2-3.2c2.3-0.5,4.7-0.3,6.9,0.6c3.8,1.3,6.1,4.1,8.5,6.6c2.1,2.1,2.9,5.3,4.4,8l-0.1,0.7c-9.5-4.6-19.8-7-30.3-7
			c-10.2,0.1-20.5,1.7-30.8,2.6C167.4,81.6,169.1,80.9,170.8,80z M157.2,87.7c0-0.3,0-0.5,0-0.8c23-6,45.9-7.9,68.7,1.7
			c-2.3,0-4.5,0.1-6.7-0.1c-3.9-0.4-7.8-1-11.7-1.4c-3.6-0.3-7.2-0.6-10.8-0.7c-5.9,0-11.8,0.1-17.7,0.3c-7,0.3-14,0.7-21,1.1
			C157.7,87.8,157.4,87.7,157.2,87.7L157.2,87.7z M163.8,89.7c-0.2,0-0.4-0.2-0.7-0.9c2.2-0.5,4.3-0.8,6.5-1
			c3.5-0.2,7.1,0.3,10.5-0.1c13.9-1.5,27.6,1,41.4,2.2c2.8,0.1,5.6-0.1,8.3-0.4c0.1,0.2,0.1,0.5,0.2,0.7c-2.4,1-4.9,1.8-7.4,2.4
			c-5.1,1-10.3,1.8-15.5,2.4c-4.7,0.6-9.4,0.8-14.1,0.7c-3.4-0.1-6.7-1.2-10-1.9C176.6,92.4,170.2,91,163.8,89.7L163.8,89.7z
			 M133.2,91.8c0.9-1.7,1.9-3.5,2.8-5.2c2.2-4.4,4.1-9.1,6.8-13.3c1.9-2.9,4.9-5.1,7.4-7.6c1.2-1.3,2.7-2.4,4.3-3.3l-2.6,4.3
			l2.5-2.4c-2.9,8.3-7.3,15.6-14.1,21.4c1.4-2.7,2.6-5.5,4.1-8.2c1.2-2.2,2.5-4.4,3.8-6.6c-2.3,3.4-4.6,6.7-6.7,10.1
			c-1.6,2.6-2.9,5.5-4.5,8.1c-0.9,1.2-2,2.2-3.1,3.1L133.2,91.8z M101.3,52.8c2.6,11.8,7.3,22.6,6.5,34.5
			C102.8,76.6,96.7,66,101.3,52.8z M102.9,54c7.9,12.3,10.9,29.3,6.2,36.6C109.9,77.6,106.2,65.8,102.9,54z M116.3,110.7
			c5.1,0.4,10.3,0.5,15.4,1.2c5.1,0.7,10.2,2,15.3,3.3s10,2.4,14.9,4s9.6,3.5,14.6,4.8c-20.5-7.9-41.3-14.8-63.8-14
			c0-0.5,0-0.9,0.1-1.4c5.3-0.7,10.7-1.3,16.1-2.2c6.4-0.9,12.9-0.5,19.2,1.2c5,1.2,10.3,1.6,14.9,4.6c6.9,4.4,14.3,8.1,21.5,12.1
			c0.6,0.4,1,1,1.1,1.7l-8.3-1.9l-0.2,0.6l3.4,1.4v0.5c-3.9,0.4-7.8,0.9-11.8,1.1c-3.5,0.2-7,0-10.5,0c-5.6,0-10.7-2-15.8-4.2
			c-8.5-3.8-16.9-7.6-25.3-11.5C116.8,111.8,116.5,111.6,116.3,110.7L116.3,110.7z M81,68c1.6,2,1.6,7-0.4,11.4
			C80.7,75.6,80.9,71.9,81,68z M81.4,64.5c4.1,2.2,4.5,11.4,1,16.3C82.7,75.3,84.8,69.9,81.4,64.5L81.4,64.5z M71.3,141
			c-6.6,6.2-15,8.5-22.6,12.6c8.7-9.6,24.7-25.2,38.5-33.3C82.6,127.7,77.8,134.8,71.3,141z M54.3,140.3c3.7-4.7,7.7-9.1,11.9-13.3
			c1.7-1.5,3.6-2.6,5.7-3.5c6.2-3,12.5-5.8,18.9-8.5c-14.3,11.3-29.3,21.8-41,36.1l-0.8-0.7C50.8,147,52.1,143.3,54.3,140.3
			L54.3,140.3z M42.6,58.8c9.1,9.4,17.5,32.9,10.1,55.7C49.4,95.8,45.9,77,42.6,58.8z M49.1,116.6c-1.7-6.7-3.7-13.3-5.5-19.9
			c-0.6-2.3-1-4.7-1.6-7c-2.2-8.6-1.3-17.4-1.4-26.1c0-0.7,0.6-1.3,0.9-2l0.5,0.1c1.1,4.8,2.3,9.6,3.1,14.4c1.7,9.5,3.3,19,4.7,28.6
			c0.8,5.2,1,10.4,1.3,15.6c0,1.4-0.4,2.8-1.2,3.9C50,121.7,49.6,119.1,49.1,116.6z M32.4,120.5c3.2,5.5,5.9,11.2,8.9,16.7
			c1.5,2.6,2.9,5.3,4,8.1c-5.9-5.9-12.6-10.6-17.6-17.5s-8.1-14.6-10.7-22.6C23.4,108.8,28.8,114.1,32.4,120.5z M6.6,95.8
			c2.5,2.2,5.1,4.5,7.6,6.7c0.5,0.4,0.9,1,1.2,1.6c1.6,3.9,3.5,7.7,4.5,11.8s3.4,7.3,5.5,10.6c3.2,5.1,6.9,9.8,12.2,12.9
			c0.9,0.7,1.7,1.5,2.4,2.4C24.4,136.9,8.8,115.6,6.6,95.8z"/>
	</g>
</g>
</svg>
