<svg xmlns="http://www.w3.org/2000/svg" viewBox="0 0 39.6 32.1"><defs><style>.ace5112c-858a-4803-9dd2-4befed9a8c72{fill:#2f3136;}</style></defs><title>hojad</title><g id="ff6727d3-b5da-4a08-83f9-36e610942e3c" data-name="Capa 2"><g id="a7debc5c-c24e-4093-84fc-dafacb4eff5f" data-name="OBJECTS"><path class="ace5112c-858a-4803-9dd2-4befed9a8c72" d="M19.5.4A.8.8,0,0,0,18.4.1h-.1a11.1,11.1,0,0,0-6.1,9.4,8.4,8.4,0,0,0,2,6.8,33.8,33.8,0,0,1-13-1.7c-1-.3-1.7,1.2-.7,1.5a37,37,0,0,0,14.8,1.8,10.9,10.9,0,0,0,2.2,8.9c2.6,3.5,6.8,3.2,10.3,5.1a.1.1,0,0,0,.1.1.6.6,0,0,0,.8-.2.6.6,0,0,0,.3-.7c-.8-4.5-3.4-7.8-6.6-10.6,5.8,1.1,12.6-1.8,16.9-5.1h0a.9.9,0,0,0,.1-1.3,1.5,1.5,0,0,0-.6-.5c-4.9-1-8.8-3.3-14-2.6a11.9,11.9,0,0,0-6.4,3,16.1,16.1,0,0,0,1.2-3.3A9.3,9.3,0,0,0,19.9,6c-.3-1.7-1.1-3.1-.4-4.8.2-.1.2-.4.1-.6ZM18.1,16.7a11.7,11.7,0,0,1,11.2-4.1c2.8.4,5.2,1.5,7.8,2.3C31.8,18.5,23.2,21.2,18.1,16.7Zm-1.2,1.6c4.3,3,8.6,6.4,10.1,11.5-2.4-.8-5.1-1-7-2.7A8.9,8.9,0,0,1,16.9,18.3Zm.7-15.8a15.7,15.7,0,0,0,.5,3,11.8,11.8,0,0,1-2.5,9.9,7.3,7.3,0,0,1-1.4-7.6A9.4,9.4,0,0,1,17.6,2.5Z"/></g></g></svg>