<svg xmlns="http://www.w3.org/2000/svg" viewBox="0 0 506.11 851.58"><defs><style>.cls-1{fill:#f2c5b1;}.cls-2{fill:#dda38c;}.cls-3{fill:#eda38e;}.cls-4{fill:#cc8d6d;}.cls-5{fill:#66513c;}.cls-6{fill:#b29664;}.cls-7{fill:#845f4d;}.cls-8{fill:#f8f8f8;}.cls-9{fill:#e5b28f;}.cls-10{fill:#d69e78;}.cls-11{fill:#f2d1c9;}.cls-12{fill:#f9fffc;}.cls-13{fill:#333751;}</style></defs><title>mariano</title><g id="Capa_2" data-name="Capa 2"><g id="Illustration"><path class="cls-1" d="M71.44,500.58V376.05H34.92c-19.2,0-35.26,30.39-34.91,71.89.51,60.51,15.71,80.14,34.91,80.14H72.27Q71.46,514.47,71.44,500.58Z"/><path class="cls-2" d="M76.59,417.14H56.7c-11.31,0-20.57,13.7-20.57,30.44h0c0,16.74,9.26,30.44,20.57,30.44H76.59Z"/><g id="Face_02"><g id="ears"><path class="cls-1" d="M433.57,501.28V379.91h36.52c19.2,0,35.26,29.62,34.91,70.06-.51,59-15.71,78.11-34.91,78.11H432.74Q433.55,514.82,433.57,501.28Z"/><path class="cls-2" d="M432.67,421h19.88c11.32,0,20.57,13.7,20.57,30.44h0c0,16.74-9.25,30.44-20.57,30.44H432.67Z"/></g><path id="Face" class="cls-1" d="M297.12,114.58h-85c-94.44,0-171.71,87.81-171.71,195.13L72.27,583.62c31.66,63.32,28.83,82.33,84.92,149.17l10.52,118.79H341.55l6-119.27c45.75-47.64,74.67-100.69,90.22-148.69l31.06-273.91C468.84,202.39,391.57,114.58,297.12,114.58Z"/><path id="Shadow" class="cls-2" d="M249.79,783.74c-86.92.49-64.67-13.62-92.6-51l5.68,35.1c30.22,17.76,60.85,29,86.89,29,25.68,0,65.66-14.21,96.17-32.31l1.63-32.3C314.2,783.06,336.71,783.25,249.79,783.74Z"/><path class="cls-3" d="M159.37,510.18c.8-11.69-15.31-17.62-34.38-17.88H105.06c-8.53,0-15.51,8-15.51,17.89h0c0,9.85,7,17.9,15.51,17.9H125C144.06,527.81,158.48,523.31,159.37,510.18Z"/><path class="cls-3" d="M336.84,510.18c-.79-11.69,15.31-17.62,34.39-17.88h19.92c8.54,0,15.52,8,15.52,17.89h0c0,9.85-7,17.9-15.52,17.9H371.23C352.15,527.81,337.74,523.31,336.84,510.18Z"/><path id="nose" class="cls-4" d="M254.46,589.54c-11.71.26-38.6-17.06-55.39-21.3-6.61-1.66-18.6,2.2-12.07,1.61,17.56-1.58,37.5,28.47,67.46,28.47s49.83-30,67.4-28.47c6.6.59-4.4-2.48-11-.81C294.07,573.28,266.91,589.25,254.46,589.54Z"/><g id="Brows"><path class="cls-5" d="M143,373.9c-1.2-.06-2-.68-2.51-2.47a5.8,5.8,0,0,1,1.82-6.25c1.51-1.05,5.11-3.44,7.5-4,6.95-1.63,32.26.27,33.34.35,1.8.13,3.13,2.5,3,5.28s-1.74,4.87-3.52,4.78h-.06c-3.13-.24-23.49-2.45-32-.46-1,.24-1.92-.6-4.61,1.26A11,11,0,0,1,143,373.9Z"/></g><path id="Hair" class="cls-6" d="M171.15,209.15C201,220.68,233.54,233,247.4,231.09c41.7-5.84,31.88-1.44,45.63-7.33C336.87,205,357.67,180.07,390.92,189c51.11,13.67,57.29,74.72,62.53,116,6.26,49.22,7.8,98.11,7.8,98.11s108.49-201.54-12-303.33C423.61,78,374.63,65.61,374.63,65.61c-9.27-6.72-25.73-6.21-29.47-15.76-10-25.51-33.48,5.87-48.45-.21-12.29-5-63.9-27.69-72.45-37.86-6.17-7.33,1.68,37.35-7.54,36.53-35.53-3.17-81.88-59.69-83.08-46.25-.85,9.56-13,63.65-27.6,64.4-27.1,1.4-30.8-27.06-34.17-24.13C67.68,46,54.8,98.24,45.69,101.49c-12.32,4.4-13.22,26-20.24,36.06C-23.71,208.29,43.67,397,43.67,397,57.1,266.48,56.28,222.05,92.72,195.17c18.22-13.44,37.63-14.89,48.86-5.39"/><path id="Mouth" class="cls-7" d="M254.65,624c-42.61,0-80.5-6.16-104.65-19.43-2.19-1.2-5.57.58-4.52,2.52,27,49.89,54.61,76.3,109.17,76.3s76.55-25.62,109.18-76.3c0,0-2.34-3.72-4.53-2.52C335.15,617.83,297.26,624,254.65,624Z"/></g><path class="cls-8" d="M322.4,624.85c1.71-3,6.82-11.94,6.82-11.94-19.91,9.32-48.13,13.68-79.43,13.68s-59.52-4.36-79.43-13.68c0,0,5.11,9,6.82,11.94,1.42,2.49,33.63,22.48,72.61,22.48C290.77,647.33,321,627.34,322.4,624.85Z"/><path class="cls-9" d="M282.32,699.48c-24.2,13-36.36,13.31-65.06,0"/><path class="cls-10" d="M189.6,541.7c2.32,0-10.2,3.54-9.2,8.85,1,5.54,3,10.21.65,10.21"/><path class="cls-10" d="M315.79,556.67c4.7,8.85,15.59,2.76,0-12.77-4-4-9.41-5-7.8-6.62"/><path class="cls-11" d="M250.25,496.06c4.59,51,19.6,99.65-4.23,84.88-18.62-11.54-60.9-4.86-51.09-62.29l3.66-48.57L217.3,433.5c14-38.68-9.91-35.41,5.25-48.84l7.14-1.59c16.42-1.5,21.78-5.77,19.73,20.28C249.42,403.35,248.59,447.28,250.25,496.06Z"/><path class="cls-8" d="M255.55,683.38c15.09,0,29.34-3.45,42-14.11-2.73-4.23-9.81-10.3-13.66-10.3H227.24c-3.85,0-10.94,3-13.67,7.28C226.2,676.91,240.45,683.38,255.55,683.38Z"/><path id="nose-2" data-name="nose" class="cls-2" d="M254.63,670.08c-23.5,0-42.29-4.15-61.15-8.21-7.43-1.6-20.26-12.93-16.68-9.46,13.11,12.68,44.12,37.92,77.79,37.92s63.5-19.89,76.61-32.57c3.58-3.47,6.75-14-7.31,1C310.7,672.89,278.12,670.08,254.63,670.08Z"/><path id="nose-3" data-name="nose" class="cls-2" d="M250.2,618c-44.18-3.48-41.44-13-60.31-16-7.42-1.18-35.86,4-32.28,6.52,13.11,9.41,47.79,18.39,82.77,18.39,35.49,0,93.36-7.17,106.47-16.57,3.58-2.56-31.7-9.39-39.12-8.2C288.86,605.14,273.63,619.79,250.2,618Z"/><path class="cls-9" d="M275.45,604.22c-4.11,9.84-34.08,11.22-37.56,0"/><g id="Eye_R"><path class="cls-2" d="M189.89,416.27a36.14,36.14,0,0,1-36.14,36.14c-20,0-39-29.72-36.14-36.14,8.19-18.2,16.18-36.15,36.14-36.15A36.15,36.15,0,0,1,189.89,416.27Z"/><path class="cls-12" d="M184.34,421.81a30.6,30.6,0,1,1-30.59-30.59A30.59,30.59,0,0,1,184.34,421.81Z"/><path class="cls-13" d="M168.58,421.81a8.7,8.7,0,0,1-3.9-16.48,19.78,19.78,0,1,0,8.86,16.48c0-.5,0-1-.08-1.5A8.69,8.69,0,0,1,168.58,421.81Z"/></g><g id="Eye_R-2" data-name="Eye_R"><path class="cls-2" d="M388.1,417.14c5.08,9.49-16.18,36.14-36.15,36.14A36.14,36.14,0,1,1,352,381C371.92,381,378.67,399.54,388.1,417.14Z"/><path class="cls-12" d="M382.55,422.69a30.6,30.6,0,1,1-30.6-30.6A30.6,30.6,0,0,1,382.55,422.69Z"/><path class="cls-13" d="M366.78,422.68a8.7,8.7,0,0,1-3.9-16.48,19.78,19.78,0,1,0,8.86,16.49c0-.51,0-1-.08-1.51A8.61,8.61,0,0,1,366.78,422.68Z"/></g><path class="cls-10" d="M334,457.61c17.13,5.74,28.25,13.28,41.87,2.14"/><path class="cls-10" d="M180.34,457.61c-17.14,5.74-28.26,13.28-41.87,2.14"/><g id="Brows-2" data-name="Brows"><path class="cls-5" d="M363.14,374.9c1.2-.06,2-.68,2.51-2.47a5.79,5.79,0,0,0-1.82-6.25c-1.51-1.05-5.1-3.44-7.5-4-8.85-2.08-34.22.41-33.33.35-1.81.13-3.14,2.5-3,5.28s1.74,4.87,3.53,4.78h.05c7.13-.54,26.79-1.68,32-.46,1,.24,1.92-.6,4.61,1.26A11,11,0,0,0,363.14,374.9Z"/></g><path class="cls-11" d="M186.12,755.84c-.79-11.69,28.69-17.63,47.76-17.88v0h0c8.53,0,14.54-5,14.54,4.85l-9.19,13.05c0,9.84,10.57,14.41,2,14.41l-7.39,3.48h0C214.81,773.47,187,769,186.12,755.84Z"/></g></g></svg>