<?xml version="1.0" encoding="utf-8"?>
<!-- Generator: Adobe Illustrator 23.0.2, SVG Export Plug-In . SVG Version: 6.00 Build 0)  -->
<svg version="1.1" id="Capa_1" xmlns="http://www.w3.org/2000/svg" xmlns:xlink="http://www.w3.org/1999/xlink" x="0px" y="0px"
	 viewBox="0 0 1091.5 3462.6" style="enable-background:new 0 0 1091.5 3462.6;" xml:space="preserve">
<style type="text/css">
	.st0{fill:#F2C5B1;}
	.st1{fill:#422747;}
	.st2{fill:#8AA8B7;}
	.st3{fill:#2A2C2D;}
	.st4{fill:#E37B40;}
	.st5{fill:#57325C;}
	.st6{fill:#7E4B87;}
	.st7{fill:none;}
	.st8{fill:#DDA38C;}
	.st9{fill:#EDA38E;}
	.st10{fill:#CC8D6D;}
	.st11{fill:#B29664;}
	.st12{fill:#845F4D;}
	.st13{fill:#F8F8F8;}
	.st14{fill:#E5B28F;}
	.st15{fill:#D69E78;}
	.st16{fill:#F2D1C9;}
	.st17{fill:#F9FFFC;}
	.st18{fill:#555E89;}
</style>
<title>Recurso 4</title>
<g>
	<g id="Illustration">
		<g id="Hand_02">
			<path class="st0" d="M1078.5,1333.3l-86,4l11.1,507.4l-14.5,37.5c0,0,1.2,84.1,15.9,81.7c24.9-4.1-0.4-57,7.4-55.8
				c8.7,1.4,17.4,51.7,17.4,51.7s-35.7,54.5-5.9,69.5c0,0,48.8-58.2,50.6-88.3l-21.7-92.7L1078.5,1333.3z"/>
			<path class="st1" d="M979.4,1204.5c0,0-2.1-88.1-2.1-170c0-75,12-139,34.5-148.8c22.6,8.9,40.3,26.7,55.4,91.5
				c19.8,117.9,24.2,376.1,24.2,376.1c-65,22-107.4,4.1-107.4,4.1L979.4,1204.5z"/>
		</g>
		<g id="Person">
			<path id="Neck" class="st0" d="M837.8,838.6l-60.7,312c-28.8,10.1-60.3,10.1-89.1,0l-60.7-312"/>
			<path class="st2" d="M334,3289h-99.8l290.3-1382.4c0-1.7,0.1-3.3,0.4-5l21.4-124.7h384.9l21.3,124.7c0.3,1.7,0.4,3.3,0.4,5
				L775.2,3289h-99.9L759,2064.8h-81.8L334,3289z"/>
			<g id="Shoese_L">
				<path class="st3" d="M659.5,3375.1c1.2,5.8,3.2,11.4,5.9,16.7c1.2,2.4,3.6,4,6.2,4.3c21,2.9,121.1,17.6,165.7,37.6
					c17.5,7.8,128.6,13.8,160.9,15.4c3.8,0.2,7.2-2.2,8.4-5.8c1.9,5.5,3.8,11.3,2.3,17.5c-0.3,1.1-1.3,1.9-2.5,1.9
					c-17-0.2-143-1.6-165.1-5.2c-23.7-3.9-175.5-40.2-182.8-43.4C650.9,3410.7,656.6,3391.3,659.5,3375.1z"/>
				<path class="st4" d="M775.2,3287.7h-100c-28.8,57.8-15.7,93-9.8,104.1c1.2,2.4,3.6,4,6.2,4.3c21,2.9,121.1,17.6,165.7,37.6
					c17.5,7.8,128.6,13.8,160.9,15.4c4.6,0.2,8.5-3.4,8.7-8c0-0.4,0-0.7,0-1.1c-3-39-39.7-85.7-92.4-95.1
					C821.5,3328.5,775.2,3287.7,775.2,3287.7z"/>
			</g>
			<g id="Shoese_R">
				<path class="st3" d="M349.9,3375.1c-1.2,5.8-3.2,11.4-5.9,16.7c-1.3,2.4-3.6,4-6.2,4.3c-21,2.9-121.1,17.6-165.7,37.6
					c-17.5,7.8-128.6,13.8-160.9,15.4c-3.8,0.2-7.2-2.2-8.4-5.8c-1.8,5.5-3.8,11.3-2.3,17.5c0.3,1.1,1.3,1.9,2.5,1.9
					c17-0.2,143-1.6,165.1-5.2c23.7-3.9,175.5-40.2,182.8-43.4C358.5,3410.7,352.8,3391.3,349.9,3375.1z"/>
				<path class="st4" d="M234.2,3287.7H334c28.8,57.8,15.8,93,10,104.1c-1.3,2.4-3.6,4-6.2,4.3c-21,2.9-121.1,17.6-165.7,37.6
					c-17.5,7.8-128.6,13.8-160.9,15.4c-4.6,0.2-8.6-3.4-8.8-8c0-0.3,0-0.7,0-1c3-39,39.7-85.7,92.4-95.1
					C187.9,3328.5,234.2,3287.7,234.2,3287.7z"/>
			</g>
			<path class="st5" d="M415.3,887.7l212.1-49.1l0,0c0,0,96.6,173.7,142.6,173.7s67.8-173.7,67.8-173.7l187.2,43
				c31.6,10.5-26.3,344.6-26.3,344.6c-11.8,45.4-15.8,231-24.5,271.8l17.2,415.2c0,0-261.5,99.8-517.5,0l17.2-415.3
				c-8.7-40.8-37.7-220.3-49.4-265.7C441.6,1232.2,383.7,898.2,415.3,887.7z"/>
			<path class="st6" d="M627.4,838.5L627.4,838.5c0,0,120.6,173.7,142.6,173.7c19.6,0,67.8-173.7,67.8-173.7l30.4,7l-53.8,160.3
				c0,0-20.6,71.9-33.3,74.1c-19.1,3.3-71.2-71.7-71.2-71.7L597,845.6L627.4,838.5z"/>
			<g id="Face_02">
				<line id="Face" class="st7" x1="837.8" y1="838.3" x2="627.4" y2="838.3"/>
			</g>
			<g id="Hand">
				<path class="st0" d="M57.2,1392.2l49-78.9l88.6,54.9l-19,28.8l280,411.1l0,0c7.5,5,39.6,25.7,47.2,21.2
					c17.3-10.4,16.5-23.3,40.4-36.7l23.7-4.3l32.3,11c2.3,35.2-33.6,11-33.6,11c-6.5,7.8-20.4,6.5-20.4,6.5l0.9,20.6
					c2.3,3.9,40.1-12.4,73.9-16.7c0,0,71.9,21.9,69.3,30.6s-40.1,11.6-65.3-2.3c0,0-30.6,0-63.5,16.5l59.8-2.6l65.5,24.8
					c0,0,32.9,12.1-5.2,18.2c0,0,16.8,12.5,11.5,18.2c-20.8,22.5-85.8-37.8-134.3-17c0,0,114,35.5,84.6,45.9s-83.7-20.8-102.7-21.7
					s-27.1,14.3-66.4,6.8c-17.9-3.4-44-37.4-57.3-76.7L59.1,1422.1C52.2,1413.5,51.4,1401.5,57.2,1392.2z"/>
				<path class="st5" d="M447.5,1121.1c44.2-79.4,21.6-212.8,3.6-236.5c-29.1-3.9-58.3,4.5-112.5,64.1
					c-90.4,113.1-247,383.5-247,383.5c55.7,61.6,111.2,67.6,111.2,67.6S399.3,1207.7,447.5,1121.1z"/>
			</g>
		</g>
		<path class="st0" d="M554.2,500.6V376.1h-36.5c-19.2,0-35.3,30.4-34.9,71.9c0.5,60.5,15.7,80.1,34.9,80.1H555
			C554.5,519,554.2,509.8,554.2,500.6z"/>
		<path class="st8" d="M559.4,417.1h-19.9c-11.3,0-20.6,13.7-20.6,30.4l0,0c0,16.7,9.3,30.4,20.6,30.4h19.9V417.1z"/>
		<g id="Face_02-2">
			<g id="ears">
				<path class="st0" d="M916.3,501.3V379.9h36.5c19.2,0,35.3,29.6,34.9,70.1c-0.5,59-15.7,78.1-34.9,78.1h-37.4
					C916.1,519.2,916.3,510.3,916.3,501.3z"/>
				<path class="st8" d="M915.4,421h19.9c11.3,0,20.6,13.7,20.6,30.4l0,0c0,16.7-9.3,30.4-20.6,30.4h-19.9V421z"/>
			</g>
			<path id="Face-2" class="st0" d="M777.6,114.6h-85c-94.4,0-171.7,87.8-171.7,195.1l31.8,273.9c31.7,63.3,28.8,82.3,84.9,149.2
				l-10.3,105.8h210.4l-9.7-106.2c45.8-47.6,74.7-100.7,90.2-148.7l31.1-273.9C949.4,202.4,872.1,114.6,777.6,114.6z"/>
			<path id="Shadow" class="st8" d="M732.6,783.7c-86.9,0.5-66.9-13.6-94.8-51l-3.1,31.8c30.2,17.8,30.3,36,96.6,38.9
				c69.6,3.1,69.3-20.8,99.8-38.9l-3-32.3C794.7,783.1,819.5,783.3,732.6,783.7z"/>
			<path class="st9" d="M642.2,510.2c0.8-11.7-15.3-17.6-34.4-17.9h-19.9c-8.5,0-15.5,8-15.5,17.9l0,0c0,9.8,7,17.9,15.5,17.9h19.9
				C626.8,527.8,641.3,523.3,642.2,510.2z"/>
			<path class="st9" d="M819.6,510.2c-0.8-11.7,15.3-17.6,34.4-17.9h19.9c8.5,0,15.5,8,15.5,17.9l0,0c0,9.8-7,17.9-15.5,17.9H854
				C834.9,527.8,820.5,523.3,819.6,510.2z"/>
			<path id="nose" class="st10" d="M737.3,578.1c-11.7,0.3-38.7-10.6-55.4-14.8c-6.6-1.7-18.6,2.2-12.1,1.6
				c17.6-1.6,37.7,22.5,67.6,22.5s49.7-24,67.2-22.5c6.6,0.6-4.4-2.5-11-0.8C776.8,568.3,749.7,577.8,737.3,578.1z"/>
			<g id="Brows">
				<path class="st11" d="M625.8,373.9c-1.2-0.1-2-0.7-2.5-2.5c-0.7-2.3,0-4.7,1.8-6.3c1.5-1,5.1-3.4,7.5-4c7-1.6,32.3,0.3,33.3,0.4
					c1.8,0.1,3.1,2.5,3,5.3s-1.7,4.9-3.5,4.8h-0.1c-3.1-0.2-23.5-2.5-32-0.5c-1,0.2-1.9-0.6-4.6,1.3
					C627.8,373,626.8,373.6,625.8,373.9z"/>
			</g>
			<path id="Hair" class="st11" d="M653.9,209.2c29.8,11.5,62.4,23.9,76.3,21.9c41.7-5.8,31.9-1.4,45.6-7.3
				c43.8-18.8,64.6-43.7,97.9-34.8c51.1,13.7,57.3,74.7,62.5,116c6.3,49.1,7.8,98,7.8,98s49.7-196.6-12-303.3
				c-16.8-29.1-74.6-34.1-74.6-34.1c-9.3-6.7-25.7-6.2-29.5-15.8c-10-25.5-33.5,5.9-48.5-0.2c-12.3-5-63.9-27.7-72.5-37.9
				c-6.2-7.3,1.7,37.3-7.5,36.5c-35.5-3.2-81.9-59.7-83.1-46.3c-0.9,9.6-13,63.6-27.6,64.4c-27.1,1.4-30.8-27.1-34.2-24.1
				c-4.2,3.7-17.1,55.9-26.2,59.2c-12.3,4.4-3.2,23.9-9.6,34.4c-42.9,71.5,15,266.1,15,266.1c13.4-130.5,5.1-180,41.6-206.9
				c18.2-13.4,37.6-14.9,48.9-5.4"/>
			<path id="Mouth" class="st12" d="M737.4,623c-66.9-5-83.9-25.3-103.2-11.9c-4.6,3.2-1.3,1-1.3,1c27,49.9,49.9,70.3,104.5,70.3
				s62.3-4.8,95-55.5c0,0,6.8-16.9,4.3-17.5C810.5,603.9,779.9,626.2,737.4,623z"/>
		</g>
		<path class="st13" d="M805.2,624.9l6.8-11.9c-19.9,9.3-48.1,13.7-79.4,13.7s-59.5-4.4-79.4-13.7l6.9,11.9
			c1.4,2.5,33.6,22.5,72.6,22.5C773.5,647.3,803.8,627.3,805.2,624.9z"/>
		<path class="st14" d="M765.1,699.5c-24.2,13-36.4,13.3-65,0"/>
		<path class="st15" d="M669.4,535.7c2.3,0-10.2,3.5-9.2,8.8c1,5.5,3,10.2,0.7,10.2"/>
		<path class="st15" d="M798.6,552.9c4.7,8.8,15.6,2.8,0-12.8c-4-4-9.4-5-7.8-6.6"/>
		<path class="st16" d="M733,489.1c4.6,51,19.6,99.7-4.2,84.9c-18.6-11.5-60.9-4.9-51.1-62.3l3.7-48.6l18.7-36.6
			c14-38.7-9.9-35.4,5.2-48.8l7.2-1.6c16.4-1.5,21.8-5.8,19.7,20.3C732.2,396.4,731.4,440.3,733,489.1z"/>
		<path id="nose-2" class="st8" d="M738,664.4c-23.5,0-42.9-1.5-61.7-5.6c-7.4-1.6-19.7-10.4-16.7-6.4
			c10.1,13.5,44.1,37.9,77.8,37.9s63.5-19.9,76.6-32.6c3.6-3.5,6.7-8.8-9.8-1C786.7,665,761.5,664.4,738,664.4z"/>
		<path id="nose-3" class="st8" d="M733,618c-44.2-3.5-41.4-13-60.3-16c-7.4-1.2-35.9,4-32.3,6.5c13.1,9.4,47.8,18.4,82.8,18.4
			c35.5,0,93.4-7.2,106.5-16.6c3.6-2.6-31.7-9.4-39.1-8.2C771.6,605.1,756.4,619.8,733,618z"/>
		<path class="st14" d="M759.9,604.2c-4.1,9.8-42.2,11.2-45.6,0"/>
		<g id="Eye_R">
			<path class="st8" d="M672.7,416.3c0,20-16.2,36.1-36.1,36.1c-20,0-39-29.7-36.1-36.1c8.2-18.2,16.2-36.1,36.1-36.1
				C656.5,380.1,672.7,396.3,672.7,416.3z"/>
			<path class="st17" d="M667.1,421.8c0,16.9-13.7,30.6-30.6,30.6c-16.9,0-30.6-13.7-30.6-30.6c0-16.9,13.7-30.6,30.6-30.6
				c0,0,0,0,0,0C653.4,391.2,667.1,404.9,667.1,421.8z"/>
			<path class="st18" d="M651.4,421.8c-4.8,0-8.7-3.9-8.7-8.7c0-3.3,1.9-6.3,4.8-7.8c-9.1-6-21.4-3.5-27.4,5.6
				c-6,9.1-3.5,21.4,5.6,27.4s21.4,3.5,27.4-5.6c2.1-3.2,3.3-7,3.3-10.9c0-0.5,0-1-0.1-1.5C654.8,421.3,653.1,421.8,651.4,421.8z"/>
		</g>
		<g id="Eye_R-2">
			<path class="st8" d="M870.9,417.1c5.1,9.5-16.2,36.1-36.1,36.1c-20,0-36.1-16.2-36.1-36.1c0-20,16.2-36.1,36.1-36.1c0,0,0,0,0,0
				C854.7,381,861.4,399.5,870.9,417.1z"/>
			<path class="st17" d="M865.3,422.7c0,16.9-13.7,30.6-30.6,30.6c-16.9,0-30.6-13.7-30.6-30.6c0-16.9,13.7-30.6,30.6-30.6
				c0,0,0,0,0,0C851.6,392.1,865.3,405.8,865.3,422.7z"/>
			<path class="st18" d="M849.6,422.7c-4.8,0-8.7-3.9-8.7-8.7c0-3.3,1.9-6.3,4.8-7.8c-9.1-6-21.4-3.5-27.4,5.6
				c-6,9.1-3.5,21.4,5.6,27.4c9.1,6,21.4,3.5,27.4-5.6c2.1-3.2,3.3-7,3.3-10.9c0-0.5,0-1-0.1-1.5C853,422.2,851.3,422.7,849.6,422.7
				z"/>
		</g>
		<path class="st15" d="M816.7,457.6c17.1,5.7,28.3,13.3,41.9,2.1"/>
		<path class="st15" d="M663.1,457.6c-17.1,5.7-28.3,13.3-41.9,2.1"/>
		<g id="Brows-2">
			<path class="st11" d="M845.9,374.9c1.2-0.1,2-0.7,2.5-2.5c0.7-2.3,0-4.7-1.8-6.3c-1.5-1-5.1-3.4-7.5-4
				c-8.8-2.1-34.2,0.4-33.3,0.4c-1.8,0.1-3.1,2.5-3,5.3s1.7,4.9,3.5,4.8l0,0c7.1-0.5,26.8-1.7,32-0.5c1,0.2,1.9-0.6,4.6,1.3
				C843.8,374,844.8,374.6,845.9,374.9z"/>
		</g>
		<path class="st16" d="M668.9,755.8c-0.8-11.7,28.7-17.6,47.8-17.9l0,0l0,0c8.5,0,14.5-5,14.5,4.8l-9.2,13c0,9.8,10.6,14.4,2,14.4
			l-7.4,3.5l0,0C697.6,773.5,669.8,769,668.9,755.8z"/>
		<g id="Brows-3">
			<path class="st11" d="M625.8,373.9c-1.2-0.1-2-0.7-2.5-2.5c-0.7-2.3,0-4.7,1.8-6.3c1.5-1,5.1-3.4,7.5-4c7-1.6,32.3,0.3,33.3,0.4
				c1.8,0.1,3.1,2.5,3,5.3s-1.7,4.9-3.5,4.8h-0.1c-3.1-0.2-23.5-2.5-32-0.5c-1,0.2-1.9-0.6-4.6,1.3
				C627.8,373,626.8,373.6,625.8,373.9z"/>
		</g>
	</g>
</g>
</svg>
